<svg xmlns="http://www.w3.org/2000/svg" viewBox="0 0 565.5 530.38"><defs><style>.cls-1{opacity:0.15;}.cls-2,.cls-3{fill:none;stroke:#19005a;stroke-miterlimit:10;stroke-width:1.63px;}.cls-2{stroke-dasharray:13.91 13.91;}</style></defs><title>dashed-cirles</title><g id="Calque_2" data-name="Calque 2"><g id="contenu"><g class="cls-1"><path class="cls-2" d="M319.44,365.89c-10.5,16.4-22,33-38.69,43.56-8.52,5.41-18.08,9.05-27.6,12.53-12.8,4.68-26.7,9.22-39.75,5.77-7.8-2.06-14.46-6.8-20.9-11.47q-75.18-54.6-145.13-115.49c-19.54-17-39.72-36-45.11-61C-4,210.49,11.41,181,26.35,154.4l17.79-31.65C68.18,80,94.6,34.87,138.77,11.6,150.75,5.29,164,.76,177.56.81c12.49,0,24.53,4,36.1,8.34,59.59,22.48,114.83,59.34,148.6,111.78,10,15.47,18,32.32,21.58,50.32,3.24,16.46,2.57,33.34-.16,49.61a246,246,0,0,1-5.66,25c-.55,2-1.12,4-1.7,6a26.86,26.86,0,0,0-1.18,4,11.33,11.33,0,0,1-.28,2c-2.17,7.09-4.67,14.07-7.37,20.93s-5.65,13.63-8.83,20.25-6.6,13.11-10.25,19.45c-4,6.76-8.14,13.36-12.14,20.1S328,352.28,323.8,359Q321.64,362.47,319.44,365.89Z"/></g><g class="cls-1"><path class="cls-3" d="M203.3,73.45a276.37,276.37,0,0,1,24.49-12.94,273.59,273.59,0,0,1,54.6-18.71c18.91-4.31,38.91-6.56,57.52-1.21,23.78,6.84,42.25,25.06,63.9,37,22.46,12.36,48,17.75,72.57,25.32,18.88,5.83,37.83,13.31,53.3,25.8,3.27,2.63,6.58,5.47,8.75,9.1a38.06,38.06,0,0,1,3.12,8.12c2.62,8.11,7.65,15.26,11.11,23a136.48,136.48,0,0,1,11.94,50.41,121.7,121.7,0,0,1-9.25,51.42c-.31.76-.63,1.5-1,2.25C529,330.38,467.92,368.3,425.44,417.21c-35.6,41-64.27,94.47-119.08,108.84-44.53,11.68-89.8-7.75-128.14-29-53-29.35-105.18-65.89-127.4-118.69A143,143,0,0,1,42,349a162.25,162.25,0,0,1-1.87-44.77,185,185,0,0,1,3.52-22.56q1.23-5.64,2.79-11.19a34.59,34.59,0,0,1,1.68-5.38c.51-1.09,1.34-2,1.9-3,1.57-3,2.33-6.64,3.48-9.84s2.42-6.56,3.71-9.81q3.87-9.75,8.36-19.26a336.52,336.52,0,0,1,74-101.53q5.16-4.83,10.53-9.45c11.25-9.66,23.2-18.61,35.3-27.15q6.66-4.71,13.6-9C200.48,75.15,201.89,74.29,203.3,73.45Z"/></g></g></g></svg>