<svg width="761" height="549" viewBox="0 0 761 549" fill="none" xmlns="http://www.w3.org/2000/svg">
<g clip-path="url(#clip0)">
<path d="M760.3 0C749.8 30 734.4 63.3 711.5 99.3C686 139.5 665.2 89.4 636 144C601 209.4 544.6 224.8 470.5 227.3C337.7 231.7 193.8 274.4 157 429.5C156.8 430.4 156.6 431.2 156.4 432.1C136.5 520.2 89.0001 519.3 22.6001 548.1H730.1C739.1 538.9 749.3 527.5 760.3 514.3V0V0Z" fill="#CEC9E2"/>
<path d="M760.3 34.3C726.6 74.6 680.3 112.3 616.7 137.2C572.1 154.7 513 195.3 483.7 251.7C448.7 319.3 392.1 335.2 317.8 337.7C185.2 342.4 41.6001 386.2 3.90015 544.9C9.40015 546 14.8001 547 20.3001 548.1H760.3V34.3Z" fill="#FBBE25"/>
<path d="M3.2001 548.1C3.3001 547.7 3.4001 547.2 3.5001 546.8C3.6001 546.2 3.8001 545.6 4.0001 544.9C2.7001 544.6 1.4001 544.4 0.100098 544.1L2.2001 548H3.2001V548.1Z" fill="#FBBE25"/>
</g>
<defs>
<clipPath id="clip0">
<rect width="760.3" height="548.1" fill="white"/>
</clipPath>
</defs>
</svg>
