<svg width="662" height="501" viewBox="0 0 662 501" fill="none" xmlns="http://www.w3.org/2000/svg">
<g clip-path="url(#clip0)">
<path d="M406.2 71.38C409.2 76.55 413.37 80.91 418.84 83.22C427.84 87.02 438.28 84.39 447.11 80.22C466.83 70.93 482.34 54.7 500.79 43.1C519.24 31.5 544 25.04 562.35 36.8C573.8 44.15 580.76 57.43 592.87 63.64C604 69.33 617.16 68 629.42 70.22C643.58 72.75 658.53 85.22 659.95 100.22C661.59 117.61 656.38 135.22 646.87 149.7C635.38 167.25 617.38 180.76 596.87 185.58C591.87 186.74 586.71 187.49 582.4 190.2C574.81 194.98 571.85 204.67 571.46 213.63C570.979 221.924 571.2 230.243 572.12 238.5C573.03 245.44 571.25 251.6 569.8 258.43C563.89 286.12 550.8 313.05 527.59 330.16C525.59 331.62 523.55 333 521.47 334.3C517.281 336.865 512.939 339.172 508.47 341.21C493.81 347.98 477.95 352.42 461.91 355.56C453.35 357.23 444.64 358.05 436.04 359.51C430.59 360.44 425.7 362.73 420.34 363.85C405.26 367 387.59 363 372 364C363.59 364.49 355.56 366.28 347.25 366.92C337.98 367.65 329.25 371.72 321.35 376.42C311 382.52 301.29 390 289.9 393.92C282.633 396.409 274.923 397.339 267.273 396.651C259.622 395.963 252.202 393.673 245.495 389.928C238.789 386.183 232.946 381.068 228.346 374.916C223.747 368.764 220.494 361.712 218.8 354.22C215.93 341.52 217.71 328.45 219.14 315.68C220.28 305.55 221.27 295.68 223.25 285.63C224.5 279.29 225.63 272.83 222.77 266.74C210.77 241.27 173.29 247.58 156.77 227.43C151.12 220.53 149.08 211.43 149.66 202.84C150.24 194.25 153.22 186.17 156.66 178.42C159.52 172.06 162.76 165.81 167.25 160.47C179.73 145.61 199.95 139.68 218.25 132.29C229.89 127.6 240.72 121.43 252.08 116.16C254.073 115.378 256 114.435 257.84 113.34C263.17 109.71 266.75 102.84 269.84 97.34C277.54 83.64 282.47 68.64 288.48 54.18C297.23 33.18 310.12 11.6 331.42 3.56997C354.82 -5.19003 384 7.33997 393.63 30.29C397.57 39.62 398.5 49.92 401.3 59.66C402.44 63.7551 404.086 67.6922 406.2 71.38Z" stroke="white" stroke-width="1.56" stroke-miterlimit="10"/>
<path d="M31.2001 187.72C30.9889 201.373 33.1545 214.959 37.6001 227.87C40.5493 236.346 44.7527 244.331 50.0701 251.56C52.5901 254.95 56.0701 257.89 58.0701 261.65C59.3534 264.013 61.0464 266.129 63.0701 267.9C71.7952 276.312 81.7158 283.389 92.5101 288.9C105.631 295.777 119.991 299.968 134.75 301.23C145.536 301.991 156.372 301.656 167.09 300.23C179.591 298.551 191.987 296.17 204.22 293.1C226.51 287.73 248.78 281.46 271.6 279.35C277.25 278.808 282.925 278.575 288.6 278.65C292.6 278.71 296.6 279.24 300.3 277.32C308.982 272.994 317.052 267.536 324.3 261.09L324.77 260.66C349 238.26 363.05 204.51 360.87 173.93C358.69 143.35 340.37 116.86 313.76 105.86C305.11 102.28 295.62 100.21 287.85 95.15C283.881 92.6163 280.628 89.1081 278.4 84.96C276.4 81.2 276.75 76.56 274.95 72.86C271.57 66 263.06 60.36 257.3 56C234.95 39 252.16 42.85 206.59 33.43C187.727 29.6449 168.326 29.3906 149.37 32.68C137.761 34.609 126.412 37.8705 115.55 42.4C109.978 44.741 104.566 47.4469 99.3501 50.5C95.4301 52.77 91.8001 55.52 88.0001 58C86.1101 59.21 84.0801 60.17 82.2501 61.47C80.2501 62.91 78.8201 64.87 77.0101 66.52C75.8601 67.58 74.4901 68.37 73.3401 69.43C71.8684 70.9864 70.6563 72.7691 69.7501 74.71C64.4501 84.28 59.2701 93.93 54.4801 103.76C45.0001 123.26 37.0001 143.69 33.2601 165C32.7801 167.74 32.3901 170.49 32.0701 173.25C31.5286 178.055 31.2382 182.885 31.2001 187.72V187.72Z" stroke="white" stroke-width="1.65" stroke-miterlimit="10" stroke-dasharray="14.96 14.96"/>
<path d="M256.88 356.72C256.88 356.72 180.4 379.45 160 329.25C139.6 279.05 166.88 249.49 174.54 242.83C182.2 236.17 244.2 208.57 273.94 257.16C305.56 308.84 270.77 346.72 270.77 346.72L256.88 356.72Z" fill="#FEE9B5"/>
<path d="M41.8201 140.7C41.8201 140.7 22.4501 98.85 49.4701 83C76.4901 67.15 95.6501 80.31 100.1 84.13C104.55 87.95 125.49 121.13 100.18 142.13C73.2501 164.52 48.6901 147.77 48.6901 147.77L41.8201 140.7Z" fill="#FFB1C4"/>
<path d="M494.71 286C467.4 301.6 354.71 327.63 317.3 235.7C279.89 143.77 329.91 89.7 343.93 77.46C357.95 65.22 471.49 14.73 525.93 103.7C583.84 198.36 522 270.42 494.71 286Z" fill="#EDEBF2"/>
<path d="M579.11 233.42C575.904 234.726 572.583 235.73 569.19 236.42C542.86 241.68 507.7 239.02 496.1 210.49C478.55 167.34 502.02 141.94 508.61 136.21C515.2 130.48 568.48 106.76 594.04 148.53C607.87 171.13 610.88 204.17 591.78 225.21C588.64 228.66 584 231.42 579.11 233.42Z" fill="#8F5FA4"/>
<path d="M570.9 200.88C577.09 207.96 580.11 211 582.9 219.69C584.321 223.788 585.991 227.796 587.9 231.69C590.09 236.39 592.98 239.69 596 243.75C598.14 246.66 601.1 248.75 598.24 252.26C590.58 261.63 580.02 258.58 569.96 260.26" fill="#DCD9E6"/>
<path d="M555.22 195.2C555.22 195.2 571.36 194 576.54 210.14C580.32 221.95 576.32 235.19 575.71 247.14C574.99 261.28 579.99 273.66 575.71 287.71C573.01 296.66 567.87 301.52 557.89 301.62C551.1 301.69 544.62 297.81 540.33 292.62C536.04 287.43 536.2 281.62 536.78 275.12C537.36 268.62 539.84 262.3 540.45 255.9C541.35 246.48 535.78 236.72 530.33 229.47C526.58 224.47 522.8 219.34 520.54 213.47C514.28 197.12 546.14 195.45 555.22 195.2Z" fill="#DCD9E6"/>
<path d="M563.41 196.3C564.97 200.92 566.46 211.51 556.33 212.4C546.93 213.23 539.33 206.19 533.62 197.9C533.62 197.9 548.87 192.44 563.41 196.3Z" fill="#E69965"/>
<path d="M521.58 204C521.37 204.19 499.58 224.78 494.58 248C486.32 286.31 530.7 295.1 530.7 295.1C529.34 294.83 538.88 272.69 539.25 271.29C541.79 261.74 541.25 251.55 539.4 241.93C537.833 234.05 535.615 226.314 532.77 218.8C531.69 215.81 527 198.88 521.58 204Z" fill="#DCD9E6"/>
<path d="M276.76 152.15C287.18 158.74 340.36 171.05 357.34 129.3C374.32 87.55 351.61 63 345.24 57.43C338.87 51.86 287.31 28.94 262.58 69.35C236.28 112.35 265.22 143.84 265.22 143.84C265.22 143.84 266.34 145.56 276.76 152.15Z" fill="#FCDC55"/>
<path d="M347.94 148.43C347.39 138.77 347.35 131.01 338.84 125.75C334.146 123.07 329.066 121.13 323.78 120C314.23 117.76 304.18 114.92 294.28 115.34C283.28 115.81 276.06 120.62 268.28 127.92C262.97 132.92 259.5 136.71 257.4 143.45C254.62 152.45 258.45 158.04 267.03 162.06C278.09 167.26 290.2 165.87 302.09 166.25C320.75 166.84 336.29 163.15 354.17 158.55" fill="#FF7045"/>
<path d="M306.3 104.81C305.75 107.28 305.22 109.75 304.66 112.21C304.07 114.86 303.13 116.26 304.82 117.91C305.106 118.184 305.414 118.435 305.74 118.66C306.77 119.375 307.869 119.984 309.02 120.48C309.62 120.75 310.23 121 310.84 121.23C311.29 121.39 311.74 121.55 312.19 121.69C312.38 121.761 312.578 121.808 312.78 121.83C312.92 121.83 313.05 121.83 313.18 121.83C313.49 121.867 313.797 121.924 314.1 122C314.241 122.028 314.379 122.072 314.51 122.13C314.56 122.13 314.87 122.28 314.87 122.33C314.87 122.02 314.87 121.71 314.87 121.4C314.883 119.47 315.017 117.543 315.27 115.63C315.4 114.63 315.56 113.72 315.75 112.77C315.84 112.3 315.94 111.77 316.05 111.35C316.094 111.194 316.154 111.043 316.23 110.9C316.29 110.749 316.33 110.591 316.35 110.43C316.35 110.33 316.35 109.8 316.48 109.77C317.71 109.45 318.93 109.09 320.13 108.68C320.352 108.624 320.553 108.506 320.71 108.34C320.798 108.206 320.859 108.057 320.89 107.9C321.17 106.82 321.43 105.73 321.65 104.64C322.048 102.755 322.262 100.836 322.29 98.9099C322.29 98.4299 322.29 97.9099 322.29 97.4799C322.27 97.2704 322.27 97.0594 322.29 96.8499C322.29 96.7199 322.36 96.5999 322.39 96.4699C322.465 95.8856 322.465 95.2942 322.39 94.7099C322.355 93.7511 322.235 92.7973 322.03 91.8599C321.726 90.11 320.867 88.5043 319.58 87.2799C309.09 78.3899 307.55 99.1199 306.3 104.81Z" fill="#E69965"/>
<path d="M302.77 399.4C307.509 401.342 312.421 402.832 317.44 403.85C356.39 411.62 408.44 407.7 425.57 365.49C451.57 301.64 416.81 264.07 407.07 255.59C397.33 247.11 318.48 212 280.67 273.81C260.21 307.25 255.75 356.13 284.02 387.26C288.66 392.37 295.57 396.45 302.77 399.4Z" fill="#FF7045"/>
<path d="M333.46 291.38C334.46 296.38 333.28 304.64 332.22 309.69C330.36 318.56 323.47 325.37 317.05 331.28C309.9 337.86 305.11 343.1 301.27 352.28C297.5 361.22 295.71 371.7 297.49 381.64C298.8 388.99 311.92 382.11 314.49 388.39C320.72 403.74 328 397.17 339 397.21C349 397.26 352.35 410.37 357.66 397.99" fill="#66271F"/>
<path d="M314 352.65C304.84 363.12 301.32 366.23 297.14 379.09C295.043 385.154 292.578 391.085 289.76 396.85C286.52 403.85 282.25 408.63 277.76 414.69C274.59 419 270.21 422.09 274.45 427.28C285.78 441.14 301.4 436.63 316.29 439.12" fill="#FFA951"/>
<path d="M336.23 351.7C336.589 351.205 336.904 350.68 337.17 350.13C337.924 348.478 338.452 346.733 338.74 344.94C338.89 344.14 338.94 343.31 339.16 342.52C339.28 342.08 339.51 341.68 339.6 341.23C339.767 339.899 339.73 338.55 339.49 337.23C339.363 334.612 338.298 332.128 336.49 330.23C333.85 327.77 328.61 327.03 327.82 322.97C327.621 321.868 327.7 320.734 328.05 319.67C328.518 318.609 329.102 317.603 329.79 316.67C330.391 315.611 330.692 314.408 330.66 313.19C330.66 311.24 330.66 309.28 330.59 307.32C330.477 303.407 330.25 299.5 329.91 295.6C329.922 295.229 329.856 294.859 329.716 294.515C329.577 294.17 329.367 293.859 329.1 293.6C328.64 293.28 328.01 293.28 327.57 292.94C326.76 292.33 326.98 291.08 327.34 290.14C327.89 288.709 328.59 287.342 329.43 286.06C331.042 283.586 333.116 281.446 335.54 279.76C337.721 278.218 340.197 277.143 342.813 276.604C345.429 276.066 348.128 276.074 350.74 276.63C352.62 276.997 354.408 277.735 356 278.8C361.05 282.26 362.34 289.14 362.29 295.26C362.29 299.48 361.79 303.72 362.29 307.93C362.45 309.886 362.972 311.795 363.83 313.56C364.171 314.375 364.452 315.214 364.67 316.07C365.317 318.003 366.204 319.848 367.31 321.56C369.788 325.217 373.112 328.222 377 330.32C385.74 335.32 395.4 338.86 403.08 345.32C414.75 355.18 418.23 377.65 412.23 385.66C412.23 385.66 396.65 389.78 371.98 386.37" fill="#66271F"/>
<path d="M335 342.35C321.92 346.45 313.32 346.54 305.67 367.95C299.49 385.22 306.92 402.03 307.83 419.77C308.89 440.69 301.5 459 307.77 479.77C311.77 493.01 319.37 500.19 334.14 500.34C344.14 500.44 353.77 494.7 360.14 487.02C366.51 479.34 366.25 470.75 365.38 461.13C364.51 451.51 360.86 442.13 359.96 432.7C358.63 418.76 366.87 404.33 374.96 393.6C380.51 386.21 386.09 378.6 389.44 369.92C398.68 345.71 348.39 342.73 335 342.35Z" fill="#FFA951"/>
<path d="M341.33 322.82C339.58 322.71 337.55 322.44 336.66 320.93L336.54 320.7C336.325 320.151 336.207 319.569 336.19 318.98C336.1 318.3 336.03 317.61 335.97 316.92C335.85 315.55 335.78 314.18 335.77 312.81C335.751 310.151 335.929 307.493 336.3 304.86C336.49 303.54 336.73 302.23 337.01 300.94C337.16 300.29 337.31 299.64 337.48 299C337.663 298.157 338.026 297.363 338.544 296.673C339.061 295.982 339.722 295.412 340.48 295C343.23 293.63 350.48 292.71 352.28 296.64C352.675 297.708 352.858 298.842 352.82 299.98L353.04 307.13C352.858 306.098 352.976 305.036 353.38 304.07C353.493 303.839 353.652 303.633 353.847 303.466C354.042 303.299 354.269 303.174 354.515 303.098C354.76 303.022 355.019 302.997 355.274 303.025C355.53 303.053 355.777 303.133 356 303.26C356.48 303.763 356.743 304.435 356.73 305.13C356.99 307.67 356.84 310.61 354.85 312.22C354.248 312.595 353.691 313.038 353.19 313.54C352.827 314.079 352.594 314.695 352.51 315.34C351.93 318.39 352.19 321.42 352.09 324.48C351.79 334.22 353.33 337.82 356.74 344.37L355.99 346.67C355.99 346.67 353.35 353.49 340 359C339.955 357.363 339.679 355.74 339.18 354.18C338.635 352.742 338.406 351.204 338.51 349.67C338.61 348.24 341.35 322.82 341.33 322.82Z" fill="#FFD2B4"/>
<path d="M334.38 342C331.593 342.589 328.863 343.419 326.22 344.48C324.55 345.156 322.918 345.92 321.33 346.77C320.2 347.38 319.25 347.83 319.01 349.17C318.4 352.59 317.82 356.01 318.61 359.46C319.98 365.41 325.15 368.27 330.92 368.78C344.82 370.01 359.87 358.7 368.36 346.44C367.83 346.07 352.86 341.85 347.48 341.28C345.857 341.056 344.219 340.953 342.58 340.97C340.698 341.048 338.822 341.232 336.96 341.52C336.1 341.633 335.24 341.793 334.38 342Z" fill="#FFD2B4"/>
<path d="M387.88 355.86C388.18 356.14 420.4 386.59 427.81 420.95C440.02 477.63 374.37 490.63 374.36 490.63C376.36 490.23 362.26 457.48 361.71 455.4C357.95 441.27 358.8 426.21 361.49 411.98C363.819 400.321 367.1 388.873 371.3 377.75C372.91 373.36 379.87 348.31 387.88 355.86Z" fill="#FFA951"/>
<path d="M325.12 300.52C335.5 300.68 346.47 298.99 357.22 300.52C359.31 296.75 357.1 289.15 354.31 285.94C351.52 282.73 351.66 277.02 347.62 276.28C342.89 275.42 339.16 277.91 333.73 281.11C330.96 282.74 327.38 288.73 326.44 291.84C326.24 292.54 324.65 300.51 325.12 300.52Z" fill="#66271F"/>
<path d="M326.44 79.4799C324.37 77.5799 322.51 78.5899 319.15 80.4099C319.08 77.5999 320.55 73.2799 317.4 72.6899C313.28 71.9299 307.65 74.8899 306.89 79.6899C305.97 85.4699 299.55 84.2599 301.48 91.2499C302.26 94.6599 305.1 102.53 305.26 105.79C308.19 109.7 309.86 89.6799 314.95 87.9999C322.08 85.6499 321.64 91.9099 322.48 94.9999C322.48 94.9999 325.91 93.5499 323.64 88.9999C321.51 84.7299 329 81.8499 326.44 79.4799Z" fill="#19005A"/>
<path d="M310.25 97.24C310.133 96.7105 309.938 96.2015 309.67 95.73C309.503 95.3806 309.248 95.0808 308.93 94.86C308.764 94.7497 308.573 94.682 308.374 94.6629C308.175 94.6437 307.975 94.6736 307.79 94.75C307.586 94.8729 307.411 95.0404 307.28 95.24C306.094 96.8566 305.598 98.8778 305.9 100.86C306.01 101.762 306.41 102.605 307.04 103.26C307.374 103.593 307.793 103.829 308.251 103.942C308.709 104.055 309.19 104.04 309.64 103.9" fill="#E69965"/>
<path d="M182 262C182 262 141.64 274 130.87 247.5C120.1 221 134.51 205.41 138.55 201.9C142.59 198.39 175.31 183.82 191 209.46C207.69 236.73 189.33 256.72 189.33 256.72L182 262Z" fill="#FF6B90"/>
<path d="M154.58 230.53C152.79 228.83 150.58 227.53 150.49 224.87C150.568 224.32 150.591 223.764 150.56 223.21C150.14 221.54 148.61 220.76 149.05 218.78C149.4 217.19 150.83 215.78 151.41 214.17C152.16 212.17 153.41 210.48 155.77 210.62C157.84 210.74 158.87 211 160.93 210.33C163.19 209.61 164.71 210.16 165.79 212.33C166.122 213.164 166.619 213.922 167.25 214.56C168.31 215.56 169.53 216.09 170.14 217.49C170.96 219.35 170.58 221.96 170.51 223.93C170.4 226.64 167.65 229.1 165.23 229.99C163.8 230.52 162.1 229.99 160.78 230.65" fill="#66271F"/>
<path d="M136.8 259.62C137.14 253.49 137.17 248.56 142.57 245.23C145.546 243.529 148.768 242.298 152.12 241.58C158.18 240.15 164.56 238.36 170.85 238.58C177.85 238.88 182.41 241.93 187.35 246.58C190.72 249.74 192.92 252.16 194.25 256.44C196.02 262.15 193.59 265.69 188.14 268.25C181.14 271.55 173.44 270.66 165.89 270.9C154.05 271.28 144.2 268.9 132.89 266.02" fill="white"/>
<path d="M163.22 231.94C163.56 233.5 163.91 235.07 164.22 236.64C164.53 238.21 165.22 239.21 164.12 240.25C162.79 241.54 158.82 243.18 156.95 243.08C156.95 242.51 157.04 241.94 157.02 241.39L156.96 239.47L156.83 235.62C156.14 235.18 155.03 235.68 154.51 235.04C154.385 234.857 154.303 234.649 154.27 234.43C154.12 233.81 153.98 233.18 153.86 232.55C153.59 231.22 153.39 229.88 153.24 228.55C153.24 228.22 153.17 227.88 153.14 227.55C153.143 227.214 153.113 226.88 153.05 226.55C152.917 225.749 152.944 224.93 153.13 224.14C153.275 222.874 153.855 221.697 154.77 220.81C161.45 215.18 162.43 228.33 163.22 231.94Z" fill="#FFD2B4"/>
<path d="M153.1 222.16C152.888 222.454 152.757 222.799 152.72 223.16C152.705 223.336 152.758 223.512 152.867 223.651C152.977 223.79 153.135 223.883 153.31 223.91C153.556 223.885 153.786 223.775 153.96 223.6C155.161 222.66 156.514 221.933 157.96 221.45C158.26 221.35 158.64 221.28 158.84 221.53C158.935 221.675 158.978 221.848 158.96 222.02L159.11 226.49L159.85 224.79C159.933 224.504 160.118 224.258 160.37 224.1C160.95 223.83 161.49 224.56 161.66 225.18C162.065 226.72 161.924 228.353 161.26 229.8C161.47 229.56 161.87 229.74 162.1 229.96C162.33 230.18 162.6 230.46 162.91 230.38C163.22 230.3 163.27 230.08 163.36 229.85C163.68 228.884 163.806 227.865 163.73 226.85C163.64 223.64 162.79 220.23 160.4 218.08C159.945 217.615 159.392 217.256 158.782 217.029C158.172 216.803 157.519 216.714 156.87 216.77C156.022 216.961 155.231 217.348 154.56 217.9C153.588 218.463 152.871 219.38 152.56 220.46" fill="#66271F"/>
<path d="M545.5 170.14C545.5 170.14 511.9 178.21 504.23 156.03C496.56 133.85 509.05 121.7 512.52 119.03C515.99 116.36 543.43 105.82 555.17 127.52C567.65 150.6 551.73 166.18 551.73 166.18L545.5 170.14Z" fill="#19005A"/>
<path d="M543.35 197.28L549.51 175.79L550.41 164.5C550.41 164.5 558.07 163.66 560.07 168.05C561.289 171.108 561.716 174.424 561.31 177.69C561.31 177.69 561.49 184.42 559.05 183.84C556.61 183.26 554.76 182.61 554.76 182.61L554.24 199.92L543.35 197.28Z" fill="#E69965"/>
<path d="M562.68 164C564.39 166.189 565.288 168.903 565.22 171.68C561.005 172.541 556.712 172.963 552.41 172.94C552.41 172.94 551.2 166.03 548.79 164.78C548.79 164.73 555.59 154.87 562.68 164Z" fill="#19005A"/>
<path d="M552.09 167.68L550.22 170.18L549.51 173.97C549.51 173.97 546.78 169.74 548 165.6L552.31 163.74L552.09 167.68Z" fill="#19005A"/>
<path d="M45.6701 166.76C45.6701 166.76 12.1901 176.76 3.25006 154.76C-5.68994 132.76 6.25006 119.85 9.62006 116.93C12.9901 114.01 40.1201 101.93 53.1401 123.2C66.9801 145.83 51.7501 162.41 51.7501 162.41L45.6701 166.76Z" fill="#FFA951"/>
<path d="M8.20017 164.8C8.49017 159.71 8.51017 155.63 12.9902 152.86C15.465 151.461 18.1393 150.45 20.9202 149.86C25.9202 148.68 31.2402 147.19 36.4502 147.41C42.2602 147.66 46.0402 150.19 50.1402 154.03C52.9402 156.65 54.7702 158.66 55.8702 162.21C57.3302 166.94 55.3102 169.89 50.8002 172.01C44.9802 174.74 38.6002 174.01 32.3402 174.21C22.5202 174.52 14.3402 172.58 4.92017 170.16" fill="#8F5FA4"/>
<path d="M30.1899 147.43L28.8999 142.83L31.2199 143.27C31.2199 143.27 32.6699 138.94 31.5399 136.33C30.6576 134.39 29.6557 132.506 28.5399 130.69L22.8499 135L24.5799 140.13L24.9099 148.57L20.1899 149.87L29.6399 159.5L32.8699 147.41L30.1899 147.43Z" fill="#FFD2B4"/>
<path d="M22.3301 135.89C22.0997 135.136 22.0873 134.332 22.2943 133.571C22.5013 132.81 22.9194 132.123 23.5001 131.59C23.6325 131.452 23.7728 131.322 23.9201 131.2L21.6201 130.13C21.6201 130.13 23.8701 125.95 26.8901 126.67C29.9101 127.39 30.9501 130.83 29.6501 133.84L26.9201 132.58L25.7301 133.58L26.3501 136.47C26.3501 136.47 24.3501 135.53 24.5901 137.2L25.6901 140.94L25.4201 140.74C24.4701 140.05 21.6101 137.84 22.3301 135.89Z" fill="#66271F"/>
<path d="M37.21 274.76L69.7 293.51V256L37.21 274.76Z" fill="#19005A"/>
<path d="M653.84 97.25L660.25 72.15L635.3 79.15L653.84 97.25Z" fill="#FF7045"/>
<path d="M196.112 25.8698L177.552 16.2821L167.965 34.842L186.525 44.4296L196.112 25.8698Z" fill="#FF6B90"/>
<path d="M543.385 307.637L519.906 321.171L533.44 344.649L556.919 331.116L543.385 307.637Z" fill="#FEE9B5"/>
</g>
<defs>
<clipPath id="clip0">
<rect width="661.03" height="500.37" fill="white"/>
</clipPath>
</defs>
</svg>
