<svg width="856" height="653" viewBox="0 0 856 653" fill="none" xmlns="http://www.w3.org/2000/svg">
<g clip-path="url(#clip0)">
<path d="M855.3 2.90005L706.2 1.30005C685 16 710.9 105.3 630.2 232.2C607.8 267.5 589.5 223.5 563.9 271.5C533.2 328.9 483.7 342.4 418.6 344.6C302 348.5 175.7 386 143.3 522.2C143.1 523 142.9 523.7 142.8 524.5C121.4 619.5 99.0002 596.7 18.7002 649H614.1C644.4 649 751.9 496.6 855.4 339.8V2.90005H855.3Z" fill="#CEC9E2"/>
<path d="M855.3 0L750.2 1.3C750.2 1.3 730.2 193.7 546.9 265.5C507.7 280.8 455.8 316.5 430.1 366.1C399.3 425.4 349.7 439.4 284.5 441.6C168.1 445.7 32.7 497.8 0 652C0.7 652.1 1.4 652.3 2.1 652.4H855.3V0V0Z" fill="#FBBE25"/>
</g>
<defs>
<clipPath id="clip0">
<rect width="855.3" height="652.4" fill="white"/>
</clipPath>
</defs>
</svg>
