<svg width="1100" height="649" viewBox="0 0 1100 649" fill="none" xmlns="http://www.w3.org/2000/svg">
<g clip-path="url(#clip0)">
<path d="M1099.2 0H799C797.6 36.1 799.7 102.4 732.7 207.7C706.2 249.4 684.6 197.4 654.3 254.1C618 322 559.5 338 482.5 340.6C344.7 345.2 195.3 389.5 157 550.5C156.8 551.4 156.6 552.3 156.4 553.2C142.8 613.6 116.6 633.7 80.6001 649H777.4C859.1 558.9 993.5 367.2 1099.2 212V0Z" fill="#CEC9E2"/>
<path d="M1099.2 0H828.4C827.1 45.9 807.5 177.7 630.3 247.1C584 265.2 522.6 307.3 492.2 366C455.8 436.2 397.1 452.7 320 455.3C188.5 459.8 46.5 501.6 0 649H1099.2V0Z" fill="#FBBE25"/>
</g>
<defs>
<clipPath id="clip0">
<rect width="1099.2" height="649" fill="white"/>
</clipPath>
</defs>
</svg>
