<svg width="321" height="350" viewBox="0 0 321 350" fill="none" xmlns="http://www.w3.org/2000/svg">
<g clip-path="url(#clip0)">
<path d="M255.6 67.8C234.6 88 278.1 51 263.3 86.5C245.6 128.9 211.1 124.7 173.6 126.3C106.4 129.2 33.6999 156.9 14.9999 257.5C14.8999 258.1 14.7999 258.6 14.6999 259.2C11.2999 278.5 6.2999 291.2 -0.100098 300.3V349.2H290.8C297.8 344 308.2 328.7 320.9 306.6V0C303.4 19.7 281.8 42.6 255.6 67.8Z" fill="#CEC9E2"/>
<path d="M255.6 67.8001C233 79.1001 203.1 105.5 188.3 142.1C170.6 186 142 196.3 104.4 198C68.1 199.6 30.2 208.7 0 233V349.2H321V18.3C303.7 37 282.2 54.5001 255.6 67.8001Z" fill="#FBBE25"/>
</g>
<defs>
<clipPath id="clip0">
<rect width="321" height="349.2" fill="white"/>
</clipPath>
</defs>
</svg>
