<?xml version="1.0" encoding="utf-8"?>
<svg xmlns="http://www.w3.org/2000/svg" xmlns:xlink="http://www.w3.org/1999/xlink" viewBox="0 0 661.03 500.37"><defs><style>.cls-1{fill:#8f5fa4;}.cls-2{fill:#fcdc55;}.cls-3{fill:#ff7045;}.cls-4{fill:#ff6b90;}.cls-5{fill:#ffa951;}.cls-6,.cls-7{fill:none;stroke:#fff;stroke-miterlimit:10;}.cls-6{stroke-width:1.56px;}.cls-7{stroke-width:1.65px;stroke-dasharray:14.96 14.96;}.cls-8{fill:#fee9b5;}.cls-9{fill:#ffb1c4;}.cls-10{fill:#edebf2;}.cls-11{clip-path:url(#clip-path);}.cls-12{fill:#dcd9e6;}.cls-13{fill:#e69965;}.cls-14{clip-path:url(#clip-path-2);}.cls-15{clip-path:url(#clip-path-3);}.cls-16{fill:#66271f;}.cls-17{fill:#ffd2b4;}.cls-18{fill:#19005a;}.cls-19{clip-path:url(#clip-path-4);}.cls-20{fill:#fff;}.cls-21{clip-path:url(#clip-path-5);}</style><clipPath id="clip-path"><path class="cls-1" d="M579.11,233.42a55.77,55.77,0,0,1-9.92,3c-26.33,5.26-61.49,2.6-73.09-25.93-17.55-43.15,5.92-68.55,12.51-74.28s59.87-29.45,85.43,12.32c13.83,22.6,16.84,55.64-2.26,76.68C588.64,228.66,584,231.42,579.11,233.42Z"/></clipPath><clipPath id="clip-path-2"><path class="cls-2" d="M276.76,152.15c10.42,6.59,63.6,18.9,80.58-22.85S351.61,63,345.24,57.43s-57.93-28.49-82.66,11.92c-26.3,43,2.64,74.49,2.64,74.49S266.34,145.56,276.76,152.15Z"/></clipPath><clipPath id="clip-path-3"><path class="cls-3" d="M302.77,399.4a81.32,81.32,0,0,0,14.67,4.45c38.95,7.77,91,3.85,108.13-38.36,26-63.85-8.76-101.42-18.5-109.9S318.48,212,280.67,273.81c-20.46,33.44-24.92,82.32,3.35,113.45C288.66,392.37,295.57,396.45,302.77,399.4Z"/></clipPath><clipPath id="clip-path-4"><path class="cls-4" d="M182,262s-40.36,12-51.13-14.5,3.64-42.09,7.68-45.6,36.76-18.08,52.45,7.56c16.69,27.27-1.67,47.26-1.67,47.26Z"/></clipPath><clipPath id="clip-path-5"><path class="cls-5" d="M45.67,166.76s-33.48,10-42.42-12,3-34.91,6.37-37.83,30.5-15,43.52,6.27c13.84,22.63-1.39,39.21-1.39,39.21Z"/></clipPath></defs><title>illu-hero</title><g id="Calque_2" data-name="Calque 2"><g id="contenu"><path class="cls-6" d="M406.2,71.38c3,5.17,7.17,9.53,12.64,11.84,9,3.8,19.44,1.17,28.27-3,19.72-9.29,35.23-25.52,53.68-37.12s43.21-18.06,61.56-6.3c11.45,7.35,18.41,20.63,30.52,26.84C604,69.33,617.16,68,629.42,70.22c14.16,2.53,29.11,15,30.53,30,1.64,17.39-3.57,35-13.08,49.48-11.49,17.55-29.49,31.06-50,35.88-5,1.16-10.16,1.91-14.47,4.62-7.59,4.78-10.55,14.47-10.94,23.43a147.52,147.52,0,0,0,.66,24.87c.91,6.94-.87,13.1-2.32,19.93-5.91,27.69-19,54.62-42.21,71.73q-3,2.19-6.12,4.14a121.07,121.07,0,0,1-13,6.91c-14.66,6.77-30.52,11.21-46.56,14.35-8.56,1.67-17.27,2.49-25.87,3.95-5.45.93-10.34,3.22-15.7,4.34C405.26,367,387.59,363,372,364c-8.41.49-16.44,2.28-24.75,2.92-9.27.73-18,4.8-25.9,9.5C311,382.52,301.29,390,289.9,393.92a54.72,54.72,0,0,1-71.1-39.7c-2.87-12.7-1.09-25.77.34-38.54,1.14-10.13,2.13-20,4.11-30.05,1.25-6.34,2.38-12.8-.48-18.89-12-25.47-49.48-19.16-66-39.31-5.65-6.9-7.69-16-7.11-24.59s3.56-16.67,7-24.42c2.86-6.36,6.1-12.61,10.59-17.95,12.48-14.86,32.7-20.79,51-28.18,11.64-4.69,22.47-10.86,33.83-16.13a39.37,39.37,0,0,0,5.76-2.82c5.33-3.63,8.91-10.5,12-16,7.7-13.7,12.63-28.7,18.64-43.16,8.75-21,21.64-42.58,42.94-50.61C354.82-5.19,384,7.34,393.63,30.29c3.94,9.33,4.87,19.63,7.67,29.37A51.13,51.13,0,0,0,406.2,71.38Z"/><path class="cls-7" d="M31.2,187.72a117.73,117.73,0,0,0,6.4,40.15,89.77,89.77,0,0,0,12.47,23.69c2.52,3.39,6,6.33,8,10.09a22.7,22.7,0,0,0,5,6.25,123,123,0,0,0,29.44,21,111.44,111.44,0,0,0,42.24,12.33,159.84,159.84,0,0,0,32.34-1,336.68,336.68,0,0,0,37.13-7.13c22.29-5.37,44.56-11.64,67.38-13.75a156.33,156.33,0,0,1,17-.7c4,.06,8,.59,11.7-1.33a109.83,109.83,0,0,0,24-16.23l.47-.43c24.23-22.4,38.28-56.15,36.1-86.73s-20.5-57.07-47.11-68.07c-8.65-3.58-18.14-5.65-25.91-10.71a27.56,27.56,0,0,1-9.45-10.19c-2-3.76-1.65-8.4-3.45-12.1C271.57,66,263.06,60.36,257.3,56c-22.35-17-5.14-13.15-50.71-22.57a155.61,155.61,0,0,0-57.22-.75,153.06,153.06,0,0,0-33.82,9.72,137.51,137.51,0,0,0-16.2,8.1C95.43,52.77,91.8,55.52,88,58c-1.89,1.21-3.92,2.17-5.75,3.47-2,1.44-3.43,3.4-5.24,5.05-1.15,1.06-2.52,1.85-3.67,2.91a20,20,0,0,0-3.59,5.28c-5.3,9.57-10.48,19.22-15.27,29.05C45,123.26,37,143.69,33.26,165c-.48,2.74-.87,5.49-1.19,8.25A139,139,0,0,0,31.2,187.72Z"/><path class="cls-8" d="M256.88,356.72S180.4,379.45,160,329.25s6.88-79.76,14.54-86.42,69.66-34.26,99.4,14.33c31.62,51.68-3.17,89.56-3.17,89.56Z"/><path class="cls-9" d="M41.82,140.7S22.45,98.85,49.47,83s46.18-2.69,50.63,1.13,25.39,37,.08,58c-26.93,22.39-51.49,5.64-51.49,5.64Z"/><path class="cls-10" d="M494.71,286c-27.31,15.6-140,41.63-177.41-50.3s12.61-146,26.63-158.24,127.56-62.73,182,26.24C583.84,198.36,522,270.42,494.71,286Z"/><path class="cls-1" d="M579.11,233.42a55.77,55.77,0,0,1-9.92,3c-26.33,5.26-61.49,2.6-73.09-25.93-17.55-43.15,5.92-68.55,12.51-74.28s59.87-29.45,85.43,12.32c13.83,22.6,16.84,55.64-2.26,76.68C588.64,228.66,584,231.42,579.11,233.42Z"/><g class="cls-11"><path class="cls-12" d="M570.9,200.88c6.19,7.08,9.21,10.12,12,18.81a106.42,106.42,0,0,0,5,12c2.19,4.7,5.08,8,8.1,12.06,2.14,2.91,5.1,5,2.24,8.51-7.66,9.37-18.22,6.32-28.28,8"/><path class="cls-12" d="M555.22,195.2s16.14-1.2,21.32,14.94c3.78,11.81-.22,25.05-.83,37-.72,14.14,4.28,26.52,0,40.57-2.7,8.95-7.84,13.81-17.82,13.91-6.79.07-13.27-3.81-17.56-9s-4.13-11-3.55-17.5,3.06-12.82,3.67-19.22c.9-9.42-4.67-19.18-10.12-26.43-3.75-5-7.53-10.13-9.79-16C514.28,197.12,546.14,195.45,555.22,195.2Z"/><path class="cls-13" d="M563.41,196.3c1.56,4.62,3.05,15.21-7.08,16.1-9.4.83-17-6.21-22.71-14.5C533.62,197.9,548.87,192.44,563.41,196.3Z"/><path class="cls-12" d="M521.58,204c-.21.19-22,20.78-27,44-8.26,38.31,36.12,47.1,36.12,47.1-1.36-.27,8.18-22.41,8.55-23.81,2.54-9.55,2-19.74.15-29.36a145.39,145.39,0,0,0-6.63-23.13C531.69,215.81,527,198.88,521.58,204Z"/></g><path class="cls-2" d="M276.76,152.15c10.42,6.59,63.6,18.9,80.58-22.85S351.61,63,345.24,57.43s-57.93-28.49-82.66,11.92c-26.3,43,2.64,74.49,2.64,74.49S266.34,145.56,276.76,152.15Z"/><g class="cls-14"><path class="cls-3" d="M347.94,148.43c-.55-9.66-.59-17.42-9.1-22.68A52.54,52.54,0,0,0,323.78,120c-9.55-2.24-19.6-5.08-29.5-4.66-11,.47-18.22,5.28-26,12.58-5.31,5-8.78,8.79-10.88,15.53-2.78,9,1.05,14.59,9.63,18.61,11.06,5.2,23.17,3.81,35.06,4.19,18.66.59,34.2-3.1,52.08-7.7"/><path class="cls-13" d="M306.3,104.81c-.55,2.47-1.08,4.94-1.64,7.4-.59,2.65-1.53,4.05.16,5.7a7.35,7.35,0,0,0,.92.75,18.76,18.76,0,0,0,3.28,1.82c.6.27,1.21.52,1.82.75.45.16.9.32,1.35.46a2.41,2.41,0,0,0,.59.14c.14,0,.27,0,.4,0a7.42,7.42,0,0,1,.92.17,2,2,0,0,1,.41.13c.05,0,.36.15.36.2,0-.31,0-.62,0-.93a46.35,46.35,0,0,1,.4-5.77c.13-1,.29-1.91.48-2.86.09-.47.19-1,.3-1.42a2.23,2.23,0,0,1,.18-.45,1.91,1.91,0,0,0,.12-.47c0-.1,0-.63.13-.66,1.23-.32,2.45-.68,3.65-1.09a1.21,1.21,0,0,0,.58-.34,1.24,1.24,0,0,0,.18-.44c.28-1.08.54-2.17.76-3.26a29.84,29.84,0,0,0,.64-5.73c0-.48,0-1,0-1.43a3.35,3.35,0,0,1,0-.63c0-.13.07-.25.1-.38a6.91,6.91,0,0,0,0-1.76,16.1,16.1,0,0,0-.36-2.85,8.28,8.28,0,0,0-2.45-4.58C309.09,78.39,307.55,99.12,306.3,104.81Z"/></g><path class="cls-3" d="M302.77,399.4a81.32,81.32,0,0,0,14.67,4.45c38.95,7.77,91,3.85,108.13-38.36,26-63.85-8.76-101.42-18.5-109.9S318.48,212,280.67,273.81c-20.46,33.44-24.92,82.32,3.35,113.45C288.66,392.37,295.57,396.45,302.77,399.4Z"/><g class="cls-15"><path class="cls-16" d="M333.46,291.38c1,5-.18,13.26-1.24,18.31-1.86,8.87-8.75,15.68-15.17,21.59-7.15,6.58-11.94,11.82-15.78,21-3.77,8.94-5.56,19.42-3.78,29.36,1.31,7.35,14.43.47,17,6.75,6.23,15.35,13.51,8.78,24.51,8.82,10,.05,13.35,13.16,18.66.78"/><path class="cls-5" d="M314,352.65c-9.16,10.47-12.68,13.58-16.86,26.44a158.22,158.22,0,0,1-7.38,17.76c-3.24,7-7.51,11.78-12,17.84-3.17,4.31-7.55,7.4-3.31,12.59,11.33,13.86,26.95,9.35,41.84,11.84"/><path class="cls-16" d="M336.23,351.7a10.35,10.35,0,0,0,.94-1.57,20.23,20.23,0,0,0,1.57-5.19c.15-.8.2-1.63.42-2.42.12-.44.35-.84.44-1.29a13.17,13.17,0,0,0-.11-4,10.92,10.92,0,0,0-3-7c-2.64-2.46-7.88-3.2-8.67-7.26a6.73,6.73,0,0,1,.23-3.3,15.81,15.81,0,0,1,1.74-3,6.7,6.7,0,0,0,.87-3.48c0-1.95,0-3.91-.07-5.87q-.17-5.87-.68-11.72a2.67,2.67,0,0,0-.81-2c-.46-.32-1.09-.32-1.53-.66-.81-.61-.59-1.86-.23-2.8a21.52,21.52,0,0,1,2.09-4.08,22.9,22.9,0,0,1,6.11-6.3,19.35,19.35,0,0,1,15.2-3.13A14.44,14.44,0,0,1,356,278.8c5.05,3.46,6.34,10.34,6.29,16.46,0,4.22-.5,8.46,0,12.67a15.83,15.83,0,0,0,1.54,5.63,18,18,0,0,1,.84,2.51,24.36,24.36,0,0,0,2.64,5.49,27.45,27.45,0,0,0,9.69,8.76c8.74,5,18.4,8.54,26.08,15,11.67,9.86,15.15,32.33,9.15,40.34,0,0-15.58,4.12-40.25.71"/><path class="cls-5" d="M335,342.35c-13.08,4.1-21.68,4.19-29.33,25.6-6.18,17.27,1.25,34.08,2.16,51.82,1.06,20.92-6.33,39.23-.06,60,4,13.24,11.6,20.42,26.37,20.57,10,.1,19.63-5.64,26-13.32s6.11-16.27,5.24-25.89-4.52-19-5.42-28.43c-1.33-13.94,6.91-28.37,15-39.1,5.55-7.39,11.13-15,14.48-23.68C398.68,345.71,348.39,342.73,335,342.35Z"/><path class="cls-17" d="M341.33,322.82c-1.75-.11-3.78-.38-4.67-1.89l-.12-.23a5.12,5.12,0,0,1-.35-1.72c-.09-.68-.16-1.37-.22-2.06-.12-1.37-.19-2.74-.2-4.11a54.18,54.18,0,0,1,.53-7.95c.19-1.32.43-2.63.71-3.92.15-.65.3-1.3.47-1.94a6,6,0,0,1,3-4c2.75-1.37,10-2.29,11.8,1.64a8.78,8.78,0,0,1,.54,3.34l.22,7.15a5.47,5.47,0,0,1,.34-3.06,1.88,1.88,0,0,1,2.62-.81,2.64,2.64,0,0,1,.73,1.87c.26,2.54.11,5.48-1.88,7.09a9.26,9.26,0,0,0-1.66,1.32,4.19,4.19,0,0,0-.68,1.8c-.58,3.05-.32,6.08-.42,9.14-.3,9.74,1.24,13.34,4.65,19.89l-.75,2.3S353.35,353.49,340,359a17.39,17.39,0,0,0-.82-4.82,10.68,10.68,0,0,1-.67-4.51C338.61,348.24,341.35,322.82,341.33,322.82Z"/><path class="cls-17" d="M334.38,342a49.24,49.24,0,0,0-8.16,2.48,50.62,50.62,0,0,0-4.89,2.29c-1.13.61-2.08,1.06-2.32,2.4-.61,3.42-1.19,6.84-.4,10.29,1.37,5.95,6.54,8.81,12.31,9.32,13.9,1.23,28.95-10.08,37.44-22.34-.53-.37-15.5-4.59-20.88-5.16a33.33,33.33,0,0,0-4.9-.31,50.43,50.43,0,0,0-5.62.55Q335.67,341.69,334.38,342Z"/><path class="cls-5" d="M387.88,355.86c.3.28,32.52,30.73,39.93,65.09,12.21,56.68-53.44,69.68-53.45,69.68,2-.4-12.1-33.15-12.65-35.23-3.76-14.13-2.91-29.19-.22-43.42a217.51,217.51,0,0,1,9.81-34.23C372.91,373.36,379.87,348.31,387.88,355.86Z"/></g><path class="cls-16" d="M325.12,300.52c10.38.16,21.35-1.53,32.1,0,2.09-3.77-.12-11.37-2.91-14.58s-2.65-8.92-6.69-9.66c-4.73-.86-8.46,1.63-13.89,4.83-2.77,1.63-6.35,7.62-7.29,10.73C326.24,292.54,324.65,300.51,325.12,300.52Z"/><path class="cls-18" d="M326.44,79.48c-2.07-1.9-3.93-.89-7.29.93-.07-2.81,1.4-7.13-1.75-7.72-4.12-.76-9.75,2.2-10.51,7-.92,5.78-7.34,4.57-5.41,11.56.78,3.41,3.62,11.28,3.78,14.54,2.93,3.91,4.6-16.11,9.69-17.79,7.13-2.35,6.69,3.91,7.53,7,0,0,3.43-1.45,1.16-6C321.51,84.73,329,81.85,326.44,79.48Z"/><path class="cls-13" d="M310.25,97.24a5.43,5.43,0,0,0-.58-1.51,2.23,2.23,0,0,0-.74-.87,1.22,1.22,0,0,0-1.14-.11,1.59,1.59,0,0,0-.51.49,7.57,7.57,0,0,0-1.38,5.62,4.19,4.19,0,0,0,1.14,2.4,2.59,2.59,0,0,0,2.6.64"/><path class="cls-4" d="M182,262s-40.36,12-51.13-14.5,3.64-42.09,7.68-45.6,36.76-18.08,52.45,7.56c16.69,27.27-1.67,47.26-1.67,47.26Z"/><g class="cls-19"><path class="cls-16" d="M154.58,230.53c-1.79-1.7-4-3-4.09-5.66a8.46,8.46,0,0,0,.07-1.66c-.42-1.67-1.95-2.45-1.51-4.43.35-1.59,1.78-3,2.36-4.61.75-2,2-3.69,4.36-3.55,2.07.12,3.1.38,5.16-.29,2.26-.72,3.78-.17,4.86,2a6.69,6.69,0,0,0,1.46,2.23c1.06,1,2.28,1.53,2.89,2.93.82,1.86.44,4.47.37,6.44-.11,2.71-2.86,5.17-5.28,6.06-1.43.53-3.13,0-4.45.66"/><path class="cls-20" d="M136.8,259.62c.34-6.13.37-11.06,5.77-14.39a33.28,33.28,0,0,1,9.55-3.65c6.06-1.43,12.44-3.22,18.73-3,7,.3,11.56,3.35,16.5,8,3.37,3.16,5.57,5.58,6.9,9.86,1.77,5.71-.66,9.25-6.11,11.81-7,3.3-14.7,2.41-22.25,2.65-11.84.38-21.69-2-33-4.88"/><path class="cls-17" d="M163.22,231.94c.34,1.56.69,3.13,1,4.7s1,2.57-.1,3.61c-1.33,1.29-5.3,2.93-7.17,2.83,0-.57.09-1.14.07-1.69l-.06-1.92-.13-3.85c-.69-.44-1.8.06-2.32-.58a1.47,1.47,0,0,1-.24-.61c-.15-.62-.29-1.25-.41-1.88-.27-1.33-.47-2.67-.62-4,0-.33-.07-.67-.1-1a5.12,5.12,0,0,0-.09-1,6.12,6.12,0,0,1,.08-2.41,5.51,5.51,0,0,1,1.64-3.33C161.45,215.18,162.43,228.33,163.22,231.94Z"/></g><path class="cls-16" d="M153.1,222.16a2.08,2.08,0,0,0-.38,1,.7.7,0,0,0,.59.75,1.07,1.07,0,0,0,.65-.31,13.35,13.35,0,0,1,4-2.15c.3-.1.68-.17.88.08a.75.75,0,0,1,.12.49l.15,4.47.74-1.7a1.21,1.21,0,0,1,.52-.69c.58-.27,1.12.46,1.29,1.08a6.88,6.88,0,0,1-.4,4.62c.21-.24.61-.06.84.16s.5.5.81.42.36-.3.45-.53a7.72,7.72,0,0,0,.37-3c-.09-3.21-.94-6.62-3.33-8.77a4.41,4.41,0,0,0-3.53-1.31,5.55,5.55,0,0,0-2.31,1.13,4.35,4.35,0,0,0-2,2.56"/><path class="cls-18" d="M545.5,170.14s-33.6,8.07-41.27-14.11,4.82-34.33,8.29-37,30.91-13.21,42.65,8.49c12.48,23.08-3.44,38.66-3.44,38.66Z"/><path class="cls-13" d="M543.35,197.28l6.16-21.49.9-11.29s7.66-.84,9.66,3.55a19.53,19.53,0,0,1,1.24,9.64s.18,6.73-2.26,6.15-4.29-1.23-4.29-1.23l-.52,17.31Z"/><path class="cls-18" d="M562.68,164a12,12,0,0,1,2.54,7.68,62.36,62.36,0,0,1-12.81,1.26s-1.21-6.91-3.62-8.16C548.79,164.73,555.59,154.87,562.68,164Z"/><path class="cls-18" d="M552.09,167.68l-1.87,2.5-.71,3.79s-2.73-4.23-1.51-8.37l4.31-1.86Z"/><path class="cls-5" d="M45.67,166.76s-33.48,10-42.42-12,3-34.91,6.37-37.83,30.5-15,43.52,6.27c13.84,22.63-1.39,39.21-1.39,39.21Z"/><g class="cls-21"><path class="cls-1" d="M8.2,164.8c.29-5.09.31-9.17,4.79-11.94a27.86,27.86,0,0,1,7.93-3c5-1.18,10.32-2.67,15.53-2.45,5.81.25,9.59,2.78,13.69,6.62,2.8,2.62,4.63,4.63,5.73,8.18,1.46,4.73-.56,7.68-5.07,9.8-5.82,2.73-12.2,2-18.46,2.2-9.82.31-18-1.63-27.42-4.05"/></g><path class="cls-17" d="M30.19,147.43l-1.29-4.6,2.32.44s1.45-4.33.32-6.94a51.51,51.51,0,0,0-3-5.64L22.85,135l1.73,5.13.33,8.44-4.72,1.3,9.45,9.63,3.23-12.09Z"/><path class="cls-16" d="M22.33,135.89a4.18,4.18,0,0,1,1.17-4.3,5,5,0,0,1,.42-.39l-2.3-1.07s2.25-4.18,5.27-3.46,4.06,4.16,2.76,7.17l-2.73-1.26-1.19,1,.62,2.89s-2-.94-1.76.73l1.1,3.74-.27-.2C24.47,140.05,21.61,137.84,22.33,135.89Z"/><polygon class="cls-18" points="37.21 274.76 69.7 293.51 69.7 256 37.21 274.76"/><polygon class="cls-3" points="653.84 97.25 660.25 72.15 635.3 79.15 653.84 97.25"/><rect class="cls-4" x="171.59" y="19.91" width="20.89" height="20.89" transform="translate(34.24 -80.16) rotate(27.32)"/><rect class="cls-8" x="524.86" y="312.64" width="27.1" height="27.1" transform="translate(-90.95 312.42) rotate(-29.96)"/></g></g></svg>