<svg width="1089" height="646" viewBox="0 0 1089 646" fill="none" xmlns="http://www.w3.org/2000/svg">
<g clip-path="url(#clip0)">
<path d="M1088.1 169.2L1036.3 151.1C788.2 133.2 775.6 356 588.2 384.3C430.4 408.1 465.9 515.2 270.2 546.1C159.7 563.4 82.8 612.1 0 645.9H1088.1V169.2Z" fill="#CEC9E2"/>
<path d="M1088.1 0H1074.1C1063.1 24.7 1054.4 53 1048.4 85.3C980.2 452.9 721.5 194.4 559.2 406.2C502.2 476.5 477.5 514.3 339.3 526.4C272.9 532.2 175.3 557.6 95.8998 608.1C77.7998 619.6 60.5998 632.3 43.7998 645.9H1088.2V0H1088.1Z" fill="#F8C208"/>
</g>
<defs>
<clipPath id="clip0">
<rect width="1088.1" height="645.9" fill="white"/>
</clipPath>
</defs>
</svg>
