<svg xmlns="http://www.w3.org/2000/svg" viewBox="0 0 603.95 435.08"><defs><style>.cls-1{opacity:0.2;}.cls-2,.cls-23{fill:#19005a;}.cls-3{fill:#fb6649;}.cls-4{fill:#27348b;}.cls-5{fill:#fdb3a4;}.cls-14,.cls-15,.cls-16,.cls-17,.cls-18,.cls-24,.cls-25,.cls-28,.cls-30,.cls-32,.cls-33,.cls-34,.cls-36,.cls-6,.cls-7,.cls-8{fill:none;}.cls-14,.cls-15,.cls-36,.cls-6{stroke:#bab2cd;}.cls-6{stroke-linejoin:round;stroke-width:1.63px;}.cls-25,.cls-30,.cls-32,.cls-7,.cls-8{stroke:#fff;}.cls-14,.cls-15,.cls-16,.cls-17,.cls-18,.cls-24,.cls-25,.cls-28,.cls-30,.cls-32,.cls-33,.cls-34,.cls-36,.cls-7,.cls-8{stroke-miterlimit:10;}.cls-7{stroke-width:1.85px;}.cls-25,.cls-30,.cls-32,.cls-34,.cls-8{stroke-linecap:round;}.cls-17,.cls-28,.cls-8{stroke-width:1.39px;}.cls-9{fill:#fbbe25;}.cls-10{fill:#ffa951;}.cls-11{fill:#a399bd;}.cls-12{fill:#fff;}.cls-13{fill:#bab2cd;}.cls-14{stroke-width:0.85px;}.cls-15{stroke-width:2.55px;}.cls-16{stroke:#fbbe25;stroke-width:1.36px;}.cls-17{stroke:#c9482e;}.cls-18{stroke:#cec9e2;stroke-width:1.05px;}.cls-19{fill:#fdb6a8;}.cls-20{fill:#6f739c;}.cls-21{fill:#a4aace;}.cls-22{fill:#ffd2b4;}.cls-23{opacity:0.1;}.cls-24{stroke:#a4aace;stroke-width:5.49px;}.cls-25{stroke-width:5.56px;}.cls-26{fill:#66271f;}.cls-27{fill:#2d2e83;}.cls-28{stroke:#d68330;}.cls-29{fill:#f8c208;}.cls-30{stroke-width:1.46px;}.cls-31{fill:#c5bfd6;}.cls-32{stroke-width:2.78px;}.cls-33{stroke:#a399bd;stroke-width:0.93px;}.cls-34{stroke:#f8c208;stroke-width:2.29px;}.cls-35{fill:#cec9e2;}</style></defs><title>illu-hero</title><g id="Calque_2" data-name="Calque 2"><g id="contenu"><g class="cls-1"><ellipse class="cls-2" cx="118.7" cy="432.67" rx="99.48" ry="2.4"/><ellipse class="cls-2" cx="482.09" cy="432.7" rx="121.38" ry="2.31"/></g><rect class="cls-3" x="19.23" y="184.92" width="6.09" height="15.65"/><rect class="cls-4" x="27.33" y="171.55" width="6.09" height="29.02"/><rect class="cls-5" x="35.44" y="145.48" width="6.09" height="55.09"/><rect class="cls-3" x="60.41" y="162.59" width="6.09" height="37.97"/><rect class="cls-4" x="68.52" y="171.55" width="6.09" height="29.02"/><rect class="cls-5" x="76.62" y="157.92" width="6.09" height="42.65"/><rect class="cls-3" x="101.6" y="184.92" width="6.09" height="15.65"/><rect class="cls-4" x="109.7" y="161.4" width="6.09" height="39.17"/><rect class="cls-5" x="117.81" y="170.85" width="6.09" height="29.72"/><line class="cls-6" x1="19.23" y1="205.86" x2="42.12" y2="205.86"/><line class="cls-6" x1="60.41" y1="205.86" x2="83.31" y2="205.86"/><line class="cls-6" x1="101" y1="205.86" x2="123.89" y2="205.86"/><rect class="cls-7" x="0.93" y="135.42" width="141.87" height="86.57"/><rect class="cls-7" x="494.96" y="58.35" width="108.06" height="60.76"/><line class="cls-8" x1="595.56" y1="108.61" x2="502.55" y2="108.61"/><line class="cls-8" x1="595.56" y1="96.09" x2="502.55" y2="96.09"/><line class="cls-8" x1="595.56" y1="83.58" x2="502.55" y2="83.58"/><line class="cls-8" x1="595.56" y1="71.06" x2="502.55" y2="71.06"/><polygon class="cls-9" points="590.64 114.07 582.46 88.22 565.53 98.24 555.01 68.35 530.62 89.34 518.22 84.53 503.09 93.8 502 92.86 518.01 83.06 530.21 87.78 555.84 65.73 566.52 96.07 583.51 86.02 592.29 113.79 590.64 114.07"/><polygon class="cls-10" points="577.46 108.61 569.33 82.14 530.41 108.02 515.23 98.04 506.05 106.02 504.75 105.23 515.06 96.27 530.41 106.36 570.35 79.8 578.33 105.77 590.79 94.04 592.13 94.79 577.46 108.61"/><polygon class="cls-11" points="590.63 86.92 586.98 68.04 549.13 84.17 525.68 77.6 507.74 63.61 508.98 62.77 526.66 76.56 548.98 82.81 588.31 66.05 592.3 86.75 590.63 86.92"/><rect class="cls-3" x="234.14" y="38.53" width="113.94" height="134.11"/><rect class="cls-12" x="289.12" y="25.33" width="136.36" height="160.5"/><circle class="cls-13" cx="303.31" cy="38.17" r="1.34"/><circle class="cls-13" cx="311.01" cy="38.17" r="1.34"/><circle class="cls-13" cx="318.72" cy="38.17" r="1.34"/><path class="cls-14" d="M297.17,47.37H416.56"/><path class="cls-15" d="M337.11,71.33h59.13"/><path class="cls-15" d="M337.11,81.22H382"/><rect class="cls-16" x="307.96" y="69.94" width="12.66" height="12.66"/><path class="cls-15" d="M337.11,98.74h69.53"/><path class="cls-15" d="M337.11,108.64h59.13"/><rect class="cls-16" x="307.96" y="97.36" width="12.66" height="12.66"/><path class="cls-15" d="M337.11,126.16H388.9"/><path class="cls-15" d="M337.11,136.05h55.46"/><rect class="cls-16" x="307.96" y="124.78" width="12.66" height="12.66"/><path class="cls-15" d="M337.11,153.58h59.13"/><path class="cls-15" d="M337.11,163.47h69.53"/><rect class="cls-16" x="307.96" y="152.19" width="12.66" height="12.66"/><path class="cls-17" d="M289.12,88.83H251v-31h38.13"/><path class="cls-17" d="M251,146.68h38.13"/><path class="cls-17" d="M251,157.14h19.07"/><path class="cls-17" d="M251,125.75h38.13"/><path class="cls-17" d="M251,136.21h38.13"/><path class="cls-3" d="M124,427.84H121.8V413.06H124a2.22,2.22,0,0,0,2.16-1.71,2.16,2.16,0,0,0,.06-.51,2.21,2.21,0,0,0-2.22-2.22H36.33a11.83,11.83,0,0,0,0,23.66H124a2.22,2.22,0,0,0,2.22-2.22h0A2.21,2.21,0,0,0,124,427.84Z"/><path class="cls-12" d="M147.77,410.84v19.22H62.3a9.56,9.56,0,0,1-6.78-2.82,4.11,4.11,0,0,1-.29-.3,3.73,3.73,0,0,1-.26-.3l-.25-.3-.23-.31-.2-.3-.11-.17-.27-.44c0-.09-.09-.18-.14-.27s-.09-.17-.13-.26-.09-.19-.12-.28L53.4,424l0-.08-.08-.2a.54.54,0,0,1,0-.1c-.06-.16-.11-.32-.16-.48v-.07l-.07-.25-.09-.36v0c0-.21-.08-.41-.11-.61v-.1c0-.17,0-.35,0-.53v-.8a5.94,5.94,0,0,1,0-.73c0-.25,0-.49.08-.73s0-.31.08-.47.08-.34.12-.51l.09-.3,0-.08,0-.08a3.4,3.4,0,0,1,.12-.34c.06-.17.12-.34.19-.5a7.93,7.93,0,0,1,.4-.83c.07-.14.15-.27.23-.4l.2-.31.08-.13.22-.31.3-.38.27-.3,0-.06.26-.28.07-.07.27-.26.1-.09.25-.21a9.73,9.73,0,0,1,.79-.65l.38-.24.08,0a3.12,3.12,0,0,1,.35-.2l.19-.09.14-.07a6.71,6.71,0,0,1,.83-.36l.45-.15.56-.15.36-.08.38-.08.57-.07.36,0h86.09Z"/><line class="cls-18" x1="54.18" y1="424.69" x2="147.77" y2="424.69"/><line class="cls-18" x1="54.18" y1="416.04" x2="147.77" y2="416.04"/><line class="cls-18" x1="54.18" y1="420.36" x2="147.77" y2="420.36"/><path class="cls-3" d="M152.22,430.06a2.22,2.22,0,0,1-2.23,2.22H62.31a11.83,11.83,0,0,1,0-23.66H150a2.22,2.22,0,0,1,2.23,2.22,2.16,2.16,0,0,1-.06.51,2.24,2.24,0,0,1-2.17,1.71H62.31a7.39,7.39,0,0,0-2.82,14.22l.38.14a7.28,7.28,0,0,0,2.44.42H150a2.22,2.22,0,0,1,2.23,2.21Z"/><path class="cls-19" d="M123,404.93h-1.79V393H123a1.8,1.8,0,0,0,1.75-1.38,2,2,0,0,0,0-.42,1.8,1.8,0,0,0-1.8-1.79H52.21a9.56,9.56,0,0,0,0,19.11H123a1.79,1.79,0,0,0,1.75-1.38,1.92,1.92,0,0,0,0-.41h0A1.8,1.8,0,0,0,123,404.93Z"/><path class="cls-12" d="M142.22,391.22H72.68l-.29,0-.46.07-.31.05-.28.07-.46.12-.36.13a5.58,5.58,0,0,0-.67.28l-.12.06-.14.07a2.69,2.69,0,0,0-.29.16l-.06,0-.31.19a8.06,8.06,0,0,0-.64.52l-.2.18-.08.07-.22.21-.06.06-.21.22,0,.05-.21.24a3.76,3.76,0,0,0-.25.31l-.17.25s0,0-.07.1-.09.14-.16.25-.13.22-.19.33a6.9,6.9,0,0,0-.32.67c-.06.13-.11.26-.16.4l-.09.28,0,.06a.14.14,0,0,0,0,.07,2.17,2.17,0,0,0-.07.24c0,.14-.07.29-.1.41l-.06.38a5.6,5.6,0,0,0-.07.59,3.82,3.82,0,0,0,0,.59v.65c0,.14,0,.28.05.42v.08a3.86,3.86,0,0,0,.09.49v0a2.46,2.46,0,0,0,.07.29l0,.2v.06c0,.13.08.26.13.39l0,.08.06.17,0,.05.09.23c0,.07.07.14.1.22a2.12,2.12,0,0,0,.11.21l.11.22.21.35.09.14.17.24a2.27,2.27,0,0,0,.18.25l.2.25.22.24.23.24a7.72,7.72,0,0,0,5.48,2.28h69V391.22Z"/><line class="cls-18" x1="66.62" y1="401.13" x2="142.22" y2="401.13"/><line class="cls-18" x1="66.62" y1="396.66" x2="142.22" y2="396.66"/><path class="cls-19" d="M145.81,406.73h0a1.8,1.8,0,0,0-1.8-1.79H73.19a5.93,5.93,0,0,1-2-.33l-.32-.12a6,6,0,0,1-3.23-7.79,6.09,6.09,0,0,1,1.84-2.42A5.94,5.94,0,0,1,73.19,393H144a1.8,1.8,0,0,0,1.75-1.38,2,2,0,0,0,.05-.42,1.8,1.8,0,0,0-1.8-1.79H73.19a9.56,9.56,0,0,0,0,19.11H144a1.8,1.8,0,0,0,1.75-1.38,1.92,1.92,0,0,0,.05-.41Z"/><path class="cls-3" d="M172.06,384.92h-2.23V370.15h2.23a2.22,2.22,0,0,0,0-4.44H84.37a11.83,11.83,0,1,0,0,23.66h87.69a2.22,2.22,0,0,0,2.22-2.22h0A2.23,2.23,0,0,0,172.06,384.92Z"/><path class="cls-12" d="M195.81,367.93v19.22H110.34a9.61,9.61,0,0,1-6.79-2.82l-.28-.3-.27-.3-.24-.31a3.55,3.55,0,0,1-.23-.31c-.08-.1-.14-.19-.21-.29l-.11-.17c-.09-.15-.18-.29-.26-.45s-.09-.17-.14-.26-.09-.18-.13-.27l-.13-.27-.12-.28,0-.07-.08-.21,0-.09a4.42,4.42,0,0,1-.15-.48v-.07l-.07-.25a2.37,2.37,0,0,1-.09-.36v0c0-.2-.08-.4-.11-.6v-.11c0-.16,0-.34-.06-.52v-.8a6.19,6.19,0,0,1,0-.74c0-.24,0-.48.09-.72s0-.31.08-.47.07-.34.12-.51.05-.2.08-.3l0-.08,0-.08.12-.34c.06-.18.13-.34.19-.5A9.15,9.15,0,0,1,102,373a4.23,4.23,0,0,1,.23-.41c.08-.13.13-.2.19-.31l.09-.13.21-.3c.1-.13.2-.26.31-.38s.17-.21.26-.3l0-.06a3.57,3.57,0,0,1,.27-.28l.07-.07.27-.26.1-.09.24-.21a9.87,9.87,0,0,1,.8-.65,3,3,0,0,1,.38-.24l.08,0a3.9,3.9,0,0,1,.35-.19l.18-.09.15-.08a7.64,7.64,0,0,1,.83-.35c.14-.05.29-.11.44-.15l.57-.16.35-.08.38-.07.58-.07c.12,0,.23,0,.35,0h86.1Z"/><line class="cls-18" x1="102.21" y1="381.77" x2="195.81" y2="381.77"/><line class="cls-18" x1="102.21" y1="373.13" x2="195.81" y2="373.13"/><line class="cls-18" x1="102.21" y1="377.45" x2="195.81" y2="377.45"/><path class="cls-3" d="M200.25,387.15a2.22,2.22,0,0,1-2.22,2.22H110.34a11.83,11.83,0,1,1,0-23.66H198a2.22,2.22,0,0,1,0,4.44H110.34a7.31,7.31,0,0,0-4.54,1.57,7.53,7.53,0,0,0-2.28,3,7.39,7.39,0,0,0,4,9.66l.38.14a6.93,6.93,0,0,0,2.43.41H198a2.22,2.22,0,0,1,2.22,2.22Z"/><path class="cls-19" d="M171.07,362h-1.79V350.09h1.79a1.81,1.81,0,0,0,1.75-1.38,2,2,0,0,0,.05-.42,1.8,1.8,0,0,0-1.8-1.79H100.25a9.56,9.56,0,1,0,0,19.11h70.82a1.81,1.81,0,0,0,1.75-1.38,2,2,0,0,0,.05-.42h0A1.8,1.8,0,0,0,171.07,362Z"/><path class="cls-12" d="M190.25,348.31H120.72l-.29,0-.47.06-.3.06-.29.07a3.61,3.61,0,0,0-.45.12l-.36.12c-.23.09-.46.18-.68.29l-.11.06-.15.07-.28.16-.07,0-.3.19a8.22,8.22,0,0,0-.65.52l-.2.18-.08.07-.21.21-.06.06-.22.22,0,.05-.22.24-.24.31-.18.24a.42.42,0,0,1-.07.11l-.15.25-.19.32c-.12.22-.23.44-.33.67l-.15.41a2.31,2.31,0,0,0-.1.28l0,.06a.14.14,0,0,1,0,.06l-.07.25c0,.13-.07.28-.09.41s0,.25-.07.38,0,.39-.07.58,0,.4,0,.6v.65c0,.14,0,.28,0,.42v.08l.09.49v0c0,.1,0,.2.07.29l.06.2v.06l.12.39,0,.08.07.16a.14.14,0,0,0,0,.06c0,.08.07.15.1.23l.1.22.1.21.12.21a2.12,2.12,0,0,0,.21.36l.09.14.16.24c.06.08.12.17.19.25l.2.24.21.25.23.24a7.68,7.68,0,0,0,5.48,2.27h69v-15.5Z"/><line class="cls-18" x1="114.66" y1="358.22" x2="190.25" y2="358.22"/><line class="cls-18" x1="114.66" y1="353.75" x2="190.25" y2="353.75"/><path class="cls-19" d="M193.84,363.81h0a1.79,1.79,0,0,0-1.79-1.79H121.23a6,6,0,0,1-2-.33l-.31-.12a6,6,0,0,1-3.23-7.8,6,6,0,0,1,1.83-2.41,5.91,5.91,0,0,1,3.68-1.27h70.82a1.79,1.79,0,0,0,1.74-1.38,1.51,1.51,0,0,0,.05-.42,1.79,1.79,0,0,0-1.79-1.79H121.23a9.56,9.56,0,1,0,0,19.11h70.82a1.79,1.79,0,0,0,1.74-1.38,1.51,1.51,0,0,0,.05-.42Z"/><polygon class="cls-20" points="403.34 114.53 394.22 126.07 408.15 137.08 408.15 118.34 403.34 114.53"/><polygon class="cls-21" points="432.33 137.46 408.15 118.34 408.15 137.08 423.21 148.99 432.33 137.46"/><path class="cls-22" d="M571.85,196.81l-3.16-1.9-4.66,9-9.73,18.75-8.43,16.24c-.52,1-1.07,2-1.6,3a55.41,55.41,0,0,0,7,5.06c1-1.58,2.25-3,3.3-4.59a27.57,27.57,0,0,1,1.69-2.56l4-4.87c1.7-2.05,9-11.62,15.1-19.56A12.69,12.69,0,0,0,571.85,196.81Z"/><rect class="cls-2" x="490.84" y="103.42" width="20.27" height="195.42" transform="translate(32.44 469.28) rotate(-51.66)"/><circle class="cls-23" cx="344.67" cy="77.5" r="68.78"/><circle class="cls-24" cx="344.67" cy="77.5" r="68.78"/><path class="cls-25" d="M318.25,32A52.64,52.64,0,0,1,390.2,51.08"/><path class="cls-22" d="M473.69,157c.26-.74,4.53-11.59,4.53-11.59s-4,.53-2.93-4.3,5.83-15.37,5.83-15.37l7.64,4.62-2.26,29.43Z"/><path class="cls-22" d="M395,194.72a10,10,0,0,1-9.65-15.15l16.7-27c1.59-2.53,7-8.5,5.39-11.6-.66-1.3-1.84-2.29-2.58-3.54a8.31,8.31,0,0,1-.16-7.25c.13-.32.3-.66.79-.6a1.09,1.09,0,0,1,.73.46l6.44,9.24a19,19,0,0,1,2.47,4.32c1.13,3.23-1.08,6.87-2.09,9.89l-3.37,10c-2.56,7.63,1.19,5.94-1.37,13.57-1.82,5.41,11.53,9.4,9.71,14.81Z"/><path class="cls-3" d="M545.78,240.76l26-47.28-59.81-31-19.06-6.78s-44.45-11.07-88.85,5.77l2,49.08,37.68-5.88-2.89,18,74.37,8.66,3-11.06Z"/><path class="cls-4" d="M441.17,222.69s-28.07,84.43-39,151.83C403.35,375.75,396,397,396,397l34.13-2.68L473,282.55s67.52,102,81.07,119.87c0,0,27.3-14.09,29.77-15.29,0,0-41.46-74.21-49.46-96.88s-19.15-58.92-19.15-58.92Z"/><path class="cls-22" d="M566.54,395.33l-12.66,6.57,10.86,19.26,12.94-3.74C572.94,409.45,566.54,395.33,566.54,395.33Z"/><path class="cls-2" d="M593.94,433.09s-8.79-7.35-12.74-10.75a22.82,22.82,0,0,1-3.52-4.92l-12.94,3.74,1,10.44Z"/><polygon class="cls-22" points="397.73 396.16 391.21 418.78 388.46 421.2 400.88 422.06 416.71 394.98 397.73 396.16"/><polygon class="cls-2" points="375.37 432.7 399.54 432.05 400.52 422.67 400.88 422.06 388.46 421.2 375.37 432.7"/><path class="cls-26" d="M164,46.4a5,5,0,0,0-1.58-2.61,12.9,12.9,0,0,0-8-2.83A17.18,17.18,0,0,0,137.05,53c-1.25,4-1,9,1.74,12.43a9.31,9.31,0,0,0,.68.72c.35.36.64.75,1,1.11a14.34,14.34,0,0,1,2.76,3.58,5,5,0,0,1,.36,3.17,4.8,4.8,0,0,1-.77,1.51,6.16,6.16,0,0,1-.86,1c-.24.23-.52.42-.76.65a11.46,11.46,0,0,0-1.05,1.15A14.35,14.35,0,0,0,138.31,81a8.67,8.67,0,0,0-.84,2.26,12.51,12.51,0,0,0,.21,5.2,2.65,2.65,0,0,0,.73,1.33,16.56,16.56,0,0,0,1.43,1.59,7.71,7.71,0,0,0,2.69,1.52,8.87,8.87,0,0,0,3.11.43c1,0,1.91-.31,2.88-.29a10.73,10.73,0,0,1,1.78.33,10.7,10.7,0,0,0,2.88.13,12.33,12.33,0,0,0,1.92-.27,10.84,10.84,0,0,0,6.29-3.92,13,13,0,0,0,2.17-8.68,52,52,0,0,0-1.79-9,36.27,36.27,0,0,1-1.31-9,25.82,25.82,0,0,1,1.8-8.54A27.77,27.77,0,0,0,164,48.31,5.51,5.51,0,0,0,164,46.4Z"/><path class="cls-3" d="M153.43,57.13a4.16,4.16,0,0,1-2.51-3.76,5.68,5.68,0,0,1,1.53-4.18,5.48,5.48,0,0,1,3-1.58c.12,0,.56-.14.6.06s-.31.41-.4.49a11.2,11.2,0,0,0-1.75,1.76,7.32,7.32,0,0,0-1.07,3.25A7.9,7.9,0,0,0,153.43,57.13Z"/><path class="cls-26" d="M169.55,60.74A11.12,11.12,0,0,0,170.66,65a6.11,6.11,0,0,0,1.75,2.27,16.75,16.75,0,0,0,2.25,1.21,9,9,0,0,1,4,4.25,9.91,9.91,0,0,1,.81,4.59,6.82,6.82,0,0,1-.58,2.48,6.43,6.43,0,0,1-1.24,1.74,9.38,9.38,0,0,1-8.56,2.56,6.11,6.11,0,0,1-2.25-.93,6.63,6.63,0,0,1-1.91-2.2,16.46,16.46,0,0,1-1.8-5.65,20.48,20.48,0,0,1,.13-8.18,11.53,11.53,0,0,1,4.39-6.75"/><path class="cls-22" d="M231.5,74.17l9.69-.22c.77,0,1.67,0,2.51,0,.53,1.35,1.05,2.7,1.56,4.06a13.32,13.32,0,0,0-2.45.59C240,79.66,216.3,85,213.31,85.33c-6.77.7-10.48,1.26-16.43,1.92-.53-1.39.67-12.82.67-12.82C202.25,74.33,226.79,74.27,231.5,74.17Z"/><path class="cls-2" d="M172.42,74.13a18.14,18.14,0,0,1,6.48-.48L206,73.43c.2-1.48-6.77,22-10.15,36.05-.24-.12-22.64,2.8-22.64,2.8s-4.3-29.69-3.89-37.33Z"/><path class="cls-27" d="M155.86,78.23l17.35-4.37a1.35,1.35,0,0,1,1.49.58c2.71,4.16,14.61,22.84,12.73,27.53-1.79,4.49-6.5,11.89-6.5,11.89L179.61,129l-33.46-5.24-3.36-11,10.7-34.58Z"/><polygon class="cls-27" points="172.23 344.69 176.31 346.68 149.54 346.68 150.46 341.29 172.23 344.69"/><polygon class="cls-22" points="151.12 336.98 149.54 308.24 162.53 312.18 159.73 336.98 172.23 344.69 150.46 341.29 151.12 336.98"/><polygon class="cls-22" points="127.5 321.24 144.84 292.42 147.14 310.61 133.82 327.55 134.12 342.18 123.69 322.98 127.5 321.24"/><polygon class="cls-27" points="118.73 324.56 123.69 322.98 134.12 342.18 134.62 346.68 118.73 324.56"/><path class="cls-10" d="M179.61,129l24,84.77a50.59,50.59,0,0,1-2.76,35l-21.22,46V323.8H148.13S137,253.28,134.58,226.38s-4.38-51.59,0-66.34,13.95-35.85,13.95-35.85Z"/><path class="cls-27" d="M151.68,78.43l10.26-.28,4.52,33s-16.93,21.16-24,26.91c0,0-9.94-7.47-23.7-23.12l-4-3.41Z"/><rect class="cls-12" x="141.1" y="113.86" width="29.8" height="43.75" transform="matrix(-0.99, -0.14, 0.14, -0.99, 290.8, 292.55)"/><path class="cls-22" d="M125.44,141.58l4.76-14.77,14.74,5,12,4.05a68.88,68.88,0,0,0,8.62,2.77l.24,5.92c-2.9-.3-5.78-.83-8.33-1.09C146,142.28,136.86,142.74,125.44,141.58Z"/><polygon class="cls-22" points="163.73 138.81 164.04 135.63 167.07 132.07 172.1 134.23 174.96 135.56 171.53 145.8 165.77 144.53 160.88 141.54 163.73 138.81"/><path class="cls-22" d="M159.25,79.22l1.4-18.91-1.2-9.52s6.22-2,8.64,1.28a16.63,16.63,0,0,1,2.69,7.79s1.31,5.56-.82,5.49-3.77-.28-3.77-.28l2.55,14.46Z"/><path class="cls-22" d="M161,59.59l-.41-1.34a4,4,0,0,0-1-1.93,1.39,1.39,0,0,0-2,0,1.88,1.88,0,0,0-.31,1.09,10.62,10.62,0,0,0,.63,4.14,3.92,3.92,0,0,0,.88,1.5,1.71,1.71,0,0,0,1.61.45,1.1,1.1,0,0,0,.72-1.39"/><path class="cls-22" d="M151.68,78.43l21.53-4.57s1.55,16.83,1.36,19.69.58,5.34-4.76,1.71S156.07,83.38,151.68,78.43Z"/><path class="cls-26" d="M169.55,48.21A10.2,10.2,0,0,1,173,54.15a52.73,52.73,0,0,1-10.42,3.26s-2.2-5.53-4.41-6.15C158.15,51.26,162.09,41.9,169.55,48.21Z"/><path class="cls-22" d="M111.41,128.87l7.38-14,11.41,11.91L142.92,131l-17.48,10.54-6.71-.19A8.53,8.53,0,0,1,111.41,128.87Z"/><polyline class="cls-22" points="243.7 73.94 251 66.45 264.56 62.41 265.26 64.75 258.71 67.18 259.31 75.36 254.25 79.39 249.3 77.59 242.81 78.58"/><path class="cls-28" d="M179.61,294.72l-6.48-129a9.54,9.54,0,0,0,5.57-7.43"/><polygon class="cls-27" points="130.2 126.81 111.17 111.49 151.68 78.43 136.3 123.25 130.2 126.81"/><path class="cls-22" d="M544.85,248.62l.34-1.47c.45-2,2-3.3,3.58-3h0c2.23.45,3.93,2.86,4.09,5.8l.42,7.25h0a3.09,3.09,0,0,1-4.81-.48l-2.74-3.59A5.63,5.63,0,0,1,544.85,248.62Z"/><path class="cls-26" d="M480.39,121.26c1.92-.89,2.94.3,4.78,2.45.78-2,.88-5.59,3.21-5.25a6.88,6.88,0,0,1,5.44,7.69c-.86,4.48,3.73,4.33,1.72,10.28-1.19,3.53-4.36,3.28-5.32,5.65-3,2.16-6.05.74-5.09-3.09,2.16-8.64-2.17-3.4-2.17-3.4a3.65,3.65,0,0,1-1.69-4.16C482.19,128,478,122.38,480.39,121.26Z"/><path class="cls-29" d="M96.88,36.5A26.66,26.66,0,1,0,71.66,72.16l3.87,10.78,17.18-6.16L88.84,66A26.66,26.66,0,0,0,96.88,36.5Z"/><rect class="cls-30" x="74.14" y="47.92" width="8.16" height="31.79" transform="translate(-16.96 30.18) rotate(-19.74)"/><path class="cls-30" d="M63.09,42.8h0a4.63,4.63,0,0,1,4.63,4.63v4.63a0,0,0,0,1,0,0H63.09a4.63,4.63,0,0,1-4.63-4.63v0a4.63,4.63,0,0,1,4.63-4.63Z" transform="translate(-12.31 24.1) rotate(-19.74)"/><path class="cls-30" d="M79.5,36.91h0a4.63,4.63,0,0,1,4.63,4.63v0a4.63,4.63,0,0,1-4.63,4.63H74.86a0,0,0,0,1,0,0V41.55a4.63,4.63,0,0,1,4.63-4.63Z" transform="translate(-9.36 29.3) rotate(-19.74)"/><path class="cls-31" d="M73.74,74H98a0,0,0,0,1,0,0v9.25A12.13,12.13,0,0,1,85.86,95.4h0A12.13,12.13,0,0,1,73.74,83.28V74A0,0,0,0,1,73.74,74Z" transform="translate(-23.57 33.99) rotate(-19.74)"/><path class="cls-32" d="M50.37,43a21.65,21.65,0,0,1,5-11.47"/><line class="cls-33" x1="83" y1="74.39" x2="95.13" y2="74.63"/><line class="cls-33" x1="71.58" y1="78.49" x2="96.69" y2="78.98"/><line class="cls-33" x1="72.3" y1="82.82" x2="97.51" y2="83.32"/><line class="cls-33" x1="73.86" y1="87.18" x2="96.73" y2="87.62"/><line class="cls-33" x1="76.42" y1="91.55" x2="93.99" y2="91.89"/><line class="cls-34" x1="71.79" y1="1.14" x2="71.79" y2="9.19"/><line class="cls-34" x1="40.42" y1="14.14" x2="46.12" y2="19.83"/><line class="cls-34" x1="103.16" y1="14.14" x2="97.46" y2="19.83"/><line class="cls-17" x1="412.85" y1="158.53" x2="416.56" y2="208.53"/><line class="cls-17" x1="564.06" y1="189.48" x2="539.49" y2="236.08"/><polygon class="cls-12" points="298.31 203.22 262.31 203.22 262.31 259.22 304.31 259.22 304.31 209.22 298.31 203.22"/><polygon class="cls-35" points="298.31 209.22 304.31 209.22 298.31 203.22 298.31 209.22"/><line class="cls-36" x1="268.31" y1="212.72" x2="287.31" y2="212.72"/><line class="cls-36" x1="268.31" y1="218.72" x2="294.31" y2="218.72"/><line class="cls-36" x1="268.31" y1="224.72" x2="295.31" y2="224.72"/><line class="cls-36" x1="268.31" y1="230.72" x2="298.31" y2="230.72"/><line class="cls-36" x1="268.31" y1="236.72" x2="294.31" y2="236.72"/><line class="cls-36" x1="268.31" y1="242.72" x2="295.31" y2="242.72"/><line class="cls-36" x1="268.31" y1="248.72" x2="298.31" y2="248.72"/><polygon class="cls-12" points="354.31 215.22 318.31 215.22 318.31 271.22 360.31 271.22 360.31 221.22 354.31 215.22"/><polygon class="cls-35" points="354.31 221.22 360.31 221.22 354.31 215.22 354.31 221.22"/><line class="cls-36" x1="324.31" y1="224.72" x2="342.31" y2="224.72"/><line class="cls-36" x1="324.31" y1="230.72" x2="350.31" y2="230.72"/><line class="cls-36" x1="324.31" y1="236.72" x2="351.31" y2="236.72"/><line class="cls-36" x1="324.31" y1="242.72" x2="354.31" y2="242.72"/><line class="cls-36" x1="324.31" y1="248.72" x2="350.31" y2="248.72"/><line class="cls-36" x1="324.31" y1="254.72" x2="354.31" y2="254.72"/><line class="cls-36" x1="324.31" y1="260.72" x2="351.31" y2="260.72"/></g></g></svg>