<svg width="1220" height="670" viewBox="0 0 1220 670" fill="none" xmlns="http://www.w3.org/2000/svg">
<g clip-path="url(#clip0)">
<path d="M1219.8 223.3L1036.3 156.7C788.2 138.1 775.6 369.2 588.2 398.6C430.4 423.3 465.9 534.4 270.2 566.4C159.7 584.4 82.8 634.9 0 670H1202L1219.8 615.9V223.3Z" fill="#CEC9E2"/>
<path d="M1074 0C1063 25.6 1054.3 55 1048.3 88.5C980.1 469.7 721.4 201.6 559.1 421.3C502.1 494.2 477.4 533.4 339.2 546C272.8 552 175.2 578.4 95.8002 630.8C77.7002 642.8 60.5002 656 43.7002 670H1219.8V0H1074Z" fill="#F8C208"/>
</g>
<defs>
<clipPath id="clip0">
<rect width="1219.8" height="670" fill="white"/>
</clipPath>
</defs>
</svg>
