<svg xmlns="http://www.w3.org/2000/svg" viewBox="0 0 687.45 390.25"><defs><style>.cls-1{fill:#19005a;}.cls-2{fill:#2b388f;}.cls-3{fill:#fb6649;}.cls-4{fill:#ffa951;}.cls-5{fill:none;}.cls-5,.cls-6{stroke:#bab2cd;stroke-miterlimit:10;stroke-width:1.6px;}.cls-6{fill:#ffede9;}</style></defs><g id="contenu"><path class="cls-1" d="M261,98.36c-5.57-2.75-11.64-4.13-17-6.75a185.6,185.6,0,0,0-18.86,44c18-2.89,33.94,10.6,49.77,17.13,1.77-6.23,4.16-12.49,6.34-18.75,1.61-4.64,5.08-12.1,5.33-17"/><path class="cls-2" d="M276.38,91c6.18,4.92,13.42,7.56,20.09,12-3.27,9.54-9,18.32-12.47,27.78-1.52,4.17-3.08,8.68-4.23,12.94-.53,2-2.4,10-5.36,8.92-1.28-.48-2.27-2.26-3.43-3.09-1.46-1-3.17-1.72-4.67-2.7a80.64,80.64,0,0,1-11-8.69c-3.31-3-7.12-6.27-10.3-9.65-2.64-2.81-3.56-6.88-6.25-9.57-.82-.83,6.65-13,7.43-14.34,3-5.26,6.16-10.39,9.42-15.48,2.81-4.39,6-8.42,8.69-12.9,2.39,1.1,3.09,4.58,4.45,6.66A36.55,36.55,0,0,0,276.38,91Z"/><path class="cls-3" d="M277.73,152c-5.83-6.7-11.25-17.73-14.2-26.12-2.49-7.07,2.23-10.9,6.51-16.6,9.64-12.83,18.81-26.41,30-37.9-2.49,5.16-5.15,11.43-4.4,17.31.56,4.34,3.34,8.31,2.74,12.9"/><path class="cls-3" d="M482.11,9c-2.88-2.39-9.34.72-11.61,4.59,6.86,1.92,14.28,2.52,21.05,4.6"/><path class="cls-4" d="M469.58,39.15C477.89,31,482,20.51,483,9.63c8.78,3.84,18.6,5.71,27.87,8.19,5,1.33,12.17,2.38,16.5,5.34-.86,5.5.16,11-1.13,16.47-1.5,6.39-6,8.41-8.81,13.72"/><path class="cls-2" d="M471.41,40.47c5.72-5.23,17.13-7.59,23.91-10.08,5.19-1.91,6.38.63,10.73,2.22,5.39,2,10.73,4,16.1,6,7.65,2.86,14.4,6.8,22.17,9.29-6,2.81-14.64,3.36-20.76,4.52-3.15.6-6.32,2-9.43,2.69-3.47.74-5.35-1.13-8.4-2.84a68.52,68.52,0,0,0-18.45-7.16c-6.49-1.42-12-5-18.87-4.68a65.67,65.67,0,0,1,14-6.54c3.6-1,9.43-1.77,12.22-3.49"/><path class="cls-3" d="M414.41,138.48c-2.85.83-6.61,3.15-9.48,3.29-3.59.17-3.58-3.67-4.82-6.42-2.74-6.07-6.95-11.38-9.35-17.64,3,.54,6.37-1.49,9.07-2.38,3.45-1.14,7-1.73,10.38-3,2.67-1,5.42-2.26,8.22-2.65,2.09,3.33,4.69,7.64,5.75,11.44.33,1.17.38,2.53.79,3.69.68,1.92,3.95,5.62,3.4,7.78-.51,2-5.79,3.35-7.63,4C418.62,137.28,416.51,137.87,414.41,138.48Z"/><path class="cls-2" d="M413.19,139c2.65-1.05,5.22-2.33,7.91-3.29,2.18-.78,5.74-.72,7.56-2.16,3.84-3.05,3-10.75,3.91-15,.66-3.24,3.43-9.54,7.25-10.57a42.85,42.85,0,0,0-6.51,2c-5.27,1.72-10.45,2.52-15.58,4.74-9.69,4.2-4.42,21-11.4,27.41C407.64,142.4,411.75,139.54,413.19,139Z"/><path class="cls-4" d="M443.56,123.31,445,123c-.34.07-2.5,4.38-3,5a16.47,16.47,0,0,1-4.91,3.84c-3.68,1.95-7.72,2.93-11.57,4.42-3.61,1.39-7.28,2.63-10.82,4.18-2.84,1.24-6.13,1.16-8.92,2.37,6-2.62,8.29-10.4,12.45-15.11,4.58,1.26,12-1.32,16.68-2.35C437.76,124.71,440.67,124,443.56,123.31Z"/><path class="cls-2" d="M642.65,181.76c-1.74-6.93-6.88-13.43-11.08-19.12,9.31-5.24,17.79-14.16,26.45-20.53,1.79,6.28,4.6,15.12,2.31,21.45"/><path class="cls-1" d="M643.27,178.9c3.58-6,4.22-12.94,5-19.54,12.3-2,22.14-11.59,32.72-17.05-4,19.69-19.84,29.37-37.36,37.54"/><path class="cls-4" d="M365.24,34.87A5.2,5.2,0,0,1,363.62,33a41.92,41.92,0,0,0-3.84-5,28.76,28.76,0,0,0-2.46-2.6,25.15,25.15,0,0,1-3-2.26,8,8,0,0,0-1.86-1.81c.89.84,2.79-.31,3.73-.68a37.21,37.21,0,0,0,3.54-1.5"/><path class="cls-3" d="M359.54,49.73l-.15.28c-.51-.76-.65-1.64-1.13-2.44-1.71-2.88-3.3-5.83-5-8.74a19.21,19.21,0,0,0-2.39-3.15c-.36-.41-1.36-1.21-1.54-1.7-.29-.75.31-1.35.85-2,.94-1.2,2.13-2,3-3.3a38.73,38.73,0,0,1,3.75-4.5,9.23,9.23,0,0,0,1.71-2.82,20.67,20.67,0,0,1,1.17-2.21,10.68,10.68,0,0,0,.84,1.91c.66,1.46,1.54,2.79,2.14,4.28s.94,3.11,1.59,4.59c.43,1,1.1,1.92,1.45,3a21.55,21.55,0,0,0,.74,2.56c.23.5,1.09,1.27.22,1.56a7.89,7.89,0,0,1-.85,2.71c-.32.69-.88,1-1.18,1.79a29.94,29.94,0,0,1-1.08,3.28,27.43,27.43,0,0,1-2,3.82C361,49.46,360.43,50.35,359.54,49.73Z"/><line class="cls-5" x1="594.2" y1="95.99" x2="597.35" y2="93.57"/><line class="cls-5" x1="586.7" y1="101.74" x2="591.02" y2="98.43"/><line class="cls-5" x1="574.81" y1="110.86" x2="581.37" y2="105.83"/><line class="cls-5" x1="560.06" y1="122.18" x2="567.7" y2="116.31"/><polyline class="cls-5" points="7.51 390.25 234.65 193.71 300.14 215.6 359.17 160.06 437.15 179.53 487.31 138.82 522.75 150.79 551.65 128.62"/><circle class="cls-6" cx="234.89" cy="194.49" r="3.47"/><circle class="cls-6" cx="299.65" cy="215.69" r="3.47"/><circle class="cls-6" cx="357.75" cy="160.14" r="3.47"/><circle class="cls-6" cx="437.4" cy="179.3" r="3.47"/><circle class="cls-6" cx="486.82" cy="138.97" r="3.47"/><circle class="cls-6" cx="522.75" cy="150.79" r="3.47"/><path class="cls-2" d="M243.42,294.43c1.63-3.92,9.74-7.35,13-9.88,6.63-5.23,13.68-9.93,20.63-14.78,6.37-4.44,13.69-8.27,19.28-13.35,1.34,7.83.31,15.44,0,23.07-.1,2.78.1,8.85-2,10.93-.67.67-3.95,1.3-4.95,1.76-2,.93-4,1.85-5.91,2.89-3.55,2-7.4,4.29-10.79,6.55s-6.33,3.68-9.72,5.66-6.8,4.13-10.21,6.23a40,40,0,0,0-5.22,3.86c-1,.84-4,3.35-4.27,2.72"/><path class="cls-4" d="M243.25,320.26c-.7-.15-1.18-1-1.61-1.51-2.33-2.81-6-5.07-9.15-6.9A159.59,159.59,0,0,1,219.07,303c-1.77-1.3-3.12-3.08-4.91-4.31a6.67,6.67,0,0,0,1.36-1.24c1.8-1.65,4.67-3.19,6.66-4.54,8.55-5.83,16.77-12.08,25.3-17.93,5.49-3.77,10.39-8.67,16.27-11.85.88-.48,1.91-.9,2.72-1.45.66-.44,1.18-1.3,1.93-1.56a11.8,11.8,0,0,1,1.51,2.25c1.56,2.33,2.84,4.85,4.24,7.28a63.16,63.16,0,0,0,9.31,12.28c2.06,2.13,4.17,4.16,6.27,6.26.69.69,1.34,1.71,2,2.32.4.34.93.44,1.33.8a.69.69,0,0,0-.52-.26"/><path class="cls-4" d="M243.25,320.26c-.7-.15-1.18-1-1.61-1.51-2.33-2.81-6-5.07-9.15-6.9A159.59,159.59,0,0,1,219.07,303c-1.77-1.3-3.12-3.08-4.91-4.31a6.67,6.67,0,0,0,1.36-1.24c1.8-1.65,4.67-3.19,6.66-4.54,8.55-5.83,16.77-12.08,25.3-17.93,5.49-3.77,10.39-8.67,16.27-11.85.88-.48,1.91-.9,2.72-1.45.66-.44,1.18-1.3,1.93-1.56a11.8,11.8,0,0,1,1.51,2.25c1.56,2.33,2.84,4.85,4.24,7.28a63.16,63.16,0,0,0,9.31,12.28c2.06,2.13,4.17,4.16,6.27,6.26.69.69,1.34,1.71,2,2.32.4.34.93.44,1.33.8a.69.69,0,0,0-.52-.26"/></g></svg>