<svg xmlns="http://www.w3.org/2000/svg" viewBox="0 0 452.74 244.15"><defs><style>.cls-1{fill:#19005a;}.cls-2{fill:#2b388f;}.cls-3{fill:#fb6649;}.cls-4{fill:#ffa951;}.cls-5{fill:none;}.cls-5,.cls-6{stroke:#bab2cd;stroke-miterlimit:10;stroke-width:1.6px;}.cls-6{fill:#ffede9;}</style></defs><title>illu-hero-expertise-single</title><g id="Calque_2" data-name="Calque 2"><g id="contenu"><path class="cls-1" d="M124.24,70.55c-4.36-2.16-9.11-3.23-13.29-5.28A144.52,144.52,0,0,0,96.2,99.72c14.07-2.27,26.54,8.29,38.93,13.39,1.39-4.87,3.25-9.77,5-14.66,1.26-3.63,4-9.47,4.17-13.3"/><path class="cls-2" d="M136.24,64.77c4.83,3.85,10.49,5.91,15.71,9.37-2.56,7.46-7,14.33-9.75,21.73-1.19,3.27-2.42,6.79-3.31,10.13-.42,1.55-1.88,7.85-4.19,7-1-.37-1.79-1.77-2.69-2.41-1.14-.81-2.48-1.35-3.65-2.11a63.19,63.19,0,0,1-8.59-6.8c-2.59-2.33-5.57-4.91-8.06-7.55-2.07-2.2-2.78-5.38-4.89-7.49-.64-.65,5.2-10.15,5.81-11.22,2.33-4.11,4.82-8.13,7.37-12.11,2.2-3.43,4.72-6.59,6.8-10.09,1.87.86,2.42,3.58,3.48,5.21A28.84,28.84,0,0,0,136.24,64.77Z"/><path class="cls-3" d="M137.29,112.49c-4.56-5.24-8.8-13.87-11.11-20.43-2-5.54,1.75-8.53,5.1-13,7.54-10,14.71-20.66,23.49-29.65-2,4-4,8.94-3.44,13.54.43,3.4,2.6,6.5,2.14,10.09"/><path class="cls-3" d="M297.18.66c-2.25-1.88-7.31.56-9.08,3.58,5.37,1.5,11.17,2,16.46,3.6"/><path class="cls-4" d="M287.38,24.23c6.5-6.38,9.69-14.58,10.52-23.1,6.87,3,14.55,4.47,21.81,6.41,3.88,1,9.52,1.86,12.91,4.18-.68,4.3.12,8.59-.89,12.89-1.18,5-4.73,6.57-6.89,10.72"/><path class="cls-2" d="M288.81,25.26c4.47-4.09,13.4-5.94,18.71-7.89,4.06-1.49,5,.5,8.39,1.74,4.22,1.53,8.4,3.15,12.6,4.72,6,2.24,11.26,5.31,17.34,7.27-4.72,2.2-11.45,2.62-16.24,3.53-2.47.47-4.95,1.58-7.38,2.1-2.72.59-4.19-.88-6.57-2.21a53.51,53.51,0,0,0-14.43-5.61c-5.08-1.11-9.4-3.89-14.76-3.66a51.13,51.13,0,0,1,11-5.11c2.82-.8,7.38-1.39,9.56-2.74"/><path class="cls-3" d="M244.22,101.94c-2.23.64-5.18,2.46-7.42,2.57-2.8.14-2.8-2.87-3.77-5-2.14-4.75-5.44-8.91-7.32-13.8,2.32.42,5-1.17,7.1-1.87,2.7-.89,5.46-1.35,8.13-2.35a31.54,31.54,0,0,1,6.43-2.08c1.63,2.61,3.66,6,4.49,9,.26.91.3,2,.62,2.88.53,1.51,3.09,4.4,2.66,6.09s-4.53,2.62-6,3.11C247.51,101,245.86,101.46,244.22,101.94Z"/><path class="cls-2" d="M243.27,102.32c2.07-.83,4.08-1.82,6.18-2.57,1.71-.62,4.5-.57,5.91-1.7,3-2.38,2.38-8.41,3.06-11.75.52-2.53,2.69-7.46,5.68-8.26a32.9,32.9,0,0,0-5.1,1.57c-4.12,1.34-8.17,2-12.19,3.7-7.57,3.29-3.45,16.41-8.91,21.45C238.92,105,242.14,102.76,243.27,102.32Z"/><path class="cls-4" d="M267,90.07l1.09-.24c-.26.06-1.95,3.43-2.37,3.91a12.85,12.85,0,0,1-3.84,3c-2.88,1.53-6,2.3-9.06,3.46-2.82,1.09-5.69,2-8.46,3.27-2.22,1-4.8.91-7,1.85,4.73-2,6.49-8.13,9.74-11.82,3.59,1,9.42-1,13-1.83C262.49,91.16,264.76,90.58,267,90.07Z"/><path class="cls-2" d="M422.78,135.8c-1.36-5.43-5.38-10.51-8.67-15,7.28-4.1,13.91-11.08,20.69-16.06,1.4,4.91,3.6,11.83,1.81,16.78"/><path class="cls-1" d="M423.26,133.56c2.8-4.67,3.3-10.13,3.88-15.29,9.63-1.57,17.32-9.06,25.6-13.34-3.11,15.4-15.52,23-29.23,29.37"/><path class="cls-4" d="M205.75,20.88a4.26,4.26,0,0,1-1.27-1.45,33,33,0,0,0-3-3.94,23.11,23.11,0,0,0-1.92-2,19.27,19.27,0,0,1-2.32-1.78,6.32,6.32,0,0,0-1.46-1.41c.7.66,2.19-.24,2.92-.53a25.32,25.32,0,0,0,2.77-1.18"/><path class="cls-3" d="M201.29,32.5l-.11.22c-.4-.59-.51-1.28-.89-1.91-1.34-2.25-2.58-4.56-3.9-6.83a14.93,14.93,0,0,0-1.86-2.47c-.29-.32-1.07-.94-1.21-1.32-.23-.59.24-1.07.67-1.61.73-.93,1.66-1.57,2.35-2.58a32,32,0,0,1,2.93-3.52,7.15,7.15,0,0,0,1.34-2.2,15.41,15.41,0,0,1,.92-1.73,8.84,8.84,0,0,0,.65,1.5c.52,1.13,1.21,2.18,1.68,3.35s.74,2.42,1.24,3.58a24.84,24.84,0,0,1,1.13,2.32,17.82,17.82,0,0,0,.58,2c.19.39.86,1,.18,1.22a6.44,6.44,0,0,1-.67,2.12c-.25.54-.69.8-.92,1.4a21.47,21.47,0,0,1-.85,2.57,21.41,21.41,0,0,1-1.59,3C202.47,32.29,202,33,201.29,32.5Z"/><line class="cls-5" x1="384.87" y1="68.69" x2="387.34" y2="66.8"/><line class="cls-5" x1="379" y1="73.2" x2="382.38" y2="70.6"/><line class="cls-5" x1="369.7" y1="80.33" x2="374.83" y2="76.39"/><line class="cls-5" x1="358.16" y1="89.18" x2="364.14" y2="84.59"/><polyline class="cls-5" points="0.49 224.31 103.59 145.15 154.82 162.27 201 118.82 262 134.05 301.25 102.2 328.98 111.57 351.59 94.22"/><circle class="cls-6" cx="103.78" cy="145.75" r="2.71"/><circle class="cls-6" cx="154.44" cy="162.34" r="2.71"/><circle class="cls-6" cx="199.89" cy="118.88" r="2.71"/><circle class="cls-6" cx="262.2" cy="133.87" r="2.71"/><circle class="cls-6" cx="300.87" cy="102.32" r="2.71"/><circle class="cls-6" cx="328.98" cy="111.57" r="2.71"/><path class="cls-2" d="M110.45,223.94c1.28-3.07,7.62-5.75,10.13-7.73,5.19-4.09,10.7-7.77,16.14-11.56,5-3.47,10.71-6.47,15.09-10.45,1,6.13.24,12.08,0,18.05-.08,2.17.08,6.92-1.54,8.55-.53.53-3.1,1-3.88,1.38-1.54.73-3.15,1.45-4.62,2.26-2.78,1.54-5.79,3.36-8.45,5.13s-5,2.87-7.6,4.43-5.32,3.22-8,4.87a30.74,30.74,0,0,0-4.09,3c-.76.66-3.11,2.62-3.34,2.13"/><path class="cls-4" d="M110.31,244.15c-.54-.12-.92-.78-1.25-1.18-1.82-2.2-4.74-4-7.16-5.4a124.52,124.52,0,0,1-10.5-6.94c-1.38-1-2.44-2.42-3.84-3.37a5.14,5.14,0,0,0,1.06-1,47.94,47.94,0,0,1,5.21-3.56c6.69-4.55,13.12-9.44,19.79-14,4.3-3,8.13-6.79,12.73-9.27.69-.38,1.5-.71,2.13-1.13s.93-1,1.51-1.23a9,9,0,0,1,1.18,1.76c1.23,1.83,2.22,3.8,3.32,5.7a49.26,49.26,0,0,0,7.28,9.6c1.62,1.67,3.27,3.26,4.9,4.9.54.54,1.06,1.34,1.61,1.82.31.26.73.34,1,.62a.56.56,0,0,0-.41-.2"/><path class="cls-4" d="M110.31,244.15c-.54-.12-.92-.78-1.25-1.18-1.82-2.2-4.74-4-7.16-5.4a124.52,124.52,0,0,1-10.5-6.94c-1.38-1-2.44-2.42-3.84-3.37a5.14,5.14,0,0,0,1.06-1,47.94,47.94,0,0,1,5.21-3.56c6.69-4.55,13.12-9.44,19.79-14,4.3-3,8.13-6.79,12.73-9.27.69-.38,1.5-.71,2.13-1.13s.93-1,1.51-1.23a9,9,0,0,1,1.18,1.76c1.23,1.83,2.22,3.8,3.32,5.7a49.26,49.26,0,0,0,7.28,9.6c1.62,1.67,3.27,3.26,4.9,4.9.54.54,1.06,1.34,1.61,1.82.31.26.73.34,1,.62a.56.56,0,0,0-.41-.2"/></g></g></svg>