<svg width="15" height="12" viewBox="0 0 15 12" fill="#FF9223" xmlns="http://www.w3.org/2000/svg">
<path d="M13.2 2.7C13.2 2.8 13.2 2.9 13.2 3.1C13.2 6.9 10.3 11.3 4.99998 11.3C3.39998 11.3 1.89998 10.8 0.599976 10C0.799976 10 1.09998 10 1.29998 10C2.69998 10 3.89998 9.5 4.89998 8.8C3.59998 8.8 2.59998 7.9 2.19998 6.8C2.39998 6.8 2.59998 6.9 2.69998 6.9C2.99998 6.9 3.19998 6.9 3.49998 6.8C2.19998 6.5 1.19998 5.4 1.19998 4C1.59998 4.2 1.99998 4.3 2.49998 4.4C1.69998 3.9 1.19998 3 1.19998 2C1.19998 1.5 1.29998 1 1.59998 0.6C2.99998 2.3 5.09998 3.5 7.49998 3.6C7.49998 3.4 7.39998 3.2 7.39998 2.9C7.39998 1.3 8.69998 0 10.3 0C11.1 0 11.9 0.4 12.4 0.9C13.1 0.8 13.7 0.5 14.2 0.2C14 0.9 13.5 1.4 12.9 1.8C13.5 1.7 14 1.6 14.6 1.3C14.2 1.8 13.7 2.3 13.2 2.7Z" fill="#FF9223"/>
</svg>
