<?xml version="1.0" encoding="utf-8"?>
<svg width="50" height="49" viewBox="0 0 50 49" fill="none" xmlns="http://www.w3.org/2000/svg">
<g clip-path="url(#clip0)">
<path d="M41.8001 1.89995C41.3001 1.89995 40.9001 2.29995 40.9001 2.79995V5.29995C36.9001 1.99995 31.9001 0.199951 26.7001 0.199951C20.7001 0.199951 15.1001 2.49995 10.9001 6.79995C10.5001 7.19995 10.5001 7.79995 10.9001 8.09995C11.3001 8.49995 11.9001 8.49995 12.2001 8.09995C16.1001 4.19995 21.2001 2.09995 26.7001 2.09995C31.4001 2.09995 35.8001 3.69995 39.4001 6.49995H37.2001C36.7001 6.49995 36.3001 6.89995 36.3001 7.39995C36.3001 7.89995 36.7001 8.29995 37.2001 8.29995H41.8001C41.9001 8.29995 42.0001 8.29995 42.2001 8.19995C42.4001 8.09995 42.6001 7.89995 42.7001 7.69995C42.7001 7.59995 42.8001 7.49995 42.8001 7.29995V2.79995C42.8001 2.29995 42.3001 1.89995 41.8001 1.89995Z" fill="white"/>
<path fill-rule="evenodd" clip-rule="evenodd" d="M10.7223 6.62421C14.9703 2.27558 20.6349 -0.0500488 26.7001 -0.0500488C31.7824 -0.0500488 36.6761 1.65049 40.6501 4.77748V2.79995C40.6501 2.16188 41.162 1.64995 41.8001 1.64995C42.1144 1.64995 42.4216 1.77446 42.6513 1.97353C42.8818 2.17322 43.0501 2.46308 43.0501 2.79995V7.29995C43.0501 7.44532 43.0127 7.55422 42.9822 7.6303C42.9746 7.64929 42.9692 7.66222 42.965 7.67244C42.9593 7.68598 42.9557 7.69477 42.9515 7.70659C42.9509 7.70816 42.9505 7.7095 42.9501 7.71063V7.75897L42.9237 7.81175C42.7995 8.06014 42.5603 8.29937 42.3119 8.42356C42.1968 8.48111 42.1006 8.5148 42.0116 8.5326C41.9247 8.54998 41.8541 8.54996 41.8039 8.54995H37.2001C36.562 8.54995 36.0501 8.03802 36.0501 7.39995C36.0501 6.76188 36.562 6.24995 37.2001 6.24995H38.6503C35.2078 3.7603 31.0859 2.34995 26.7001 2.34995C21.2716 2.34995 16.24 4.41962 12.3886 8.26503C11.977 8.79419 11.2136 8.75431 10.7358 8.28903C10.2016 7.8743 10.2462 7.10137 10.7223 6.62421ZM26.7001 0.449951C20.7658 0.449951 15.2308 2.72394 11.079 6.97464L11.0769 6.97674C10.7582 7.29545 10.7998 7.71221 11.0501 7.89995L11.0643 7.91061L11.0769 7.92317C11.3956 8.24188 11.8124 8.20028 12.0001 7.94995L12.0108 7.93574L12.0233 7.92317C15.9704 3.97608 21.1300 1.84995 26.7001 1.84995C31.4581 1.84995 35.9117 3.47 39.5536 6.30261L40.1288 6.74995H37.2001C36.8382 6.74995 36.5501 7.03802 36.5501 7.39995C36.5501 7.76188 36.8382 8.04995 37.2001 8.04995H41.8001C41.8497 8.04995 41.8777 8.04948 41.9136 8.04231C41.9496 8.0351 42.0034 8.0188 42.0883 7.97635C42.2281 7.90647 42.3756 7.76443 42.4572 7.6239C42.4632 7.59092 42.4721 7.5625 42.48 7.54018C42.4884 7.51631 42.5011 7.48565 42.5101 7.46383C42.5133 7.45607 42.5161 7.44943 42.518 7.4446C42.5376 7.39569 42.5501 7.35459 42.5501 7.29995V2.79995C42.5501 2.63683 42.4685 2.47669 42.3239 2.35137C42.1786 2.22545 41.9858 2.14995 41.8001 2.14995C41.4382 2.14995 41.1501 2.43802 41.1501 2.79995V5.8303L40.741 5.49279C36.7858 2.22972 31.842 0.449951 26.7001 0.449951Z" fill="white"/>
<path d="M0.400231 21.1C0.700231 21.6 1.20023 21.7 1.70023 21.4L3.90023 20.1C3.00023 25.3 3.90023 30.5 6.50023 35C9.50023 40.2 14.3002 43.9001 20.1002 45.4001C20.6002 45.5001 21.1002 45.2001 21.3002 44.7001C21.4002 44.2001 21.1002 43.7 20.6002 43.5C15.3002 42.1 10.9002 38.7001 8.10023 33.9001C5.80023 29.9001 4.90023 25.3001 5.60023 20.7001L6.70023 22.6C7.00023 23.2 7.50023 23.4 8.00023 23.1C8.50023 22.8 8.60023 22.3 8.30023 21.8L6.00023 17.8C5.90023 17.7 5.90023 17.6 5.80023 17.5C5.60023 17.3 5.30023 17.3 5.10023 17.3C5.00023 17.3 4.90023 17.4 4.80023 17.4L0.800231 19.7001C0.300231 20.0001 0.100231 20.6 0.400231 21.1Z" fill="white"/>
<path fill-rule="evenodd" clip-rule="evenodd" d="M5.12017 17.0498C5.30906 17.0494 5.7023 17.0486 5.97682 17.3231C6.05575 17.402 6.09599 17.4826 6.1212 17.5332C6.12203 17.5348 6.12285 17.5365 6.12365 17.5381C6.14861 17.588 6.15836 17.6046 6.17682 17.6231L6.20025 17.6465L8.51564 21.6733C8.68965 21.9642 8.76089 22.2785 8.69409 22.5791C8.62663 22.8827 8.42639 23.1356 8.12867 23.3142C7.82228 23.4981 7.49156 23.5398 7.18443 23.4204C6.88687 23.3047 6.64825 23.0521 6.47998 22.7187L5.75065 21.459C5.25388 25.7596 6.16462 30.0321 8.31645 33.7747C11.0841 38.5187 15.43 41.8756 20.6639 43.2582L20.6787 43.2621L20.6929 43.2677C21.2903 43.5067 21.6718 44.116 21.5452 44.7489L21.5407 44.7714L21.5322 44.7927C21.2932 45.3901 20.6839 45.7716 20.051 45.645L20.0374 45.6423C14.1712 44.1252 9.31638 40.3818 6.2835 35.1248C3.74184 30.7257 2.80695 25.6656 3.56828 20.5863L1.82867 21.6142C1.82841 21.6144 1.82893 21.6141 1.82867 21.6142C1.5374 21.7888 1.22181 21.8608 0.920814 21.7939C0.617205 21.7264 0.364307 21.5262 0.185673 21.2285C-0.196371 20.5918 0.0722444 19.845 0.671422 19.4855L0.675407 19.4831L4.73329 17.1499H4.78804C4.79844 17.1459 4.81154 17.1396 4.83824 17.1263L4.84163 17.1246C4.86445 17.1131 4.8997 17.0955 4.93726 17.0814C4.97779 17.0662 5.03409 17.0499 5.10005 17.0499C5.10646 17.0499 5.11318 17.0499 5.12017 17.0498ZM5.11202 17.5499C5.10163 17.5538 5.08853 17.5601 5.06185 17.5735L5.05847 17.5752C5.03564 17.5866 5.00039 17.6042 4.96283 17.6183C4.94004 17.6269 4.91226 17.6358 4.88058 17.6419L0.926785 19.9154C0.527436 20.1562 0.396805 20.6086 0.614419 20.9712C0.735785 21.1735 0.882887 21.2733 1.02928 21.3058C1.17801 21.3389 1.36291 21.3106 1.57142 21.1855L1.57286 21.1846L4.23865 19.6094L4.14638 20.1425C3.25613 25.2862 4.14648 30.4267 6.71651 34.8748C9.68239 40.0156 14.4248 43.6719 20.1554 45.156C20.5141 45.2244 20.8938 45.0151 21.059 44.6287C21.1188 44.2722 20.9066 43.8984 20.5205 43.7374C15.1617 42.3175 10.7138 38.8767 7.8841 34.0258L7.88332 34.0245C5.55569 29.9764 4.6442 25.3194 5.35289 20.6623L5.45993 19.9589L6.92023 22.4812L6.92365 22.4881C7.0552 22.7512 7.21532 22.8959 7.36566 22.9544C7.50853 23.0099 7.67781 23.0017 7.87142 22.8855C8.0737 22.7641 8.17347 22.617 8.206 22.4706C8.23905 22.3219 8.21078 22.137 8.08567 21.9285L8.08328 21.9245L5.79783 17.9497C5.73539 17.8798 5.70124 17.8114 5.67889 17.7666C5.67806 17.7649 5.67724 17.7633 5.67644 17.7617C5.65149 17.7118 5.64174 17.6951 5.62327 17.6766C5.51005 17.5634 5.32711 17.5503 5.11202 17.5499Z" fill="white"/>
<path d="M37.3 47.3001C37.6 46.8001 37.4 46.3001 37 46.0001L34.8 44.7001C39.7 42.9001 43.7 39.5001 46.3 34.9001C49.3 29.7001 50.1 23.7001 48.5 17.9001C48.4 17.4001 47.8 17.1001 47.3 17.2001C46.8 17.3001 46.5 17.9001 46.6 18.4001C48 23.7001 47.3 29.2001 44.6 34.0001C42.3 38.0001 38.7 41.1001 34.4 42.8001L35.5 40.9001C35.8 40.4001 35.6 39.9001 35.2 39.6001C34.7 39.3001 34.2 39.5001 33.9 39.9001L31.6 43.9001C31.5 44.0001 31.5 44.1001 31.5 44.2001C31.5 44.4001 31.5 44.7001 31.7 44.9001C31.8 45.0001 31.9 45.1001 32 45.1001L36 47.4001C36.5 47.9001 37.1 47.8001 37.3 47.3001Z" fill="white"/>
<path fill-rule="evenodd" clip-rule="evenodd" d="M48.7433 17.8414C48.6732 17.5078 48.4418 17.2565 48.1715 17.1063C47.8991 16.955 47.5641 16.8921 47.251 16.9547C46.9127 17.0224 46.6581 17.2556 46.5065 17.5284C46.3552 17.8008 46.2923 18.1358 46.3549 18.4489L46.3564 18.4563L46.3584 18.4637C47.7416 23.7004 47.0504 29.1331 44.3827 33.8763C42.2333 37.6139 38.9342 40.5563 34.9873 42.2845L35.7155 41.0267C35.8988 40.7201 35.9347 40.4003 35.8534 40.1079C35.7736 39.8204 35.5858 39.5766 35.3501 39.3998L35.3397 39.3921L35.3287 39.3855C35.0216 39.2012 34.7011 39.1651 34.4082 39.2465C34.1206 39.3263 33.8769 39.5141 33.7001 39.7498L33.6909 39.762L31.3979 43.75C31.2498 43.916 31.25 44.0923 31.2501 44.1923L31.2501 44.1998C31.2501 44.2063 31.25 44.213 31.25 44.22C31.2496 44.4089 31.2488 44.8021 31.5233 45.0766L31.5286 45.082C31.5748 45.1281 31.6356 45.189 31.7001 45.2373C31.7506 45.2752 31.8256 45.323 31.9192 45.3418L35.8479 47.6007C36.1327 47.8745 36.4686 48.0072 36.7887 47.9735C37.1176 47.9388 37.3893 47.7316 37.5244 47.4115C37.7 47.1096 37.7333 46.7955 37.6534 46.5079C37.5736 46.2204 37.3858 45.9766 37.1501 45.7998L37.1391 45.7916L35.3744 44.7488C40.1078 42.8855 43.975 39.5209 46.5172 35.0238C49.5483 29.7693 50.3583 23.704 48.7433 17.8414ZM47.9287 17.5434C47.751 17.4447 47.5361 17.4076 47.3491 17.445C47.1874 17.4773 47.042 17.5941 46.9436 17.7713C46.8461 17.9467 46.8087 18.1586 46.8439 18.3439C48.2577 23.7044 47.5485 29.2682 44.818 34.1224L44.8168 34.1245C42.4884 38.1738 38.8442 41.3117 34.492 43.0323L33.8236 43.2966L35.2857 40.7712C35.4014 40.5783 35.4153 40.3988 35.3717 40.2418C35.3275 40.0827 35.2191 39.9297 35.0604 39.8077C34.8717 39.698 34.6961 39.6854 34.542 39.7282C34.3833 39.7723 34.2306 39.8803 34.1088 40.0383L31.8003 44.0532L31.7768 44.0766C31.7669 44.0866 31.7623 44.0936 31.7601 44.0974C31.758 44.1012 31.7565 44.105 31.7551 44.1105C31.7513 44.1259 31.7501 44.1452 31.7501 44.1998C31.7501 44.4201 31.7615 44.6077 31.8768 44.7231C31.9301 44.7763 31.9671 44.8126 32.0001 44.8373C32.0081 44.8434 32.0142 44.8473 32.0183 44.8498H32.0668L36.1534 47.1996L36.1768 47.2231C36.3868 47.433 36.5908 47.4915 36.7364 47.4762C36.8761 47.4615 37.0002 47.3762 37.0679 47.207L37.0754 47.1884L37.0857 47.1712C37.2014 46.9783 37.2153 46.7988 37.1717 46.6418C37.1275 46.4827 37.0191 46.3297 36.8604 46.2077L34.2191 44.6469L34.7139 44.4652C39.5578 42.6858 43.5114 39.3256 46.0824 34.7768L46.0835 34.7749C49.0506 29.632 49.841 23.7009 48.2591 17.9663L48.2567 17.9577L48.2549 17.9489C48.2226 17.7872 48.1058 17.6418 47.9287 17.5434Z" fill="white"/>
</g>
<defs>
<clipPath id="clip0">
<rect width="49.6" height="48.1" fill="white"/>
</clipPath>
</defs>
</svg>
