<?xml version="1.0" encoding="utf-8"?>
<svg width="59" height="48" viewBox="0 0 59 48" fill="none" xmlns="http://www.w3.org/2000/svg">
<g clip-path="url(#clip0)">
<path fill-rule="evenodd" clip-rule="evenodd" d="M21 1.75C18.6142 1.75 16.75 3.61421 16.75 6H16H15.25C15.25 2.78579 17.7858 0.25 21 0.25H40.9C44.1142 0.25 46.65 2.78579 46.65 6V15.2974C46.6514 15.298 46.6529 15.2985 46.6545 15.2991C46.7019 15.3172 46.7712 15.3324 46.8597 15.3411C46.9459 15.3496 47.0256 15.35 47.1 15.35H52.2992C55.5134 15.35 58.05 17.8858 58.05 21.1V35.45H58.1806L58.1494 36.23C58.0358 39.0703 55.9818 41.4976 53.0894 41.8447L53.0448 41.85H53.0016C53.0027 41.85 52.9885 41.8506 52.9514 41.8564C52.9098 41.863 52.8627 41.8723 52.7971 41.8854L52.7914 41.8866C52.7328 41.8983 52.6574 41.9134 52.5826 41.9252C52.5239 41.9345 52.4504 41.9443 52.3707 41.9482L50.1 48.0506L47.83 41.95H32.4C29.31 41.95 26.7665 39.5444 26.6506 36.5288L26.65 36.5144V36.5C26.65 36.4246 26.6496 36.3499 26.6423 36.2713C26.6378 36.2226 26.6313 36.1823 26.624 36.15H10.5674L8.17884 42.0512L5.93072 36.1499C5.83549 36.1495 5.70748 36.147 5.57537 36.1338C5.44922 36.1212 5.27838 36.0955 5.10346 36.0308C2.27085 35.6376 0.25 33.2321 0.25 30.4V15.4C0.25 12.1858 2.78579 9.65 6 9.65V10.4V11.15C3.61421 11.15 1.75 13.0142 1.75 15.4V30.4C1.75 32.5323 3.27803 34.302 5.38936 34.5553L5.5188 34.5709L5.6271 34.625C5.62947 34.6257 5.63321 34.6268 5.63848 34.628C5.65717 34.6324 5.68541 34.6373 5.72463 34.6412C5.80692 34.6495 5.89582 34.65 6 34.65C6.22418 34.65 6.50734 34.6858 6.7725 34.8515C7.04704 35.0231 7.21284 35.277 7.30565 35.5456L8.22115 37.9488L9.21592 35.4911L9.22918 35.4646C9.40557 35.1118 9.81804 34.65 10.5 34.65H26.7C27.0286 34.65 27.3311 34.7481 27.5766 34.9468C27.8109 35.1365 27.9418 35.376 28.0163 35.5782C28.151 35.9441 28.1503 36.333 28.15 36.4823C28.15 36.4834 28.15 36.4844 28.15 36.4854C28.2415 38.6634 30.095 40.45 32.4 40.45H47.9C48.1242 40.45 48.4073 40.4858 48.6725 40.6515C48.9482 40.8238 49.1142 41.0791 49.2068 41.3488L50.1 43.7494L51.0111 41.3007L51.0292 41.2646C51.2056 40.9118 51.618 40.45 52.3 40.45C52.2989 40.45 52.2983 40.45 52.2983 40.45C52.2983 40.4499 52.3128 40.4492 52.3486 40.4436C52.3902 40.437 52.4373 40.4277 52.5029 40.4146L52.5086 40.4134C52.5672 40.4017 52.6426 40.3866 52.7174 40.3748C52.7799 40.3649 52.8591 40.3545 52.9448 40.3511C54.7755 40.1165 56.1763 38.7331 56.5536 36.95H56.55V21.1C56.55 18.7142 54.6858 16.85 52.2999 16.85H47.1C47.095 16.85 47.0895 16.85 47.0837 16.85C46.931 16.8503 46.5145 16.851 46.1205 16.7009C45.9045 16.6186 45.654 16.4766 45.4573 16.228C45.2525 15.9693 45.15 15.6507 45.15 15.3V6C45.15 3.61421 43.2858 1.75 40.9 1.75H21ZM15.25 9.65V6H16H16.75V9.9C16.75 10.2204 16.6399 10.5457 16.3928 10.7928C16.1457 11.0399 15.8204 11.15 15.5 11.15H6C5.99993 11.15 6 11.15 6 10.4C6 9.65 5.99993 9.65 6 9.65H15.25Z" fill="white"/>
<path fill-rule="evenodd" clip-rule="evenodd" d="M21 2C18.7523 2 17 3.75228 17 6H16H15C15 2.64772 17.6477 0 21 0H40.9C44.2523 0 46.9 2.64772 46.9 6V15.0938C46.967 15.0996 47.0312 15.1 47.1 15.1H52.2992C55.6515 15.1 58.3 17.7477 58.3 21.1V35.7641C58.371 35.9107 58.4058 36.074 58.3992 36.24C58.2811 39.1937 56.1424 41.7301 53.1191 42.0929C53.0846 42.097 53.0499 42.0994 53.0151 42.0999C53.0108 42.1004 53.0028 42.1014 52.9903 42.1034C52.973 42.1061 52.9541 42.1095 52.9315 42.1138C52.9079 42.1183 52.8802 42.1238 52.8461 42.1306L52.8392 42.132C52.7813 42.1435 52.7015 42.1595 52.6216 42.1721C52.6 42.1755 52.5761 42.1791 52.5502 42.1825L51.0372 46.2487C50.8915 46.6403 50.5178 46.9 50.1 46.9C49.6822 46.9 49.3085 46.6403 49.1628 46.2487L47.6563 42.2H32.4C29.18 42.2 26.5221 39.6926 26.4007 36.5384C26.4002 36.5256 26.4 36.5128 26.4 36.5C26.4 36.4646 26.3999 36.4317 26.3992 36.4H10.736L9.12695 40.3752C8.97268 40.7563 8.60084 41.0042 8.18969 40.9999C7.77854 40.9957 7.41189 40.7402 7.26551 40.356L5.75711 36.3964C5.69245 36.3939 5.62215 36.3897 5.55049 36.3825C5.42122 36.3696 5.23752 36.3431 5.04307 36.2747C2.09702 35.8529 0 33.3446 0 30.4V15.4C0 12.0477 2.64772 9.4 6 9.4V10.4V11.4C3.75228 11.4 2 13.1523 2 15.4V30.4C2 32.4097 3.43738 34.0693 5.41915 34.3071C5.51904 34.3191 5.61647 34.3461 5.70817 34.3871C5.71714 34.3886 5.73071 34.3906 5.74951 34.3925C5.81757 34.3993 5.89443 34.4 6 34.4C6.2489 34.4 6.58479 34.4394 6.905 34.6395C7.23705 34.847 7.43322 35.1516 7.54061 35.4601L8.22821 37.265L8.97305 35.4248C8.98294 35.4004 8.99379 35.3764 9.00557 35.3528C9.20743 34.9491 9.69072 34.4 10.5 34.4H26.7C27.0798 34.4 27.4394 34.5141 27.7339 34.7524C28.0136 34.9788 28.1661 35.2618 28.2508 35.4918C28.4017 35.9013 28.4005 36.3298 28.4 36.4802C28.4 36.4803 28.4 36.4801 28.4 36.4802C28.4887 38.5175 30.2267 40.2 32.4 40.2H47.9C48.1489 40.2 48.4848 40.2394 48.805 40.4395C49.1386 40.648 49.3351 40.9545 49.4421 41.2645L50.1 43.0325L50.7628 41.2513C50.7753 41.2177 50.7896 41.1848 50.8056 41.1528C51.0062 40.7515 51.4849 40.2066 52.2853 40.2001C52.2897 40.1995 52.2977 40.1985 52.3097 40.1966C52.3452 40.191 52.3872 40.1828 52.4539 40.1694L52.4608 40.168C52.5187 40.1565 52.5985 40.1405 52.6784 40.1279C52.7428 40.1177 52.8282 40.1062 52.9233 40.1018C54.7485 39.863 56.1256 38.4055 56.3668 36.5601C56.3237 36.4483 56.3 36.3269 56.3 36.2V21.1C56.3 18.8523 54.5477 17.1 52.2999 17.1H47.1C47.0944 17.1 47.0882 17.1 47.0814 17.1C46.927 17.1004 46.4701 17.1016 46.0315 16.9345C45.7872 16.8414 45.4939 16.6771 45.2613 16.3832C45.0179 16.0758 44.9 15.7009 44.9 15.3V6C44.9 3.75228 43.1477 2 40.9 2H21ZM15 9.4V6H16H17V9.9C17 10.2772 16.8699 10.6693 16.5696 10.9696C16.2693 11.2699 15.8772 11.4 15.5 11.4H6C5.99993 11.4 6 11.4 6 10.4C6 9.4 5.99993 9.4 6 9.4H15ZM6.01504 36.4005C6.01501 36.4005 6.01376 36.4005 6.01139 36.4002ZM47.915 42.2005C47.915 42.2005 47.9138 42.2005 47.9114 42.2002Z" fill="white"/>
<path d="M15.8001 24.2999C17.0151 24.2999 18.0001 23.3149 18.0001 22.0999C18.0001 20.8849 17.0151 19.8999 15.8001 19.8999C14.5851 19.8999 13.6001 20.8849 13.6001 22.0999C13.6001 23.3149 14.5851 24.2999 15.8001 24.2999Z" fill="white"/>
<path d="M25.4002 24.2999C26.6152 24.2999 27.6002 23.3149 27.6002 22.0999C27.6002 20.8849 26.6152 19.8999 25.4002 19.8999C24.1852 19.8999 23.2002 20.8849 23.2002 22.0999C23.2002 23.3149 24.1852 24.2999 25.4002 24.2999Z" fill="white"/>
<path d="M35.0999 24.2999C36.3149 24.2999 37.2999 23.3149 37.2999 22.0999C37.2999 20.8849 36.3149 19.8999 35.0999 19.8999C33.8849 19.8999 32.8999 20.8849 32.8999 22.0999C32.8999 23.3149 33.8849 24.2999 35.0999 24.2999Z" fill="white"/>
</g>
<defs>
<clipPath id="clip0">
<rect width="58.3" height="47.9" fill="white"/>
</clipPath>
</defs>
</svg>
