<?xml version="1.0" encoding="utf-8"?>
<svg width="45" height="28" viewBox="0 0 45 28" fill="none" xmlns="http://www.w3.org/2000/svg">
<path d="M44.6 13.8C44.6 14.5 44.3 15.1 43.8 15.5L28.1 27.2C27.5 27.7 26.6 27.8 25.9 27.4C25.2 27.1 24.8 26.3 24.8 25.6V24.2C24.8 23.8 24.5 23.5 24.1 23.5H15.8C15.4 23.5 15.1 23.2 15.1 22.8C15.1 22.4 15.4 22.1 15.8 22.1H24.1C25.2 22.1 26.2 23 26.2 24.2V25.6C26.2 25.9 26.3 26.1 26.6 26.2C26.8 26.3 27.1 26.3 27.3 26.1L42.9 14.4C43.2 14.1 43.2 13.6 42.9 13.3L27.3 1.5C27.1 1.3 26.8 1.3 26.6 1.4C26.4 1.5 26.2 1.8 26.2 2V3.4C26.2 4.5 25.3 5.5 24.1 5.5H15.8C15.4 5.5 15.1 5.2 15.1 4.8C15.1 4.4 15.4 4.1 15.8 4.1H24.1C24.5 4.1 24.8 3.8 24.8 3.4V2.1C24.8 1.3 25.2 0.6 25.9 0.3C26.6 2.98023e-08 27.4 2.98023e-08 28.1 0.5L43.7 12.2C44.3 12.5 44.6 13.1 44.6 13.8Z" fill="white"/>
<path d="M22.1 9C22.1 9.4 21.8 9.7 21.4 9.7H9C8.6 9.6 8.3 9.3 8.3 9C8.3 8.6 8.6 8.3 9 8.3H21.4C21.8 8.3 22.1 8.6 22.1 9Z" fill="white"/>
<path d="M22.1 18.6C22.1 19 21.8 19.3 21.4 19.3H9C8.6 19.3 8.3 19 8.3 18.6C8.3 18.2 8.6 17.9 9 17.9H21.4C21.8 17.9 22.1 18.2 22.1 18.6Z" fill="white"/>
<path d="M20.7 13.8C20.7 14.2 20.4 14.5 20 14.5H3.4C3 14.5 2.7 14.2 2.7 13.8C2.7 13.4 3 13.1 3.4 13.1H20C20.4 13.1 20.7 13.4 20.7 13.8Z" fill="white"/>
<path d="M6.9 9C6.9 9.4 6.6 9.7 6.2 9.7H4.8C4.4 9.6 4.1 9.3 4.1 9C4.1 8.6 4.4 8.3 4.8 8.3H6.2C6.6 8.3 6.9 8.6 6.9 9Z" fill="white"/>
<path d="M6.9 18.6C6.9 19 6.6 19.3 6.2 19.3H0.7C0.3 19.3 0 19 0 18.6C0 18.2 0.3 17.9 0.7 17.9H6.2C6.6 17.9 6.9 18.2 6.9 18.6Z" fill="white"/>
<path d="M13.8 4.8C13.8 5.2 13.5 5.5 13.1 5.5H10.3C9.9 5.5 9.6 5.2 9.6 4.8C9.6 4.4 9.9 4.1 10.3 4.1H13.1C13.5 4.1 13.8 4.4 13.8 4.8Z" fill="white"/>
</svg>
