<?xml version="1.0" encoding="utf-8"?>
<svg width="55" height="36" viewBox="0 0 55 36" fill="none" xmlns="http://www.w3.org/2000/svg">
<g clip-path="url(#clip0)">
<path d="M52.4 5H45.5C44.8 5 44.1 5.4 43.9 6.1C43 5.9 41.8 5.5 40.6 5.2C38.6 4.6 36.4 3.9 34 3.5C33.2 1.7 30.8 0 24.3 0C21.4 0 17.9 1.4 14.8 2.7C13.1 3.4 11.4 4.1 10.3 4.4C10 3.8 9.4 3.4 8.7 3.4H1.8C0.8 3.4 0 4.2 0 5.2V22.4C0 23.4 0.8 24.2 1.8 24.2H8.7C8.8 24.2 8.8 24.2 8.9 24.2L13 28.5C14.6 30.2 16.5 31.6 18.6 32.7L23.7 35.3C24.1 35.5 24.6 35.6 25 35.6C25.7 35.6 26.4 35.4 26.9 34.9C27.4 34.5 27.7 33.9 27.8 33.2L30.1 34.3C30.5 34.5 31 34.6 31.4 34.6C32.3 34.6 33.1 34.2 33.7 33.5C34.2 32.9 34.5 32.1 34.4 31.4C34.6 31.4 34.8 31.5 35 31.5C36.3 31.5 37.5 30.9 38.2 29.7C38.5 29.2 38.7 28.6 38.7 28C39.3 28.3 39.9 28.5 40.5 28.5C41.6 28.5 42.7 28 43.5 27.1C43.9 26.6 44.2 26 44.3 25.4C44.6 25.6 45 25.8 45.4 25.8H52.3C53.3 25.8 54.1 25 54.1 24V6.8C54.2 5.8 53.4 5 52.4 5ZM8.6 22.2H1.6V5.2H8.6V22.2ZM42.6 25.7C42.1 26.4 41.2 26.9 40.1 26.4L30.4 20.7C29.9 20.4 29.4 20.3 29 20.7C28.6 21.1 28.9 21.9 29.4 22.2L35.8 26.1C37.2 27 37.2 28.2 36.6 29C36 29.7 35.1 29.9 34.4 29.6L30.8 27.5C30.8 27.5 28 25.8 27.2 25.4C26.4 25 25.8 25.1 25.5 25.6C25.2 26.1 25.5 26.6 26 26.9L32 30.4C32.8 30.9 32.9 31.6 32.5 32.3C32 33 31.3 32.9 31 32.7L25.6 29.7L23.6 28.5C23.3 28.4 22.9 28.5 22.7 28.7C22.4 29.1 22.6 29.7 23.1 30L25.7 31.5C26.1 31.8 26.1 32.2 26.1 32.4C26.1 32.6 26 33 25.8 33.2C25.5 33.6 24.9 33.5 24.6 33.4L19.4 31C17.5 30.1 15.8 28.8 14.4 27.3L10.4 22.6C10.4 22.5 10.4 22.5 10.4 22.4V6.1C11.8 5.8 13.6 5.1 15.6 4.3C18.5 3.1 21.8 1.7 24.3 1.7C26.8 1.7 29.2 2 31.2 3C31 3 29.9 3 29.7 3C23.7 3 13.6 7.6 13.1 7.7C12.7 7.9 12.4 8.3 12.4 8.7C12.4 10.9 14.1 12.6 16.2 13.2C18.8 13.9 21.9 14.4 25.6 12.4L41.8 22.7C43.3 23.6 43.1 25 42.6 25.7ZM43.1 21.6L25.5 11C25.1 10.8 24.6 10.7 24.3 11C20.9 13 17.1 12 16 11.6C14.9 11.2 13.4 9.5 14 8.6C14.5 7.9 24.2 4.6 29.1 4.6C32.7 4.6 36.8 5.9 40.1 6.9C41.7 7.4 43.1 7.8 44.1 8V22.7C43.8 22.2 43.5 21.9 43.1 21.6ZM52.6 23.9H45.9V6.7H52.6V23.9Z" fill="white"/>
</g>
<defs>
<clipPath id="clip0">
<rect width="54.2" height="35.5" fill="white"/>
</clipPath>
</defs>
</svg>
