<?xml version="1.0" encoding="utf-8"?>
<svg width="47" height="46" viewBox="0 0 47 46" fill="none" xmlns="http://www.w3.org/2000/svg">
<path fill-rule="evenodd" clip-rule="evenodd" d="M17.9 2C16.8754 2 16.1 2.82886 16.1 3.8V11C16.1 11.5523 15.6523 12 15.1 12C14.5477 12 14.1 11.5523 14.1 11V3.8C14.1 1.77114 15.7246 0 17.9 0H42.6C43.0386 0 43.4651 0.0759181 43.8643 0.216908C44.6098 0.313526 45.1659 0.810943 45.5212 1.36456C46.0657 2.0137 46.4 2.85486 46.4 3.8V36.1C46.4 36.3236 46.3266 36.5301 46.2026 36.6967C46.1229 38.3931 44.9796 39.6124 43.9338 39.9437L29.1757 45.9267C29.0564 45.9751 28.9288 46 28.8 46C28.2813 46 27.7832 45.9034 27.3535 45.6408C26.9095 45.3694 26.635 44.9801 26.4715 44.5714C26.3161 44.1827 26.2558 43.7653 26.2277 43.3864C26.2 43.0117 26.2 42.6055 26.2 42.2213V39.8H17.8C15.7711 39.8 14 38.1754 14 36V28.3C14 27.7477 14.4477 27.3 15 27.3C15.5523 27.3 16 27.7477 16 28.3V36C16 37.0246 16.8289 37.8 17.8 37.8H26.2V10C26.2 8.03971 27.2912 6.96375 28.27 6.352C28.3191 6.32134 28.3707 6.295 28.4243 6.27326L38.965 2H17.9ZM43.5785 2.28777L29.2604 8.0924C28.6712 8.47639 28.2 8.99939 28.2 10V42.2C28.2 42.6096 28.2005 42.9452 28.2223 43.2386C28.2442 43.5347 28.2839 43.7173 28.3285 43.8286C28.363 43.915 28.3877 43.9292 28.3953 43.9336C28.3958 43.9338 28.3961 43.934 28.3965 43.9342C28.4118 43.9436 28.4739 43.9764 28.625 43.9919L43.2243 38.0733C43.2573 38.0599 43.291 38.0483 43.3253 38.0385C43.4124 38.0136 43.6603 37.8778 43.8818 37.5626C44.0864 37.2713 44.2358 36.87 44.2022 36.3665C44.2007 36.3444 44.2 36.3222 44.2 36.3V4C44.2 3.369 44.0677 2.87085 43.8999 2.55177C43.8033 2.4517 43.6954 2.36309 43.5785 2.28777ZM14.0806 15.3054C14.4642 14.9081 15.0973 14.897 15.4946 15.2806L18.3946 18.0806L18.4071 18.0929C19.2976 18.9834 19.2976 20.4166 18.4071 21.3071L15.5071 24.2071C15.1166 24.5976 14.4834 24.5976 14.0929 24.2071C13.7024 23.8166 13.7024 23.1834 14.0929 22.7929L16.248 20.6378C16.1396 20.678 16.0224 20.7 15.9 20.7H1C0.447715 20.7 0 20.2523 0 19.7C0 19.1477 0.447715 18.7 1 18.7H15.9C16.0068 18.7 16.1097 18.7167 16.2062 18.7477L14.1054 16.7194C13.7081 16.3358 13.697 15.7027 14.0806 15.3054ZM16.8409 19.3606C16.8792 19.4666 16.9 19.5809 16.9 19.7C16.9 19.8224 16.878 19.9396 16.8378 20.048L16.9929 19.8929C17.101 19.7848 17.1024 19.6207 16.9969 19.5112L16.8409 19.3606Z" fill="white"/>
</svg>
