<?xml version="1.0" encoding="utf-8"?>
<svg width="43" height="49" viewBox="0 0 43 49" fill="none" xmlns="http://www.w3.org/2000/svg">
<g clip-path="url(#clip0)">
<path fill-rule="evenodd" clip-rule="evenodd" d="M7.25039 0.736338C7.55246 1.0376 9.18581 2.6164 11.6819 3.60828C14.3075 4.65165 17.8933 5.0537 21.9771 2.54777L21.9809 2.54543C27.6467 -0.896427 32.6157 -0.300954 36.1514 1.19129C37.9016 1.92998 39.2904 2.8821 40.2413 3.64777C40.7179 4.03152 41.0878 4.3711 41.3415 4.61806C41.4685 4.74162 41.5666 4.84227 41.6348 4.91399C41.6688 4.94986 41.6955 4.97852 41.7144 4.99923L41.7268 5.01283C42.0281 5.32069 42.3001 5.7532 42.3001 6.30009V6.70009C42.3001 6.75397 42.2957 6.80776 42.2871 6.86093L35.6871 47.3609C35.5982 47.906 35.0843 48.2759 34.5392 48.1871C33.9941 48.0982 33.6243 47.5843 33.7131 47.0392L36.73 28.5265C35.7352 27.8001 33.6736 26.6254 31.0843 25.9832C28.0889 25.2402 24.484 25.2311 21.0263 27.3505C18.4891 28.9353 15.5092 29.9001 12.5001 29.9001C8.96134 29.9001 6.00717 28.641 3.94487 27.3932C2.91092 26.7675 2.09047 26.1384 1.51938 25.6567C1.23348 25.4155 1.00917 25.2106 0.850962 25.0604C0.771809 24.9853 0.709294 24.924 0.66401 24.8789C0.652399 24.8673 0.554867 24.7691 0.592963 24.8072C0.546398 24.7606 0.504547 24.7096 0.468019 24.6548C0.257676 24.3393 -0.164957 23.6355 0.0179418 22.8084L3.31231 1.94413C3.31443 1.9307 3.31682 1.91731 3.31949 1.90398C3.4685 1.15892 3.96317 0.370834 4.91329 0.139592C5.70609 -0.143657 6.64444 -0.0121031 7.25039 0.736338ZM37.0834 26.3576L40.3001 6.61923V6.41533C40.2978 6.41302 40.2955 6.4097 40.293 6.4072L40.3001 6.40009V6.32107C40.2521 6.36381 40.2522 6.36394 40.2523 6.36407L40.2516 6.36324L40.2403 6.35086C40.2291 6.33867 40.2106 6.31871 40.185 6.29171C40.1336 6.2377 40.0538 6.15563 39.9465 6.05127C39.7319 5.84237 39.4088 5.54523 38.987 5.20554C38.141 4.52433 36.911 3.68271 35.3737 3.0339C32.3348 1.7513 28.0545 1.19675 23.0212 4.2536C18.3057 7.14636 14.0422 6.69837 10.9433 5.46691C7.95269 4.27851 6.05248 2.36809 5.807 2.12129C5.80148 2.11574 5.7968 2.11104 5.79296 2.1072C5.75959 2.07382 5.72862 2.03813 5.70029 2.00038C5.68384 1.99935 5.6414 2.00059 5.57146 2.02857C5.51475 2.05125 5.45608 2.06869 5.39618 2.08067C5.38009 2.08389 5.37412 2.08747 5.37317 2.08804C5.37203 2.08871 5.36735 2.09152 5.35933 2.10088C5.34239 2.12064 5.3074 2.17456 5.28402 2.28019L1.98783 23.1561C1.98414 23.1795 1.97961 23.2027 1.97426 23.2258C1.9755 23.2337 1.97862 23.2485 1.98625 23.2714C2.00392 23.3244 2.03586 23.3907 2.08426 23.4704C2.69181 24.0714 6.76487 27.9001 12.5001 27.9001C15.0894 27.9001 17.7081 27.0658 19.9701 25.6521L19.9772 25.6476C24.0184 23.169 28.2122 23.2102 31.5658 24.042C33.8425 24.6067 35.7769 25.5456 37.0834 26.3576ZM40.3001 6.32107C40.3014 6.3462 40.3055 6.36901 40.3105 6.3897L41.0001 5.70009C40.5942 6.05988 40.4085 6.22461 40.3236 6.30009C40.3149 6.30783 40.3068 6.3151 40.3001 6.32107Z" fill="white"/>
</g>
<defs>
<clipPath id="clip0">
<rect width="42.3" height="48.2" fill="white"/>
</clipPath>
</defs>
</svg>
