<?xml version="1.0" encoding="utf-8"?>
<svg width="35" height="37" viewBox="0 0 35 37" fill="none" xmlns="http://www.w3.org/2000/svg">
<path d="M18.1 2.4V0H16.4V2.4H0V8.1H2.6V27.9H11.3L5.4 35.8L6.8 36.8L13.5 27.9H16.5V35.2H18.2V27.9H21.2L27.9 36.8L29.3 35.8L23.4 27.9H32V8.1H34.6V2.4H18.1ZM30.3 26.3H4.3V8.1H30.3V26.3ZM1.7 6.5V4.1H32.9V6.5H1.7Z" fill="white"/>
<path d="M17.4 11.9H9.1V13.6H17.4V11.9Z" fill="white"/>
<path d="M25.4 16.2H9.1V17.9H25.4V16.2Z" fill="white"/>
<path d="M25.4 20.4H9.1V22.1H25.4V20.4Z" fill="white"/>
</svg>
