<?xml version="1.0" encoding="utf-8"?>
<svg width="47" height="47" viewBox="0 0 47 47" fill="none" xmlns="http://www.w3.org/2000/svg">
<path d="M23.1999 16.1C23.7999 16.1 24.3999 15.6 24.3999 14.9C24.3999 14.3 23.8999 13.7 23.1999 13.7C18.0999 13.7 13.9999 17.8 13.9999 22.9C13.9999 28 18.0999 32.1 23.1999 32.1C28.2999 32.1 32.3999 28 32.3999 22.9C32.3999 22.3 31.8999 21.7 31.1999 21.7C30.4999 21.7 29.9999 22.2 29.9999 22.9C29.9999 26.7 26.8999 29.8 23.0999 29.8C19.2999 29.8 16.1999 26.7 16.1999 22.9C16.1999 19.1 19.3999 16.1 23.1999 16.1Z" fill="white"/>
<path d="M45.1999 16.2C44.9999 15.6 44.2999 15.3 43.6999 15.5C43.0999 15.7 42.7999 16.3 42.9999 16.9C46.3999 27.9 40.2999 39.6 29.3999 43C18.4999 46.4 6.69989 40.3 3.29989 29.4C-0.100112 18.5 5.89989 6.7 16.8999 3.3C20.9999 2 25.2999 2 29.3999 3.3C29.9999 3.5 30.6999 3.2 30.8999 2.6C31.0999 2 30.7999 1.3 30.1999 1.1C17.8999 -2.8 4.89989 4 1.09989 16.2C-2.70011 28.4 4.09989 41.4 16.1999 45.2C28.2999 49 41.3999 42.2 45.1999 30.1C46.5999 25.6 46.5999 20.7 45.1999 16.2Z" fill="white"/>
<path d="M25.3999 8.2C25.3999 7.5 24.8999 7 24.1999 6.9C23.8999 6.9 23.4999 6.8 23.1999 6.8C14.2999 6.8 7.09989 14 7.09989 22.9C7.09989 31.8 14.2999 39 23.1999 39C32.0999 39 39.3999 32 39.3999 23.1C39.3999 22.7 39.3999 22.3 39.2999 21.9C39.1999 21.3 38.6999 20.8 37.9999 20.8C37.3999 20.9 36.8999 21.4 36.8999 22.1C36.8999 22.2 36.8999 22.2 36.8999 22.3C36.8999 22.6 36.8999 22.9 36.8999 23.1C36.8999 30.7 30.6999 36.9 23.0999 36.9C15.4999 36.9 9.39989 30.7 9.39989 23.1C9.39989 15.5 15.5999 9.2 23.1999 9.2C23.4999 9.2 23.7999 9.2 23.9999 9.2H24.1999C24.8999 9.3 25.3999 8.9 25.3999 8.2Z" fill="white"/>
<path d="M30.0999 10.4V14.5L22.3999 22.2C21.8999 22.6 21.8999 23.4 22.3999 23.8C22.7999 24.3 23.5999 24.3 23.9999 23.8L31.6999 16.1H35.7999C36.0999 16.1 36.3999 16 36.5999 15.8L43.4999 8.9C43.9999 8.4 43.9999 7.7 43.4999 7.3C43.2999 7.1 42.9999 7 42.6999 7H39.1999V3.5C39.1999 2.9 38.6999 2.3 37.9999 2.3C37.6999 2.3 37.3999 2.4 37.1999 2.6L30.2999 9.5C30.2999 9.8 30.0999 10.1 30.0999 10.4ZM32.3999 10.9L36.9999 6.2V8C36.9999 8.6 37.4999 9.2 38.1999 9.2H39.9999L35.3999 13.8H32.3999V10.9Z" fill="white"/>
</svg>
