<svg width="64" height="50" viewBox="0 0 64 50" fill="none" xmlns="http://www.w3.org/2000/svg">
<path d="M47.6 18.1C45.5 9.4 41.4 0 37.3 0C37.1 0 36.9 0 36.7 0.1C35.8 0.3 35.1 1 34.6 2.1C34.5 2.1 34.5 2.2 34.4 2.2C32.2 5.1 24 14.7 14.7 17L7.60003 18.8H7.50003C5.30003 19.4 3.50003 20.8 2.30003 22.7C1.10003 24.7 0.70003 27.1 1.20003 29.4C1.80003 31.7 3.20003 33.6 5.20003 34.8C7.20003 36 9.60003 36.4 11.9 35.8L13.4 35.4L15.2 35L21.1 47.1C21.9 48.7 23.4 49.6 25.1 49.6C25.7 49.6 26.4 49.5 27 49.2C29.2 48.1 30.1 45.5 29 43.3L24.2 33.5C32.7 33.4 41.4 37.4 43.4 38.3C44.1 38.8 44.8 39.1 45.5 39.1C45.7 39.1 45.9 39.1 46.1 39C48 38.5 49.1 36 49.2 31.8C49.4 28 48.8 23.1 47.6 18.1ZM11.5 34C9.70003 34.4 7.80003 34.2 6.20003 33.2C4.60003 32.2 3.50003 30.7 3.10003 28.9C2.70003 27.1 3.00003 25.2 3.90003 23.7C4.90003 22.1 6.40003 21 8.20003 20.6L8.80003 20.4L12 33.9L11.5 34ZM26.2 47.5C24.9 48.1 23.4 47.6 22.8 46.3L20.7 41.9L25.3 39.8L27.4 44.1C27.9 45.4 27.4 46.9 26.2 47.5ZM24.4 38.1L19.8 40.2L17 34.6L19.2 34.1C20.2 33.9 21.2 33.7 22.2 33.6L24.4 38.1ZM18.8 32.2L13.9 33.4L10.6 20L15.1 18.9C23 17 29.9 10.3 33.7 6.1C33.7 6.5 33.6 6.9 33.6 7.3C33.5 9.3 33.6 11.6 34 14V14.1C34.3 16.3 34.7 18.6 35.3 21C35.9 23.3 36.6 25.7 37.4 27.9V28C37.4 28.1 37.5 28.2 37.6 28.3C38.5 30.8 39.6 33.1 40.7 34.9C35.6 33 26.7 30.3 18.8 32.2ZM36 14.9C37.4 15.3 39.1 17.2 39.8 20.2C40.5 23.1 39.9 25.6 38.8 26.6C38.2 24.8 37.6 22.9 37.1 20.7C36.6 18.7 36.2 16.7 36 14.9ZM47.4 31.8C47.3 35.3 46.5 37.1 45.7 37.3C45.7 37.3 45.6 37.3 45.5 37.3C45.3 37.3 45.1 37.2 44.9 37.1C44.8 37 44.7 36.9 44.6 36.9C44.6 36.9 44.5 36.8 44.3 36.8C42.9 35.7 41.1 32.8 39.4 28.5C41.5 27.2 42.4 23.7 41.5 19.8C40.6 15.9 38.1 13.2 35.6 13C35.4 11 35.3 9.1 35.4 7.5C35.5 4 36.3 2.2 37.1 2C37.1 2 37.2 2 37.3 2C39.1 2 43.2 7.9 45.8 18.6C47 23.4 47.5 28.1 47.4 31.8Z" fill="white"/>
<path d="M54.8 17.5C54.4 17.5 54 17.2 53.9 16.8C53.8 16.3 54.1 15.8 54.6 15.7L60.8 14.2C61.3 14.1 61.8 14.4 61.9 14.9C62 15.4 61.7 15.9 61.2 16L55 17.5C55 17.5 54.9 17.5 54.8 17.5Z" fill="white"/>
<path d="M50.1 7.2C49.8 7.2 49.6 7.1 49.4 6.9C49.1 6.5 49.1 5.9 49.5 5.6L55 0.9C55.4 0.6 56 0.6 56.3 1C56.6 1.4 56.6 2 56.2 2.3L50.8 7C50.6 7.2 50.4 7.2 50.1 7.2Z" fill="white"/>
<path d="M63.1 30.5C63 30.5 62.8 30.5 62.7 30.5L55.9 28.8C55.4 28.7 55.1 28.2 55.2 27.7C55.3 27.2 55.8 26.9 56.3 27L63.1 28.7C63.6 28.8 63.9 29.3 63.8 29.8C63.8 30.1 63.4 30.4 63.1 30.5Z" fill="white"/>
</svg>
