<?xml version="1.0" encoding="utf-8"?>
<svg width="62" height="66" viewBox="0 0 62 66" fill="none" xmlns="http://www.w3.org/2000/svg">
<g clip-path="url(#clip0)">
<path d="M30.7003 0.199951C33.4003 0.199951 35.5003 2.39995 35.5003 5.09995C35.5003 7.79995 33.3003 9.89995 30.7003 9.89995C28.0003 9.89995 25.8003 7.69995 25.8003 5.09995C25.8003 2.39995 28.0003 0.199951 30.7003 0.199951ZM30.7003 1.29995C28.5003 1.29995 26.9003 2.99995 26.9003 5.09995C26.9003 7.19995 28.6003 8.89995 30.7003 8.89995C32.8003 8.89995 34.5003 7.19995 34.5003 5.09995C34.5003 2.99995 32.8003 1.29995 30.7003 1.29995Z" fill="white"/>
<path fill-rule="evenodd" clip-rule="evenodd" d="M30.7003 0.449951C28.1384 0.449951 26.0503 2.53802 26.0503 5.09995C26.0503 7.55855 28.135 9.64995 30.7003 9.64995C33.1656 9.64995 35.2503 7.6585 35.2503 5.09995C35.2503 2.53124 33.2555 0.449951 30.7003 0.449951ZM25.5503 5.09995C25.5503 2.26188 27.8622 -0.0500488 30.7003 -0.0500488C33.5451 -0.0500488 35.7503 2.26866 35.7503 5.09995C35.7503 7.9414 33.435 10.15 30.7003 10.15C27.8656 10.15 25.5503 7.84135 25.5503 5.09995ZM26.6503 5.09995C26.6503 2.86622 28.3579 1.04995 30.7003 1.04995C32.9384 1.04995 34.7503 2.86188 34.7503 5.09995C34.7503 7.33802 32.9384 9.14995 30.7003 9.14995C28.4622 9.14995 26.6503 7.33802 26.6503 5.09995ZM30.7003 1.54995C28.6427 1.54995 27.1503 3.13368 27.1503 5.09995C27.1503 7.06188 28.7384 8.64995 30.7003 8.64995C32.6622 8.64995 34.2503 7.06188 34.2503 5.09995C34.2503 3.13802 32.6622 1.54995 30.7003 1.54995Z" fill="white"/>
<path d="M30.6998 10.8C26.9998 10.8 23.8998 13.6 23.4998 17.3C23.3998 17.6 23.6998 17.9 23.8998 17.9H37.4998C37.7998 17.9 37.9998 17.6 37.9998 17.3C37.4998 13.6 34.3998 10.8 30.6998 10.8ZM30.6998 11.8C33.6998 11.8 36.1998 13.9 36.7998 16.7H24.5998C25.1998 13.9 27.6998 11.8 30.6998 11.8Z" fill="white"/>
<path fill-rule="evenodd" clip-rule="evenodd" d="M23.2541 17.2495C23.6784 13.4356 26.8791 10.55 30.7001 10.55C34.5302 10.55 37.7318 13.4476 38.2478 17.2666L38.2501 17.2832V17.3C38.2501 17.5025 38.1834 17.7072 38.0599 17.866C37.9343 18.0275 37.7411 18.15 37.5001 18.15H23.9001C23.694 18.15 23.5039 18.0122 23.3902 17.866C23.2733 17.7157 23.1855 17.4914 23.2541 17.2495ZM30.7001 11.05C27.129 11.05 24.1351 13.7526 23.7486 17.3269L23.7457 17.3536L23.7373 17.3791C23.7215 17.4263 23.7314 17.4903 23.7849 17.5591C23.8105 17.592 23.8407 17.6179 23.8678 17.6341C23.8899 17.6474 23.902 17.6497 23.903 17.65H37.5001C37.559 17.65 37.6159 17.6226 37.6652 17.5591C37.7141 17.4963 37.7466 17.4073 37.7498 17.3151C37.2581 13.7432 34.2638 11.05 30.7001 11.05ZM24.9177 16.45H36.4824C35.7975 13.9164 33.4716 12.05 30.7001 12.05C27.9286 12.05 25.6026 13.9164 24.9177 16.45ZM24.3556 16.6477C24.98 13.7338 27.5808 11.55 30.7001 11.55C33.8194 11.55 36.4201 13.7338 37.0445 16.6477L37.1093 16.95H24.2908L24.3556 16.6477Z" fill="white"/>
<path d="M7.5001 41.8999C10.2001 41.8999 12.3001 44.0999 12.3001 46.7999C12.3001 49.4999 10.1001 51.5999 7.5001 51.5999C4.8001 51.5999 2.6001 49.3999 2.6001 46.7999C2.6001 44.0999 4.8001 41.8999 7.5001 41.8999ZM7.5001 42.9999C5.3001 42.9999 3.7001 44.6999 3.7001 46.7999C3.7001 48.8999 5.4001 50.5999 7.5001 50.5999C9.6001 50.5999 11.3001 48.8999 11.3001 46.7999C11.3001 44.5999 9.6001 42.9999 7.5001 42.9999Z" fill="white"/>
<path fill-rule="evenodd" clip-rule="evenodd" d="M7.5001 42.1499C4.93817 42.1499 2.8501 44.238 2.8501 46.7999C2.8501 49.2585 4.93481 51.3499 7.5001 51.3499C9.96543 51.3499 12.0501 49.3584 12.0501 46.7999C12.0501 44.2312 10.0553 42.1499 7.5001 42.1499ZM2.3501 46.7999C2.3501 43.9618 4.66203 41.6499 7.5001 41.6499C10.3449 41.6499 12.5501 43.9686 12.5501 46.7999C12.5501 49.6414 10.2348 51.8499 7.5001 51.8499C4.66538 51.8499 2.3501 49.5413 2.3501 46.7999ZM3.4501 46.7999C3.4501 44.5662 5.15772 42.7499 7.5001 42.7499C9.73382 42.7499 11.5501 44.4575 11.5501 46.7999C11.5501 49.038 9.73817 50.8499 7.5001 50.8499C5.26203 50.8499 3.4501 49.038 3.4501 46.7999ZM7.5001 43.2499C5.44247 43.2499 3.9501 44.8336 3.9501 46.7999C3.9501 48.7618 5.53817 50.3499 7.5001 50.3499C9.46203 50.3499 11.0501 48.7618 11.0501 46.7999C11.0501 44.7423 9.46637 43.2499 7.5001 43.2499Z" fill="white"/>
<path d="M7.49965 52.3999C3.79965 52.3999 0.699648 55.1999 0.299648 58.8999C0.199648 59.1999 0.499648 59.4999 0.699648 59.4999H14.2996C14.5996 59.4999 14.7996 59.1999 14.7996 58.8999C14.2996 55.2999 11.1996 52.3999 7.49965 52.3999ZM7.49965 53.4999C10.4996 53.4999 12.9996 55.5999 13.5996 58.3999H1.39965C1.99965 55.4999 4.49965 53.4999 7.49965 53.4999Z" fill="white"/>
<path fill-rule="evenodd" clip-rule="evenodd" d="M0.0539394 58.8493C0.478185 55.0354 3.67885 52.1499 7.49989 52.1499C11.3328 52.1499 14.5315 55.1501 15.0475 58.8655L15.0499 58.8826V58.8999C15.0499 59.1024 14.9832 59.3071 14.8597 59.4659C14.7341 59.6274 14.5409 59.7499 14.2999 59.7499H0.699889C0.493813 59.7499 0.303749 59.6121 0.190051 59.4659C0.073127 59.3156 -0.0147144 59.0913 0.0539394 58.8493ZM7.49989 52.6499C3.92884 52.6499 0.934857 55.3524 0.548441 58.9268L0.545554 58.9535L0.53706 58.979C0.521318 59.0262 0.531224 59.0901 0.584727 59.1589C0.610352 59.1919 0.640483 59.2177 0.667575 59.234C0.689685 59.2472 0.70184 59.2496 0.702781 59.2499H14.2999C14.3588 59.2499 14.4157 59.2224 14.4651 59.1589C14.5138 59.0962 14.5463 59.0074 14.5496 58.9154C14.0574 55.4396 11.0605 52.6499 7.49989 52.6499ZM1.71482 58.1499H13.2822C12.5973 55.6162 10.2714 53.7499 7.49989 53.7499C4.72047 53.7499 2.39535 55.5323 1.71482 58.1499ZM1.15507 58.3493C1.77972 55.3301 4.38446 53.2499 7.49989 53.2499C10.6192 53.2499 13.2199 55.4337 13.8443 58.3475L13.9091 58.6499H1.09287L1.15507 58.3493Z" fill="white"/>
<path d="M53.9 42C56.6 42 58.7 44.2 58.7 46.9C58.7 49.6 56.5 51.7 53.9 51.7C51.2 51.7 49 49.5 49 46.9C49 44.2 51.2 42 53.9 42ZM53.9 43C51.7 43 50.1 44.7 50.1 46.8C50.1 48.9 51.8 50.6 53.9 50.6C56 50.6 57.7 48.9 57.7 46.8C57.7 44.7 56 43 53.9 43Z" fill="white"/>
<path fill-rule="evenodd" clip-rule="evenodd" d="M53.9 42.25C51.3381 42.25 49.25 44.3381 49.25 46.9C49.25 49.3586 51.3347 51.45 53.9 51.45C56.3653 51.45 58.45 49.4586 58.45 46.9C58.45 44.3313 56.4552 42.25 53.9 42.25ZM48.75 46.9C48.75 44.0619 51.0619 41.75 53.9 41.75C56.7448 41.75 58.95 44.0687 58.95 46.9C58.95 49.7415 56.6347 51.95 53.9 51.95C51.0653 51.95 48.75 49.6414 48.75 46.9ZM49.85 46.8C49.85 44.5663 51.5576 42.75 53.9 42.75C56.1381 42.75 57.95 44.5619 57.95 46.8C57.95 49.0381 56.1381 50.85 53.9 50.85C51.6619 50.85 49.85 49.0381 49.85 46.8ZM53.9 43.25C51.8424 43.25 50.35 44.8337 50.35 46.8C50.35 48.7619 51.9381 50.35 53.9 50.35C55.8619 50.35 57.45 48.7619 57.45 46.8C57.45 44.8381 55.8619 43.25 53.9 43.25Z" fill="white"/>
<path d="M53.8996 52.5C50.1996 52.5 47.0996 55.3 46.6996 59C46.5996 59.3 46.8995 59.6 47.0995 59.6H60.6996C60.9996 59.6 61.1996 59.3 61.1996 59C60.6996 55.3 57.5996 52.5 53.8996 52.5ZM53.8996 53.6C56.8996 53.6 59.3995 55.7 59.9995 58.5H47.7995C48.3995 55.6 50.8996 53.6 53.8996 53.6Z" fill="white"/>
<path fill-rule="evenodd" clip-rule="evenodd" d="M46.4538 58.9494C46.8781 55.1355 50.0788 52.25 53.8998 52.25C57.7299 52.25 60.9315 55.1475 61.4475 58.9665L61.4498 58.9832V59C61.4498 59.2025 61.3831 59.4072 61.2596 59.566C61.134 59.7275 60.9409 59.85 60.6998 59.85H47.0998C46.8937 59.85 46.7036 59.7122 46.59 59.566C46.473 59.4157 46.3852 59.1914 46.4538 58.9494ZM53.8998 52.75C50.3287 52.75 47.3348 55.4525 46.9483 59.0269L46.9455 59.0536L46.937 59.0791C46.9212 59.1263 46.9311 59.1902 46.9846 59.259C47.0103 59.292 47.0404 59.3178 47.0675 59.3341C47.0896 59.3473 47.1017 59.3497 47.1027 59.35H60.6998C60.7587 59.35 60.8156 59.3225 60.865 59.259C60.9138 59.1962 60.9463 59.1073 60.9495 59.015C60.4578 55.4432 57.4635 52.75 53.8998 52.75ZM48.1147 58.25H59.6821C58.9972 55.7163 56.6713 53.85 53.8998 53.85C51.1204 53.85 48.7953 55.6323 48.1147 58.25ZM47.555 58.4493C48.1796 55.4302 50.7844 53.35 53.8998 53.35C57.0191 53.35 59.6198 55.5338 60.2442 58.4476L60.309 58.75H47.4928L47.555 58.4493Z" fill="white"/>
<path fill-rule="evenodd" clip-rule="evenodd" d="M19.4828 15.1306C19.7421 15.6183 19.5569 16.2238 19.0693 16.483C11.4684 20.524 6.27916 28.2153 5.79842 37.2532C5.76908 37.8047 5.29822 38.228 4.74671 38.1986C4.19521 38.1693 3.77191 37.6984 3.80124 37.1469C4.3205 27.3848 9.93127 19.0761 18.1304 14.7171C18.6181 14.4578 19.2235 14.643 19.4828 15.1306Z" fill="white"/>
<path fill-rule="evenodd" clip-rule="evenodd" d="M17.7154 60.9333C17.9732 60.4449 18.5781 60.2579 19.0666 60.5157C22.5289 62.3431 26.4694 63.4001 30.6998 63.4001C34.7408 63.4001 38.584 62.438 41.9425 60.7108C42.4336 60.4582 43.0365 60.6516 43.2891 61.1428C43.5417 61.6339 43.3483 62.2368 42.8572 62.4894C39.2156 64.3622 35.0589 65.4001 30.6998 65.4001C26.1302 65.4001 21.8707 64.2571 18.1331 62.2845C17.6446 62.0267 17.4576 61.4218 17.7154 60.9333Z" fill="white"/>
<path fill-rule="evenodd" clip-rule="evenodd" d="M40.4912 14.4829C40.7216 13.9809 41.3152 13.7607 41.8172 13.991C50.6391 18.0387 56.979 26.759 57.4988 36.9489C57.527 37.5005 57.1027 37.9705 56.5511 37.9986C55.9995 38.0267 55.5296 37.6024 55.5014 37.0509C55.0213 27.6408 49.1612 19.5611 40.9831 15.8088C40.4812 15.5785 40.2609 14.9848 40.4912 14.4829Z" fill="white"/>
<path d="M36.8 45.9C36 46.4 34.7 47 33.1 47C31.1 47 29.3 46.1999 28 44.7999C27 43.6999 26.4 42.3 26.2 40.5H24.6V39.2999H26C26 39.1999 26 39 26 38.9C26 38.5 26 38.0999 26 37.7999H24.5V36.5H26.2C26.5 34.7 27.3 33.2999 28.3 32.2999C29.6 30.9999 31.2 30.2 33.3 30.2C34.8 30.2 35.9 30.6 36.6 31L36.1 32.7C35.5 32.3 34.4 32 33.3 32C31.9 32 30.8 32.5 30 33.4C29.2 34.1 28.7 35.2999 28.5 36.5999H35.5V37.9H28.3C28.3 38.2 28.3 38.6 28.3 39C28.3 39.2 28.3 39.3 28.3 39.5H35.6V40.7H28.5C28.7 42.1 29.2 43.2 29.9 44C30.8 45 32.1 45.4 33.4 45.4C34.7 45.4 35.9 44.8999 36.5 44.5999L36.8 45.9Z" fill="white"/>
</g>
<defs>
<clipPath id="clip0">
<rect width="61.4" height="65.4" fill="white"/>
</clipPath>
</defs>
</svg>
