<?xml version="1.0" encoding="utf-8"?>
<svg width="40" height="41" viewBox="0 0 40 41" fill="none" xmlns="http://www.w3.org/2000/svg">
<path d="M25.2 28.5C31.2 25 35.7 19.5 38 13C38 13 38 12.9 38.1 12.9C38.1 12.8 38.1 12.8 38.1 12.7C39.3 9.2 39.9 5.4 39.8 1.7C39.8 1.3 39.5 0.999999 39.1 0.999999C35.4 0.899999 31.7 1.4 28.2 2.6C28.1 2.6 28 2.6 28 2.6C28 2.6 27.9 2.6 27.9 2.7C21.4 5 15.9 9.5 12.4 15.5C7 15.8 2.5 19.5 1.1 24.6C1 25 1.3 25.4 1.6 25.5C1.7 25.5 1.8 25.5 2 25.5C4.4 24.9 6.9 25.1 9.1 26C9.7 26.3 10.3 26.6 10.9 27C9.7 28.5 8.7 30.1 8 31.9C7.9 32.3 8.1 32.7 8.4 32.8C8.6 32.9 8.7 32.9 8.9 32.8C10.7 32.1 12.3 31.1 13.8 29.9C14.2 30.5 14.5 31 14.8 31.7C15.8 33.9 15.9 36.4 15.3 38.8C15.2 39.2 15.4 39.6 15.8 39.7C15.9 39.7 16 39.7 16.2 39.7C21.3 38.3 25 33.8 25.2 28.5ZM38.4 2.4C38.4 5.5 38 8.6 37 11.5C33.6 9.9 30.9 7.1 29.2 3.7C32.2 2.9 35.3 2.4 38.4 2.4ZM2.9 23.9C4.3 20.3 7.6 17.7 11.4 17.1C11.3 17.2 11.3 17.4 11.2 17.5C11.1 17.7 11 17.9 10.9 18.1C10.7 18.5 10.5 18.9 10.3 19.4C10.2 19.7 10 20 9.9 20.4C9.8 20.6 9.8 20.8 9.7 21C9.5 21.5 9.4 21.9 9.3 22.4C9.3 22.5 9.3 22.5 9.2 22.6C9 23.2 8.9 23.7 8.8 24.3C8.8 24.4 8.8 24.4 8.8 24.5C6.9 23.7 4.9 23.5 2.9 23.9ZM10.1 30.7C10.8 29.5 11.6 28.3 12.5 27.3C13.9 25.7 15.6 24.4 17.5 23.3C15.7 26.4 13.2 29 10.1 30.7ZM19.6 22.2C19.7 21.8 19.5 21.4 19.2 21.3C19 21.2 18.9 21.2 18.7 21.3C16.1 22.3 13.8 23.9 11.9 26C11.4 25.6 10.9 25.3 10.3 25C10.4 24.4 10.5 23.9 10.7 23.3C10.7 23.2 10.8 23.1 10.8 23C11 22.4 11.2 21.7 11.4 21.1C11.5 20.9 11.5 20.8 11.6 20.6C11.8 20 12 19.5 12.3 18.9C12.4 18.7 12.5 18.5 12.6 18.2C12.8 17.8 13 17.4 13.2 17C16.4 11.1 21.7 6.6 28 4.2C28.9 6.1 30.1 7.8 31.5 9.3C33 10.8 34.7 12 36.6 12.9C34.3 19.1 29.8 24.3 24 27.5C23.5 27.8 23 28 22.5 28.3C22.3 28.4 22.2 28.5 22 28.5C21.4 28.8 20.8 29 20.2 29.2C20.1 29.2 20 29.3 19.9 29.3C19.2 29.5 18.5 29.8 17.8 29.9H17.6C17 30.1 16.5 30.2 15.9 30.3C15.6 29.7 15.3 29.2 14.9 28.7C16.9 27.1 18.5 24.8 19.6 22.2ZM16.9 37.9C17.2 35.9 17 33.9 16.4 31.9H16.5C17.7 31.6 18.8 31.3 20 30.9C20.1 30.9 20.3 30.8 20.4 30.8C20.9 30.6 21.3 30.5 21.7 30.3C21.9 30.2 22 30.2 22.2 30.1C22.6 29.9 23 29.7 23.4 29.5C23.5 29.4 23.6 29.4 23.7 29.3C23.2 33.2 20.6 36.5 16.9 37.9Z" fill="white"/>
<path d="M29.3 18.1C31.1 16.3 31.1 13.3 29.3 11.5C27.5 9.7 24.5 9.7 22.7 11.5C20.9 13.3 20.9 16.3 22.7 18.1C24.5 19.9 27.5 19.9 29.3 18.1ZM23.7 17.1C22.4 15.8 22.4 13.8 23.7 12.5C25 11.2 27 11.2 28.3 12.5C29.6 13.8 29.6 15.8 28.3 17.1C27.1 18.3 25 18.3 23.7 17.1Z" fill="white"/>
<path d="M14.2 33.3C13.8 33.2 13.4 33.3 13.3 33.7C12.3 36.4 9.9 38.3 7.1 38.7L1.5 39.3L2.1 33.7C2.5 30.9 4.4 28.5 7.1 27.5C7.5 27.4 7.7 27 7.6 26.6C7.5 26.2 7.1 26 6.7 26.1C6.7 26.1 6.7 26.1 6.6 26.1C3.4 27.3 1.2 30.1 0.7 33.5L0 40C0 40.4 0.2 40.8 0.6 40.8C0.7 40.8 0.7 40.8 0.8 40.8L7.3 40.1C10.6 39.6 13.5 37.4 14.7 34.2C14.8 33.8 14.6 33.4 14.2 33.3Z" fill="white"/>
</svg>
