<?xml version="1.0" encoding="utf-8"?>
<svg width="50" height="19" viewBox="0 0 50 19" fill="none" xmlns="http://www.w3.org/2000/svg">
<path fill-rule="evenodd" clip-rule="evenodd" d="M25.7 8.4L24.2 6.9L25.4 5.7L29 9.3L25.4 12.9L24.2 11.7L25.8 10.1H19.2V8.4H25.7Z" fill="white"/>
<path d="M14.4 3V15.4H2V3H14.4ZM16.4 1H0V17.4H16.4V1Z" fill="white"/>
<path d="M40.2 2C44.2 2 47.4 5.2 47.4 9.2C47.4 13.2 44.2 16.4 40.2 16.4C36.2 16.4 33 13.2 33 9.2C33 5.2 36.2 2 40.2 2ZM40.2 0C35.1 0 31 4.1 31 9.2C31 14.3 35.1 18.4 40.2 18.4C45.3 18.4 49.4 14.3 49.4 9.2C49.4 4.1 45.3 0 40.2 0Z" fill="white"/>
</svg>
