<?xml version="1.0" encoding="utf-8"?>
<svg width="57" height="43" viewBox="0 0 57 43" fill="none" xmlns="http://www.w3.org/2000/svg">
<path d="M31.2999 0.0378418C30.8999 0.0378418 30.4999 0.337817 30.2999 0.637817L27.9999 4.43781L24.1999 6.73779C23.5999 7.13779 23.3999 7.83781 23.7999 8.43781C23.8999 8.63781 23.9999 8.73783 24.1999 8.83783L27.9999 11.1378L30.2999 14.9378C30.6999 15.5378 31.3999 15.7378 31.9999 15.3378C32.1999 15.2378 32.2999 15.1378 32.3999 14.9378L34.6999 11.1378L38.4999 8.83783C39.0999 8.43783 39.2999 7.73782 38.8999 7.13782C38.7999 6.93782 38.6999 6.83779 38.4999 6.73779L34.6999 4.43781L32.3999 0.637817C32.1999 0.237817 31.7999 0.0378418 31.3999 0.0378418H31.2999ZM31.3999 3.63782L32.7999 5.93781C32.8999 6.13781 32.9999 6.23783 33.1999 6.33783L35.4999 7.73779L33.1999 9.13782C32.9999 9.23782 32.8999 9.33784 32.7999 9.53784L31.3999 11.8378L29.9999 9.63782C29.8999 9.43782 29.6999 9.33779 29.5999 9.23779L27.2999 7.83783L29.5999 6.43781C29.7999 6.33781 29.8999 6.13784 29.9999 6.03784L31.3999 3.63782ZM45.1999 6.63782H45.0999C44.5999 6.63782 44.1999 6.93781 44.0999 7.43781L41.5999 13.8378L35.1999 16.3378C34.5999 16.5378 34.1999 17.3378 34.4999 17.9378C34.5999 18.2378 34.8999 18.5378 35.1999 18.6378L41.5999 21.1378L44.0999 27.5378C44.3999 28.1378 45.0999 28.5378 45.6999 28.2378C45.9999 28.1378 46.2999 27.8378 46.3999 27.5378L48.8999 21.1378L55.2999 18.6378C55.8999 18.4378 56.2999 17.6378 55.9999 17.0378C55.8999 16.7378 55.5999 16.4378 55.2999 16.3378L48.8999 13.8378L46.3999 7.43781C46.1999 6.93781 45.6999 6.63782 45.1999 6.63782ZM45.2999 11.2378L46.8999 15.2378C46.9999 15.5378 47.2999 15.8378 47.5999 15.9378L51.4999 17.5378L47.5999 19.1378C47.2999 19.2378 46.9999 19.5378 46.8999 19.8378L45.2999 23.8378L43.6999 19.8378C43.5999 19.5378 43.2999 19.2378 42.9999 19.1378L39.0999 17.5378L42.9999 15.9378C43.2999 15.8378 43.5999 15.5378 43.6999 15.2378L45.2999 11.2378ZM21.6999 22.7378C19.0999 22.7378 16.5999 22.9378 13.7999 23.7378C13.0999 23.9378 12.7999 24.6378 12.9999 25.3378C13.1999 26.0378 13.8999 26.3378 14.4999 26.1378C19.3999 24.7378 23.0999 25.2378 29.3999 25.7378C29.3999 25.9378 29.3999 26.1378 29.3999 26.2378C29.2999 26.5378 29.2999 26.6378 29.0999 26.7378C28.7999 26.9378 27.7999 27.2378 25.8999 27.1378C24.7999 27.0378 23.8999 27.2378 23.1999 27.9378C22.4999 28.6378 22.4999 29.6378 22.7999 30.3378C23.1999 31.7378 24.2999 32.8378 25.6999 33.3378C29.9999 34.9378 33.3999 35.1378 35.8999 34.7378C38.4999 34.3378 40.2999 33.4378 41.1999 33.2378C42.2999 32.9378 42.8999 33.2378 43.4999 33.7378C43.7999 34.0378 43.9999 34.3378 44.0999 34.6378C36.4999 38.0378 26.7999 39.4378 19.2999 36.6378C17.4999 35.9378 15.6999 35.7378 13.9999 35.6378L10.8999 24.6378C10.6999 23.9378 9.99991 23.5378 9.39991 23.7378L1.89991 25.6378H1.79991C1.19991 25.8378 0.899907 26.5378 0.999907 27.1378L4.99991 41.6378C5.19991 42.3378 5.89991 42.7378 6.49991 42.5378L13.9999 40.6378C14.6999 40.4378 15.0999 39.7378 14.8999 39.1378L14.6999 38.3378C15.8999 38.4378 17.1999 38.6378 18.3999 39.1378C27.0999 42.3378 37.7999 40.5378 46.0999 36.7378C46.4999 36.5378 46.7999 36.1378 46.7999 35.6378C46.7999 34.4378 46.2999 33.1378 45.1999 32.1378C44.0999 31.1378 42.3999 30.4378 40.3999 30.9378C39.0999 31.3378 37.6999 32.0378 35.4999 32.4378C33.2999 32.7378 30.3999 32.6378 26.4999 31.1378C26.0999 30.9378 25.3999 30.2378 25.1999 29.8378C25.1999 29.8378 25.1999 29.8378 25.6999 29.8378C27.6999 29.9378 29.2999 29.9378 30.5999 28.9378C31.1999 28.4378 31.5999 27.7378 31.7999 27.0378C31.9999 26.2378 31.9999 25.4378 31.7999 24.5378C31.6999 23.9378 31.2999 23.5378 30.6999 23.4378C27.1999 23.0378 24.2999 22.7378 21.6999 22.7378ZM8.79991 26.4378L12.0999 38.4378L7.09991 39.7378L3.79991 27.7378L8.79991 26.4378Z" fill="white"/>
</svg>
