<?xml version="1.0" encoding="utf-8"?>
<svg width="46" height="52" viewBox="0 0 46 52" fill="none" xmlns="http://www.w3.org/2000/svg">
<path d="M45.9001 25.1C45.9001 25.1 45.9001 25 45.8001 25C45.8001 25 45.8001 24.9 45.7001 24.9C42.4001 21 31.2001 15 23.6001 14.7C23.4001 14.7 23.2001 14.7 23.0001 14.7C22.8001 14.7 22.6001 14.7 22.4001 14.7C14.8001 14.9 3.6001 21 0.300098 24.8L0.200098 24.9C0.200098 24.9 0.200098 25 0.100098 25V26C0.100098 26 0.100098 26.1 0.200098 26.1C0.200098 26.1 0.200098 26.2 0.300098 26.2C3.6001 30.1 14.8001 36.1 22.4001 36.4C22.6001 36.4 22.8001 36.4 23.0001 36.4C23.2001 36.4 23.4001 36.4 23.6001 36.4C31.2001 36.1 42.4001 30 45.7001 26.2L45.8001 26.1C45.8001 26.1 45.8001 26 45.9001 26V25.1ZM5.3001 27.5C4.4001 26.9 3.6001 26.2 2.9001 25.7C3.5001 25.1 4.3001 24.5 5.3001 23.9C7.6001 22.3 10.5001 20.7 13.6001 19.5C13.4001 19.8 13.2001 20.1 13.0001 20.4C12.1001 22 11.6001 23.8 11.6001 25.7C11.6001 27.6 12.1001 29.4 13.0001 31C13.2001 31.3 13.4001 31.6 13.6001 31.9C10.6001 30.6 7.6001 29 5.3001 27.5ZM22.9001 34.2C18.0001 34.2 14.1001 30.4 14.1001 25.6C14.1001 20.8 18.1001 17 22.9001 17C27.7001 17 31.7001 20.8 31.7001 25.6C31.7001 30.4 27.8001 34.2 22.9001 34.2ZM40.5001 27.5C38.2001 29.1 35.3001 30.7 32.2001 31.9C32.4001 31.6 32.6001 31.3 32.8001 31C33.7001 29.4 34.2001 27.6 34.2001 25.7C34.2001 23.8 33.7001 22 32.8001 20.4C32.6001 20.1 32.4001 19.8 32.2001 19.5C35.3001 20.8 38.3001 22.4 40.5001 23.9C41.4001 24.5 42.2001 25.2 42.9001 25.7C42.3001 26.2 41.5001 26.8 40.5001 27.5Z" fill="white"/>
<path d="M22.9001 21.3C20.5001 21.3 18.5001 23.2 18.5001 25.6C18.5001 28 20.5001 29.9 22.9001 29.9C25.3001 29.9 27.3001 28 27.3001 25.6C27.4001 23.2 25.4001 21.3 22.9001 21.3ZM22.9001 27.5C21.8001 27.5 21.0001 26.7 21.0001 25.7C21.0001 24.7 21.9001 23.9 22.9001 23.9C23.9001 23.9 24.8001 24.7 24.8001 25.7C24.8001 26.7 24.0001 27.5 22.9001 27.5Z" fill="white"/>
<path d="M36.4001 11.7C36.7001 11.7 37.0001 11.6 37.3001 11.3L41.7001 7C42.2001 6.5 42.2001 5.7 41.7001 5.2C41.2001 4.7 40.4001 4.7 39.9001 5.2L35.5001 9.5C35.0001 10 35.0001 10.8 35.5001 11.3C35.7001 11.6 36.1001 11.7 36.4001 11.7Z" fill="white"/>
<path d="M8.6001 11.3C8.8001 11.5 9.2001 11.7 9.5001 11.7C9.8001 11.7 10.1001 11.6 10.4001 11.3C10.9001 10.8 10.9001 10 10.4001 9.5L6.0001 5.3C5.5001 4.8 4.7001 4.8 4.2001 5.3C3.7001 5.8 3.7001 6.6 4.2001 7.1L8.6001 11.3Z" fill="white"/>
<path d="M22.8001 8.5C23.4001 8.5 24.0001 8 24.0001 7.3V1.3C24.0001 0.6 23.4001 0 22.8001 0C22.2001 0 21.6001 0.6 21.6001 1.2V7.2C21.5001 8 22.1001 8.5 22.8001 8.5Z" fill="white"/>
<path d="M8.6001 40.3L4.2001 44.6C3.7001 45.1 3.7001 45.9 4.2001 46.4C4.4001 46.7 4.8001 46.8 5.1001 46.8C5.4001 46.8 5.7001 46.7 6.0001 46.4L10.4001 42.1C10.9001 41.6 10.9001 40.8 10.4001 40.3C9.9001 39.8 9.1001 39.8 8.6001 40.3Z" fill="white"/>
<path d="M37.3001 40.3C36.8001 39.8 36.0001 39.8 35.5001 40.3C35.0001 40.8 35.0001 41.6 35.5001 42.1L39.9001 46.4C40.1001 46.6 40.5001 46.8 40.8001 46.8C41.1001 46.8 41.4001 46.7 41.7001 46.4C42.2001 45.9 42.2001 45.1 41.7001 44.6L37.3001 40.3Z" fill="white"/>
<path d="M23.1001 43.1C22.4001 43.1 21.9001 43.7 21.9001 44.3V50.3C21.9001 51 22.5001 51.5 23.1001 51.5C23.7001 51.5 24.3001 50.9 24.3001 50.3V44.3C24.4001 43.6 23.8001 43.1 23.1001 43.1Z" fill="white"/>
</svg>
