<svg xmlns="http://www.w3.org/2000/svg" viewBox="0 0 434.86 397.34"><defs><style>.cls-1{opacity:0.3;}.cls-2,.cls-3{fill:none;stroke:#fff;stroke-miterlimit:10;stroke-width:1.63px;}.cls-3{stroke-dasharray:13.88 13.88;}</style></defs><title>Fichier 2</title><g id="Calque_2" data-name="Calque 2"><g id="contenu"><g class="cls-1"><path class="cls-2" d="M410.93,95.57a166,166,0,0,1,8.11,14.5,163.26,163.26,0,0,1,12,32.47c2.83,11.27,4.42,23.23,1.42,34.46-3.84,14.35-14.62,25.68-21.56,38.83-7.19,13.64-10.14,29-14.42,43.86-3.29,11.4-7.58,22.87-14.93,32.32a22,22,0,0,1-5.39,5.37,23.73,23.73,0,0,1-4.87,2c-4.87,1.68-9.13,4.8-13.78,7a83.17,83.17,0,0,1-30.31,7.87A73.82,73.82,0,0,1,296,309.42l-1.37-.55c-35-14.42-58.6-50.48-88.66-75.25-25.19-20.75-57.85-37.19-67.19-69.84-7.59-26.52,3.6-53.94,15.95-77.22,17.09-32.21,38.53-64,70.15-78.06a87.85,87.85,0,0,1,17.66-5.68,98.83,98.83,0,0,1,27-1.76,114.21,114.21,0,0,1,13.66,1.79q3.42.66,6.8,1.52a20.62,20.62,0,0,1,3.27.92c.66.29,1.2.79,1.84,1.1a47.6,47.6,0,0,0,6,2q3,1,6,2.09,5.94,2.18,11.73,4.73A201.82,201.82,0,0,1,381.06,58.1q3,3,5.83,6.18c6,6.61,11.53,13.64,16.83,20.77q2.92,3.93,5.61,8C409.87,93.91,410.4,94.74,410.93,95.57Z"/><path class="cls-3" d="M294.21,135C307,144.58,320,155,328,169.55c4.12,7.42,6.8,15.63,9.36,23.79,3.44,11,6.75,22.89,3.72,33.71-1.81,6.47-5.72,11.85-9.58,17q-45.06,60.68-95,116.67C222.56,376.41,207,392.51,187,395.87c-23.42,3.93-46.55-10.44-67.35-24.24L94.87,355.19C61.4,333,26.1,308.66,8.56,270.43,3.81,260.06.5,248.68.84,237.3c.31-10.51,3.69-20.45,7.41-30C27.43,158.25,58,113.51,100.38,87.55c12.52-7.66,26.1-13.66,40.49-15.8,13.15-2,26.55-.61,39.44,2.45a190,190,0,0,1,19.76,5.92q2.35.82,4.7,1.71A22,22,0,0,0,208,83a7.79,7.79,0,0,1,1.58.33c5.59,2.15,11.09,4.58,16.49,7.17s10.71,5.39,15.9,8.37,10.28,6.17,15.25,9.53c5.28,3.65,10.44,7.47,15.71,11.14s10.68,7.56,16,11.44Q291.53,133,294.21,135Z"/></g></g></g></svg>