<svg id="contenu" xmlns="http://www.w3.org/2000/svg" viewBox="0 0 320 268.32"><defs><style>.cls-1{fill:#19005a;}.cls-2{fill:#7a3716;}.cls-3{fill:#ff9257;}.cls-4{fill:#cec9e2;}.cls-5{fill:#ffd2b4;}.cls-6{fill:#fbbe25;}.cls-7{fill:#ff7045;}.cls-8{fill:#e6aa83;}.cls-9{fill:none;stroke:#fff;stroke-miterlimit:10;stroke-width:1.6px;}.cls-10{fill:#cc614f;}.cls-11{fill:#fff;}</style></defs><path class="cls-1" d="M190.45,104.91s-45.7,13.52-57.85-16.48,4.18-47.62,8.76-51.6S183,16.42,200.71,45.47c18.85,30.89-2,53.48-2,53.48Z"/><path class="cls-2" d="M268.16,98.34l19.6-11.94,13.46-8.2c1.62-1,3.81-1.9,5-3.34,2.32-2.69,1.35-6.65,2.51-9.78,2.35-.35,4.91,5.36,5.56,7.32,1.72,5.11-4.32,7.63-7.05,11q-4.63,5.71-9.34,11.36c-6.19,7.4-12.45,16.38-20.28,22.16C275.78,115.4,268.16,98.34,268.16,98.34Z"/><path class="cls-3" d="M221.81,124.67l46.35-26.33c-1.18-2.12,16.78,30.14,19.75,54.75-1.49.28-34.54,13.89-54.67,18.59Z"/><path class="cls-3" d="M99.34,142.42c1.11,33.87,5.87,53.52,5.87,53.52,14.77.06,57.91-9,57.91-9l5.63,18.72,56.57-3.43.05-12.41s7.71-12,10.65-19.29c3.47-8.58-13.55-46.17-13.55-46.17l-37.64,7.36L95,128"/><path class="cls-2" d="M199.47,130.92l6.94-30,.43-15.61s10.49-1.71,13.56,4.19,2.4,13.19,2.4,13.19.74,9.26-2.67,8.63-6-1.38-6-1.38l.52,23.87Z"/><path class="cls-2" d="M185.8,131.39l36.67-7s.8,27.13.47,31.77.9,8.69-7.76,2.76S192.9,139.48,185.8,131.39Z"/><path class="cls-1" d="M223.7,83.63s3.56,3.42,4,10.4a85.74,85.74,0,0,1-17.54,2.65s-2.17-9.44-5.57-11C204.63,85.7,213.29,71.63,223.7,83.63Z"/><path class="cls-1" d="M209.38,89.53,207,93.1l-.7,5.27S202.22,92.74,203.6,87l5.8-2.88Z"/><path class="cls-4" d="M257.65,268.32c-16.52-34.09-33.06-67.2-33.06-67.2l-55.84,4.17c-10.35,35.24-13.49,54.21-14.44,63Z"/><path class="cls-2" d="M100.68,129.07,75.81,124.4,55.6,120.61c-6.35-1.2-14-1.73-19.55-5.3-1.85-1.2-3.39-2.67-5.17-4-1.56-1.21-3.1-2.37-4.63-3.65s-4.62-4.87-6.55-5.22c-3.87-.69-.67,7.33.09,9.41,4.12,11.25,18.94,14.77,29,19.16l51.39,22.34Z"/><path class="cls-5" d="M224.44,210.7a3.6,3.6,0,0,0,3.08,4.45l24.42,2.68,17.15,1.9,7.69.85a31,31,0,0,1,3.64.83c3.14.69,6.35.82,9.34,2.05a19.41,19.41,0,0,1,7.9,5.94,5.74,5.74,0,0,0,1,1c2.18,1.68,2.22-.93,2-2.47a20,20,0,0,0-1.71-5.14,3.75,3.75,0,0,1-.42-1.66,1.48,1.48,0,0,1,.93-1.38c.29-.08.65-.07.8-.34s0-.5-.17-.7c-3.46-4.75-9.26-6.14-14.54-8l-21-7.23-24.21-8.34-11.6-4Z"/><path class="cls-5" d="M51.5,248.39c2.8,2.73,11.37,8.7,10.56,13.07-.34,1.82-1.41,3.41-1.86,5.2a8.49,8.49,0,0,0-.22,1.66h6.87q1-3.12,2.08-6.24a23.42,23.42,0,0,0,1.45-6.16c.23-4.39-3.7-8.34-6-11.85l-7.58-11.68L39.53,205.76,27.28,186.87l-9,22.52A7.62,7.62,0,0,0,20,217.64Z"/><path class="cls-6" d="M222.19,255.45l13.47-67.08L164.2,149.76l-22.83-8.47S78.51,127.56,6.29,177.77l44.9,45.9,31.06-20.79-3.48,22.6L168.05,236l3.62-13.87C187.39,234.27,191.88,239.76,222.19,255.45Z"/><path class="cls-5" d="M152.26,148.69c0-1-.63-15.6-.63-15.6s4.38,2.28,5-3.9-.63-20.62-.63-20.62l-10.46,2.34-8.9,35.83Z"/><path class="cls-7" d="M177.8,268.32c-5.46-17.78-9.75-32.35-9.75-32.35L79.17,225.5s-5.41,17-12.74,42.82Z"/><polygon class="cls-8" points="151.63 133.09 145.76 131.63 152.05 141.96 151.63 133.09"/><path class="cls-9" d="M130.39,139.78a116.44,116.44,0,0,0-12.15,18.37l21.5-6.27a5,5,0,0,1,2.83-.26,5.77,5.77,0,0,1,2.58,2.2l11.66,14.75c1.48-6.41,3-13.32,4.47-19.72"/><path class="cls-10" d="M143.06,111a8.2,8.2,0,0,1,5.75-6.43c.38-.12.72-.21,1.06-.29l-2.89-4s7.46-5.23,11.85-1.16,3.07,11-1.76,15.09l-3.43-4.74-2.91.72-1.53,5.63s-2.53-3.52-3.57-.35l-1.49,7.54-.27-.6C143,120.29,140.13,113.76,143.06,111Z"/><ellipse class="cls-11" cx="133.47" cy="176.98" rx="1.13" ry="1.19"/><ellipse class="cls-11" cx="136.23" cy="169.75" rx="1.13" ry="1.19"/><ellipse class="cls-11" cx="138.48" cy="160.08" rx="1.13" ry="1.19"/><ellipse class="cls-11" cx="132.34" cy="185.63" rx="1.13" ry="1.19"/><ellipse class="cls-11" cx="129.49" cy="194.9" rx="1.13" ry="1.19"/><ellipse class="cls-11" cx="128.36" cy="203.97" rx="1.13" ry="1.19"/><ellipse class="cls-11" cx="126.65" cy="213.18" rx="1.13" ry="1.19"/><ellipse class="cls-11" cx="125.6" cy="222.31" rx="1.05" ry="1.1"/><rect class="cls-1" y="242.36" width="320" height="25.96"/><path class="cls-6" d="M205.06,171.56c-4.21,21.59-8.09,43.23-16.52,63.63,7.25,5.32,16.12,10.89,33,19.62L235,187.72Z"/></svg>