<svg width="489" height="680" viewBox="0 0 489 680" fill="none" xmlns="http://www.w3.org/2000/svg">
<g clip-path="url(#clip0)">
<path d="M487.9 673.7L469.5 644.4L449.3 635.3L454.3 660.6L461.6 660.1C461.6 660.1 472.2 670.8 488.5 676.5" fill="#E94E1B"/>
<path d="M432.7 597.6L449.8 634.8L465.6 631.5L456.5 592.9L432.7 597.6Z" fill="#177CBF"/>
<path d="M280.6 112.3C280.6 112.3 213.4 132.2 195.5 87.9999C177.6 43.8999 201.6 17.8999 208.4 12.0999C215.2 6.2999 269.7 -17.9001 295.7 24.7999C323.4 70.2999 292.8 103.5 292.8 103.5L280.6 112.3Z" fill="#19005A"/>
<path d="M395 102.6C404.6 96.7 414.2 90.9 423.8 85C430.4 81 437 77 443.6 72.9C446 71.4 449.2 70.1 451 68C454.4 64 453 58.2 454.7 53.6C458.2 53.1 461.9 61.5 462.9 64.4C465.4 71.9 456.5 75.6 452.5 80.6C448 86.2 443.4 91.8 438.8 97.3C429.7 108.2 420.5 121.4 409 129.9C406.2 127.7 395 102.6 395 102.6Z" fill="#7A3716"/>
<path d="M326.8 141.4L395 102.7C393.3 99.6 419.7 147 424.1 183.3C421.9 183.7 373.3 203.7 343.7 210.7L326.8 141.4Z" fill="#FF9257"/>
<path d="M146.6 167.5C148.2 217.3 155.2 246.3 155.2 246.3C176.9 246.4 240.4 233 240.4 233L248.7 260.6L331.9 255.5L332 237.2C332 237.2 343.3 219.5 347.7 208.8C352.8 196.2 327.8 140.9 327.8 140.9L272.4 151.7L140.2 146.2" fill="#FF9257"/>
<path d="M293.9 150.6L304.1 106.4L304.7 83.3999C304.7 83.3999 320.1 80.8999 324.7 89.5999C329.2 98.2999 328.2 109 328.2 109C328.2 109 329.3 122.6 324.3 121.7C319.3 120.8 315.5 119.7 315.5 119.7L316.3 154.8L293.9 150.6Z" fill="#7A3716"/>
<path d="M273.8 151.3L327.8 140.9C327.8 140.9 329 180.8 328.5 187.7C328 194.5 329.8 200.5 317.1 191.8C304.3 183 284.2 163.2 273.8 151.3Z" fill="#7A3716"/>
<path d="M329.6 81C329.6 81 334.8 86 335.6 96.3C335.6 96.3 323.1 99.8 309.8 100.2C309.8 100.2 306.6 86.3 301.6 84C301.5 84 314.2 63.3 329.6 81Z" fill="#19005A"/>
<path d="M308.5 89.7L305 94.9L304 102.7C304 102.7 298 94.4 300.1 85.9L308.6 81.7L308.5 89.7Z" fill="#19005A"/>
<path d="M248.7 260C225.7 338.5 226.9 362.1 226.9 362.1C226.9 362.1 238.3 484.4 236.3 489.7C234.3 495 181.1 580.7 181.1 580.7L220.6 625.1C220.6 625.1 270.4 566.5 283.7 552C297 537.5 309 501.2 309 501.2L308 398.2C316.6 406.2 363.9 475.8 363.9 475.8L412.9 605.7L464.3 592C464.3 592 439.2 490 426.2 454.2C413.1 418.5 330.9 253.9 330.9 253.9" fill="#CEC9E2"/>
<path d="M148.5 147.8C136.3 145.5 124.1 143.2 111.9 140.9C102 139 92.1 137.2 82.2 135.3C72.9 133.5 61.6 132.8 53.4 127.5C50.7 125.7 48.4 123.6 45.8 121.6C43.5 119.8 41.2 118.1 39 116.2C36.8 114.3 32.2 109 29.4 108.5C23.7 107.5 28.4 119.3 29.5 122.3C35.6 138.8 57.4 144 72.2 150.5C97.4 161.5 122.6 172.4 147.8 183.4L148.5 147.8Z" fill="#7A3716"/>
<path d="M156.8 627L143.9 643.1L151.6 649.5C151.6 649.5 153.8 657.8 156.5 661.6C159.2 665.4 162.4 669.9 169.1 674.5L164.2 645.6L156.8 627Z" fill="#E94E1B"/>
<path d="M167.3 636.2L198.9 604.3L185.8 587.7L158 625.5L167.3 636.2Z" fill="#177CBF"/>
<path d="M330.7 268C330 271.2 332.1 274.2 335.2 274.5C344.3 275.5 361.8 277.4 371.1 278.4C379.5 279.3 387.9 280.3 396.3 281.2C400.1 281.6 403.8 282 407.6 282.5C409.5 282.7 411.1 283.3 412.9 283.7C417.5 284.7 422.2 284.9 426.7 286.7C431.2 288.6 435.3 291.6 438.3 295.4C438.7 296 439.2 296.5 439.8 296.9C443 299.4 443.1 295.5 442.8 293.3C442.4 290.6 441.3 288.2 440.3 285.7C440 284.9 439.6 284.1 439.7 283.3C439.7 282.4 440.2 281.5 441.1 281.3C441.5 281.2 442.1 281.2 442.3 280.8C442.5 280.5 442.3 280.1 442 279.8C436.9 272.8 428.4 270.8 420.6 268.1C410.3 264.6 400 261 389.7 257.5C378.9 253.8 367.4 249.8 354.1 245.2C348.4 243.2 342.7 241.3 337 239.3L330.7 268Z" fill="#FFD2B4"/>
<path d="M27.3 266C25.6 270.2 26.6 275 29.8 278.1L76.2 323.3C80.3 327.3 92.9 336.1 91.7 342.5C91.2 345.2 89.6 347.5 89 350.1C87.8 354.8 89.7 359.8 92.5 363.6C92.9 364.1 93.4 364.7 94.2 364.4C94.7 364.2 95.1 363.8 95.2 363.2C97.4 356.6 99.6 350 101.8 343.3C102.8 340.4 103.8 337.4 103.9 334.2C104.2 327.7 98.5 321.9 95.1 316.8C91.4 311.1 87.7 305.3 83.9 299.6C75.4 286.5 66.9 273.5 58.5 260.4C52.5 251.1 46.5 241.9 40.5 232.6L27.3 266Z" fill="#FFD2B4"/>
<path d="M327.3 333.8L347.1 235.1L242 178.3L208.4 165.8C208.4 165.8 115.9 145.6 9.60001 219.5L75.7 287L121.4 256.4L116.3 289.7L247.7 305.1L253 284.7C276.1 302.6 282.7 310.7 327.3 333.8Z" fill="#FBBE25"/>
<path d="M224.4 176.7C224.4 175.3 223.5 153.7 223.5 153.7C223.5 153.7 229.9 157 230.9 148C231.8 138.9 230 117.6 230 117.6L214.6 121.1L201.5 173.8L224.4 176.7Z" fill="#FFD2B4"/>
<path d="M116.9 289.7C116.9 289.7 67.1 446.2 47.6 571.1C49.8 573.4 36.8 612.8 36.8 612.8L97.4 607.2L173.2 400.1C173.2 400.1 292.2 587.2 316 619.9C316 619.9 363.9 593.4 368.2 591.2C368.2 591.2 295.4 455.3 281.3 413.6C267.2 371.9 247.6 305.2 247.6 305.2L116.9 289.7Z" fill="#FF7045"/>
<path d="M337.9 606.6C337.9 606.6 356.7 649.8 363.6 656C370.5 662.2 385.9 677.2 385.9 677.2C385.9 677.2 353.5 675.4 341.8 667.3L315.6 618.9L337.9 606.6Z" fill="#FFD2B4"/>
<path d="M39.8 611.3L28.2 653.4L0 679.5L41.1 674.4L44.8 660.4L73.5 608.8L39.8 611.3Z" fill="#FFD2B4"/>
<path d="M223.5 153.8L214.9 151.6L224.1 166.8L223.5 153.8Z" fill="#E6AA83"/>
<path d="M192.2 163.6C185.7 171.7 179.3 181.3 174.3 190.6C184.8 187.5 195.4 184.4 205.9 181.4C207.3 181 208.7 180.6 210.1 181C211.7 181.5 212.8 182.9 213.9 184.2C219.6 191.4 225.3 198.7 231.1 205.9C233.3 196.5 235.5 186.3 237.7 176.9" stroke="white" stroke-width="1.6" stroke-miterlimit="10"/>
<path d="M210.9 121.3C210.9 121.3 211.7 114.4 219.4 111.8C219.9 111.6 220.5 111.5 221 111.4L216.7 105.5C216.7 105.5 227.7 97.8 234.1 103.8C240.5 109.8 238.6 120 231.5 126L226.4 119L222.1 120.1L219.8 128.4C219.8 128.4 216.1 123.2 214.6 127.9L212.4 139C212.4 139 212.2 138.7 212 138.1C210.7 134.9 206.6 125.3 210.9 121.3Z" fill="#CC614F"/>
<path d="M196.8 220.1C197.739 220.1 198.5 219.339 198.5 218.4C198.5 217.461 197.739 216.7 196.8 216.7C195.861 216.7 195.1 217.461 195.1 218.4C195.1 219.339 195.861 220.1 196.8 220.1Z" fill="white"/>
<path d="M200.9 209.4C201.839 209.4 202.6 208.639 202.6 207.7C202.6 206.761 201.839 206 200.9 206C199.961 206 199.2 206.761 199.2 207.7C199.2 208.639 199.961 209.4 200.9 209.4Z" fill="white"/>
<path d="M204.2 195.2C205.139 195.2 205.9 194.439 205.9 193.5C205.9 192.561 205.139 191.8 204.2 191.8C203.261 191.8 202.5 192.561 202.5 193.5C202.5 194.439 203.261 195.2 204.2 195.2Z" fill="white"/>
<path d="M195.1 232.8C196.039 232.8 196.8 232.039 196.8 231.1C196.8 230.161 196.039 229.4 195.1 229.4C194.161 229.4 193.4 230.161 193.4 231.1C193.4 232.039 194.161 232.8 195.1 232.8Z" fill="white"/>
<path d="M190.9 246.4C191.839 246.4 192.6 245.639 192.6 244.7C192.6 243.761 191.839 243 190.9 243C189.961 243 189.2 243.761 189.2 244.7C189.2 245.639 189.961 246.4 190.9 246.4Z" fill="white"/>
<path d="M189.3 259.8C190.239 259.8 191 259.039 191 258.1C191 257.161 190.239 256.4 189.3 256.4C188.361 256.4 187.6 257.161 187.6 258.1C187.6 259.039 188.361 259.8 189.3 259.8Z" fill="white"/>
<path d="M186.7 273.3C187.639 273.3 188.4 272.539 188.4 271.6C188.4 270.661 187.639 269.9 186.7 269.9C185.761 269.9 185 270.661 185 271.6C185 272.539 185.761 273.3 186.7 273.3Z" fill="white"/>
<path d="M185.2 286.6C186.028 286.6 186.7 285.884 186.7 285C186.7 284.116 186.028 283.4 185.2 283.4C184.372 283.4 183.7 284.116 183.7 285C183.7 285.884 184.372 286.6 185.2 286.6Z" fill="white"/>
</g>
<defs>
<clipPath id="clip0">
<rect width="488.4" height="679.5" fill="white"/>
</clipPath>
</defs>
</svg>
