<svg width="371" height="516" viewBox="0 0 371 516" fill="none" xmlns="http://www.w3.org/2000/svg">
<g clip-path="url(#clip0)">
<path d="M124.6 489.9L154.6 453L144.7 440.4L119 475.8L124.6 489.9Z" fill="#7A3716"/>
<path d="M370.2 511.2L356.2 489L340.9 482.1L344.7 501.3L350.2 500.9C350.2 500.9 358.3 509 370.6 513.3" fill="#FF7045"/>
<path d="M328.4 453.5L340.9 482.1L356.3 489L346.4 449.9L328.4 453.5Z" fill="#7A3716"/>
<path d="M213 85.1999C213 85.1999 162 100.3 148.4 66.7999C134.8 33.2999 153.1 13.5999 158.2 9.1999C163.3 4.7999 204.7 -13.6001 224.5 18.7999C245.5 53.2999 222.3 78.4999 222.3 78.4999L213 85.1999Z" fill="#2B388F"/>
<path d="M299.7 77.8999C307 73.4999 314.3 68.9999 321.6 64.5999C326.6 61.4999 331.6 58.4999 336.6 55.3999C338.4 54.2999 340.8 53.2999 342.2 51.6999C344.8 48.6999 343.7 44.2999 345 40.7999C347.6 40.3999 350.5 46.7999 351.2 48.9999C353.1 54.6999 346.4 57.4999 343.3 61.2999C339.9 65.5999 336.4 69.7999 332.9 73.9999C326 82.2999 319 92.2999 310.2 98.7999C308.3 96.8999 299.7 77.8999 299.7 77.8999Z" fill="#7A3716"/>
<path d="M248 107.3L299.8 77.8998C298.5 75.4998 318.5 111.6 321.9 139C320.2 139.3 283.3 154.5 260.9 159.8L248 107.3Z" fill="#FF9257"/>
<path d="M111.2 127.1C112.4 164.9 117.7 186.9 117.7 186.9C134.2 187 182.4 176.8 182.4 176.8L188.7 197.7L251.9 193.9L252 180C252 180 260.6 166.6 263.9 158.4C267.8 148.8 248.8 106.8 248.8 106.8L206.8 115L106.4 111" fill="#FF9257"/>
<path d="M223 114.3L230.7 80.6998L231.2 63.2998C231.2 63.2998 242.9 61.3998 246.3 67.9998C249.7 74.5998 249 82.6998 249 82.6998C249 82.6998 249.8 92.9998 246 92.2998C242.2 91.5998 239.3 90.7998 239.3 90.7998L239.9 117.5L223 114.3Z" fill="#7A3716"/>
<path d="M207.8 114.8L248.7 106.9C248.7 106.9 249.6 137.2 249.2 142.4C248.8 147.6 250.2 152.1 240.5 145.5C230.9 138.9 215.7 123.8 207.8 114.8Z" fill="#7A3716"/>
<path d="M250.1 61.4C250.1 61.4 254.1 65.2 254.6 73C254.6 73 245.1 75.6 235 76C235 76 232.6 65.5 228.8 63.7C228.8 63.8 238.5 48 250.1 61.4Z" fill="#2B388F"/>
<path d="M234.1 68L231.4 72L230.6 77.9C230.6 77.9 226.1 71.6 227.6 65.2L234.1 62V68Z" fill="#2B388F"/>
<path d="M188.7 197.3C171.2 256.8 172.1 274.8 172.1 274.8C172.1 274.8 180.8 367.6 179.3 371.6C177.8 375.6 137.4 440.7 137.4 440.7L167.4 474.4C167.4 474.4 205.2 429.9 215.3 418.9C225.4 407.9 234.5 380.3 234.5 380.3L233.8 302C240.3 308 276.2 360.9 276.2 360.9L313.4 459.5L352.4 449.1C352.4 449.1 333.4 371.7 323.5 344.6C313.6 317.5 251.2 192.6 251.2 192.6" fill="#CEC9E2"/>
<path d="M112.7 112.2C103.4 110.5 94.2 108.7 84.9 107C77.4 105.6 69.9 104.2 62.3 102.8C55.2 101.5 46.6 100.9 40.5 96.8999C38.4 95.5999 36.7 93.8999 34.7 92.3999C32.9 90.9999 31.2 89.6999 29.5 88.2999C27.8 86.8999 24.3 82.8999 22.2 82.4999C17.9 81.6999 21.4 90.6999 22.3 92.9999C26.9 105.6 43.4 109.5 54.7 114.4C73.8 122.7 93 131 112.1 139.3L112.7 112.2Z" fill="#7A3716"/>
<path d="M119 475.8L109.2 488L115 492.8C115 492.8 116.6 499.1 118.7 502C120.8 504.9 123.2 508.3 128.3 511.8L124.6 489.9L119 475.8Z" fill="#FF7045"/>
<path d="M250.9 203.4C250.4 205.8 251.9 208.1 254.3 208.4C261.2 209.2 274.5 210.6 281.6 211.4C288 212.1 294.4 212.8 300.8 213.5C303.7 213.8 306.5 214.1 309.4 214.4C310.9 214.6 312.1 215 313.5 215.3C317 216.1 320.6 216.2 323.9 217.6C327.3 219 330.4 221.3 332.7 224.2C333 224.6 333.4 225 333.8 225.3C336.2 227.2 336.3 224.3 336.1 222.5C335.8 220.5 335 218.6 334.2 216.8C334 216.2 333.7 215.6 333.7 214.9C333.7 214.2 334.1 213.5 334.7 213.4C335 213.3 335.4 213.3 335.6 213C335.7 212.7 335.6 212.4 335.4 212.2C331.5 206.9 325.1 205.3 319.2 203.3C311.4 200.6 303.6 197.9 295.8 195.2C287.6 192.4 278.9 189.4 268.8 185.9C264.5 184.4 260.2 182.9 255.8 181.4L250.9 203.4Z" fill="#FFD2B4"/>
<path d="M20.7 201.9C19.4 205.1 20.2 208.8 22.6 211.1L57.8 245.4C60.9 248.5 70.5 255.1 69.6 260C69.2 262 68 263.8 67.5 265.8C66.6 269.3 68 273.1 70.1 276.1C70.4 276.5 70.8 276.9 71.4 276.7C71.8 276.6 72.1 276.2 72.2 275.8C73.9 270.8 75.6 265.8 77.2 260.7C77.9 258.5 78.7 256.2 78.8 253.8C79.1 248.9 74.7 244.5 72.1 240.6C69.3 236.3 66.5 231.9 63.6 227.6C57.2 217.7 50.7 207.8 44.3 197.9C39.7 190.9 35.2 183.8 30.6 176.8L20.7 201.9Z" fill="#FFD2B4"/>
<path d="M248.4 253.3L263.4 178.4L183.6 135.3L158.1 125.8C158.1 125.8 87.9 110.5 7.29999 166.5L57.4 217.8L92.1 194.6L88.2 219.8L187.9 231.5L191.9 216C209.5 229.7 214.6 235.8 248.4 253.3Z" fill="#FBBE25"/>
<path d="M170.3 134.1C170.3 133 169.6 116.7 169.6 116.7C169.6 116.7 174.5 119.2 175.2 112.3C175.9 105.4 174.5 89.3 174.5 89.3L162.8 91.9L152.9 131.9L170.3 134.1Z" fill="#FFD2B4"/>
<path d="M88.7 219.9C88.7 219.9 50.9 338.6 36.1 433.5C37.7 435.2 27.9 465.1 27.9 465.1L73.9 460.8L131.4 303.6C131.4 303.6 221.7 445.6 239.8 470.4C239.8 470.4 276.2 450.3 279.4 448.6C279.4 448.6 224.2 345.5 213.5 313.8C202.8 282.1 188 231.6 188 231.6L88.7 219.9Z" fill="#FF7045"/>
<path d="M256.5 460.3C256.5 460.3 270.8 493.1 276 497.8C281.2 502.5 292.9 513.9 292.9 513.9C292.9 513.9 268.3 512.5 259.5 506.4L239.6 469.7L256.5 460.3Z" fill="#FFD2B4"/>
<path d="M30.2 463.9L21.4 495.8L0 515.7L31.2 511.8L34 501.1L55.8 462L30.2 463.9Z" fill="#FFD2B4"/>
<path d="M169.6 116.7L163.1 115.1L170.1 126.6L169.6 116.7Z" fill="#E6AA83"/>
<path d="M145.9 124.2C141 130.3 136.1 137.6 132.3 144.7C140.3 142.4 148.3 140 156.3 137.7C157.3 137.4 158.4 137.1 159.5 137.4C160.7 137.8 161.6 138.8 162.4 139.9C166.7 145.4 171.1 150.9 175.4 156.4C177.1 149.2 178.7 141.5 180.4 134.4" stroke="white" stroke-width="1.6" stroke-miterlimit="10"/>
<path d="M160 92.1C160 92.1 160.6 86.9 166.4 84.9C166.8 84.8 167.2 84.7 167.6 84.6L164.4 80.1C164.4 80.1 172.7 74.3 177.6 78.8C182.5 83.3 181 91.1 175.6 95.7L171.8 90.4L168.6 91.2L166.9 97.5C166.9 97.5 164.1 93.6 162.9 97.1L161.2 105.5C161.2 105.5 161.1 105.3 160.9 104.8C159.9 102.4 156.8 95.1 160 92.1Z" fill="#CC614F"/>
<path d="M149.3 167C150.018 167 150.6 166.418 150.6 165.7C150.6 164.982 150.018 164.4 149.3 164.4C148.582 164.4 148 164.982 148 165.7C148 166.418 148.582 167 149.3 167Z" fill="white"/>
<path d="M152.4 158.9C153.118 158.9 153.7 158.318 153.7 157.6C153.7 156.882 153.118 156.3 152.4 156.3C151.682 156.3 151.1 156.882 151.1 157.6C151.1 158.318 151.682 158.9 152.4 158.9Z" fill="white"/>
<path d="M154.9 148.1C155.618 148.1 156.2 147.518 156.2 146.8C156.2 146.082 155.618 145.5 154.9 145.5C154.182 145.5 153.6 146.082 153.6 146.8C153.6 147.518 154.182 148.1 154.9 148.1Z" fill="white"/>
<path d="M148.1 176.7C148.818 176.7 149.4 176.118 149.4 175.4C149.4 174.682 148.818 174.1 148.1 174.1C147.382 174.1 146.8 174.682 146.8 175.4C146.8 176.118 147.382 176.7 148.1 176.7Z" fill="white"/>
<path d="M144.9 187C145.618 187 146.2 186.418 146.2 185.7C146.2 184.982 145.618 184.4 144.9 184.4C144.182 184.4 143.6 184.982 143.6 185.7C143.6 186.418 144.182 187 144.9 187Z" fill="white"/>
<path d="M143.6 197.1C144.318 197.1 144.9 196.518 144.9 195.8C144.9 195.082 144.318 194.5 143.6 194.5C142.882 194.5 142.3 195.082 142.3 195.8C142.3 196.518 142.882 197.1 143.6 197.1Z" fill="white"/>
<path d="M141.7 207.4C142.418 207.4 143 206.818 143 206.1C143 205.382 142.418 204.8 141.7 204.8C140.982 204.8 140.4 205.382 140.4 206.1C140.4 206.818 140.982 207.4 141.7 207.4Z" fill="white"/>
<path d="M140.5 217.5C141.163 217.5 141.7 216.963 141.7 216.3C141.7 215.637 141.163 215.1 140.5 215.1C139.837 215.1 139.3 215.637 139.3 216.3C139.3 216.963 139.837 217.5 140.5 217.5Z" fill="white"/>
</g>
<defs>
<clipPath id="clip0">
<rect width="370.7" height="515.7" fill="white"/>
</clipPath>
</defs>
</svg>
