<svg xmlns="http://www.w3.org/2000/svg" xmlns:xlink="http://www.w3.org/1999/xlink" viewBox="0 0 400.93 183.95"><defs><style>.cls-1{fill:#28235a;}.cls-2{fill:#532e6f;}.cls-3{fill:#762d8c;}.cls-4{fill:url(#Nouvelle_nuance_de_dégradé_4);}.cls-5{fill:#922a8b;}.cls-6{fill:#af2c79;}.cls-7{fill:url(#Nouvelle_nuance_de_dégradé_1);}.cls-8{fill:#d82f8d;}.cls-9{fill:#e90c89;}.cls-10{fill:#8f2c4c;}.cls-11{fill:url(#Nouvelle_nuance_de_dégradé_2);}.cls-12{fill:#ee5d33;}.cls-13{fill:#fbda6b;}.cls-14{fill:#fbb950;}.cls-15{fill:#f07435;}.cls-16{fill:#656161;}.cls-17{fill:#282525;}</style><linearGradient id="Nouvelle_nuance_de_dégradé_4" x1="86.8" y1="143.11" x2="114.14" y2="143.11" gradientUnits="userSpaceOnUse"><stop offset="0" stop-color="#922a8b"/><stop offset="0.4" stop-color="#8b2b8b"/><stop offset="0.99" stop-color="#762d8c"/><stop offset="1" stop-color="#762d8c"/></linearGradient><linearGradient id="Nouvelle_nuance_de_dégradé_1" x1="22.19" y1="153.12" x2="49.91" y2="153.12" gradientUnits="userSpaceOnUse"><stop offset="0" stop-color="#d82f8d"/><stop offset="0.31" stop-color="#d12e89"/><stop offset="0.76" stop-color="#bc2d80"/><stop offset="1" stop-color="#af2c79"/></linearGradient><linearGradient id="Nouvelle_nuance_de_dégradé_2" x1="71.84" y1="54.31" x2="101.91" y2="54.31" gradientUnits="userSpaceOnUse"><stop offset="0" stop-color="#9a305a"/><stop offset="0.19" stop-color="#a13457"/><stop offset="0.47" stop-color="#b6404e"/><stop offset="0.8" stop-color="#d75440"/><stop offset="1" stop-color="#ee6236"/></linearGradient></defs><title>Fichier 1</title><g id="Calque_2" data-name="Calque 2"><g id="Calque_1-2" data-name="Calque 1"><path class="cls-1" d="M45.16,141.25c2.07-1.1,3.91-3.15,5.94-4.45,2.27-1.46,4.68-2.62,6.91-4,4.45-2.81,9.24-4.59,13.77-7.14a42.26,42.26,0,0,1-1.49,11.68c-.6,2.19-1.89,7.69-3.77,9.12-2.15,1.64-10.54,1.08-13.34.38S45.16,141.25,45.16,141.25Z"/><path class="cls-2" d="M39.21,125.85c-.52-8.06,7.84-22.91,16.39-24.95,8-1.91,13.93,10.62,16.5,16.2-10.28.76-22,4.32-31.5,7.7Z"/><path class="cls-3" d="M72.1,93.31c12.34,0,26.85,2,33.12,13.66-3.7,1.88-7.84,3.19-11.51,5.14-2,1.09-4.2,1.72-6.22,2.81-2.29,1.23-4,3.23-6.59,3.9.42-7.08-3.72-16.82-7.75-22.71Z"/><path class="cls-4" d="M86.8,126.9c9.07.26,18.12-.83,27.23-.3.68,5.22-2.06,13.48-3.77,18.39-2.1,6-5.92,10.66-10.45,14.78-2.3-5.91-3.33-12.52-5.57-18.54a129.85,129.85,0,0,0-6-13.28Z"/><path class="cls-5" d="M85.44,144.82c-.4,9.88,1.06,19.65,2.71,29.11-10.22-2.32-17.94-7.77-27.74-14.53.48-.53,8.06.49,14.47-3C80.25,153.41,83.94,147,85.44,144.82Z"/><path class="cls-6" d="M35.36,178.34c4.09-3.84,9.37-6.2,13-10.49.9-1.07,5.79-8,5.79-8a41,41,0,0,0,2.66,5.85c4.33,5.56,7.81,11.92,12.41,17.11-10.52.61-23.46,3.73-32.42-4.14Z"/><path class="cls-7" d="M29.06,136.7c2.24,11.48,11.48,17.69,20.85,20.83-4.79,2-22.62,11.7-27.45,12,0-4.75-.57-9.52-.05-14.26.65-6,2.91-11.1,5.25-16.49Z"/><path class="cls-8" d="M1.39,113.22c4.15,2.65,8.3,7.1,12.6,9.79,3.73,2.33,9.1,5.13,9.1,5.13s-4,9.34-6.3,14.47a40.76,40.76,0,0,0-3,15.39c-2.09-.64-10.27-11.89-12.83-24.26C-1.4,125.34,1.39,113.22,1.39,113.22Z"/><path class="cls-9" d="M17.72,108.32c2.52,4.46,5.68,8,9.1,11.89-.21-7.63,4.71-20.7,11.91-24.81A187.78,187.78,0,0,0,9.81,93S15.15,103.75,17.72,108.32Z"/><path class="cls-10" d="M23.09,79.85c9.34,1.41,20.13,3.61,28.31,7.6a.57.57,0,0,0,.33-.24c.62-7.07,3.79-17,5.65-23.68C53.16,62,45,63.08,39.18,65.86,31.52,69.53,23.09,79.85,23.09,79.85Z"/><path class="cls-11" d="M86.51,39A46.34,46.34,0,0,1,97,50.62c3.16,5.36,4.45,12,4.9,14-8.54.84-22,2.61-30.07,5C71.84,69.67,86.28,45.72,86.51,39Z"/><path class="cls-12" d="M110.7,82.74a64.47,64.47,0,0,1,21.86-.35c4.12.57,9.87,1.17,13.07,3.89-2.81,2.09-21.2,22.71-23.44,26.55-.31-2.62-2.16-13.09-3-15.58C118.16,94.3,110.7,82.74,110.7,82.74Z"/><path class="cls-13" d="M162.41,28.36C166.79,23.29,173.25,20,178.54,16a19.27,19.27,0,0,1,7.34-3.86c.51,8.56-.5,17.93,1.18,26.19-.63-4.67-9.74-7.19-13.44-7.74a69.33,69.33,0,0,0-12-.85Z"/><path class="cls-14" d="M111.34,52c5.69,4.43,11.45,9,17.91,12.26,2.29,1.16,5.71,3.37,8.28,3.44.54-8.89.66-19.42,3.17-27.9-4.23.69-8.78,3.3-12.89,4.77C122.47,46.48,117.38,49.09,112,51Z"/><path class="cls-15" d="M115.38,14.13c2.85,0,9.26,3.88,11.85,5,3.11,1.36,5.86,3.89,8.53,6,2.12,1.65,4.25,3.32,6.4,4.87-.07-5.21.78-10.45,1.21-15.64.35-4.29,1-10.39,2.32-14.36-2.26.38-10.95,4.85-13.25,5.6C128.21,7,115.38,14.13,115.38,14.13Z"/><path class="cls-16" d="M176.86,80.14a1.43,1.43,0,0,1-1.44,1.44h-9.77v22.09a1.42,1.42,0,0,1-1.44,1.39,1.74,1.74,0,0,1-1.54-1.39V80.57c0-6.94,6-12.82,13.23-12.82a1.42,1.42,0,0,1,0,2.83c-5.13,0-9.07,3.26-9.82,8h9.34A1.47,1.47,0,0,1,176.86,80.14Z"/><path class="cls-16" d="M204.3,81.74a18.55,18.55,0,0,1,2,2.13,1.6,1.6,0,0,1,.38,1,2.18,2.18,0,0,1-.38.9s-15,12.6-16.86,14.25a10.5,10.5,0,0,0,14.46-1.44,1.44,1.44,0,0,1,2.08-.21,1.84,1.84,0,0,1,.32,2.08,13.38,13.38,0,0,1-23.54-7,13.17,13.17,0,0,1,3.1-9.76,11.87,11.87,0,0,1,8.81-4.7A12.71,12.71,0,0,1,204.3,81.74ZM187.49,97.86c1.65-1.71,13.71-11.59,15.64-13.29-.27-.22-.49-.22-.7-.43A10,10,0,0,0,188,85.53a9.23,9.23,0,0,0-2.35,6.4A11.22,11.22,0,0,0,187.49,97.86Z"/><path class="cls-16" d="M214.5,91.72V67.81A1.36,1.36,0,0,1,216,66.37c.91,0,1.39.43,1.39,1.44V83.23a14.19,14.19,0,0,1,10.56-4.8A13.37,13.37,0,1,1,214.5,91.72Zm2.88,0a10.47,10.47,0,0,0,10.56,10.35,10.41,10.41,0,1,0,0-20.81A10.5,10.5,0,0,0,217.38,91.72Z"/><path class="cls-16" d="M269.37,81.74a18.66,18.66,0,0,1,2,2.13,1.67,1.67,0,0,1,.37,1,2.3,2.3,0,0,1-.37.9s-15,12.6-16.87,14.25a10.5,10.5,0,0,0,14.46-1.44,1.45,1.45,0,0,1,2.09-.21,1.87,1.87,0,0,1,.32,2.08,13.37,13.37,0,0,1-23.54-7,13.12,13.12,0,0,1,3.09-9.76,11.87,11.87,0,0,1,8.81-4.7A12.71,12.71,0,0,1,269.37,81.74ZM252.56,97.86c1.65-1.71,13.71-11.59,15.63-13.29-.26-.22-.48-.22-.69-.43A10,10,0,0,0,253,85.53a9.24,9.24,0,0,0-2.36,6.4A11.24,11.24,0,0,0,252.56,97.86Z"/><path class="cls-17" d="M291.35,106.29a13.86,13.86,0,0,1,0-27.72,13.28,13.28,0,0,1,11.09,5.76,1.32,1.32,0,0,1-.16,2A1.65,1.65,0,0,1,300,86a10.68,10.68,0,0,0-8.6-4.49,11.05,11.05,0,0,0-10.92,10.92,10.81,10.81,0,0,0,10.92,10.65,10,10,0,0,0,9.37-5.66,1.59,1.59,0,0,1,2.22-.5,1.26,1.26,0,0,1,.5,1.94A13.75,13.75,0,0,1,291.35,106.29Z"/><path class="cls-17" d="M353.08,82.34a13.81,13.81,0,0,0-10-4,14.18,14.18,0,0,0-10,4.12s0,0-.06-.07a13.81,13.81,0,0,0-10-4,14,14,0,1,0,10,23.85,14.09,14.09,0,0,0,24.13-9.93A14.54,14.54,0,0,0,353.08,82.34Zm-10,21a11,11,0,0,1-10.9-10.48,11.49,11.49,0,0,0-3.14,1.46,13.86,13.86,0,0,0,2.09,5.43,11,11,0,1,1-8.09-18.48,10,10,0,0,1,7.77,3.38,11.12,11.12,0,0,1,3.22,6.19,17,17,0,0,0,3,0A14.15,14.15,0,0,0,335,85a10.83,10.83,0,0,1,8.12-3.66,10,10,0,0,1,7.76,3.38,10.84,10.84,0,0,1,3.33,7.54A11.21,11.21,0,0,1,343.1,103.36Z"/><path class="cls-17" d="M375.63,106.29a14,14,0,0,1-11-5.26v15.25a1.45,1.45,0,0,1-1.55,1.55,1.57,1.57,0,0,1-1.49-1.55V92.1a14,14,0,0,1,14-13.53,12.82,12.82,0,0,1,9.76,4,13.77,13.77,0,0,1-9.76,23.73Zm0-3a10.89,10.89,0,0,0,10.76-11,10.79,10.79,0,0,0-10.76-10.81,10.9,10.9,0,1,0,0,21.79Z"/><path class="cls-2" d="M167.84,138.68h-1.72l-6.51-19.79h2.22l5.15,16,5.14-16h2.22Z"/><path class="cls-2" d="M180.21,138.68c-2.39,0-3.48-1.55-3.48-3.64V118.89h2V135c0,1.33.44,2,1.83,2h1.08v1.72Z"/><path class="cls-2" d="M192.52,138.68v-1.3a4.8,4.8,0,0,1-3.94,1.47c-1.89,0-3-.36-3.87-1.25a4,4,0,0,1-1-2.78c0-2.39,1.67-3.95,4.73-3.95h4.11v-1.31c0-2-1-3-3.5-3a3.6,3.6,0,0,0-3.45,1.56l-1.36-1.25c1.23-1.59,2.62-2,4.84-2,3.67,0,5.48,1.58,5.48,4.56v9.28Zm0-6.31h-3.83c-2.06,0-3.06.84-3.06,2.42s1,2.34,3.14,2.34a4,4,0,0,0,3.06-.92,3.19,3.19,0,0,0,.69-2.36Z"/><path class="cls-2" d="M206.87,138.68v-1.3a4.8,4.8,0,0,1-4,1.47c-1.89,0-3-.36-3.86-1.25a3.94,3.94,0,0,1-1-2.78c0-2.39,1.67-3.95,4.73-3.95h4.11v-1.31c0-2-1-3-3.5-3a3.6,3.6,0,0,0-3.45,1.56l-1.36-1.25c1.22-1.59,2.61-2,4.83-2,3.67,0,5.48,1.58,5.48,4.56v9.28Zm0-6.31H203c-2.05,0-3.06.84-3.06,2.42s1,2.34,3.15,2.34a4,4,0,0,0,3.06-.92,3.19,3.19,0,0,0,.69-2.36Z"/><path class="cls-2" d="M222.22,138.68v-8.42c0-2.42-1.31-3.64-3.37-3.64s-3.39,1.25-3.39,3.64v8.42h-2V125h2v1.51a4.91,4.91,0,0,1,3.84-1.67,4.78,4.78,0,0,1,3.5,1.28,5.05,5.05,0,0,1,1.42,3.81v8.75Z"/><path class="cls-2" d="M237,138.68V137a4.44,4.44,0,0,1-3.9,1.81,4.71,4.71,0,0,1-3.33-1.2c-1.39-1.39-1.67-3.67-1.67-5.81s.28-4.42,1.67-5.81a4.75,4.75,0,0,1,3.33-1.19,4.39,4.39,0,0,1,3.87,1.75v-7.7h2v19.79Zm-3.45-12.06c-3,0-3.45,2.55-3.45,5.22s.47,5.23,3.45,5.23,3.42-2.56,3.42-5.23S236.5,126.62,233.53,126.62Z"/><path class="cls-2" d="M244.93,132.37c0,3,1.41,4.73,4,4.73a4.46,4.46,0,0,0,3.58-1.56l1.37,1.2a6.27,6.27,0,0,1-5,2.11c-3.61,0-6-2.17-6-7,0-4.42,2.14-7,5.61-7s5.62,2.56,5.62,6.61v.92Zm6.81-3.78a3.52,3.52,0,0,0-6.4,0,5.78,5.78,0,0,0-.41,2.28h7.22A5.78,5.78,0,0,0,251.74,128.59Z"/><path class="cls-2" d="M265.78,127.62a2.87,2.87,0,0,0-2.37-1c-2,0-3.28,1.58-3.28,3.67v8.39h-2V125h2v1.67a4.6,4.6,0,0,1,3.84-1.83,4.18,4.18,0,0,1,3.28,1.28Z"/><path class="cls-2" d="M269.86,132.37c0,3,1.42,4.73,4,4.73a4.46,4.46,0,0,0,3.58-1.56l1.37,1.2a6.27,6.27,0,0,1-5,2.11c-3.61,0-6-2.17-6-7,0-4.42,2.14-7,5.61-7s5.62,2.56,5.62,6.61v.92Zm6.81-3.78a3.52,3.52,0,0,0-6.4,0,5.78,5.78,0,0,0-.41,2.28h7.23A5.94,5.94,0,0,0,276.67,128.59Z"/><path class="cls-2" d="M291.82,138.68v-8.42c0-2.42-1.31-3.64-3.36-3.64s-3.4,1.25-3.4,3.64v8.42h-2V125h2v1.51a4.92,4.92,0,0,1,3.84-1.67,4.76,4.76,0,0,1,3.5,1.28,5,5,0,0,1,1.42,3.81v8.75Z"/><path class="cls-2" d="M298,132.12v-1.86h7.62v1.86Z"/><path class="cls-2" d="M318,138.68h-7.71V118.89h7.46c3.44,0,5.83,2,5.83,5.28a4.53,4.53,0,0,1-2.92,4.34,4.77,4.77,0,0,1,3.23,4.7C323.93,136.79,321.54,138.68,318,138.68Zm-.42-17.9h-5.17v6.87h5.17c2.19,0,3.89-1.09,3.89-3.45S319.81,120.78,317.62,120.78Zm.22,8.76h-5.39v7.25h5.39c2.45,0,4-1.42,4-3.64S320.29,129.54,317.84,129.54Z"/><path class="cls-2" d="M335.91,127.62a2.86,2.86,0,0,0-2.36-1c-2,0-3.28,1.58-3.28,3.67v8.39h-2V125h2v1.67a4.58,4.58,0,0,1,3.83-1.83,4.21,4.21,0,0,1,3.29,1.28Z"/><path class="cls-2" d="M348.34,138.68v-1.53a5,5,0,0,1-3.87,1.7,4.89,4.89,0,0,1-3.53-1.28,5.11,5.11,0,0,1-1.39-3.84V125h2v8.43c0,2.42,1.28,3.64,3.34,3.64s3.42-1.25,3.42-3.64V125h2v13.68Z"/><path class="cls-2" d="M359.35,138.85a7.56,7.56,0,0,1-5.62-2l1.33-1.34a5.61,5.61,0,0,0,4.26,1.59c2.25,0,3.64-.81,3.64-2.42,0-1.2-.69-1.87-2.28-2l-2.25-.2c-2.67-.22-4.09-1.42-4.09-3.67,0-2.5,2.11-4,5-4a7.72,7.72,0,0,1,4.92,1.47l-1.3,1.31a5.85,5.85,0,0,0-3.64-1.09c-2,0-3.06.87-3.06,2.26,0,1.16.67,1.86,2.39,2l2.2.19c2.39.22,4,1.14,4,3.7S362.65,138.85,359.35,138.85Z"/><path class="cls-2" d="M372.41,138.85a7.56,7.56,0,0,1-5.62-2l1.34-1.34a5.58,5.58,0,0,0,4.25,1.59c2.25,0,3.64-.81,3.64-2.42,0-1.2-.69-1.87-2.28-2l-2.25-.2c-2.67-.22-4.09-1.42-4.09-3.67,0-2.5,2.12-4,5-4a7.76,7.76,0,0,1,4.92,1.47l-1.31,1.31a5.83,5.83,0,0,0-3.64-1.09c-2,0-3.06.87-3.06,2.26,0,1.16.67,1.86,2.39,2l2.2.19c2.39.22,4,1.14,4,3.7S375.72,138.85,372.41,138.85Z"/><path class="cls-2" d="M382.86,132.37c0,3,1.42,4.73,4,4.73a4.48,4.48,0,0,0,3.59-1.56l1.36,1.2a6.26,6.26,0,0,1-5,2.11c-3.62,0-6-2.17-6-7,0-4.42,2.14-7,5.61-7s5.62,2.56,5.62,6.61v.92Zm6.81-3.78a3.51,3.51,0,0,0-6.39,0,5.76,5.76,0,0,0-.42,2.28h7.23A5.76,5.76,0,0,0,389.67,128.59Z"/><path class="cls-2" d="M399.49,138.68c-2.39,0-3.48-1.55-3.48-3.64V118.89h2V135c0,1.33.45,2,1.84,2h1.08v1.72Z"/></g></g></svg>