<?xml version="1.0" encoding="utf-8"?>
<!-- Generator: Adobe Illustrator 25.2.3, SVG Export Plug-In . SVG Version: 6.00 Build 0)  -->
<svg version="1.1" id="Calque_1" xmlns="http://www.w3.org/2000/svg" xmlns:xlink="http://www.w3.org/1999/xlink" x="0px" y="0px"
	 viewBox="0 0 198 105" style="enable-background:new 0 0 198 105;" xml:space="preserve">
<style type="text/css">
	.st0{fill:#272158;}
	.st1{fill:#52276A;}
	.st2{fill:#7A2182;}
	.st3{clip-path:url(#SVGID_2_);fill:url(#SVGID_3_);}
	.st4{fill:#991A81;}
	.st5{fill:#B51F72;}
	.st6{clip-path:url(#SVGID_5_);fill:url(#SVGID_6_);}
	.st7{fill:#DB1E84;}
	.st8{fill:#E6007E;}
	.st9{fill:#942240;}
	.st10{clip-path:url(#SVGID_8_);fill:url(#SVGID_9_);}
	.st11{fill:#E84E0F;}
	.st12{fill:#FFDC54;}
	.st13{fill:#FBBB30;}
	.st14{fill:#ED6B06;}
	.st15{fill:#6E6A68;}
</style>
<g>
	<g>
		<path class="st0" d="M33.2,76c1-0.5,1.9-1.5,2.9-2.2c1.1-0.7,2.3-1.3,3.3-1.9c2.2-1.4,4.5-2.2,6.7-3.5c0.1,1.7-0.3,4-0.7,5.7
			c-0.3,1.1-0.9,3.7-1.8,4.4c-1,0.8-5.1,0.5-6.5,0.2C35.7,78.3,33.2,76,33.2,76"/>
		<path class="st1" d="M30.3,68.5c-0.2-3.9,3.8-11.1,7.9-12.1c3.9-0.9,6.8,5.1,8,7.9c-5,0.4-10.6,2.1-15.3,3.7L30.3,68.5z"/>
		<path class="st2" d="M46.2,52.7c6,0,13,1,16.1,6.6c-1.8,0.9-3.8,1.5-5.6,2.5c-1,0.5-2,0.8-3,1.4c-1.1,0.6-2,1.6-3.2,1.9
			c0.2-3.4-1.8-8.2-3.8-11L46.2,52.7z"/>
	</g>
	<g>
		<defs>
			<path id="SVGID_1_" d="M59.3,68.9c-2,0.1-4,0.2-6,0.1l0.7,0.5c1.1,2.2,2.1,4.1,2.9,6.4c1.1,2.9,1.6,6.1,2.7,9
				c2.2-2,4-4.3,5.1-7.2c0.8-2.4,2.2-6.4,1.8-8.9c-0.9-0.1-1.8-0.1-2.7-0.1C62.4,68.8,60.8,68.8,59.3,68.9"/>
		</defs>
		<clipPath id="SVGID_2_">
			<use xlink:href="#SVGID_1_"  style="overflow:visible;"/>
		</clipPath>
		
			<linearGradient id="SVGID_3_" gradientUnits="userSpaceOnUse" x1="-198" y1="363.6787" x2="-197" y2="363.6787" gradientTransform="matrix(13.2517 0 0 -13.2517 2677.1692 4896.2183)">
			<stop  offset="0" style="stop-color:#991A81"/>
			<stop  offset="0.2943" style="stop-color:#941C81"/>
			<stop  offset="0.7322" style="stop-color:#851F82"/>
			<stop  offset="1" style="stop-color:#7A2182"/>
		</linearGradient>
		<rect x="53.3" y="68.8" class="st3" width="13.5" height="16.1"/>
	</g>
	<g>
		<path class="st4" d="M52.7,77.7c-0.2,4.8,0.5,9.5,1.3,14.1c-5-1.1-8.7-3.8-13.4-7c0.2-0.3,3.9,0.2,7-1.5
			C50.2,81.9,51.9,78.8,52.7,77.7"/>
		<path class="st5" d="M28.4,93.9c2-1.9,4.5-3,6.3-5.1c0.4-0.5,2.8-3.9,2.8-3.9s0.9,2.3,1.3,2.8c2.1,2.7,3.8,5.8,6,8.3
			c-5.1,0.3-11.4,1.8-15.7-2L28.4,93.9z"/>
	</g>
	<g>
		<defs>
			<path id="SVGID_4_" d="M24.7,74.8c-1.1,2.6-2.2,5.1-2.5,8c-0.3,2.3,0,4.6,0,6.9c2.3-0.2,11-4.9,13.3-5.8
				c-4.5-1.5-9-4.5-10.1-10.1L24.7,74.8z"/>
		</defs>
		<clipPath id="SVGID_5_">
			<use xlink:href="#SVGID_4_"  style="overflow:visible;"/>
		</clipPath>
		
			<linearGradient id="SVGID_6_" gradientUnits="userSpaceOnUse" x1="-198" y1="363.7054" x2="-197" y2="363.7054" gradientTransform="matrix(13.4375 0 0 -13.4375 2682.647 4968.9985)">
			<stop  offset="0" style="stop-color:#DB1E84"/>
			<stop  offset="0.2321" style="stop-color:#D61E82"/>
			<stop  offset="0.5783" style="stop-color:#CA1E7C"/>
			<stop  offset="0.9942" style="stop-color:#B51F72"/>
			<stop  offset="1" style="stop-color:#B51F72"/>
		</linearGradient>
		<rect x="21.9" y="73.7" class="st6" width="13.6" height="15.9"/>
	</g>
	<g>
		<path class="st7" d="M11.9,62.4c2,1.3,4,3.4,6.1,4.7c1.8,1.1,4.4,2.5,4.4,2.5s-1.9,4.5-3.1,7c-1.1,2.5-1.5,5.7-1.5,7.5
			c-1-0.3-5-5.8-6.2-11.8C10.6,68.2,11.9,62.4,11.9,62.4"/>
		<path class="st8" d="M19.9,60c1.2,2.2,2.8,3.9,4.4,5.8c-0.1-3.7,2.3-10,5.8-12c-4.5-0.7-9.4-1.2-14-1.2C16,52.6,18.6,57.8,19.9,60
			"/>
		<path class="st9" d="M22.5,46.2c4.5,0.7,9.8,1.7,13.7,3.7c0.1,0,0.1-0.1,0.2-0.1c0.3-3.4,1.8-8.3,2.7-11.5c-2-0.8-6-0.2-8.8,1.1
			C26.5,41.2,22.5,46.2,22.5,46.2"/>
	</g>
	<g>
		<defs>
			<path id="SVGID_7_" d="M46.1,41.3c3.9-1.2,10.4-2,14.6-2.4c-0.2-1-0.8-4.2-2.4-6.8c-1.6-2.8-4.2-5-5.1-5.7
				C53.1,29.7,46.1,41.3,46.1,41.3"/>
		</defs>
		<clipPath id="SVGID_8_">
			<use xlink:href="#SVGID_7_"  style="overflow:visible;"/>
		</clipPath>
		
			<linearGradient id="SVGID_9_" gradientUnits="userSpaceOnUse" x1="-198" y1="363.7638" x2="-197" y2="363.7638" gradientTransform="matrix(14.5728 0 0 -14.5728 2931.491 5334.8633)">
			<stop  offset="0" style="stop-color:#9E234F"/>
			<stop  offset="0.1506" style="stop-color:#A3264D"/>
			<stop  offset="0.3754" style="stop-color:#B12E46"/>
			<stop  offset="0.6465" style="stop-color:#C63B3A"/>
			<stop  offset="0.9515" style="stop-color:#E44F20"/>
			<stop  offset="1" style="stop-color:#E95319"/>
		</linearGradient>
		<rect x="46.1" y="26.4" class="st10" width="14.6" height="14.9"/>
	</g>
	<g>
		<path class="st11" d="M64.9,47.6c3.5-0.7,7.1-0.7,10.6-0.2c2,0.3,4.8,0.6,6.3,1.9c-1.4,1-10.3,11-11.4,12.9
			c-0.1-1.3-1-6.3-1.5-7.6C68.5,53.2,64.9,47.6,64.9,47.6"/>
		<path class="st12" d="M90,21.2c2.1-2.5,5.2-4,7.8-6c1.1-0.9,2.2-1.6,3.6-1.9c0.2,4.2-0.2,8.7,0.6,12.7c-0.3-2.3-4.7-3.5-6.5-3.8
			c-1.9-0.3-3.9-0.5-5.8-0.4L90,21.2z"/>
		<path class="st13" d="M65.2,32.7c2.8,2.1,5.6,4.4,8.7,5.9c1.1,0.6,2.8,1.6,4,1.7c0.3-4.3,0.3-9.4,1.5-13.5c-2,0.3-4.3,1.6-6.2,2.3
			c-2.6,0.9-5.1,2.2-7.6,3.1L65.2,32.7z"/>
		<path class="st14" d="M67.2,14.3c1.4,0,4.5,1.9,5.7,2.4c1.5,0.7,2.8,1.9,4.1,2.9c1,0.8,2.1,1.6,3.1,2.4c0-2.5,0.4-5.1,0.6-7.6
			c0.2-2.1,0.5-5,1.1-7c-1.1,0.2-5.3,2.3-6.4,2.7C73.4,10.9,67.2,14.3,67.2,14.3"/>
		<path class="st15" d="M81.7,75.6c0,0.3-0.3,0.7-0.7,0.7h-4.7V87c0,0.3-0.3,0.7-0.7,0.7c-0.3,0-0.8-0.4-0.8-0.7V75.9v-0.1
			c0-3.4,2.9-6.2,6.4-6.2c0.3,0,0.7,0.4,0.7,0.7c0,0.3-0.4,0.7-0.7,0.7c-2.5,0-4.4,1.6-4.8,3.9H81C81.4,74.8,81.7,75.1,81.7,75.6"/>
		<path class="st15" d="M86.8,84.1c0.8-0.8,6.6-5.6,7.6-6.4c-0.1-0.1-0.2-0.1-0.3-0.2c-1-0.9-2.3-1.3-3.7-1.2
			c-1.2,0.1-2.5,0.8-3.3,1.8c-0.8,0.9-1.1,1.9-1.1,3.1C85.9,82.3,86.2,83.2,86.8,84.1 M95,76.3c0.3,0.3,0.7,0.7,1,1
			c0.1,0.1,0.2,0.2,0.2,0.5c0,0.1-0.1,0.3-0.2,0.4c0,0-7.3,6.1-8.2,6.9c2.2,1.7,5.3,1.3,7-0.7c0.2-0.3,0.6-0.3,1-0.1
			c0.2,0.2,0.3,0.7,0.2,1c-2.3,2.7-6.3,3.1-9.1,0.8c-1.3-1-2.1-2.5-2.3-4.2c-0.1-1.7,0.3-3.4,1.5-4.7c1-1.4,2.5-2.1,4.3-2.3
			C92,74.7,93.6,75.3,95,76.3"/>
		<path class="st15" d="M101.3,81.2c0,2.8,2.3,5,5.1,5c2.8,0,5.1-2.2,5.1-5c0-2.8-2.2-5.1-5.1-5.1C103.6,76.1,101.3,78.3,101.3,81.2
			 M99.9,81.2V81V69.6c0-0.5,0.3-0.7,0.7-0.7c0.4,0,0.7,0.2,0.7,0.7v7.5c1.3-1.4,3.1-2.3,5.1-2.3c3.5,0,6.4,2.9,6.4,6.4
			c0,3.6-2.9,6.5-6.4,6.5C102.8,87.7,99.9,84.8,99.9,81.2"/>
		<path class="st15" d="M118.3,84.1c0.8-0.8,6.6-5.6,7.6-6.4c-0.1-0.1-0.2-0.1-0.3-0.2c-1-0.9-2.3-1.3-3.7-1.2
			c-1.2,0.1-2.5,0.8-3.3,1.8c-0.8,0.9-1.1,1.9-1.1,3.1C117.4,82.3,117.8,83.2,118.3,84.1 M126.5,76.3c0.3,0.3,0.7,0.7,1,1
			c0.1,0.1,0.2,0.2,0.2,0.5c0,0.1-0.1,0.3-0.2,0.4c0,0-7.3,6.1-8.2,6.9c2.2,1.7,5.3,1.3,7-0.7c0.2-0.3,0.6-0.3,1-0.1
			c0.2,0.2,0.3,0.7,0.2,1c-2.3,2.7-6.3,3.1-9.1,0.8c-1.3-1-2.1-2.5-2.3-4.2c-0.1-1.7,0.3-3.4,1.5-4.7c1-1.4,2.5-2.1,4.3-2.3
			C123.5,74.7,125.1,75.3,126.5,76.3"/>
		<path d="M137.1,88.2c-3.7,0-6.7-3-6.7-6.7c0-3.7,3-6.7,6.7-6.7c2.1,0,4.2,1,5.4,2.8c0.2,0.2,0.2,0.7-0.1,0.9
			c-0.4,0.2-0.9,0.2-1.1-0.1c-0.9-1.3-2.5-2.2-4.2-2.2c-2.9,0-5.3,2.4-5.3,5.3c0,2.9,2.4,5.2,5.3,5.2c1.9,0,3.7-0.9,4.5-2.7
			c0.2-0.4,0.8-0.5,1.1-0.2c0.3,0.1,0.5,0.6,0.2,0.9C141.8,86.8,139.6,88.2,137.1,88.2"/>
		<path d="M162.2,86.8c-2.9,0-5.1-2.3-5.3-5.1c-0.5,0.1-1,0.4-1.5,0.7c0.1,1,0.5,1.8,1,2.6c-1,1.1-2.4,1.7-3.9,1.7
			c-3,0-5.3-2.4-5.3-5.4c0-2.8,2.3-5.3,5.3-5.3c1.4,0,2.8,0.5,3.8,1.6c0.8,0.8,1.4,1.9,1.6,3c0.5,0,1,0.1,1.5,0c-0.1-1-0.5-2-1-2.9
			c1-1.1,2.4-1.8,3.9-1.8c1.4,0,2.8,0.5,3.8,1.6c1,1,1.6,2.3,1.6,3.7C167.6,84.4,165.2,86.8,162.2,86.8 M167.1,76.6
			c-1.3-1.3-3-2-4.8-2c-1.9,0-3.6,0.8-4.9,2c0,0,0,0,0,0c-1.3-1.3-3-2-4.8-2c-3.8,0-6.9,3.1-6.9,6.7c0,3.8,3.1,6.9,6.9,6.9
			c1.9,0,3.6-0.8,4.8-2c1.2,1.2,3,2,4.9,2c3.8,0,6.8-3.1,6.8-6.9C169,79.7,168.3,78,167.1,76.6"/>
		<path d="M178,86.8c2.9,0,5.2-2.4,5.2-5.3c0-1.3-0.5-2.7-1.5-3.7c-1.1-1.1-2.3-1.6-3.7-1.6c-2.9,0-5.3,2.4-5.3,5.2
			C172.7,84.4,175.1,86.8,178,86.8 M178,88.2c-2.2,0-4-1-5.3-2.6v7.4c0,0.4-0.2,0.8-0.8,0.8c-0.4,0-0.7-0.3-0.7-0.8V81.5v-0.1
			c0.1-3.7,3.1-6.6,6.8-6.6c1.8,0,3.5,0.6,4.7,1.9c1.3,1.3,2.1,3,2.1,4.7C184.8,85.2,181.7,88.2,178,88.2"/>
	</g>
</g>
</svg>
