<svg xmlns="http://www.w3.org/2000/svg" viewBox="0 0 1942.45 1306.24"><defs><style>.cls-1{fill:#ffa951;}</style></defs><title>orange-wav</title><g id="Calque_2" data-name="Calque 2"><g id="contenu"><path class="cls-1" d="M1942.45,0H1134V82.57c-29.61,17.78-55.26,39.6-75.3,65.56C945.53,294.66,1074.5,459,906.32,489.28c-170.7,30.72-205,263-369,179.68S-9,1084.48,22.45,550.55C6.53,820.43-71.5,1278.57,202,1301c220,18,553.71-6,637.46-134.8s117.69-130.7,279.86-151.24,212-167.93,244.09-197.46c118.64-127.57,307.3,50.36,425.86-101,23.47-28.38,27.61-41,53.17-89.42s100.06-69.84,100.06-69.84Z"/></g></g></svg>