<svg width="15" height="12" viewBox="0 0 15 12" fill="none" xmlns="http://www.w3.org/2000/svg">
<path d="M13.2406 2.89528C13.2406 3.02528 13.2406 3.14528 13.2406 3.27528C13.2427 4.74718 12.848 6.19244 12.0982 7.45903C11.3484 8.72562 10.2711 9.76673 8.97959 10.4728C7.68812 11.179 6.23022 11.524 4.75925 11.4716C3.28827 11.4192 1.8586 10.9714 0.620605 10.1753C0.847017 10.1905 1.07419 10.1905 1.30061 10.1753C2.60109 10.1779 3.86497 9.74486 4.89061 8.94528C4.28825 8.93492 3.70418 8.73658 3.22008 8.37798C2.73598 8.01939 2.37605 7.51848 2.19061 6.94528C2.37223 6.97724 2.5562 6.99396 2.74061 6.99528C2.99409 6.99785 3.24665 6.96418 3.49061 6.89528C2.83857 6.7617 2.25263 6.40716 1.83175 5.89155C1.41088 5.37593 1.18088 4.73085 1.1806 4.06528C1.584 4.28387 2.03216 4.40703 2.49061 4.42528C2.09667 4.16101 1.77384 3.80384 1.55061 3.38528C1.32737 2.96672 1.21061 2.49964 1.21061 2.02528C1.20914 1.51584 1.34378 1.01525 1.60061 0.575277C2.32521 1.46365 3.22845 2.18979 4.25175 2.70661C5.27505 3.22343 6.39556 3.51938 7.54061 3.57528C7.48819 3.35917 7.46134 3.13765 7.46061 2.91528C7.45552 2.3334 7.6262 1.76354 7.95032 1.28027C8.27444 0.796991 8.7369 0.422815 9.27718 0.206703C9.81746 -0.0094095 10.4104 -0.0573906 10.9784 0.0690359C11.5464 0.195462 12.063 0.490407 12.4606 0.915277C13.1054 0.78575 13.724 0.549145 14.2906 0.215278C14.0762 0.885431 13.6246 1.45433 13.0206 1.81528C13.5936 1.74484 14.1531 1.58982 14.6806 1.35528C14.2934 1.93395 13.8057 2.43858 13.2406 2.84528V2.89528Z" fill="white"/>
</svg>
