<svg width="222" height="410" viewBox="0 0 222 410" fill="#FF9223" xmlns="http://www.w3.org/2000/svg">
<path d="M61.848 231.624C60.312 231.624 26.52 231.624 11.16 231.624C2.96802 231.624 0.40802 228.552 0.40802 220.872C0.40802 200.392 0.40802 179.4 0.40802 158.92C0.40802 150.728 3.48002 148.168 11.16 148.168H61.848C61.848 146.632 61.848 116.936 61.848 103.112C61.848 82.632 65.432 63.176 75.672 45.256C86.424 26.824 101.784 14.536 121.24 7.368C134.04 2.76 146.84 0.712006 160.664 0.712006H210.84C218.008 0.712006 221.08 3.78401 221.08 10.952V69.32C221.08 76.488 218.008 79.56 210.84 79.56C197.016 79.56 183.192 79.56 169.368 80.072C155.544 80.072 148.376 86.728 148.376 101.064C147.864 116.424 148.376 131.272 148.376 147.144H207.768C215.96 147.144 219.032 150.216 219.032 158.408V220.36C219.032 228.552 216.472 231.112 207.768 231.112C189.336 231.112 149.912 231.112 148.376 231.112V398.024C148.376 406.728 145.816 409.8 136.6 409.8C115.096 409.8 94.104 409.8 72.6 409.8C64.92 409.8 61.848 406.728 61.848 399.048C61.848 345.288 61.848 233.16 61.848 231.624Z" fill="#FF9223"/>
</svg>
