<svg width="54" height="51" viewBox="0 0 54 51" fill="none" xmlns="http://www.w3.org/2000/svg">
<path d="M54 51V31.2326C54 20.5581 48.4 15.814 40.8 15.814C34.4 15.814 31.6 18.9767 30.4 21.3488V16.6047H18.8C18.8 19.7674 18.8 51 18.8 51H30.4V31.6279C30.4 30.4419 30.4 29.6512 30.8 28.8605C31.6 26.8837 33.6 24.5116 36.8 24.5116C40.8 24.5116 42.8 27.6744 42.8 32.4186V51H54ZM6.4 11.8605C10.4 11.8605 12.8 9.09302 12.8 5.93023C12.8 2.37209 10.4 0 6.4 0C2.4 0 0 2.37209 0 5.93023C0 9.09302 2.4 11.8605 6.4 11.8605ZM12.4 16.6047H0.8V51H12.4V16.6047Z" fill="white"/>
</svg>
