<svg width="14" height="13" viewBox="0 0 14 13" fill="none" xmlns="http://www.w3.org/2000/svg">
<path d="M3.9999 3.75068H1.3699C1.30094 3.75068 1.23481 3.77807 1.18605 3.82683C1.13729 3.87559 1.1099 3.94172 1.1099 4.01068V11.7507C1.1099 11.7848 1.11662 11.8186 1.12969 11.8502C1.14275 11.8817 1.1619 11.9104 1.18605 11.9345C1.21019 11.9587 1.23885 11.9778 1.2704 11.9909C1.30194 12.004 1.33575 12.0107 1.3699 12.0107H3.9999C4.03404 12.0107 4.06785 12.004 4.09939 11.9909C4.13094 11.9778 4.1596 11.9587 4.18374 11.9345C4.20789 11.9104 4.22704 11.8817 4.2401 11.8502C4.25317 11.8186 4.2599 11.7848 4.2599 11.7507V3.98068C4.25251 3.91704 4.22188 3.85838 4.1739 3.81593C4.12592 3.77349 4.06396 3.75025 3.9999 3.75068Z" fill="white"/>
<path d="M2.64989 3.18068C3.10956 3.20468 3.5608 3.05068 3.90989 2.75068C4.06331 2.60177 4.18427 2.42274 4.26515 2.22483C4.34604 2.02692 4.3851 1.81441 4.37989 1.60068C4.3773 1.38429 4.33316 1.17042 4.2499 0.970677C4.12829 0.680553 3.92286 0.433333 3.65989 0.260678C3.35718 0.0828099 3.01091 -0.00722166 2.65989 0.000678015C2.20265 -0.0119749 1.75826 0.152878 1.4199 0.460677C1.26993 0.610237 1.15094 0.787917 1.06975 0.983539C0.988568 1.17916 0.946777 1.38888 0.946777 1.60068C0.946777 1.81248 0.988568 2.02219 1.06975 2.21782C1.15094 2.41344 1.26993 2.59112 1.4199 2.74068C1.58483 2.89291 1.77875 3.01034 1.99009 3.08593C2.20142 3.16153 2.42583 3.19376 2.64989 3.18068Z" fill="white"/>
<path d="M5.12989 11.2407V11.7507C5.12987 11.7844 5.13665 11.8177 5.14984 11.8487C5.16302 11.8797 5.18233 11.9077 5.20662 11.9311C5.2309 11.9544 5.25966 11.9726 5.29115 11.9846C5.32265 11.9966 5.35623 12.002 5.38989 12.0007H7.9999C8.06715 12.0007 8.13181 11.9747 8.1803 11.9281C8.22878 11.8815 8.25731 11.8179 8.2599 11.7507V7.42068C8.2599 7.32068 8.2599 7.22068 8.2599 7.11068C8.27049 7.0351 8.29065 6.96117 8.31989 6.89068C8.39775 6.67823 8.5327 6.49138 8.70989 6.35068C8.79597 6.27004 8.89824 6.20868 9.0099 6.17068C9.13526 6.12642 9.26697 6.10278 9.39989 6.10068C9.56993 6.09507 9.73858 6.13293 9.88989 6.21068C9.98572 6.25094 10.0687 6.31665 10.1299 6.40068C10.246 6.54137 10.3312 6.70491 10.3799 6.88068C10.4415 7.1189 10.4684 7.36477 10.4599 7.61068V11.7507C10.4599 11.7848 10.4666 11.8186 10.4797 11.8502C10.4928 11.8817 10.5119 11.9104 10.536 11.9345C10.5602 11.9587 10.5889 11.9778 10.6204 11.9909C10.6519 12.004 10.6858 12.0107 10.7199 12.0107H13.2999C13.334 12.0107 13.3678 12.004 13.3994 11.9909C13.4309 11.9778 13.4596 11.9587 13.4837 11.9345C13.5079 11.9104 13.527 11.8817 13.5401 11.8502C13.5532 11.8186 13.5599 11.7848 13.5599 11.7507V7.31068C13.5674 6.75725 13.4829 6.20643 13.3099 5.68068C13.115 5.03164 12.7062 4.46769 12.1499 4.08068C11.7362 3.82388 11.273 3.6573 10.7905 3.59182C10.308 3.52634 9.81707 3.56343 9.3499 3.70068C8.97542 3.80712 8.6323 4.0027 8.3499 4.27068L8.2499 4.36068V4.00068C8.24742 3.93516 8.22029 3.873 8.17393 3.82665C8.12757 3.78029 8.06541 3.75315 7.9999 3.75068H5.3699C5.30094 3.75068 5.23481 3.77807 5.18605 3.82683C5.13729 3.87559 5.1099 3.94172 5.1099 4.01068C5.1099 4.01068 5.1099 4.17068 5.1099 4.31068C5.1099 4.73068 5.1099 5.48068 5.1099 6.31068C5.1099 7.46068 5.1099 8.82068 5.1099 9.89068C5.1299 10.4407 5.12989 10.9007 5.12989 11.2407Z" fill="white"/>
</svg>
