<svg width="21" height="15" viewBox="0 0 21 15" fill="none" xmlns="http://www.w3.org/2000/svg">
<path d="M18.2105 0H2.98055C2.33872 0 1.72319 0.254963 1.26935 0.708801C0.81551 1.16264 0.560547 1.77818 0.560547 2.42V11.92C0.560544 12.2373 0.623211 12.5515 0.744949 12.8446C0.866688 13.1376 1.0451 13.4038 1.26995 13.6277C1.4948 13.8516 1.76166 14.0289 2.05521 14.1494C2.34876 14.27 2.66322 14.3313 2.98055 14.33H18.2105C18.8497 14.33 19.4627 14.0761 19.9147 13.6241C20.3666 13.1722 20.6205 12.5592 20.6205 11.92V2.42C20.6219 2.10267 20.5605 1.78821 20.44 1.49466C20.3194 1.20111 20.1421 0.934253 19.9182 0.709404C19.6943 0.484554 19.4282 0.306141 19.1351 0.184402C18.8421 0.0626638 18.5279 -2.7317e-06 18.2105 0ZM18.0505 1.43L10.8405 6.43C10.7645 6.48381 10.6737 6.51271 10.5805 6.51271C10.4874 6.51271 10.3966 6.48381 10.3205 6.43L3.16055 1.43H18.0505ZM19.1905 11.92C19.1905 12.1852 19.0852 12.4396 18.8977 12.6271C18.7101 12.8146 18.4558 12.92 18.1905 12.92H2.98055C2.71533 12.92 2.46098 12.8146 2.27344 12.6271C2.0859 12.4396 1.98055 12.1852 1.98055 11.92V2.38L9.49055 7.57C9.80801 7.78452 10.1824 7.89916 10.5655 7.89916C10.9487 7.89916 11.3231 7.78452 11.6405 7.57L19.1805 2.39L19.1905 11.92Z" fill="white"/>
</svg>
