<svg width="42" height="78" viewBox="0 0 42 78" fill="none" xmlns="http://www.w3.org/2000/svg">
<path d="M11.7009 44.0653C11.4103 44.0653 5.01725 44.0653 2.11131 44.0653C0.561473 44.0653 0.0771484 43.4809 0.0771484 42.0198C0.0771484 38.1236 0.0771484 34.13 0.0771484 30.2338C0.0771484 28.6754 0.658338 28.1883 2.11131 28.1883H11.7009C11.7009 27.8961 11.7009 22.2466 11.7009 19.6167C11.7009 15.7205 12.379 12.0191 14.3163 8.60997C16.3504 5.10339 19.2564 2.76567 22.9373 1.402C25.3589 0.525361 27.7805 0.135742 30.3958 0.135742H39.8886C41.2447 0.135742 41.8259 0.720172 41.8259 2.08384V13.188C41.8259 14.5517 41.2447 15.1361 39.8886 15.1361C37.2733 15.1361 34.6579 15.1361 32.0425 15.2335C29.4272 15.2335 28.0711 16.4998 28.0711 19.2271C27.9742 22.1492 28.0711 24.974 28.0711 27.9935H39.3074C40.8573 27.9935 41.4384 28.578 41.4384 30.1364V41.9224C41.4384 43.4809 40.9541 43.9679 39.3074 43.9679C35.8203 43.9679 28.3617 43.9679 28.0711 43.9679V75.7219C28.0711 77.3778 27.5868 77.9622 25.8432 77.9622C21.7749 77.9622 17.8034 77.9622 13.7351 77.9622C12.2821 77.9622 11.7009 77.3778 11.7009 75.9167C11.7009 65.6892 11.7009 44.3576 11.7009 44.0653Z" fill="white"/>
</svg>
