<?xml version="1.0" standalone="no"?>
<!DOCTYPE svg PUBLIC "-//W3C//DTD SVG 20010904//EN"
 "http://www.w3.org/TR/2001/REC-SVG-20010904/DTD/svg10.dtd">
<svg version="1.0" xmlns="http://www.w3.org/2000/svg"
 width="182.000000pt" height="182.000000pt" viewBox="0 0 182.000000 182.000000"
 preserveAspectRatio="xMidYMid meet">
<metadata>
Created by potrace 1.14, written by Peter Selinger 2001-2017
</metadata>
<g transform="translate(0.000000,182.000000) scale(0.100000,-0.100000)"
fill="#000000" stroke="none">
<path d="M1370 1788 c-60 -27 -226 -110 -233 -117 -4 -4 16 -18 45 -31 29 -12
85 -47 125 -76 40 -30 74 -54 75 -54 2 0 3 15 4 33 1 59 16 199 24 228 9 32 2
35 -40 17z"/>
<path d="M1775 1672 c-55 -30 -149 -99 -179 -131 l-30 -31 55 -1 c83 -1 143
-17 175 -48 20 -18 20 -17 16 98 -2 64 -4 119 -5 123 -1 3 -16 -1 -32 -10z"/>
<path d="M836 1394 c-8 -30 -49 -116 -99 -205 l-37 -65 88 17 c48 9 113 20
146 24 l58 7 -5 35 c-11 67 -80 178 -127 203 -15 8 -19 5 -24 -16z"/>
<path d="M1230 1365 c-74 -30 -136 -55 -137 -55 -2 0 -3 -6 -3 -13 0 -20 233
-168 245 -155 2 2 7 44 10 93 6 86 9 111 19 163 3 12 4 22 3 22 -1 0 -63 -25
-137 -55z"/>
<path d="M417 1176 c-48 -18 -102 -55 -152 -106 -40 -41 -39 -45 15 -54 57 -9
167 -40 193 -53 16 -8 30 -13 31 -11 3 4 56 223 56 231 0 12 -104 6 -143 -7z"/>
<path d="M1097 1003 c-10 -2 -17 -8 -15 -11 2 -4 20 -37 41 -73 31 -56 59
-145 60 -196 1 -21 10 -14 44 30 17 23 67 80 111 127 90 96 89 99 -6 117 -55
11 -204 15 -235 6z"/>
<path d="M113 874 c42 -97 130 -234 151 -234 2 0 6 19 10 42 9 58 37 117 74
160 l32 35 -58 7 c-31 4 -94 9 -140 13 l-82 5 13 -28z"/>
<path d="M708 883 c4 -10 20 -42 35 -70 15 -29 32 -76 38 -105 6 -29 12 -54
13 -55 1 -1 55 25 120 57 l119 59 -39 39 c-48 47 -124 77 -221 86 -67 6 -72 6
-65 -11z"/>
<path d="M520 812 c-45 -22 -102 -99 -123 -164 -9 -29 -14 -54 -11 -57 2 -3
36 5 74 18 78 25 89 28 178 43 36 6 62 16 62 23 0 26 -75 125 -106 140 -39 18
-32 19 -74 -3z"/>
<path d="M16 691 c-11 -18 -14 -136 -5 -186 15 -78 95 -235 120 -235 5 0 9 15
9 34 0 36 15 84 49 159 45 98 45 93 -7 123 -26 15 -67 43 -92 62 -25 20 -50
39 -57 44 -6 5 -14 5 -17 -1z"/>
<path d="M617 540 c-93 -47 -169 -100 -164 -114 2 -6 18 -21 37 -34 25 -17 47
-22 95 -22 38 0 66 5 72 13 23 28 58 183 44 192 -4 2 -42 -14 -84 -35z"/>
<path d="M942 572 c-72 -2 -92 -6 -84 -15 16 -19 68 -154 92 -236 21 -71 22
-73 41 -55 58 52 119 193 119 273 0 41 12 39 -168 33z"/>
<path d="M261 426 c-32 -73 -41 -117 -41 -195 l0 -73 29 5 c16 4 78 29 137 57
l107 51 -51 24 c-70 33 -142 108 -142 149 0 34 -21 24 -39 -18z"/>
<path d="M795 347 c-39 -53 -79 -76 -151 -85 -57 -7 -58 -8 -34 -21 14 -8 27
-17 30 -20 20 -26 207 -118 218 -107 1 2 -3 38 -9 81 -6 42 -12 102 -13 131
-2 30 -5 56 -7 58 -2 2 -18 -15 -34 -37z"/>
<path d="M492 204 c-18 -24 -57 -62 -88 -84 l-55 -41 23 -18 c37 -29 94 -43
166 -41 90 2 120 5 127 12 4 3 -21 44 -54 91 -34 47 -61 90 -61 95 0 5 -6 14
-12 20 -10 7 -22 -2 -46 -34z"/>
</g>
</svg>
