<?xml version="1.0" encoding="utf-8"?>
<svg width="40" height="44" viewBox="0 0 40 44" fill="none" xmlns="http://www.w3.org/2000/svg">
<path d="M21 3.69453V0.894531H19V3.69453H0V10.2945H3V33.1945H13L6.2 42.3945L7.8 43.5945L15.5 33.1945H19V41.5945H21V33.1945H24.5L32.2 43.5945L33.8 42.3945L27 33.1945H37V10.2945H40V3.69453H21ZM35 31.2945H4.9V10.2945H35V31.2945ZM38 8.39453H2V5.59453H38V8.39453Z" fill="white"/>
<path d="M20.1 14.6945H10.5V16.6945H20.1V14.6945Z" fill="white"/>
<path d="M29.4 19.5945H10.5V21.5945H29.4V19.5945Z" fill="white"/>
<path d="M29.4 24.4945H10.5V26.4945H29.4V24.4945Z" fill="white"/>
</svg>
