<?xml version="1.0" encoding="utf-8"?>
<svg width="52" height="51" viewBox="0 0 52 51" fill="none" xmlns="http://www.w3.org/2000/svg">
<path d="M0 43.4C0 43.7 0.2 43.9 0.4 44L24 50.2H50.8C51.1 50.2 51.4 50 51.4 49.6V14.5C51.4 14.2 51.2 13.9 50.8 13.9H48V9.8C48 9.5 47.8 9.3 47.6 9.2L46.9 9.1C45.5 8.8 44.1 8.6 42.6 8.5V0.5C42.6 0.2 42.3 0 42 0C41.9 0 41.9 0 41.8 0L39.3 1C32.9 3.5 27.5 8 23.9 13.8C18.3 12.8 13.4 9.7 10 5.2L8.3 2.9C8.1 2.6 7.7 2.6 7.5 2.8C7.3 2.9 7.3 3 7.3 3.2V9.4L0.7 7.7C0.4 7.6 0.1 7.8 0 8.1C0 8.2 0 8.2 0 8.3V43.4ZM50.4 15V49H26.1C32.4 44.9 40.1 43.6 47.4 45.5C47.7 45.6 48 45.4 48.1 45.1C48.1 45.1 48.1 45 48.1 44.9V15H50.4ZM42.2 36.2C42.4 36.1 42.6 35.9 42.6 35.6V9.6C44 9.7 45.3 9.9 46.6 10.2L46.9 10.3V14.2C46.8 14.4 46.8 14.6 46.9 14.8V44.3C39.8 42.7 32.4 44 26.2 47.7C30 42.4 35.4 38.5 41.5 36.5L42.2 36.2ZM39.7 2.1L41.5 1.4V35.4L41.3 35.5C34.7 37.6 29 41.8 25 47.5L24.7 47.9V14.6C28.2 8.9 33.5 4.5 39.7 2.1ZM8.4 4.9L9.2 5.9C12.8 10.6 17.9 13.8 23.7 15V49L22 48.5C16.5 47 11.7 43.5 8.7 38.6L8.5 38.2L8.4 4.9ZM1.1 9L7.2 10.6V38.4C7.2 38.5 7.2 38.6 7.3 38.7L7.6 39.2C9.5 42.2 12.1 44.8 15.1 46.7L1.1 43V9Z" fill="white"/>
<path d="M21.3 21.6C21.6 21.7 21.9 21.5 22 21.2C22.1 20.9 21.9 20.6 21.6 20.5C17.5 19.3 13.9 17 11.1 13.8C10.9 13.6 10.6 13.5 10.3 13.7C10.1 13.9 10 14.2 10.2 14.5C13.3 17.9 17.1 20.4 21.3 21.6Z" fill="white"/>
<path d="M21.3 27.8C21.6 27.9 21.9 27.7 22 27.4C22.1 27.1 21.9 26.8 21.6 26.7C17.5 25.5 13.9 23.2 11.1 20C10.9 19.8 10.5 19.8 10.3 20C10.1 20.2 10.1 20.5 10.3 20.7C13.3 24.1 17.1 26.5 21.3 27.8Z" fill="white"/>
<path d="M21.3 34C21.4 34 21.4 34 21.5 34C21.8 34 22.1 33.8 22.1 33.5C22.1 33.2 21.9 32.9 21.6 32.9C17.5 31.7 13.9 29.4 11.1 26.2C10.9 26 10.5 26 10.3 26.2C10.1 26.4 10.1 26.8 10.3 27C13.3 30.3 17.1 32.7 21.3 34Z" fill="white"/>
<path d="M21.3 40.1C21.4 40.1 21.4 40.1 21.5 40.1C21.8 40.1 22.1 39.9 22.1 39.6C22.1 39.3 21.9 39 21.6 39C17.5 37.8 13.9 35.5 11.1 32.3C10.9 32.1 10.5 32.1 10.3 32.3C10.1 32.5 10.1 32.9 10.3 33.1C13.3 36.4 17.1 38.9 21.3 40.1Z" fill="white"/>
</svg>
