<?xml version="1.0" encoding="utf-8"?>
<svg width="50" height="49" viewBox="0 0 50 49" fill="none" xmlns="http://www.w3.org/2000/svg">
<path d="M41.741 1.9C41.241 1.9 40.841 2.3 40.841 2.8V5.3C36.841 2 31.841 0.2 26.641 0.2C20.641 0.2 15.041 2.5 10.841 6.8C10.441 7.2 10.441 7.8 10.841 8.1C11.241 8.5 11.841 8.5 12.141 8.1C16.041 4.2 21.141 2.1 26.641 2.1C31.341 2.1 35.741 3.7 39.341 6.5H37.141C36.641 6.5 36.241 6.9 36.241 7.4C36.241 7.9 36.641 8.3 37.141 8.3H41.741C41.841 8.3 41.941 8.3 42.141 8.2C42.341 8.1 42.541 7.9 42.641 7.7C42.641 7.6 42.741 7.5 42.741 7.3V2.8C42.641 2.3 42.241 1.9 41.741 1.9Z" fill="white"/>
<path d="M41.741 8.7H37.141C36.441 8.7 35.941 8.2 35.941 7.5C35.941 6.8 36.441 6.3 37.141 6.3H38.541C35.041 3.7 30.941 2.4 26.541 2.4C21.141 2.4 16.041 4.5 12.241 8.3C11.741 8.8 11.041 8.8 10.541 8.3C10.041 7.8 10.041 7.1 10.541 6.6C14.841 2.3 20.541 0 26.541 0C31.641 0 36.541 1.7 40.541 4.8V2.8C40.541 2.1 41.041 1.6 41.741 1.6C42.041 1.6 42.341 1.7 42.541 1.9C42.841 2.2 42.941 2.5 42.941 2.8V7.5C42.941 7.6 42.941 7.8 42.841 7.9C42.741 8.2 42.441 8.4 42.241 8.5C42.041 8.6 41.941 8.7 41.741 8.7ZM37.141 6.8C36.741 6.8 36.441 7.1 36.441 7.5C36.441 7.9 36.741 8.2 37.141 8.2H41.741C41.841 8.2 41.941 8.2 42.041 8.1C42.241 8 42.341 7.9 42.441 7.7C42.441 7.6 42.541 7.5 42.541 7.4V2.8C42.541 2.6 42.441 2.4 42.341 2.3C42.241 2.2 42.041 2.1 41.841 2.1C41.441 2.1 41.141 2.4 41.141 2.8V5.8L40.741 5.5C36.741 2.2 31.841 0.5 26.641 0.5C20.641 0.5 15.141 2.8 10.941 7C10.641 7.3 10.641 7.7 10.941 8C11.241 8.3 11.641 8.3 11.941 8C15.841 4.1 21.041 1.9 26.641 1.9C31.341 1.9 35.841 3.4 39.441 6.4L39.941 6.8H37.141Z" fill="white"/>
<path d="M0.340954 21.1C0.640954 21.6 1.14095 21.7 1.64095 21.4L3.84095 20.1C2.94095 25.3 3.84095 30.5 6.44095 35C9.44095 40.2 14.241 43.9 20.041 45.4C20.541 45.5 21.041 45.2 21.241 44.7C21.341 44.2 21.041 43.7 20.541 43.5C15.241 42.1 10.841 38.7 8.04095 33.9C5.74095 29.9 4.84095 25.3 5.54095 20.7L6.64095 22.6C6.94095 23.2 7.44095 23.4 7.94095 23.1C8.44095 22.8 8.54095 22.3 8.24095 21.8L5.94095 17.8C5.84095 17.7 5.84095 17.6 5.74095 17.5C5.54095 17.3 5.24095 17.3 5.04095 17.3C4.94095 17.3 4.84095 17.4 4.74095 17.4L0.740954 19.7C0.240954 20 0.040954 20.6 0.340954 21.1Z" fill="white"/>
<path d="M20.341 45.7C20.241 45.7 20.141 45.7 20.041 45.7C14.241 44.1 9.34095 40.4 6.24095 35.2C3.64095 30.7 2.74095 25.7 3.44095 20.7L1.74095 21.7C1.14095 22 0.440954 21.8 0.140954 21.3C-0.159046 20.7 0.040954 20 0.540954 19.7L4.64095 17.4C4.74095 17.3 4.94095 17.3 5.04095 17.3C5.34095 17.3 5.64095 17.3 5.94095 17.5C6.04095 17.6 6.14095 17.7 6.24095 17.8L8.54095 21.8C8.84095 22.4 8.64095 23.1 8.14095 23.4C7.84095 23.6 7.54095 23.6 7.24095 23.5C6.94095 23.4 6.64095 23.2 6.54095 22.9L5.84095 21.7C5.24095 26 6.14095 30.2 8.34095 34C11.041 38.7 15.441 42 20.641 43.4C21.241 43.6 21.641 44.2 21.441 44.9C21.341 45.2 21.141 45.5 20.841 45.6C20.741 45.7 20.541 45.7 20.341 45.7ZM4.14095 19.7L4.04095 20.2C3.14095 25.3 4.14095 30.4 6.74095 34.9C9.74095 40 14.441 43.7 20.141 45.2C20.341 45.2 20.541 45.2 20.641 45.1C20.741 45 20.941 44.9 20.941 44.7C21.041 44.3 20.841 44 20.441 43.9C15.041 42.5 10.641 39 7.84095 34.2C5.44095 30.1 4.64095 25.5 5.24095 20.9L5.34095 20.2L6.74095 22.7C6.94095 23 7.34095 23.1 7.64095 23C7.94095 22.8 8.04095 22.4 7.94095 22.1L5.64095 18.1C5.64095 18 5.54095 18 5.44095 17.9C5.34095 17.8 5.14095 17.7 4.94095 17.8C4.84095 17.8 4.74095 17.8 4.74095 17.9L0.740954 20.2C0.440954 20.4 0.340954 20.8 0.440954 21.1C0.640954 21.4 1.04095 21.5 1.34095 21.4L4.14095 19.7Z" fill="white"/>
<path d="M37.241 47.3C37.541 46.8 37.341 46.3 36.941 46L34.741 44.7C39.641 42.9 43.641 39.5 46.241 34.9C49.241 29.7 50.041 23.7 48.441 17.9C48.341 17.4 47.741 17.1 47.241 17.2C46.741 17.3 46.441 17.9 46.541 18.4C47.941 23.7 47.241 29.2 44.541 34C42.241 38 38.641 41.1 34.341 42.8L35.441 40.9C35.741 40.4 35.541 39.9 35.141 39.6C34.641 39.3 34.141 39.5 33.841 39.9L31.541 43.9C31.441 44 31.441 44.1 31.441 44.2C31.441 44.4 31.441 44.7 31.641 44.9C31.741 45 31.841 45.1 31.941 45.1L35.941 47.4C36.441 47.9 37.041 47.8 37.241 47.3Z" fill="white"/>
<path d="M36.441 48.1C36.241 48.1 36.041 48 35.841 47.9L31.741 45.6C31.641 45.5 31.541 45.4 31.441 45.3C31.241 45.1 31.141 44.7 31.241 44.4C31.241 44.2 31.341 44.1 31.341 44L33.641 40C33.841 39.7 34.041 39.5 34.341 39.4C34.641 39.3 34.941 39.4 35.241 39.5C35.541 39.7 35.741 39.9 35.841 40.2C35.941 40.5 35.841 40.8 35.741 41.1L35.041 42.3C38.941 40.6 42.241 37.7 44.341 33.9C47.041 29.2 47.741 23.8 46.341 18.5C46.141 17.9 46.541 17.2 47.141 17C47.741 16.8 48.441 17.2 48.641 17.8C50.241 23.6 49.441 29.7 46.341 35C43.741 39.5 39.941 42.8 35.141 44.7L36.841 45.7C37.441 46 37.641 46.8 37.241 47.3C37.041 47.6 36.841 47.8 36.541 47.9C36.641 48.1 36.541 48.1 36.441 48.1ZM32.141 45.2L36.141 47.5C36.341 47.6 36.441 47.6 36.641 47.6C36.841 47.6 36.941 47.4 37.041 47.3C37.241 47 37.141 46.5 36.741 46.4L34.141 44.9L34.641 44.7C39.541 42.9 43.441 39.5 46.041 35C49.041 29.9 49.741 23.9 48.241 18.2C48.141 17.8 47.741 17.6 47.441 17.7C47.041 17.8 46.841 18.2 46.941 18.5C48.341 23.9 47.641 29.5 44.841 34.3C42.441 38.4 38.941 41.5 34.541 43.2L33.941 43.4L35.341 40.9C35.441 40.7 35.441 40.6 35.441 40.4C35.441 40.2 35.241 40.1 35.141 40C34.941 39.9 34.841 39.9 34.641 39.9C34.441 39.9 34.341 40.1 34.241 40.2L31.941 44.2C31.941 44.3 31.841 44.4 31.841 44.5C31.841 44.7 31.841 44.9 31.941 45C31.941 45 32.041 45.1 32.141 45.2Z" fill="white"/>
</svg>
