<?xml version="1.0" encoding="utf-8"?>
<svg width="42" height="42" viewBox="0 0 42 42" fill="none" xmlns="http://www.w3.org/2000/svg">
<path fill-rule="evenodd" clip-rule="evenodd" d="M21 34.9C28.7 34.9 34.9 28.7 34.9 21C34.9 13.3 28.7 7.1 21 7.1C13.3 7.1 7.1 13.3 7.1 21C7.1 28.7 13.3 34.9 21 34.9ZM21 32.6C27.4 32.6 32.6 27.4 32.6 21C32.6 14.6 27.4 9.4 21 9.4C14.6 9.4 9.4 14.6 9.4 21C9.4 27.4 14.6 32.6 21 32.6Z" fill="white"/>
<path fill-rule="evenodd" clip-rule="evenodd" d="M30.8 12.8L35 8.6C35.7 9 36.5 9.2 37.3 9.2C39.9 9.2 41.9 7.1 41.9 4.6C41.9 2.1 39.9 0 37.4 0C34.9 0 32.8 2.1 32.8 4.6C32.8 5.5 33 6.3 33.4 7L29.2 11.2L30.8 12.8ZM37.4 6.9C38.7 6.9 39.7 5.9 39.7 4.6C39.7 3.3 38.7 2.3 37.4 2.3C36.1 2.3 35.1 3.3 35.1 4.6C35.1 5.9 36.1 6.9 37.4 6.9ZM29.2 30.8L33.4 35C33 35.7 32.8 36.5 32.8 37.3C32.8 39.9 34.9 41.9 37.4 41.9C39.9 41.9 42 39.8 42 37.3C42 34.8 39.9 32.7 37.4 32.7C36.5 32.7 35.7 32.9 35 33.3L30.8 29.1L29.2 30.8ZM11.2 29.2L7 33.4C6.3 33 5.5 32.8 4.7 32.8C2.1 32.8 0.1 34.9 0.1 37.4C0.1 39.9 2.1 42 4.6 42C7.1 42 9.2 39.9 9.2 37.4C9.2 36.5 9 35.7 8.6 35L12.8 30.8L11.2 29.2ZM12.8 11.2L8.6 7C9 6.3 9.3 5.5 9.3 4.6C9.3 2.1 7.2 0 4.6 0C2 0 0 2.1 0 4.6C0 7.1 2.1 9.2 4.6 9.2C5.5 9.3 6.3 9 7 8.6L11.2 12.8L12.8 11.2ZM35.1 37.4C35.1 38.7 36.1 39.7 37.4 39.7C38.7 39.7 39.7 38.7 39.7 37.4C39.7 36.1 38.7 35.1 37.4 35.1C36.1 35.1 35.1 36.1 35.1 37.4ZM4.6 35.1C3.3 35.1 2.3 36.1 2.3 37.4C2.3 38.7 3.3 39.7 4.6 39.7C5.9 39.7 6.9 38.7 6.9 37.4C6.9 36.1 5.9 35.1 4.6 35.1ZM6.9 4.6C6.9 3.3 5.9 2.3 4.6 2.3C3.3 2.3 2.3 3.3 2.3 4.6C2.3 5.9 3.3 6.9 4.6 6.9C5.9 6.9 6.9 5.9 6.9 4.6Z" fill="white"/>
</svg>
