<?xml version="1.0" encoding="utf-8"?>
<svg width="58" height="49" viewBox="0 0 58 49" fill="none" xmlns="http://www.w3.org/2000/svg">
<path d="M49.8 48.6014L47.5 42.6014H32.2C29.1 42.6014 26.6 40.2014 26.5 37.2014C26.5 37.0014 26.5 36.9014 26.5 36.8014H10.3L8 42.7014L5.7 36.8014C5.5 36.8014 5.2 36.8014 5 36.7014C2.1 36.3014 0 33.9014 0 31.0014V16.0014C0 12.8014 2.6 10.3014 5.7 10.3014H15V6.60137C15 3.50137 17.5 0.901367 20.7 0.901367H40.6C43.8 0.901367 46.3 3.50137 46.3 6.60137V15.9014C46.3 15.9014 46.4 15.9014 46.8 15.9014H52C55.2 15.9014 57.7 18.5014 57.7 21.6014V35.9014L57.8 36.7014C57.8 39.6014 55.7 42.0014 52.8 42.4014H52.7C52.6 42.4014 52.6 42.4014 52.5 42.4014C52.4 42.4014 52.3 42.4014 52.1 42.4014L49.8 48.6014ZM10.3 35.2014H26.6C27 35.2014 27.3 35.3014 27.6 35.6014C28.1 36.1014 28.1 36.8014 28.1 37.0014C28.2 39.2014 30.1 41.0014 32.3 41.0014H47.7C48.3 41.0014 48.9 41.4014 49 42.0014L49.9 44.4014L50.8 42.0014C51 41.5014 51.5 41.1014 52.1 41.1014C52.2 41.1014 52.2 41.1014 52.3 41.1014C52.4 41.1014 52.6 41.1014 52.7 41.1014C54.7 40.8014 56.1 39.3014 56.3 37.4014V21.7014C56.3 19.4014 54.4 17.5014 52.1 17.5014H46.9C45 17.5014 44.9 16.3014 44.9 16.0014V6.60137C44.9 4.30137 43 2.40137 40.7 2.40137H20.7C18.4 2.40137 16.5 4.30137 16.5 6.60137V10.5014C16.5 11.2014 16 11.7014 15.3 11.7014H5.7C3.4 11.7014 1.5 13.6014 1.5 15.9014V30.9014C1.5 33.0014 3.1 34.8014 5.2 35.1014H5.3C5.4 35.1014 5.6 35.1014 5.7 35.1014C6.3 35.1014 6.9 35.5014 7 36.1014L8 38.6014L9 36.1014C9.1 35.6014 9.7 35.2014 10.3 35.2014ZM52.2 42.4014C52.2 42.5014 52.2 42.5014 52.2 42.4014Z" fill="white"/>
<path d="M49.8 48.6014L47.5 42.6014H32.2C29.1 42.6014 26.6 40.2014 26.5 37.2014C26.5 37.0014 26.5 36.9014 26.5 36.8014H10.3L8 42.7014L5.7 36.8014C5.5 36.8014 5.2 36.8014 5 36.7014C2.1 36.3014 0 33.9014 0 31.0014V16.0014C0 12.8014 2.6 10.3014 5.7 10.3014H15V6.60137C15 3.50137 17.5 0.901367 20.7 0.901367H40.6C43.8 0.901367 46.3 3.50137 46.3 6.60137V15.9014C46.3 15.9014 46.4 15.9014 46.8 15.9014H52C55.2 15.9014 57.7 18.5014 57.7 21.6014V35.9014L57.8 36.7014C57.8 39.6014 55.7 42.0014 52.8 42.4014H52.7C52.6 42.4014 52.6 42.4014 52.5 42.4014C52.4 42.4014 52.3 42.4014 52.1 42.4014L49.8 48.6014ZM10.3 35.2014H26.6C27 35.2014 27.3 35.3014 27.6 35.6014C28.1 36.1014 28.1 36.8014 28.1 37.0014C28.2 39.2014 30.1 41.0014 32.3 41.0014H47.7C48.3 41.0014 48.9 41.4014 49 42.0014L49.9 44.4014L50.8 42.0014C51 41.5014 51.5 41.1014 52.1 41.1014C52.2 41.1014 52.2 41.1014 52.3 41.1014C52.4 41.1014 52.6 41.1014 52.7 41.1014C54.7 40.8014 56.1 39.3014 56.3 37.4014V21.7014C56.3 19.4014 54.4 17.5014 52.1 17.5014H46.9C45 17.5014 44.9 16.3014 44.9 16.0014V6.60137C44.9 4.30137 43 2.40137 40.7 2.40137H20.7C18.4 2.40137 16.5 4.30137 16.5 6.60137V10.5014C16.5 11.2014 16 11.7014 15.3 11.7014H5.7C3.4 11.7014 1.5 13.6014 1.5 15.9014V30.9014C1.5 33.0014 3.1 34.8014 5.2 35.1014H5.3C5.4 35.1014 5.6 35.1014 5.7 35.1014C6.3 35.1014 6.9 35.5014 7 36.1014L8 38.6014L9 36.1014C9.1 35.6014 9.7 35.2014 10.3 35.2014ZM52.2 42.4014C52.2 42.5014 52.2 42.5014 52.2 42.4014Z" fill="white"/>
<path d="M15.6 25.0014C16.815 25.0014 17.8 24.0164 17.8 22.8014C17.8 21.5863 16.815 20.6014 15.6 20.6014C14.385 20.6014 13.4 21.5863 13.4 22.8014C13.4 24.0164 14.385 25.0014 15.6 25.0014Z" fill="white"/>
<path d="M25.2 25.0014C26.415 25.0014 27.4 24.0164 27.4 22.8014C27.4 21.5863 26.415 20.6014 25.2 20.6014C23.985 20.6014 23 21.5863 23 22.8014C23 24.0164 23.985 25.0014 25.2 25.0014Z" fill="white"/>
<path d="M34.8 25.0014C36.015 25.0014 37 24.0164 37 22.8014C37 21.5863 36.015 20.6014 34.8 20.6014C33.585 20.6014 32.6 21.5863 32.6 22.8014C32.6 24.0164 33.585 25.0014 34.8 25.0014Z" fill="white"/>
</svg>
