<?xml version="1.0" encoding="utf-8"?>
<svg width="62" height="66" viewBox="0 0 62 66" fill="none" xmlns="http://www.w3.org/2000/svg">
<path d="M30.7 0.3C33.4 0.3 35.5 2.5 35.5 5.2C35.5 7.9 33.3 10 30.7 10C28 10 25.8 7.8 25.8 5.2C25.8 2.4 28 0.3 30.7 0.3ZM30.7 1.3C28.5 1.3 26.9 3 26.9 5.1C26.9 7.2 28.6 8.9 30.7 8.9C32.8 8.9 34.5 7.2 34.5 5.1C34.5 3 32.8 1.3 30.7 1.3Z" fill="white"/>
<path d="M30.7 10.2C27.9 10.2 25.6 7.9 25.6 5.1C25.6 2.2 27.9 0 30.7 0C33.5 0 35.8 2.3 35.8 5.1C35.8 7.9 33.5 10.2 30.7 10.2ZM30.7 0.5C28.1 0.5 26.1 2.5 26.1 5.1C26.1 7.6 28.2 9.7 30.7 9.7C33.2 9.7 35.3 7.6 35.3 5.1C35.3 2.6 33.2 0.5 30.7 0.5ZM30.7 9.2C28.4 9.2 26.6 7.4 26.6 5.2C26.6 2.9 28.4 1.1 30.7 1.1C33 1.1 34.7 2.9 34.7 5.2C34.7 7.4 32.9 9.2 30.7 9.2ZM30.7 1.5C28.7 1.5 27.1 3.1 27.1 5.1C27.1 7.1 28.7 8.6 30.7 8.6C32.7 8.6 34.2 7 34.2 5.1C34.2 3.1 32.7 1.5 30.7 1.5Z" fill="white"/>
<path d="M30.7 10.8C27 10.8 23.9 13.6 23.5 17.3C23.4 17.6 23.7 17.9 23.9 17.9H37.5C37.8 17.9 38 17.6 38 17.3C37.5 13.6 34.4 10.8 30.7 10.8ZM30.7 11.8C33.7 11.8 36.2 13.9 36.8 16.7H24.6C25.2 13.9 27.7 11.8 30.7 11.8Z" fill="white"/>
<path d="M37.5 18H23.9C23.7 18 23.5 17.9 23.4 17.8C23.3 17.6 23.2 17.4 23.2 17.2C23.6 13.4 26.8 10.5 30.7 10.5C34.6 10.5 37.8 13.4 38.2 17.2C38.2 17.7 37.9 18 37.5 18ZM30.7 11C27.1 11 24.1 13.7 23.7 17.2C23.7 17.3 23.7 17.4 23.7 17.4L23.8 17.5H37.4C37.5 17.5 37.6 17.4 37.6 17.2C37.3 13.7 34.3 11 30.7 11ZM37.1 17H24.2L24.3 16.7C25 13.7 27.7 11.6 30.7 11.6C33.8 11.6 36.4 13.7 37 16.7L37.1 17ZM24.9 16.5H36.5C35.8 13.9 33.4 12.1 30.7 12.1C28 12 25.6 13.9 24.9 16.5Z" fill="white"/>
<path d="M7.5 41.9C10.2 41.9 12.3 44.1 12.3 46.8C12.3 49.5 10.1 51.6 7.5 51.6C4.8 51.6 2.6 49.4 2.6 46.8C2.6 44.1 4.8 41.9 7.5 41.9ZM7.5 43C5.3 43 3.7 44.7 3.7 46.8C3.7 48.9 5.4 50.6 7.5 50.6C9.6 50.6 11.3 48.9 11.3 46.8C11.3 44.6 9.6 43 7.5 43Z" fill="white"/>
<path d="M7.5 51.9C4.7 51.9 2.4 49.6 2.4 46.8C2.4 43.9 4.7 41.7 7.5 41.7C10.3 41.7 12.6 44 12.6 46.8C12.6 49.6 10.3 51.9 7.5 51.9ZM7.5 42.2C4.9 42.2 2.9 44.2 2.9 46.8C2.9 49.3 5 51.4 7.5 51.4C10 51.4 12.1 49.3 12.1 46.8C12.1 44.3 10 42.2 7.5 42.2ZM7.5 50.8C5.2 50.8 3.4 49 3.4 46.8C3.4 44.5 5.2 42.7 7.5 42.7C9.8 42.7 11.5 44.5 11.5 46.8C11.5 49 9.7 50.8 7.5 50.8ZM7.5 43.2C5.5 43.2 3.9 44.8 3.9 46.8C3.9 48.8 5.5 50.3 7.5 50.3C9.5 50.3 11 48.7 11 46.8C11 44.8 9.5 43.2 7.5 43.2Z" fill="white"/>
<path d="M7.5 52.4C3.8 52.4 0.7 55.2 0.3 58.9C0.2 59.2 0.5 59.5 0.7 59.5H14.3C14.6 59.5 14.8 59.2 14.8 58.9C14.3 55.3 11.2 52.4 7.5 52.4ZM7.5 53.5C10.5 53.5 13 55.6 13.6 58.4H1.4C2 55.5 4.5 53.5 7.5 53.5Z" fill="white"/>
<path d="M14.3 59.7H0.7C0.5 59.7 0.3 59.6 0.2 59.5C0 59.3 0 59.1 0 58.9C0.4 55.1 3.6 52.2 7.5 52.2C11.3 52.2 14.6 55.1 15 58.9C15 59.4 14.7 59.7 14.3 59.7ZM7.5 52.7C3.9 52.7 0.9 55.4 0.5 58.9C0.5 59 0.5 59.1 0.5 59.1L0.6 59.2H14.2C14.3 59.2 14.4 59.1 14.4 58.9C14.1 55.4 11.1 52.7 7.5 52.7ZM13.9 58.6H1L1.1 58.3C1.8 55.3 4.5 53.2 7.5 53.2C10.6 53.2 13.2 55.3 13.8 58.3L13.9 58.6ZM1.7 58.1H13.3C12.6 55.5 10.2 53.7 7.5 53.7C4.8 53.7 2.4 55.6 1.7 58.1Z" fill="white"/>
<path d="M53.9 42C56.6 42 58.7 44.2 58.7 46.9C58.7 49.6 56.5 51.7 53.9 51.7C51.2 51.7 49 49.5 49 46.9C49 44.2 51.2 42 53.9 42ZM53.9 43C51.7 43 50.1 44.7 50.1 46.8C50.1 48.9 51.8 50.6 53.9 50.6C56 50.6 57.7 48.9 57.7 46.8C57.7 44.7 56 43 53.9 43Z" fill="white"/>
<path d="M53.9 52C51.1 52 48.8 49.7 48.8 46.9C48.8 44 51.1 41.8 53.9 41.8C56.7 41.8 59 44.1 59 46.9C59 49.7 56.7 52 53.9 52ZM53.9 42.3C51.3 42.3 49.3 44.3 49.3 46.9C49.3 49.4 51.4 51.5 53.9 51.5C56.4 51.5 58.5 49.4 58.5 46.9C58.5 44.3 56.4 42.3 53.9 42.3ZM53.9 50.9C51.6 50.9 49.8 49.1 49.8 46.9C49.8 44.6 51.6 42.8 53.9 42.8C56.2 42.8 57.9 44.6 57.9 46.9C57.9 49.1 56.1 50.9 53.9 50.9ZM53.9 43.3C51.9 43.3 50.3 44.9 50.3 46.9C50.3 48.9 51.9 50.4 53.9 50.4C55.9 50.4 57.4 48.8 57.4 46.9C57.4 44.9 55.9 43.3 53.9 43.3Z" fill="white"/>
<path d="M53.9 52.5C50.2 52.5 47.1 55.3 46.7 59C46.6 59.3 46.9 59.6 47.1 59.6H60.7C61 59.6 61.2 59.3 61.2 59C60.7 55.3 57.6 52.5 53.9 52.5ZM53.9 53.6C56.9 53.6 59.4 55.7 60 58.5H47.8C48.4 55.6 50.9 53.6 53.9 53.6Z" fill="white"/>
<path d="M60.7 59.8H47.1C46.9 59.8 46.7 59.7 46.6 59.6C46.5 59.4 46.4 59.2 46.4 59C46.8 55.2 50 52.3 53.9 52.3C57.8 52.3 61 55.2 61.4 59C61.4 59.4 61.1 59.8 60.7 59.8ZM53.9 52.8C50.3 52.8 47.3 55.5 46.9 59C46.9 59.1 46.9 59.2 46.9 59.2L47 59.3H60.6C60.7 59.3 60.8 59.2 60.8 59C60.5 55.5 57.5 52.8 53.9 52.8ZM60.3 58.7H47.4L47.5 58.4C48.2 55.4 50.9 53.3 53.9 53.3C57 53.3 59.6 55.4 60.2 58.4L60.3 58.7ZM48.1 58.2H59.7C59 55.6 56.6 53.8 53.9 53.8C51.2 53.8 48.8 55.6 48.1 58.2Z" fill="white"/>
<path d="M4.8 38.2C4.2 38.2 3.8 37.7 3.8 37.2C4.3 27.8 9.8 19.2 18.1 14.8C18.6 14.5 19.2 14.7 19.5 15.2C19.8 15.7 19.6 16.3 19.1 16.6C11.4 20.7 6.3 28.6 5.9 37.3C5.8 37.8 5.4 38.2 4.8 38.2Z" fill="white"/>
<path d="M30.7 65.4C26.3 65.4 22 64.3 18.2 62.3C17.7 62 17.5 61.4 17.8 60.9C18.1 60.4 18.7 60.2 19.2 60.5C22.7 62.4 26.8 63.4 30.8 63.4C34.8 63.4 38.6 62.5 42.1 60.7C42.6 60.5 43.2 60.6 43.4 61.1C43.6 61.6 43.5 62.2 43 62.4C39.1 64.4 35 65.4 30.7 65.4Z" fill="white"/>
<path d="M56.5 38C56 38 55.5 37.6 55.5 37.1C55 27.8 49.4 19.7 41 15.8C40.5 15.6 40.3 15 40.5 14.5C40.7 14 41.3 13.8 41.8 14C50.9 18.2 57 27 57.5 37C57.6 37.5 57.2 38 56.5 38C56.6 38 56.6 38 56.5 38Z" fill="white"/>
<path d="M36.8 45.9C36 46.4 34.7 47 33.1 47C31.1 47 29.3 46.2 28 44.8C27 43.7 26.4 42.3 26.2 40.5H24.6V39.3H26C26 39.2 26 39 26 38.9C26 38.5 26 38.1 26 37.8H24.5V36.5H26.2C26.5 34.7 27.3 33.3 28.3 32.3C29.6 31 31.2 30.2 33.3 30.2C34.8 30.2 35.9 30.6 36.6 31L36.1 32.7C35.5 32.3 34.4 32 33.3 32C31.9 32 30.8 32.5 30 33.4C29.2 34.1 28.7 35.3 28.5 36.6H35.5V37.9H28.3C28.3 38.2 28.3 38.6 28.3 39C28.3 39.2 28.3 39.3 28.3 39.5H35.6V40.7H28.5C28.7 42.1 29.2 43.2 29.9 44C30.8 45 32.1 45.4 33.4 45.4C34.7 45.4 35.9 44.9 36.5 44.6L36.8 45.9Z" fill="white"/>
</svg>
