<?xml version="1.0" encoding="utf-8"?>
<svg width="47" height="46" viewBox="0 0 47 46" fill="none" xmlns="http://www.w3.org/2000/svg">
<path d="M27.2 39.8H17.8C15.7 39.8 14 38.1 14 36V28.3C14 27.7 14.4 27.3 15 27.3C15.6 27.3 16 27.7 16 28.3V36C16 37 16.8 37.8 17.8 37.8H27.2C27.8 37.8 28.2 38.2 28.2 38.8C28.2 39.4 27.7 39.8 27.2 39.8Z" fill="white"/>
<path d="M45.3 37.1C44.7 37.1 44.3 36.7 44.3 36.1V3.8C44.3 2.8 43.5 2 42.5 2H17.8C16.8 2 16 2.8 16 3.8V11C16 11.6 15.6 12 15 12C14.4 12 14 11.6 14 11V3.8C14 1.7 15.7 0 17.8 0H42.5C44.6 0 46.3 1.7 46.3 3.8V36.1C46.3 36.6 45.8 37.1 45.3 37.1Z" fill="white"/>
<path d="M28.8 46C26.2 46 26.2 43.7 26.2 42.2V10C26.2 8.3 27 7 28.4 6.3L43.2 0.3C43.3 0.3 43.4 0.2 43.6 0.2C45.1 0.2 46.2 1.8 46.2 4V36.3C46.2 38.2 45 39.6 43.9 40L29.1 46C29.1 46 29 46 28.8 46ZM43.7 2.3L29.2 8.1C28.5 8.4 28.2 9 28.2 9.9V42.2C28.2 43.7 28.3 43.9 28.7 43.9L43.3 38C43.5 37.9 44.3 37.3 44.3 36.2V4C44.3 3 43.9 2.4 43.7 2.3Z" fill="white"/>
<path d="M14.8 24.5C14.5 24.5 14.3 24.4 14.1 24.2C13.7 23.8 13.7 23.2 14.1 22.8L17 19.9C17.1 19.8 17.1 19.7 17.1 19.7C17.1 19.7 17.1 19.6 17 19.5L14.1 16.7C13.7 16.3 13.7 15.7 14.1 15.3C14.5 14.9 15.1 14.9 15.5 15.3L18.4 18.1C18.9 18.6 19.1 19.1 19.1 19.7C19.1 20.3 18.9 20.9 18.4 21.3L15.5 24.2C15.3 24.4 15.1 24.5 14.8 24.5Z" fill="white"/>
<path d="M15.9 20.7H1C0.4 20.7 0 20.3 0 19.7C0 19.1 0.4 18.7 1 18.7H15.9C16.5 18.7 16.9 19.1 16.9 19.7C16.9 20.3 16.4 20.7 15.9 20.7Z" fill="white"/>
</svg>
