<?xml version="1.0" encoding="utf-8"?>
<svg width="46" height="53" viewBox="0 0 46 53" fill="none" xmlns="http://www.w3.org/2000/svg">
<path d="M45.8 25.9496C45.8 25.9496 45.8 25.8496 45.7 25.8496C45.7 25.8496 45.7 25.7496 45.6 25.7496C42.3 21.8496 31.1 15.8496 23.5 15.5496C23.3 15.5496 23.1 15.5496 22.9 15.5496C22.7 15.5496 22.5 15.5496 22.3 15.5496C14.7 15.7496 3.5 21.8496 0.2 25.6496L0.1 25.7496C0.1 25.7496 0.1 25.8496 0 25.8496V26.8496C0 26.8496 0 26.9496 0.1 26.9496C0.1 26.9496 0.1 27.0496 0.2 27.0496C3.5 30.9496 14.7 36.9496 22.3 37.2496C22.5 37.2496 22.7 37.2496 22.9 37.2496C23.1 37.2496 23.3 37.2496 23.5 37.2496C31.1 36.9496 42.3 30.8496 45.6 27.0496L45.7 26.9496C45.7 26.9496 45.7 26.8496 45.8 26.8496V25.9496ZM5.2 28.3496C4.3 27.7496 3.5 27.0496 2.8 26.5496C3.4 25.9496 4.2 25.3496 5.2 24.7496C7.5 23.1496 10.4 21.5496 13.5 20.3496C13.3 20.6496 13.1 20.9496 12.9 21.2496C12 22.8496 11.5 24.6496 11.5 26.5496C11.5 28.4496 12 30.2496 12.9 31.8496C13.1 32.1496 13.3 32.4496 13.5 32.7496C10.5 31.4496 7.5 29.8496 5.2 28.3496ZM22.8 35.0496C17.9 35.0496 14 31.2496 14 26.4496C14 21.6496 18 17.8496 22.8 17.8496C27.6 17.8496 31.6 21.6496 31.6 26.4496C31.6 31.2496 27.7 35.0496 22.8 35.0496ZM40.4 28.3496C38.1 29.9496 35.2 31.5496 32.1 32.7496C32.3 32.4496 32.5 32.1496 32.7 31.8496C33.6 30.2496 34.1 28.4496 34.1 26.5496C34.1 24.6496 33.6 22.8496 32.7 21.2496C32.5 20.9496 32.3 20.6496 32.1 20.3496C35.2 21.6496 38.2 23.2496 40.4 24.7496C41.3 25.3496 42.1 26.0496 42.8 26.5496C42.2 27.0496 41.4 27.6496 40.4 28.3496Z" fill="white"/>
<path d="M22.8 22.1496C20.4 22.1496 18.4 24.0496 18.4 26.4496C18.4 28.8496 20.4 30.7496 22.8 30.7496C25.2 30.7496 27.2 28.8496 27.2 26.4496C27.3 24.0496 25.3 22.1496 22.8 22.1496ZM22.8 28.3496C21.7 28.3496 20.9 27.5496 20.9 26.5496C20.9 25.5496 21.8 24.7496 22.8 24.7496C23.8 24.7496 24.7 25.5496 24.7 26.5496C24.7 27.5496 23.9 28.3496 22.8 28.3496Z" fill="white"/>
<path d="M36.3 12.5496C36.6 12.5496 36.9 12.4496 37.2 12.1496L41.6 7.84961C42.1 7.34961 42.1 6.54961 41.6 6.04961C41.1 5.54961 40.3 5.54961 39.8 6.04961L35.4 10.3496C34.9 10.8496 34.9 11.6496 35.4 12.1496C35.6 12.4496 36 12.5496 36.3 12.5496Z" fill="white"/>
<path d="M8.5 12.1496C8.7 12.3496 9.1 12.5496 9.4 12.5496C9.7 12.5496 10 12.4496 10.3 12.1496C10.8 11.6496 10.8 10.8496 10.3 10.3496L5.9 6.14961C5.4 5.64961 4.6 5.64961 4.1 6.14961C3.6 6.64961 3.6 7.44961 4.1 7.94961L8.5 12.1496Z" fill="white"/>
<path d="M22.7 9.34961C23.3 9.34961 23.9 8.84961 23.9 8.14961V2.14961C23.9 1.44961 23.3 0.849609 22.7 0.849609C22.1 0.849609 21.5 1.44961 21.5 2.04961V8.04961C21.4 8.84961 22 9.34961 22.7 9.34961Z" fill="white"/>
<path d="M8.5 41.1496L4.1 45.4496C3.6 45.9496 3.6 46.7496 4.1 47.2496C4.3 47.5496 4.7 47.6496 5 47.6496C5.3 47.6496 5.6 47.5496 5.9 47.2496L10.3 42.9496C10.8 42.4496 10.8 41.6496 10.3 41.1496C9.8 40.6496 9 40.6496 8.5 41.1496Z" fill="white"/>
<path d="M37.2 41.1496C36.7 40.6496 35.9 40.6496 35.4 41.1496C34.9 41.6496 34.9 42.4496 35.4 42.9496L39.8 47.2496C40 47.4496 40.4 47.6496 40.7 47.6496C41 47.6496 41.3 47.5496 41.6 47.2496C42.1 46.7496 42.1 45.9496 41.6 45.4496L37.2 41.1496Z" fill="white"/>
<path d="M23 43.9496C22.3 43.9496 21.8 44.5496 21.8 45.1496V51.1496C21.8 51.8496 22.4 52.3496 23 52.3496C23.6 52.3496 24.2 51.7496 24.2 51.1496V45.1496C24.3 44.4496 23.7 43.9496 23 43.9496Z" fill="white"/>
</svg>
