<?xml version="1.0" encoding="utf-8"?>
<svg width="43" height="49" viewBox="0 0 43 49" fill="none" xmlns="http://www.w3.org/2000/svg">
<path d="M34.825 48.2177C34.725 48.2177 34.725 48.2177 34.625 48.2177C34.125 48.1177 33.725 47.6177 33.825 47.1177L36.825 28.6177C34.825 27.1177 27.825 23.4177 21.125 27.4177C18.625 29.0177 15.625 29.9177 12.625 29.9177C5.425 29.9177 0.625 24.8177 0.625 24.7177C0.125 24.2177 -0.075 23.5177 0.025 22.8177L3.425 1.91769C3.525 1.01769 4.225 0.317691 5.025 0.117691C5.825 -0.182309 6.825 0.117691 7.425 0.717691C8.525 1.91769 14.525 7.21769 22.125 2.61769C33.625 -4.38231 41.925 5.11769 41.925 5.21769C42.125 5.41769 42.325 5.81769 42.425 6.11769C42.425 6.21769 42.425 6.31769 42.425 6.31769V6.41769C42.425 6.51769 42.425 6.71769 42.425 6.81769L35.825 47.2177C35.825 47.9177 35.325 48.2177 34.825 48.2177ZM5.725 2.01769C5.525 2.01769 5.425 2.11769 5.425 2.31769L2.125 23.2177C2.125 23.3177 2.125 23.4177 2.225 23.4177C2.225 23.5177 6.525 27.9177 12.725 27.9177C15.325 27.9177 17.925 27.1177 20.125 25.7177C26.725 21.7177 33.825 24.2177 37.225 26.4177L40.425 6.61769C40.425 6.61769 40.425 6.61769 40.425 6.51769V6.41769C40.325 6.31769 33.225 -1.78231 23.125 4.31769C14.025 9.81769 6.825 2.91769 6.025 2.11769C5.925 2.01769 5.825 2.01769 5.725 2.01769Z" fill="white"/>
</svg>
