<?xml version="1.0" encoding="utf-8"?>
<svg width="41" height="50" viewBox="0 0 41 50" fill="none" xmlns="http://www.w3.org/2000/svg">
<path d="M35 33.1L33.3 28.6H23.1C20.9 28.6 19.1 26.9 19 24.7H8.5L6.7 29.1L5 24.7C4.9 24.7 4.8 24.7 4.6 24.6C2.6 24.3 1.1 22.6 1.1 20.5V10.4C1.1 8.1 2.9 6.3 5.2 6.3H11.2V4.1C11.2 1.8 13 0 15.3 0H28.7C31 0 32.8 1.8 32.8 4.1V10.2H36.4C38.7 10.2 40.5 12 40.5 14.3V24.5C40.5 26.5 39 28.3 36.9 28.6H36.6L35 33.1ZM8.3 23.2H19.3C19.6 23.2 19.9 23.3 20.1 23.5C20.5 23.9 20.5 24.4 20.5 24.7C20.6 26.1 21.7 27.2 23.1 27.2H33.5C34 27.2 34.5 27.5 34.6 28L35 29L35.4 27.9C35.5 27.5 36 27.2 36.5 27.2H36.6C36.7 27.2 36.8 27.2 36.9 27.2C38.1 27 39 26.1 39.1 25V14.3C39.1 12.9 37.9 11.7 36.5 11.7H33C31.5 11.7 31.4 10.6 31.4 10.4V4.1C31.4 2.7 30.2 1.5 28.8 1.5H15.3C13.9 1.5 12.7 2.7 12.7 4.1V6.7C12.7 7.3 12.2 7.8 11.6 7.8H5.2C3.8 7.8 2.6 9 2.6 10.4V20.5C2.6 21.8 3.6 22.9 4.9 23.1H5C5 23.1 5.1 23.1 5.2 23.1C5.7 23.1 6.2 23.4 6.3 23.9L6.7 24.9L7.1 23.8C7.3 23.5 7.8 23.2 8.3 23.2Z" fill="white"/>
<path d="M11.9 49.3H1.2C0.5 49.3 0 48.8 0 48.1C0 45.8 1.2 43.7 3.1 42.5C2.6 41.8 2.4 41 2.4 40.2C2.4 37.9 4.3 36 6.6 36C8.9 36 10.8 37.9 10.8 40.2C10.8 41 10.5 41.9 10.1 42.5C12 43.7 13.2 45.8 13.2 48.1C13.1 48.8 12.6 49.3 11.9 49.3ZM1.5 47.8H11.6C11.5 45.9 10.3 44.2 8.5 43.4L7.4 42.9L8.3 42.1C8.9 41.6 9.2 40.8 9.2 40.1C9.2 38.6 8 37.4 6.5 37.4C5 37.4 3.8 38.6 3.8 40.1C3.8 40.8 4.1 41.6 4.7 42.1L5.7 43L4.6 43.4C2.8 44.2 1.6 45.8 1.5 47.8Z" fill="white"/>
<path d="M25.9 44H15.2C14.5 44 14 43.5 14 42.8C14 40.5 15.2 38.4 17.1 37.2C16.6 36.5 16.4 35.7 16.4 34.9C16.4 32.6 18.3 30.7 20.6 30.7C22.9 30.7 24.8 32.6 24.8 34.9C24.8 35.7 24.5 36.6 24.1 37.2C26 38.4 27.2 40.5 27.2 42.8C27.1 43.5 26.6 44 25.9 44ZM15.5 42.5H25.6C25.5 40.6 24.3 38.9 22.5 38.1L21.4 37.6L22.3 36.8C22.9 36.3 23.2 35.5 23.2 34.8C23.2 33.3 22 32.1 20.5 32.1C19 32.1 17.8 33.3 17.8 34.8C17.8 35.5 18.1 36.3 18.7 36.8L19.5 37.6L18.4 38C16.8 38.9 15.6 40.5 15.5 42.5Z" fill="white"/>
<path d="M39.6 49.3H28.9C28.2 49.3 27.7 48.8 27.7 48.1C27.7 45.8 28.9 43.7 30.8 42.5C30.3 41.8 30.1 41 30.1 40.2C30.1 37.9 32 36 34.3 36C36.6 36 38.5 37.9 38.5 40.2C38.5 41 38.2 41.9 37.8 42.5C39.7 43.7 40.9 45.8 40.9 48.1C40.8 48.8 40.3 49.3 39.6 49.3ZM29.2 47.8H39.3C39.2 45.9 38 44.2 36.2 43.4L35.1 42.9L36 42.1C36.6 41.6 36.9 40.8 36.9 40.1C36.9 38.6 35.7 37.4 34.2 37.4C32.7 37.4 31.5 38.6 31.5 40.1C31.5 40.8 31.8 41.6 32.4 42.1L33.2 42.9L32.1 43.3C30.5 44.2 29.3 45.8 29.2 47.8Z" fill="white"/>
<path d="M11.9 16.5C12.7284 16.5 13.4 15.8284 13.4 15C13.4 14.1716 12.7284 13.5 11.9 13.5C11.0716 13.5 10.4 14.1716 10.4 15C10.4 15.8284 11.0716 16.5 11.9 16.5Z" fill="white"/>
<path d="M18.4 16.5C19.2284 16.5 19.9 15.8284 19.9 15C19.9 14.1716 19.2284 13.5 18.4 13.5C17.5716 13.5 16.9 14.1716 16.9 15C16.9 15.8284 17.5716 16.5 18.4 16.5Z" fill="white"/>
<path d="M24.9 16.5C25.7284 16.5 26.4 15.8284 26.4 15C26.4 14.1716 25.7284 13.5 24.9 13.5C24.0716 13.5 23.4 14.1716 23.4 15C23.4 15.8284 24.0716 16.5 24.9 16.5Z" fill="white"/>
</svg>
