<?xml version="1.0" encoding="utf-8"?>
<svg width="56" height="43" viewBox="0 0 56 43" fill="none" xmlns="http://www.w3.org/2000/svg">
<path d="M30.3189 0.349609C29.9189 0.349609 29.5189 0.649585 29.3189 0.949585L27.0189 4.74957L23.219 7.04956C22.619 7.44956 22.4189 8.14957 22.8189 8.74957C22.9189 8.94957 23.019 9.0496 23.219 9.1496L27.0189 11.4496L29.3189 15.2496C29.7189 15.8496 30.4189 16.0496 31.0189 15.6496C31.2189 15.5496 31.3189 15.4496 31.4189 15.2496L33.719 11.4496L37.519 9.1496C38.119 8.7496 38.319 8.04958 37.919 7.44958C37.819 7.24958 37.719 7.14956 37.519 7.04956L33.719 4.74957L31.4189 0.949585C31.2189 0.549585 30.8189 0.349609 30.4189 0.349609H30.3189ZM30.4189 3.94958L31.8189 6.24957C31.9189 6.44957 32.019 6.5496 32.219 6.6496L34.519 8.04956L32.219 9.44958C32.019 9.54958 31.9189 9.64961 31.8189 9.84961L30.4189 12.1496L29.0189 9.94958C28.9189 9.74958 28.7189 9.64956 28.6189 9.54956L26.3189 8.1496L28.6189 6.74957C28.8189 6.64957 28.9189 6.44961 29.0189 6.34961L30.4189 3.94958ZM44.219 6.94958H44.1189C43.6189 6.94958 43.2189 7.24957 43.1189 7.74957L40.6189 14.1496L34.219 16.6496C33.619 16.8496 33.219 17.6496 33.519 18.2496C33.619 18.5496 33.919 18.8496 34.219 18.9496L40.6189 21.4496L43.1189 27.8496C43.4189 28.4496 44.119 28.8496 44.719 28.5496C45.019 28.4496 45.319 28.1496 45.419 27.8496L47.919 21.4496L54.319 18.9496C54.919 18.7496 55.319 17.9496 55.019 17.3496C54.919 17.0496 54.619 16.7496 54.319 16.6496L47.919 14.1496L45.419 7.74957C45.219 7.24957 44.719 6.94958 44.219 6.94958ZM44.319 11.5496L45.919 15.5496C46.019 15.8496 46.3189 16.1496 46.6189 16.2496L50.519 17.8496L46.6189 19.4496C46.3189 19.5496 46.019 19.8496 45.919 20.1496L44.319 24.1496L42.719 20.1496C42.619 19.8496 42.319 19.5496 42.019 19.4496L38.1189 17.8496L42.019 16.2496C42.319 16.1496 42.619 15.8496 42.719 15.5496L44.319 11.5496ZM20.719 23.0496C18.119 23.0496 15.619 23.2496 12.819 24.0496C12.119 24.2496 11.819 24.9496 12.019 25.6496C12.219 26.3496 12.919 26.6496 13.519 26.4496C18.419 25.0496 22.1189 25.5496 28.4189 26.0496C28.4189 26.2496 28.4189 26.4496 28.4189 26.5496C28.3189 26.8496 28.3189 26.9496 28.1189 27.0496C27.8189 27.2496 26.8189 27.5496 24.9189 27.4496C23.8189 27.3496 22.919 27.5496 22.219 28.2496C21.519 28.9496 21.5189 29.9496 21.8189 30.6496C22.2189 32.0496 23.319 33.1496 24.719 33.6496C29.019 35.2496 32.419 35.4496 34.919 35.0496C37.519 34.6496 39.319 33.7496 40.219 33.5496C41.319 33.2496 41.919 33.5496 42.519 34.0496C42.819 34.3496 43.0189 34.6496 43.1189 34.9496C35.5189 38.3496 25.8189 39.7496 18.3189 36.9496C16.5189 36.2496 14.719 36.0496 13.019 35.9496L9.91895 24.9496C9.71895 24.2496 9.01895 23.8496 8.41895 24.0496L0.91895 25.9496H0.81895C0.21895 26.1496 -0.08105 26.8496 0.01895 27.4496L4.01895 41.9496C4.21895 42.6496 4.91895 43.0496 5.51895 42.8496L13.019 40.9496C13.719 40.7496 14.119 40.0496 13.919 39.4496L13.719 38.6496C14.919 38.7496 16.2189 38.9496 17.4189 39.4496C26.1189 42.6496 36.8189 40.8496 45.1189 37.0496C45.5189 36.8496 45.819 36.4496 45.819 35.9496C45.819 34.7496 45.319 33.4496 44.219 32.4496C43.119 31.4496 41.419 30.7496 39.419 31.2496C38.119 31.6496 36.719 32.3496 34.519 32.7496C32.319 33.0496 29.4189 32.9496 25.5189 31.4496C25.1189 31.2496 24.419 30.5496 24.219 30.1496C24.219 30.1496 24.219 30.1496 24.719 30.1496C26.719 30.2496 28.3189 30.2496 29.6189 29.2496C30.2189 28.7496 30.6189 28.0496 30.8189 27.3496C31.0189 26.5496 31.0189 25.7496 30.8189 24.8496C30.7189 24.2496 30.319 23.8496 29.719 23.7496C26.219 23.3496 23.319 23.0496 20.719 23.0496ZM7.81895 26.7496L11.119 38.7496L6.11895 40.0496L2.81895 28.0496L7.81895 26.7496Z" fill="white"/>
</svg>
