<?xml version="1.0" encoding="utf-8"?>
<svg width="48" height="48" viewBox="0 0 48 48" fill="none" xmlns="http://www.w3.org/2000/svg">
<path d="M22.325 0C20.625 0 19.025 0.599994 17.725 1.89999C15.225 4.39999 15.225 8.50001 17.725 11.1L25.625 19C25.925 19.5 26.625 19.6 27.025 19.1L35.025 11.1C37.525 8.60001 37.525 4.49999 35.025 1.89999C33.725 0.599994 32.125 0 30.425 0C29.025 0 27.525 0.499994 26.325 1.39999C25.225 0.399994 23.825 0 22.325 0ZM22.325 1.69998C23.525 1.69998 24.725 2.20001 25.625 3.10001L25.725 3.19998C26.025 3.49998 26.625 3.49998 26.925 3.19998L27.025 3.10001C28.925 1.20001 31.825 1.20001 33.725 3.10001C35.625 5.00001 35.625 7.89999 33.725 9.79999L26.325 17.2L18.925 9.79999C17.025 7.89999 17.025 5.00001 18.925 3.10001C19.925 2.20001 21.125 1.69998 22.325 1.69998ZM43.425 18.6C42.325 18.6 41.325 19 40.525 19.8L35.425 24.9C34.625 23.7 33.325 22.8 31.725 22.8H17.625C13.825 22.8 11.725 24.8 9.925 26.6L6.125 30.4C6.125 30.4 5.825 30.7 5.525 31L0.225 36.3C-0.075 36.6 -0.075 37.2 0.225 37.5L9.925 47.2C10.225 47.5 10.825 47.5 11.125 47.2L16.425 41.9C16.725 41.6 17.025 41.3 17.025 41.3L18.125 40.2C19.025 39.3 19.525 38.7 21.025 38.7H33.325C36.325 38.7 38.825 37.2 40.625 34.6C42.725 31.6 44.725 27.9 46.325 25.6C46.925 24.7 47.325 23.7 47.325 22.7C47.325 21.7 47.025 20.6 46.225 19.8C45.625 19 44.525 18.6 43.425 18.6ZM43.425 20.4C44.025 20.4 44.625 20.6 45.125 21.1C45.625 21.6 45.725 22.1 45.725 22.7C45.725 23.3 45.425 24 45.025 24.6C43.325 27.1 41.325 30.7 39.325 33.6C37.825 35.8 35.925 36.9 33.425 36.9H21.125C19.025 36.9 17.825 38 17.025 38.9L15.925 40L7.525 31.6L11.325 27.8C13.125 26 14.525 24.5 17.725 24.5H31.825C33.325 24.5 34.425 25.7 34.425 27.1C34.425 28.6 33.225 29.7 31.825 29.7H23.925C22.725 29.7 22.725 31.5 23.925 31.5H31.825C34.225 31.5 36.225 29.5 36.225 27.1C36.225 26.9 36.225 26.8 36.225 26.6L41.925 20.9C42.225 20.6 42.825 20.4 43.425 20.4ZM6.025 32.7L14.625 41.3L10.625 45.3L2.025 36.7L6.025 32.7Z" fill="white"/>
</svg>
