<?xml version="1.0" encoding="utf-8"?>
<svg width="63" height="50" viewBox="0 0 63 50" fill="none" xmlns="http://www.w3.org/2000/svg">
<path d="M46.6105 18.1C44.5105 9.4 40.4105 0 36.3105 0C36.1105 0 35.9105 0 35.7105 0.1C34.8105 0.3 34.1105 1 33.6105 2.1C33.5105 2.1 33.5105 2.2 33.4105 2.2C31.2105 5.1 23.0105 14.7 13.7105 17L6.61053 18.8H6.51053C4.31053 19.4 2.51053 20.8 1.31053 22.7C0.110528 24.7 -0.289472 27.1 0.210528 29.4C0.810528 31.7 2.21053 33.6 4.21053 34.8C6.21053 36 8.61053 36.4 10.9105 35.8L12.4105 35.4L14.2105 35L20.1105 47.1C20.9105 48.7 22.4105 49.6 24.1105 49.6C24.7105 49.6 25.4105 49.5 26.0105 49.2C28.2105 48.1 29.1105 45.5 28.0105 43.3L23.2105 33.5C31.7105 33.4 40.4105 37.4 42.4105 38.3C43.1105 38.8 43.8105 39.1 44.5105 39.1C44.7105 39.1 44.9105 39.1 45.1105 39C47.0105 38.5 48.1105 36 48.2105 31.8C48.4105 28 47.8105 23.1 46.6105 18.1ZM10.5105 34C8.71053 34.4 6.81053 34.2 5.21053 33.2C3.61053 32.2 2.51053 30.7 2.11053 28.9C1.71053 27.1 2.01053 25.2 2.91053 23.7C3.91053 22.1 5.41053 21 7.21053 20.6L7.81053 20.4L11.0105 33.9L10.5105 34ZM25.2105 47.5C23.9105 48.1 22.4105 47.6 21.8105 46.3L19.7105 41.9L24.3105 39.8L26.4105 44.1C26.9105 45.4 26.4105 46.9 25.2105 47.5ZM23.4105 38.1L18.8105 40.2L16.0105 34.6L18.2105 34.1C19.2105 33.9 20.2105 33.7 21.2105 33.6L23.4105 38.1ZM17.8105 32.2L12.9105 33.4L9.61053 20L14.1105 18.9C22.0105 17 28.9105 10.3 32.7105 6.1C32.7105 6.5 32.6105 6.9 32.6105 7.3C32.5105 9.3 32.6105 11.6 33.0105 14V14.1C33.3105 16.3 33.7105 18.6 34.3105 21C34.9105 23.3 35.6105 25.7 36.4105 27.9V28C36.4105 28.1 36.5105 28.2 36.6105 28.3C37.5105 30.8 38.6105 33.1 39.7105 34.9C34.6105 33 25.7105 30.3 17.8105 32.2ZM35.0105 14.9C36.4105 15.3 38.1105 17.2 38.8105 20.2C39.5105 23.1 38.9105 25.6 37.8105 26.6C37.2105 24.8 36.6105 22.9 36.1105 20.7C35.6105 18.7 35.2105 16.7 35.0105 14.9ZM46.4105 31.8C46.3105 35.3 45.5105 37.1 44.7105 37.3C44.7105 37.3 44.6105 37.3 44.5105 37.3C44.3105 37.3 44.1105 37.2 43.9105 37.1C43.8105 37 43.7105 36.9 43.6105 36.9C43.6105 36.9 43.5105 36.8 43.3105 36.8C41.9105 35.7 40.1105 32.8 38.4105 28.5C40.5105 27.2 41.4105 23.7 40.5105 19.8C39.6105 15.9 37.1105 13.2 34.6105 13C34.4105 11 34.3105 9.1 34.4105 7.5C34.5105 4 35.3105 2.2 36.1105 2C36.1105 2 36.2105 2 36.3105 2C38.1105 2 42.2105 7.9 44.8105 18.6C46.0105 23.4 46.5105 28.1 46.4105 31.8Z" fill="white"/>
<path d="M53.8105 17.5C53.4105 17.5 53.0105 17.2 52.9105 16.8C52.8105 16.3 53.1105 15.8 53.6105 15.7L59.8105 14.2C60.3105 14.1 60.8105 14.4 60.9105 14.9C61.0105 15.4 60.7105 15.9 60.2105 16L54.0105 17.5C54.0105 17.5 53.9105 17.5 53.8105 17.5Z" fill="white"/>
<path d="M49.1105 7.2C48.8105 7.2 48.6105 7.1 48.4105 6.9C48.1105 6.5 48.1105 5.9 48.5105 5.6L54.0105 0.9C54.4105 0.6 55.0105 0.6 55.3105 1C55.6105 1.4 55.6105 2 55.2105 2.3L49.8105 7C49.6105 7.2 49.4105 7.2 49.1105 7.2Z" fill="white"/>
<path d="M62.1105 30.5C62.0105 30.5 61.8105 30.5 61.7105 30.5L54.9105 28.8C54.4105 28.7 54.1105 28.2 54.2105 27.7C54.3105 27.2 54.8105 26.9 55.3105 27L62.1105 28.7C62.6105 28.8 62.9105 29.3 62.8105 29.8C62.8105 30.1 62.4105 30.4 62.1105 30.5Z" fill="white"/>
</svg>
