<?xml version="1.0" encoding="utf-8"?>
<svg width="60" height="35" viewBox="0 0 60 35" fill="none" xmlns="http://www.w3.org/2000/svg">
<path d="M29.9153 0C35.2153 0 39.4153 4.3 39.4153 9.7C39.4153 15 35.1153 19.2 29.9153 19.2C24.5153 19.2 20.2153 14.9 20.2153 9.7C20.2153 4.3 24.5153 0 29.9153 0ZM29.9153 2C25.6153 2 22.3153 5.4 22.3153 9.6C22.3153 13.8 25.7153 17.1 29.9153 17.1C34.1153 17.1 37.4153 13.7 37.4153 9.6C37.4153 5.4 34.0153 2 29.9153 2Z" fill="white"/>
<path d="M17.5153 33.9C17.5153 34.4 17.0153 34.8 16.4153 34.7C15.9153 34.7 15.5153 34.2 15.6153 33.6C16.4153 26.4 22.5153 20.8 29.9153 20.8C37.2153 20.8 43.4153 26.4 44.2153 33.6C44.2153 34.2 43.8153 34.7 43.3153 34.7C42.7153 34.8 42.2153 34.4 42.2153 33.9C41.5153 27.6 36.2153 22.8 29.9153 22.8C23.6153 22.8 18.2153 27.6 17.5153 33.9Z" fill="white"/>
<path d="M11.0153 8.2C15.1153 8.2 18.4153 11.6 18.4153 15.6C18.4153 19.8 15.0153 23.1 11.0153 23.1C6.81531 23.1 3.51531 19.7 3.51531 15.6C3.51531 11.6 6.81531 8.2 11.0153 8.2ZM11.0153 10.3C8.01531 10.3 5.51531 12.7 5.51531 15.7C5.51531 18.7 7.91531 21.2 11.0153 21.2C13.9153 21.2 16.4153 18.8 16.4153 15.7C16.4153 12.7 13.9153 10.3 11.0153 10.3Z" fill="white"/>
<path d="M2.01531 33.9C1.91531 34.4 1.41531 34.8 0.915314 34.7C0.315314 34.7 -0.0846856 34.1 0.0153144 33.6C0.815314 28.2 5.51531 24.2 11.0153 24.2C12.7153 24.2 14.5153 24.7 16.1153 25.4C16.5153 25.7 16.7153 26.3 16.5153 26.8C16.2153 27.3 15.6153 27.5 15.1153 27.2C13.9153 26.6 12.5153 26.2 11.0153 26.2C6.51531 26.2 2.71531 29.5 2.01531 33.9Z" fill="white"/>
<path d="M55.9153 15.6C55.9153 19.8 52.5153 23.1 48.4153 23.1C44.3153 23.1 41.0153 19.7 41.0153 15.6C41.0153 11.5 44.4153 8.2 48.4153 8.2C52.6153 8.2 55.9153 11.6 55.9153 15.6ZM43.0153 15.6C43.0153 18.6 45.4153 21.1 48.4153 21.1C51.4153 21.1 53.9153 18.7 53.9153 15.6C53.9153 12.7 51.5153 10.2 48.4153 10.2C45.5153 10.3 43.0153 12.7 43.0153 15.6Z" fill="white"/>
<path d="M57.4153 33.9C57.5153 34.4 58.0153 34.8 58.5153 34.7C59.1153 34.7 59.5153 34.1 59.4153 33.6C58.6153 28.2 53.9153 24.2 48.4153 24.2C46.7153 24.2 44.9153 24.7 43.3153 25.4C42.9153 25.7 42.7153 26.3 42.9153 26.8C43.2153 27.3 43.8153 27.5 44.3153 27.2C45.5153 26.6 46.9153 26.2 48.4153 26.2C52.9153 26.2 56.8153 29.5 57.4153 33.9Z" fill="white"/>
</svg>
