<?xml version="1.0" encoding="utf-8"?>
<svg width="46" height="47" viewBox="0 0 46 47" fill="none" xmlns="http://www.w3.org/2000/svg">
<path d="M37.4 45.3016V27.4016C37.4 27.0016 37 26.6016 36.6 26.6016H30.9C30.5 26.6016 30.1 27.0016 30.1 27.4016V29.0016C30.1 30.3016 29 31.4016 27.7 31.4016C26.4 31.4016 25.3 30.3016 25.3 29.0016V27.4016C25.3 27.0016 24.9 26.6016 24.5 26.6016H19.6V22.5016H20.4C22.6 22.5016 24.5 20.7016 24.5 18.4016C24.5 16.1016 22.7 14.3016 20.4 14.3016H19.6V9.50156C19.6 9.10156 19.2 8.70156 18.8 8.70156H0.8C0.4 8.70156 0 9.10156 0 9.50156V45.2016C0 45.6016 0.4 46.0016 0.8 46.0016H36.5C37 46.1016 37.4 45.7016 37.4 45.3016ZM23.6 28.2016V29.0016C23.6 31.2016 25.4 33.1016 27.7 33.1016C30 33.1016 31.8 31.3016 31.8 29.0016V28.2016H35.9V44.4016H19.5V39.6016C19.5 39.2016 19.1 38.8016 18.7 38.8016H17.1C15.8 38.8016 14.7 37.7016 14.7 36.4016C14.7 35.1016 15.8 34.0016 17.1 34.0016H18.7C19.1 34.0016 19.5 33.6016 19.5 33.2016V28.3016H23.6V28.2016ZM17.9 10.3016V15.2016C17.9 15.6016 18.3 16.0016 18.7 16.0016H20.3C21.6 16.0016 22.7 17.1016 22.7 18.4016C22.7 19.7016 21.6 20.8016 20.3 20.8016H18.7C18.3 20.8016 17.9 21.2016 17.9 21.6016V26.6016H13.8V25.8016C13.8 23.6016 12 21.7016 9.7 21.7016C7.4 21.7016 5.6 23.5016 5.6 25.8016V26.6016H1.6V10.3016H17.9ZM1.6 28.2016H6.5C6.9 28.2016 7.3 27.8016 7.3 27.4016V25.8016C7.3 24.5016 8.4 23.4016 9.7 23.4016C11 23.4016 12.1 24.5016 12.1 25.8016V27.4016C12.1 27.8016 12.5 28.2016 12.9 28.2016H17.8V32.3016H17C14.8 32.3016 12.9 34.1016 12.9 36.4016C12.9 38.7016 14.7 40.5016 17 40.5016H17.8V44.6016H1.6V28.2016Z" fill="white"/>
<path d="M44.7 0.601562H26.8C26.4 0.601562 26 1.00156 26 1.40156V7.10156C26 7.50156 26.4 7.90156 26.8 7.90156H28.4C29.7 7.90156 30.8 9.00156 30.8 10.3016C30.8 11.6016 29.7 12.7016 28.4 12.7016H26.8C26.4 12.7016 26 13.1016 26 13.5016V19.2016C26 19.6016 26.4 20.0016 26.8 20.0016H31.7V20.8016C31.7 23.0016 33.5 24.9016 35.8 24.9016C38 24.9016 39.9 23.1016 39.9 20.8016V20.0016H44.8C45.2 20.0016 45.6 19.6016 45.6 19.2016V1.40156C45.5 1.00156 45.1 0.601562 44.7 0.601562ZM43.9 18.5016H39C38.6 18.5016 38.2 18.9016 38.2 19.3016V20.9016C38.2 22.2016 37.1 23.3016 35.8 23.3016C34.5 23.3016 33.4 22.2016 33.4 20.9016V19.3016C33.4 18.9016 33 18.5016 32.6 18.5016H27.7V14.4016H28.5C30.7 14.4016 32.6 12.6016 32.6 10.3016C32.6 8.10156 30.8 6.20156 28.5 6.20156H27.7V2.20156H43.9V18.5016Z" fill="white"/>
</svg>
