<?xml version="1.0" encoding="utf-8"?>
<svg width="47" height="48" viewBox="0 0 47 48" fill="none" xmlns="http://www.w3.org/2000/svg">
<path d="M29.3 32.9999C36.2 28.8999 41.5 22.4999 44.2 14.8999C44.2 14.8999 44.2 14.7999 44.3 14.7999C44.3 14.6999 44.3 14.6999 44.3 14.5999C45.7 10.4999 46.4 6.19994 46.2 1.79994C46.2 1.39994 45.8 0.999936 45.4 0.999936C41.1 0.899936 36.8 1.49994 32.7 2.89994C32.6 2.89994 32.5 2.89994 32.4 2.99994L32.3 3.09994C24.7 5.79994 18.4 10.9999 14.3 17.8999C8.1 18.1999 2.9 22.4999 1.3 28.3999C1.2 28.7999 1.4 29.2999 1.9 29.3999C2 29.3999 2.2 29.3999 2.3 29.3999C5 28.6999 7.9 28.8999 10.5 29.9999C11.2 30.2999 11.9 30.6999 12.5 31.0999C11.1 32.7999 9.9 34.6999 9.1 36.7999C8.9 37.1999 9.2 37.6999 9.6 37.8999C9.8 37.9999 10 37.9999 10.2 37.8999C12.3 37.0999 14.2 35.9999 15.9 34.4999C16.3 35.0999 16.7 35.7999 17 36.4999C18.1 39.0999 18.3 41.9999 17.6 44.6999C17.5 45.0999 17.7 45.5999 18.2 45.6999C18.3 45.6999 18.5 45.6999 18.6 45.6999C24.7 44.3999 29 39.0999 29.3 32.9999ZM44.6 2.69994C44.6 6.29994 44.1 9.89994 43 13.2999C39.1 11.3999 35.9 8.19994 34 4.29994C37.4 3.19994 41 2.69994 44.6 2.69994ZM3.4 27.5999C5 23.3999 8.8 20.3999 13.3 19.6999C13.2 19.8999 13.1 19.9999 13.1 20.1999C13 20.3999 12.9 20.5999 12.8 20.8999C12.6 21.3999 12.4 21.8999 12.2 22.3999C12 22.7999 11.9 23.1999 11.8 23.4999C11.7 23.6999 11.6 23.9999 11.5 24.1999C11.3 24.6999 11.1 25.2999 11 25.7999C11 25.8999 10.9 25.9999 10.9 25.9999C10.7 26.6999 10.6 27.2999 10.4 27.9999C10.4 28.0999 10.4 28.0999 10.4 28.1999C8.1 27.3999 5.7 27.1999 3.4 27.5999ZM11.7 35.5999C12.5 34.1999 13.4 32.7999 14.5 31.5999C16.1 29.6999 18.1 28.1999 20.3 26.9999C18.3 30.5999 15.3 33.5999 11.7 35.5999ZM22.7 25.5999C22.9 25.1999 22.6 24.6999 22.2 24.4999C22 24.3999 21.8 24.3999 21.6 24.4999C18.6 25.6999 15.9 27.4999 13.7 29.8999C13.1 29.4999 12.5 29.0999 11.8 28.7999C11.9 28.1999 12.1 27.4999 12.2 26.8999C12.2 26.7999 12.3 26.6999 12.3 26.4999C12.5 25.6999 12.7 24.9999 13 24.2999C13.1 24.0999 13.1 23.8999 13.2 23.7999C13.4 23.0999 13.7 22.4999 14 21.8999C14.1 21.5999 14.2 21.3999 14.4 21.0999C14.6 20.5999 14.9 20.1999 15.1 19.6999C19 12.8999 25.1 7.59994 32.4 4.79994C33.4 6.99994 34.8 8.99994 36.5 10.6999C38.2 12.3999 40.2 13.7999 42.4 14.7999C39.7 21.9999 34.5 27.9999 27.8 31.7999C27.2 32.0999 26.6 32.3999 26 32.6999C25.8 32.7999 25.6 32.8999 25.4 32.9999C24.7 33.2999 24 33.5999 23.3 33.8999C23.2 33.8999 23.1 33.9999 22.9 33.9999C22.1 34.2999 21.3 34.4999 20.5 34.7999L20.3 34.8999C19.6 35.0999 19 35.1999 18.3 35.3999C18 34.6999 17.6 34.0999 17.2 33.4999C19.7 31.2999 21.5 28.5999 22.7 25.5999ZM19.7 43.8999C20.1 41.5999 19.8 39.1999 19.1 36.9999H19.2C20.6 36.6999 21.9 36.2999 23.2 35.8999C23.3 35.7999 23.5 35.7999 23.7 35.6999C24.2 35.4999 24.7 35.2999 25.3 35.0999C25.5 34.9999 25.7 34.9999 25.8 34.8999C26.3 34.6999 26.7 34.4999 27.2 34.1999C27.3 34.0999 27.5 34.0999 27.6 33.9999C26.9 38.3999 23.9 42.1999 19.7 43.8999Z" fill="white"/>
<path d="M34.1 20.8999C36.2 18.7999 36.2 15.2999 34.1 13.1999C32 11.0999 28.5 11.0999 26.4 13.1999C24.3 15.2999 24.3 18.7999 26.4 20.8999C28.5 22.9999 32 22.9999 34.1 20.8999ZM27.6 19.6999C26.1 18.1999 26.1 15.7999 27.6 14.3999C29.1 12.8999 31.5 12.8999 32.9 14.3999C34.3 15.8999 34.4 18.2999 32.9 19.6999C31.4 21.1999 29.1 21.1999 27.6 19.6999Z" fill="white"/>
<path d="M16.5 38.4999C16.1 38.2999 15.6 38.5999 15.4 38.9999C14.2 42.0999 11.5 44.2999 8.2 44.7999L1.7 45.4999L2.5 38.9999C3 35.6999 5.2 32.9999 8.3 31.7999C8.7 31.6999 9 31.1999 8.8 30.6999C8.7 30.2999 8.2 29.9999 7.7 30.1999H7.6C3.9 31.5999 1.3 34.8999 0.7 38.7999L0 46.2999C0 46.7999 0.3 47.1999 0.7 47.1999C0.8 47.1999 0.8 47.1999 0.9 47.1999L8.4 46.3999C12.3 45.7999 15.6 43.1999 17 39.4999C17.2 39.0999 17 38.6999 16.5 38.4999Z" fill="white"/>
</svg>
