<?xml version="1.0" encoding="utf-8"?>
<svg width="41" height="48" viewBox="0 0 41 48" fill="none" xmlns="http://www.w3.org/2000/svg">
<path d="M39.6 33.4L32.4 28.9L39.6 24.4C40.1 24.1 40.2 23.5 39.9 23C39.8 22.9 39.7 22.8 39.6 22.7L32.4 18.2L39.6 13.7C39.8 13.6 40 13.3 40 13.1C40.1 12.8 40 12.6 39.9 12.3C39.8 12.2 39.7 12.1 39.6 12L20.6 0.1C20.4 0 20.2 0 20 0C19.8 0 19.7 0.1 19.5 0.2L0.5 12.1C0.3 12.2 0.1 12.5 0 12.7C0 13 0 13.2 0.2 13.5C0.3 13.6 0.4 13.7 0.5 13.8L7.7 18.3L0.5 22.8C0.3 22.9 0.1 23.2 0.1 23.4C0.1 23.6 0.1 23.9 0.2 24.2C0.3 24.3 0.4 24.4 0.5 24.5L7.7 29L0.5 33.5C0 33.8 -0.1 34.4 0.2 34.9C0.3 35 0.4 35.1 0.5 35.2L19.5 47.1C19.8 47.3 20.2 47.3 20.6 47.1L39.6 35.2C39.8 35.1 40 34.8 40 34.6C40.1 34.3 40 34.1 39.9 33.8C39.9 33.6 39.7 33.5 39.6 33.4ZM2.9 12.9L20 2.2L37.1 12.9L20 23.7L2.9 12.9ZM2.9 23.6L9.5 19.5L19.5 25.7C19.8 25.9 20.2 25.9 20.6 25.7L30.6 19.5L37.2 23.7L30.1 28L29.7 27.6L30 28L20 34.2L2.9 23.6ZM20 45L2.9 34.3L9.5 30.1L19.5 36.3C19.8 36.5 20.2 36.5 20.6 36.3L30.6 30.1L37.2 34.3L20 45Z" fill="white"/>
</svg>
