<?xml version="1.0" encoding="utf-8"?>
<svg width="53" height="33" viewBox="0 0 53 33" fill="none" xmlns="http://www.w3.org/2000/svg">
<path d="M52.2 16.447C52.2 17.247 51.8 17.947 51.2 18.347L33 32.047C32.3 32.547 31.3 32.647 30.5 32.247C29.7 31.847 29.2 31.047 29.2 30.047V28.447C29.2 27.947 28.8 27.647 28.4 27.647H18.7C18.2 27.647 17.9 27.247 17.9 26.847C17.9 26.347 18.3 26.047 18.7 26.047H28.4C29.7 26.047 30.8 27.147 30.8 28.447V30.047C30.8 30.347 31 30.647 31.3 30.747C31.6 30.847 31.9 30.847 32.1 30.647L50.4 16.947C50.8 16.647 50.8 15.947 50.4 15.647L32 2.04701C31.8 1.84701 31.4 1.84701 31.2 1.94701C30.9 2.04701 30.7 2.34701 30.7 2.64701V4.24701C30.7 5.54701 29.6 6.64701 28.3 6.64701H18.6C18.1 6.64701 17.8 6.24701 17.8 5.84701C17.8 5.34701 18.2 5.04701 18.6 5.04701H28.3C28.8 5.04701 29.1 4.64701 29.1 4.24701V2.64701C29.1 1.74701 29.6 0.847013 30.4 0.447013C31.2 0.0470132 32.2 0.147013 32.9 0.647013L51.2 14.347C51.9 14.947 52.2 15.647 52.2 16.447Z" fill="white"/>
<path d="M25.8 10.747C25.8 11.247 25.4 11.547 25 11.547H10.5C10 11.547 9.7 11.147 9.7 10.747C9.7 10.347 10.1 9.94701 10.5 9.94701H25C25.5 9.94701 25.8 10.247 25.8 10.747Z" fill="white"/>
<path d="M25.8 22.047C25.8 22.547 25.4 22.847 25 22.847H10.5C10 22.847 9.7 22.447 9.7 22.047C9.7 21.547 10.1 21.247 10.5 21.247H25C25.5 21.247 25.8 21.647 25.8 22.047Z" fill="white"/>
<path d="M24.2 16.447C24.2 16.947 23.8 17.247 23.4 17.247H4C3.5 17.247 3.2 16.847 3.2 16.447C3.2 15.947 3.6 15.647 4 15.647H23.4C23.9 15.547 24.2 15.947 24.2 16.447Z" fill="white"/>
<path d="M8.1 10.747C8.1 11.247 7.7 11.547 7.3 11.547H5.7C5.2 11.547 4.9 11.147 4.9 10.747C4.9 10.347 5.3 9.94701 5.7 9.94701H7.3C7.7 9.94701 8.1 10.247 8.1 10.747Z" fill="white"/>
<path d="M8.1 22.047C8.1 22.547 7.7 22.847 7.3 22.847H0.8C0.3 22.847 0 22.447 0 22.047C0 21.647 0.4 21.247 0.8 21.247H7.3C7.7 21.247 8.1 21.647 8.1 22.047Z" fill="white"/>
<path d="M16.2 5.84701C16.2 6.34701 15.8 6.64701 15.4 6.64701H12.2C11.7 6.64701 11.4 6.24701 11.4 5.84701C11.4 5.34701 11.8 5.04701 12.2 5.04701H15.4C15.8 5.04701 16.2 5.44701 16.2 5.84701Z" fill="white"/>
</svg>
