<?xml version="1.0" encoding="utf-8"?>
<svg width="45" height="53" viewBox="0 0 45 53" fill="none" xmlns="http://www.w3.org/2000/svg">
<path d="M11.6 52.6H0V41H11.6V52.6ZM1.6 51H10V42.6H1.6V51Z" fill="white"/>
<path d="M21.6 52.6H10V41H21.6V52.6ZM11.6 51H20V42.6H11.6V51Z" fill="white"/>
<path d="M31.6 52.6H20V41H31.6V52.6ZM21.6 51H30V42.6H21.6V51Z" fill="white"/>
<path d="M11.6 42.6H0V31H11.6V42.6ZM1.6 41H10V32.6H1.6V41Z" fill="white"/>
<path d="M29.6 36.6H18V25H29.6V36.6ZM19.6 35H28V26.6H19.6V35Z" fill="white"/>
<path d="M44.6 31.6H42.7V30H43V29.7H44.6V31.6Z" fill="white"/>
<path d="M40.1 30H37.5V31.6H40.1V30Z" fill="white"/>
<path d="M34.9 31.6H33V29.7H34.6V30H34.9V31.6Z" fill="white"/>
<path d="M34.6 24.5H33V27.1H34.6V24.5Z" fill="white"/>
<path d="M34.6 21.9H33V20H34.9V21.6H34.6V21.9Z" fill="white"/>
<path d="M40.1 20H37.5V21.6H40.1V20Z" fill="white"/>
<path d="M44.6 21.9H43V21.6H42.7V20H44.6V21.9Z" fill="white"/>
<path d="M44.6 24.5H43V27.1H44.6V24.5Z" fill="white"/>
<path d="M14.6 28.6H3V17H14.6V28.6ZM4.6 27H13V18.6H4.6V27Z" fill="white"/>
<path d="M29.6 20.6H18V9H29.6V20.6ZM19.6 19H28V10.6H19.6V19Z" fill="white"/>
<path d="M44.6 11.6H42.7V10H43V9.7H44.6V11.6Z" fill="white"/>
<path d="M40.1 10H37.5V11.6H40.1V10Z" fill="white"/>
<path d="M34.9 11.6H33V9.7H34.6V10H34.9V11.6Z" fill="white"/>
<path d="M34.6 4.5H33V7.1H34.6V4.5Z" fill="white"/>
<path d="M34.6 1.9H33V0H34.9V1.6H34.6V1.9Z" fill="white"/>
<path d="M40.1 0H37.5V1.6H40.1V0Z" fill="white"/>
<path d="M44.6 1.9H43V1.6H42.7V0H44.6V1.9Z" fill="white"/>
<path d="M44.6 4.5H43V7.1H44.6V4.5Z" fill="white"/>
</svg>
