<?xml version="1.0" encoding="utf-8"?>
<svg width="58" height="22" viewBox="0 0 58 22" fill="none" xmlns="http://www.w3.org/2000/svg">
<path fill-rule="evenodd" clip-rule="evenodd" d="M29.7 10.1941L28 8.39414L29.4 6.99414L33.5 11.0941L29.4 15.1941L28 13.8941L29.8 12.0941H22.2V10.1941H29.7Z" fill="white"/>
<path d="M17 3.69414V18.6941H2V3.69414H17ZM19 1.69414H0V20.6941H19V1.69414Z" fill="white"/>
<path d="M46.5 2.49414C51.3 2.49414 55.2 6.39414 55.2 11.1941C55.2 15.9941 51.3 19.8941 46.5 19.8941C41.7 19.8941 37.8 15.9941 37.8 11.1941C37.8 6.39414 41.7 2.49414 46.5 2.49414ZM46.5 0.494141C40.6 0.494141 35.8 5.29414 35.8 11.1941C35.8 17.0941 40.6 21.8941 46.5 21.8941C52.4 21.8941 57.2 17.0941 57.2 11.1941C57.2 5.29414 52.4 0.494141 46.5 0.494141Z" fill="white"/>
</svg>
