<?xml version="1.0" encoding="utf-8"?>
<svg width="46" height="41" viewBox="0 0 46 41" fill="none" xmlns="http://www.w3.org/2000/svg">
<path d="M45.6 9.1C45.6 7.8 44.5 6.7 43.2 6.7H30.4V3.4C30.4 1.5 28.9 0 27 0H18.6C16.7 0 15.2 1.5 15.2 3.4V6.7H2.5C1.1 6.7 0 7.8 0 9.1V20.7C0 21.1 0.2 21.4 0.6 21.6C1.1 21.9 1.7 22.1 2.2 22.3V38.1C2.2 39.4 3.3 40.5 4.6 40.5H41C42.3 40.5 43.4 39.4 43.4 38.1V22.1C44 21.8 44.5 21.6 45 21.3C45.3 21.1 45.5 20.8 45.5 20.4L45.6 9.1ZM17.2 3.4C17.2 2.6 17.8 2 18.6 2H27C27.8 2 28.4 2.6 28.4 3.4V6.7H17.2V3.4ZM41.5 38.2C41.5 38.5 41.3 38.7 41 38.7H4.6C4.3 38.7 4.1 38.5 4.1 38.2V23.1C8.4 24.7 13.2 25.6 18.4 25.9V27.3C18.4 28.3 19.2 29.1 20.2 29.1H25.5C26.5 29.1 27.3 28.3 27.3 27.3V25.9C32.6 25.6 37.4 24.6 41.6 22.9L41.5 38.2ZM20.4 27.1V23.8H25.3V27.1H20.4ZM27.2 23.9V23.7C27.2 22.7 26.4 21.9 25.4 21.9H20.1C19.1 21.9 18.3 22.7 18.3 23.7V24C12.2 23.6 6.7 22.3 2 20.1V9.1C2 8.8 2.2 8.6 2.5 8.6H43.2C43.5 8.6 43.7 8.8 43.7 9.1V19.8C39 22.2 33.5 23.5 27.2 23.9Z" fill="white"/>
</svg>
