<?xml version="1.0" encoding="utf-8"?>
<svg width="47" height="47" viewBox="0 0 47 47" fill="none" xmlns="http://www.w3.org/2000/svg">
<path d="M23.1545 16.6953C23.7545 16.6953 24.3545 16.1953 24.3545 15.4953C24.3545 14.8953 23.8545 14.2953 23.1545 14.2953C18.0545 14.2953 13.9545 18.3953 13.9545 23.4953C13.9545 28.5953 18.0545 32.6953 23.1545 32.6953C28.2545 32.6953 32.3545 28.5953 32.3545 23.4953C32.3545 22.8953 31.8545 22.2953 31.1545 22.2953C30.4545 22.2953 29.9545 22.7953 29.9545 23.4953C29.9545 27.2953 26.8545 30.3953 23.0545 30.3953C19.2545 30.3953 16.1545 27.2953 16.1545 23.4953C16.1545 19.6953 19.3545 16.6953 23.1545 16.6953Z" fill="white"/>
<path d="M45.1545 16.7953C44.9545 16.1953 44.2545 15.8953 43.6545 16.0953C43.0545 16.2953 42.7545 16.8953 42.9545 17.4953C46.3545 28.4953 40.2545 40.1953 29.3545 43.5953C18.4545 46.9953 6.65448 40.8953 3.25448 29.9953C-0.145522 19.0953 5.85448 7.29532 16.8545 3.89532C20.9545 2.59532 25.2545 2.59532 29.3545 3.89532C29.9545 4.09532 30.6545 3.79532 30.8545 3.19532C31.0545 2.59532 30.7545 1.89532 30.1545 1.69532C17.8545 -2.20468 4.85448 4.59532 1.05448 16.7953C-2.74552 28.9953 4.05448 41.9953 16.1545 45.7953C28.2545 49.5953 41.3545 42.7953 45.1545 30.6953C46.5545 26.1953 46.5545 21.2953 45.1545 16.7953Z" fill="white"/>
<path d="M25.3545 8.79532C25.3545 8.09532 24.8545 7.59532 24.1545 7.49532C23.8545 7.49532 23.4545 7.39532 23.1545 7.39532C14.2545 7.39532 7.05448 14.5953 7.05448 23.4953C7.05448 32.3953 14.2545 39.5953 23.1545 39.5953C32.0545 39.5953 39.3545 32.5953 39.3545 23.6953C39.3545 23.2953 39.3545 22.8953 39.2545 22.4953C39.1545 21.8953 38.6545 21.3953 37.9545 21.3953C37.3545 21.4953 36.8545 21.9953 36.8545 22.6953C36.8545 22.7953 36.8545 22.7953 36.8545 22.8953C36.8545 23.1953 36.8545 23.4953 36.8545 23.6953C36.8545 31.2953 30.6545 37.4953 23.0545 37.4953C15.4545 37.4953 9.35448 31.2953 9.35448 23.6953C9.35448 16.0953 15.5545 9.79532 23.1545 9.79532C23.4545 9.79532 23.7545 9.79532 23.9545 9.79532H24.1545C24.8545 9.89532 25.3545 9.49532 25.3545 8.79532Z" fill="white"/>
<path d="M30.0545 10.9953V15.0953L22.3545 22.7953C21.8545 23.1953 21.8545 23.9953 22.3545 24.3953C22.7545 24.8953 23.5545 24.8953 23.9545 24.3953L31.6545 16.6953H35.7545C36.0545 16.6953 36.3545 16.5953 36.5545 16.3953L43.4545 9.49532C43.9545 8.99532 43.9545 8.29532 43.4545 7.89532C43.2545 7.69532 42.9545 7.59532 42.6545 7.59532H39.1545V4.09532C39.1545 3.49532 38.6545 2.89532 37.9545 2.89532C37.6545 2.89532 37.3545 2.99532 37.1545 3.19532L30.2545 10.0953C30.2545 10.3953 30.0545 10.6953 30.0545 10.9953ZM32.3545 11.4953L36.9545 6.79532V8.59532C36.9545 9.19532 37.4545 9.79532 38.1545 9.79532H39.9545L35.3545 14.3953H32.3545V11.4953Z" fill="white"/>
</svg>
