<svg width="505" height="377" viewBox="0 0 505 377" fill="none" xmlns="http://www.w3.org/2000/svg">
<path d="M296.638 118.454C323.355 118.454 345.013 96.7961 345.013 70.0798C345.013 43.3634 323.355 21.7056 296.638 21.7056C269.922 21.7056 248.264 43.3634 248.264 70.0798C248.264 96.7961 269.922 118.454 296.638 118.454Z" fill="white"/>
<path d="M405.665 210.698C326.131 120.613 158.179 224.026 227.964 330.708C309.719 439.92 490.135 332.497 405.665 210.698Z" stroke="white" stroke-width="1.6504" stroke-miterlimit="10" stroke-dasharray="14.68 14.68"/>
<path d="M117.703 292.576C112.643 288.627 107.831 284.37 103.388 279.804C101.969 278.385 100.673 276.842 99.254 275.423C98.2051 274.374 96.8476 273.696 95.9838 272.462C94.8732 270.981 93.9476 269.438 93.0838 267.834C84.6924 252.038 85.0009 232.541 92.7136 216.56C97.5263 206.502 105.116 197.802 108.139 187.066C111.348 175.713 108.941 163.62 110.422 151.896C112.643 134.003 123.935 118.145 138.064 106.977C152.194 95.8094 169.1 88.652 186.068 82.4818C205.751 75.2627 226.483 69.0308 247.4 70.8818C249.93 71.1287 252.46 71.4372 254.928 71.9308C263.504 73.535 271.834 76.4967 279.485 80.6924C283.31 82.7903 286.951 85.1967 290.406 87.8498C291.825 88.9605 293.183 89.886 294.849 90.6264C298.181 92.1073 300.71 94.9456 303.363 97.3519C317.925 110.68 329.834 121.909 341.433 143.32C353.033 164.73 354.514 190.09 343.531 206.934C332.548 223.779 315.21 213.721 296.515 221.681C277.881 229.641 271.587 245.128 272.266 256.974C273.13 270.981 292.442 282.519 287.321 295.6C285.285 300.783 280.534 304.053 276.153 307.076C273.87 308.619 271.587 310.161 269.489 311.951C267.33 313.74 265.047 314.48 262.394 315.529C253.817 318.985 244.808 321.206 235.738 322.625C231.913 323.242 228.581 323.551 224.755 322.934C220.498 322.255 215.87 323.304 211.551 323.427C195.57 323.921 179.528 321.576 164.288 316.825C149.047 312.074 134.547 304.855 121.59 295.476C120.233 294.489 118.937 293.564 117.703 292.576Z" stroke="white" stroke-width="1.6588" stroke-miterlimit="10"/>
<path opacity="0.2" d="M490.258 261.602C490.258 262.034 476.005 263.145 454.718 263.391C444.476 263.515 432.629 263.576 419.98 263.576C399.68 263.576 381.416 263.453 368.582 263.206C356.859 262.959 349.517 262.096 349.517 261.725C349.517 261.294 355.502 261.725 372.531 261.664C384.378 261.602 404.123 261.108 420.042 261.108C441.267 261.108 460.95 261.417 473.846 261.664C484.52 261.849 490.258 261.294 490.258 261.602Z" fill="#19005A"/>
<path d="M379.75 239.945L372.038 235.687C372.038 235.687 365.497 250.681 363.091 252.84C361.795 254.013 356.427 257.591 353.589 259.628L372.47 261.355L372.099 256.728L371.667 251.853L379.75 239.945Z" fill="#FFD2B4"/>
<path d="M372.099 256.728L354.021 259.504C351.306 259.628 349.517 261.664 349.517 261.664L372.531 261.602L372.099 256.728Z" fill="#FF7045"/>
<path d="M479.522 251.915L475.511 237.292L463.788 236.428L473.784 254.321L474.463 258.332L488.407 260.677L479.522 251.915Z" fill="#FFD2B4"/>
<path d="M474.031 256.913L473.229 261.54L490.258 261.602L487.482 259.443L474.031 256.913Z" fill="#FF7045"/>
<path d="M448.116 110.186C459.907 110.186 469.465 100.628 469.465 88.837C469.465 77.0464 459.907 67.4882 448.116 67.4882C436.325 67.4882 426.767 77.0464 426.767 88.837C426.767 100.628 436.325 110.186 448.116 110.186Z" fill="#66271F"/>
<path d="M418.438 65.5755C421.893 59.5904 428.989 57.4308 434.974 60.8861C440.959 64.3414 442.995 71.9924 439.54 77.9775C436.084 83.9626 428.433 85.9988 422.448 82.5435" fill="#66271F"/>
<path d="M455.829 103.09C461.86 103.09 466.75 98.2006 466.75 92.1689C466.75 86.1373 461.86 81.2477 455.829 81.2477C449.797 81.2477 444.907 86.1373 444.907 92.1689C444.907 98.2006 449.797 103.09 455.829 103.09Z" fill="#66271F"/>
<path d="M431.703 77.9158C433.493 76.9903 435.035 75.5711 436.084 73.5967C438.429 69.1542 436.886 63.4776 432.691 60.7627C427.939 57.7393 421.646 59.2819 418.869 64.1563C417.08 67.1797 417.142 70.8201 418.684 73.7201C419.857 75.8796 419.486 78.5945 417.944 80.5073C417.265 81.3094 416.771 82.2349 416.34 83.2221C414.427 87.7881 415.908 93.2179 419.918 96.1178C425.225 100.005 432.567 98.3391 435.714 92.7859C438.676 87.5413 436.886 80.9392 431.703 77.9158Z" fill="#66271F"/>
<path d="M403.691 110.926C403.444 110.248 411.835 93.8349 407.023 93.1562C404.246 92.7242 390.918 106.36 388.327 108.088C385.057 110.309 373.704 116.726 371.421 114.937C370.372 114.135 369.323 113.333 368.274 112.531C367.719 112.099 367.41 111.667 366.916 111.173C365.744 110.001 360.006 112.222 361.857 114.443C364.263 117.343 366.67 120.305 369.014 123.205C371.544 126.228 384.872 119.318 389.746 119.133C391.844 119.009 403.691 110.926 403.691 110.926Z" fill="#FFD2B4"/>
<path d="M447.561 131.35C447.561 131.35 458.852 172.134 465.701 195.705C472.55 219.275 479.399 237.477 479.399 237.477L455.52 235.872L426.335 166.581C426.335 166.581 387.895 228.9 379.627 240.253C379.627 240.253 362.968 231.06 361.487 230.319C361.487 230.319 386.723 183.117 391.659 168.679C396.533 154.241 407.948 131.041 407.948 131.041L447.561 131.35Z" fill="white"/>
<path d="M389.438 102.72C402.765 92.169 407.146 84.5797 426.644 83.0371L429.297 82.7286C429.297 82.7286 434.11 82.0499 441.637 84.2095C449.165 86.369 455.212 86.8626 460.086 100.314C461.135 103.214 465.084 119.009 465.084 119.009L451.201 124.624V120.552L451.325 134.003L401.902 139.309L409.614 116.85L389.438 102.72Z" fill="#FF7045"/>
<path d="M427.076 103.337C427.076 103.337 437.997 97.9072 437.688 83.1605C432.629 82.2967 429.359 82.3584 429.359 82.3584L426.705 82.7286C422.448 83.2222 419.486 83.7775 419.486 83.7775C418.622 97.5987 427.076 103.337 427.076 103.337Z" fill="#FFD2B4"/>
<path d="M332.487 115.616L339.891 119.379C339.891 119.379 341.495 116.603 340.323 113.148L332.487 115.616Z" fill="#2D2E83"/>
<path d="M353.28 117.59C353.959 112.222 352.416 109.445 352.416 109.445L340.323 113.209C340.323 113.209 339.336 113.95 339.151 116.294C338.966 118.639 339.583 119.256 339.583 119.256L350.997 125.056C350.997 124.994 352.602 122.958 353.28 117.59Z" fill="white"/>
<path d="M349.763 117.096C349.146 122.218 350.997 124.994 350.997 124.994L487.173 137.458C484.705 130.424 487.852 123.39 488.592 121.909L352.355 109.445C352.417 109.445 350.38 112.099 349.763 117.096Z" fill="#2D2E83"/>
<path d="M488.592 121.909C486.741 123.39 483.903 132.398 487.173 137.458L500.316 138.692C498.896 133.571 499.76 128.018 501.982 123.143L488.592 121.909Z" fill="#19005A"/>
<path d="M500.316 138.692H500.562C500.562 138.692 508.152 132.028 501.982 123.143C497.354 127.586 497.354 135.237 500.316 138.692Z" fill="#2D2E83"/>
<path d="M358.463 110.001C358.463 110.001 354.082 117.837 357.044 125.55" stroke="white" stroke-width="1.4571" stroke-miterlimit="10" stroke-linecap="round" stroke-linejoin="round"/>
<path d="M483.841 121.477C483.841 121.477 479.46 129.313 482.422 137.026" stroke="white" stroke-width="1.4571" stroke-miterlimit="10" stroke-linecap="round" stroke-linejoin="round"/>
<path d="M465.886 122.526C466.503 125.179 464.961 127.154 462.739 127.833C456.261 129.745 430.222 132.707 430.222 132.707C430.222 132.707 426.274 134.003 425.163 134.25C424.176 134.435 422.139 129.622 422.139 129.622C419.918 129.067 420.288 128.203 420.844 127.894L424.793 128.079L427.878 128.82L453.361 120.182L450.461 114.69L465.022 119.071L465.886 122.526Z" fill="#FFD2B4"/>
<path d="M425.718 85.5669C425.842 85.0733 425.163 77.9775 425.163 77.9775C425.163 77.9775 422.695 78.5329 423.188 75.4478C423.62 72.301 426.088 65.3287 426.088 65.3287L430.963 67.7967C430.963 67.7967 429.976 73.5967 430.654 77.4222C431.333 81.2477 432.258 84.5179 432.258 84.5179L425.718 85.5669Z" fill="#FFD2B4"/>
<path d="M425.163 77.9775L428.371 77.3605L425.595 83.037L425.163 77.9775Z" fill="#E6AA83"/>
<path d="M426.212 63.1074C426.212 63.1074 424.669 64.0329 423.867 66.4393C423.867 66.4393 425.595 67.4265 427.878 68.2904L428.865 66.9946L428.988 66.2542L428.865 66.9946L429.173 66.5627L428.865 66.9946L428.68 68.5989C429.112 68.7223 429.482 68.8457 429.914 68.9691C429.914 68.9691 431.518 65.8223 432.875 65.5138C432.875 65.5755 431.024 59.7755 426.212 63.1074Z" fill="#66271F"/>
<path d="M429.975 66.5627L430.716 67.9819L430.777 69.9563C430.777 69.9563 432.505 68.0436 432.197 65.884L430.16 64.5883L429.975 66.5627Z" fill="#66271F"/>
<path d="M266.774 1.96094L213.896 2.02263L213.958 23.0629H219.141V28.4927L224.756 23.0629L266.836 23.0012L266.774 1.96094Z" stroke="white" stroke-width="1.5" stroke-miterlimit="10"/>
<path d="M221.239 10.0439L259.432 9.98224" stroke="#9696C1" stroke-width="1.5" stroke-miterlimit="10"/>
<path d="M221.3 15.2269L259.494 15.1652" stroke="#9696C1" stroke-width="1.5" stroke-miterlimit="10"/>
<path d="M354.144 42.6841H407.022V63.7245H401.84V69.1542L396.225 63.7245H354.144V42.6841Z" stroke="white" stroke-width="1.5" stroke-miterlimit="10"/>
<path d="M399.68 50.7053H361.487" stroke="#FBBE25" stroke-width="1.5" stroke-miterlimit="10" stroke-linecap="round"/>
<path d="M399.68 55.8883H361.487" stroke="#FBBE25" stroke-width="1.5" stroke-miterlimit="10" stroke-linecap="round"/>
<path d="M154.601 142.888C156.513 139.309 164.411 110.556 166.447 105.867L165.152 101.054C165.152 101.054 151.701 93.3413 151.886 93.0328L138.188 95.1306L129.92 125.303L100.612 158.498C108.448 164.175 124.182 173.986 124.182 173.986C124.182 173.986 146.888 157.326 154.601 142.888Z" fill="#FF7045"/>
<path d="M97.9581 169.173L92.1582 167.568C92.1582 167.568 88.3943 177.194 87.5305 184.166L97.156 176.392L101.66 173.924L97.9581 169.173Z" fill="#19005A"/>
<path d="M115.482 165.039L106.226 161.152L96.6008 168.617L101.043 174.417L115.482 165.039Z" fill="white"/>
<path d="M104.437 153.994L132.203 167.013L124.305 175.22L99.9329 159.115L104.437 153.994Z" fill="#C9482E"/>
<path d="M136.152 102.535L145.592 73.0414L170.519 63.6627L183.107 79.7052L192.732 96.7966L136.152 102.535Z" fill="#FF7045"/>
<path d="M204.085 76.1881C197.422 72.486 174.839 81.3094 166.386 85.5668L158.056 89.7625C158.056 89.7625 149.171 94.5753 148.862 94.5136L152.318 118.577L193.349 104.386L217.598 134.558C224.941 128.203 240.304 116.726 240.304 116.726C232.16 105.003 211.86 80.5073 204.085 76.1881Z" fill="#FF7045"/>
<path d="M227.285 139.309L229.26 146.158C229.26 146.158 241.538 141.839 247.647 137.52L234.319 137.211L232.777 133.694L227.285 139.309Z" fill="#19005A"/>
<path d="M230.987 123.699L222.287 129.313L227.285 139.309L232.838 133.756L230.987 123.699Z" fill="white"/>
<path d="M213.094 128.758L235.121 109.507L240.366 116.726L217.66 134.558L213.094 128.758Z" fill="#C9482E"/>
<path d="M125.724 57.616L152.318 56.4437L137.509 35.897C137.509 35.897 116.345 47.1267 114.926 48.9161C113.507 50.7054 105.98 83.8393 104.807 87.4797L101.722 97.3519L110.114 100.807C110.114 100.807 114.186 95.8711 112.458 92.7243C111.286 90.5648 108.139 88.8371 108.139 88.8371C113.384 81.4946 123.194 64.2798 125.724 57.616Z" fill="#F2A03F"/>
<path d="M179.652 62.3053L200.569 42.499C200.569 42.499 166.447 31.1459 154.354 30.5289C142.26 29.9119 116.963 44.2884 116.963 44.2884L132.08 70.018L141.643 66.501L137.818 94.5753L183.354 82.852L179.652 62.3053Z" fill="#FCDC55"/>
<path d="M175.826 34.848L176.011 29.048L178.664 30.4054C178.664 30.4054 181.996 25.7161 181.564 22.1374C181.132 18.5587 179.96 14.2396 179.96 14.2396L171.568 17.3247L171.754 24.1118L169.347 32.9352L163.609 32.0097L170.766 49.2862L179.096 35.8969L175.826 34.848Z" fill="#F2A03F"/>
<path d="M170.643 18.2502C170.643 18.2502 170.396 15.2268 173.605 13.4992C173.852 13.3758 174.037 13.2524 174.283 13.1907L171.877 11.0928C171.877 11.0928 176.135 6.89712 179.466 8.87158C182.798 10.846 182.86 15.3503 180.145 18.497L177.307 15.9673L175.517 16.7694L175.209 20.4715C175.209 20.4715 173.111 18.6205 172.803 20.7183L172.741 25.5928C172.741 25.5928 172.618 25.4693 172.494 25.2225C171.692 24.0502 169.039 20.3481 170.643 18.2502Z" fill="#66271F"/>
<path d="M192.732 0.171569C196.064 0.109867 198.224 -0.32204 198.039 4.12049C197.977 5.84814 196.866 6.89706 194.954 6.95876C193.164 7.02047 192.177 7.08217 192.177 7.08217L192.486 1.34391C192.424 1.40561 192.3 1.96092 192.732 0.171569Z" fill="#FF7045"/>
<path d="M193.905 9.67366C191.807 11.0928 194.213 12.7588 193.041 13.6843L192.177 10.229C192.177 10.229 188.907 11.8332 188.845 12.8205C188.845 12.8205 188.907 15.0417 189.77 16.1523C190.634 17.263 193.658 19.0523 193.658 19.0523L196.99 43.7947L191.251 52.8649L206.677 51.6309C208.898 51.4458 210.317 49.2245 209.577 47.1266L198.902 18.2502C198.902 18.2502 201.247 15.5353 199.149 12.5119C195.57 7.2673 196.311 8.56302 194.768 8.62472C193.226 8.68643 194.398 9.36515 193.905 9.67366Z" fill="#F2A03F"/>
<path d="M200.568 42.499C200.568 42.499 195.879 40.8948 189.647 39.0437C189.647 39.0437 172.617 57.9244 171.383 68.7839L197.792 64.4648L200.568 42.499Z" fill="#FCDC55"/>
<path d="M192.424 1.40564C192.424 1.40564 194.892 10.1056 195.2 11.7098C195.509 13.3141 194.151 18.3736 192.239 13.9311C190.758 10.5992 191.066 7.82263 191.066 7.82263L192.424 1.40564Z" fill="#C9482E"/>
<path d="M176.258 29.1714L172.926 27.2587L175.887 34.4778L176.258 29.1714Z" fill="#DB7A3A"/>
<path d="M189.092 12.1417C189.092 12.1417 191.128 9.92045 191.93 9.79705C192.732 9.67365 193.534 10.4141 193.226 11.3396C192.917 12.2651 191.128 14.4864 191.128 14.4864" fill="#F2A03F"/>
<path d="M156.883 30.3438L170.149 58.2329L183.292 37.1927" stroke="white" stroke-miterlimit="10"/>
<path d="M121.652 41.6352L136.707 68.2904" stroke="white" stroke-miterlimit="10"/>
<path d="M197.175 41.2032L192.979 65.6371" stroke="white" stroke-miterlimit="10"/>
<path d="M335.263 115.677H276.955V151.896H206.245V188.177H135.535V224.458H64.8862V260.677H0.963135" stroke="#2D2E83" stroke-width="2" stroke-miterlimit="10"/>
<path d="M465.207 119.688L440.218 117.405L442.192 106.731L460.394 101.362L465.207 119.688Z" fill="#FF7045"/>
<path d="M312.125 67.2415C312.125 58.6032 305.153 51.5692 296.515 51.5692C287.877 51.5692 280.843 58.5415 280.843 67.1798C280.843 73.967 285.1 79.7052 291.085 81.9265V88.652H301.821V81.9265C307.745 79.7052 312.064 73.967 312.125 67.2415Z" fill="#FBBE25"/>
<path d="M298.826 69.2855L294.013 69.2717L293.959 87.9057L298.772 87.9195L298.826 69.2855Z" stroke="white" stroke-miterlimit="10" stroke-linecap="round"/>
<path d="M293.985 69.2159H291.27C289.789 69.2159 288.555 67.9819 288.555 66.501C288.555 65.0202 289.789 63.7861 291.27 63.7861C292.751 63.7861 293.985 65.0202 293.985 66.501V69.2159Z" stroke="white" stroke-miterlimit="10" stroke-linecap="round"/>
<path d="M301.513 69.2776H298.798V66.5627C298.798 65.0819 300.032 63.8478 301.513 63.8478C302.994 63.8478 304.228 65.0819 304.228 66.5627C304.228 68.0436 302.994 69.2776 301.513 69.2776Z" stroke="white" stroke-miterlimit="10" stroke-linecap="round"/>
<path d="M296.391 97.9072C292.442 97.9072 289.296 94.6987 289.296 90.7498V85.32L303.549 85.3817V90.8115C303.487 94.7604 300.279 97.9072 296.391 97.9072Z" fill="#C5BFD6"/>
<path d="M285.162 61.5649C286.272 59.3436 288.062 57.4926 290.221 56.2585" stroke="white" stroke-width="2" stroke-miterlimit="10" stroke-linecap="round"/>
<path d="M296.885 85.3818L303.487 87.9116" stroke="#A399BD" stroke-width="0.8972" stroke-miterlimit="10"/>
<path d="M289.728 85.32L303.487 90.6263" stroke="#A399BD" stroke-width="0.8972" stroke-miterlimit="10"/>
<path d="M289.296 87.8498L303.117 93.1561" stroke="#A399BD" stroke-width="0.8972" stroke-miterlimit="10"/>
<path d="M289.296 90.5647L301.821 95.3774" stroke="#A399BD" stroke-width="0.8972" stroke-miterlimit="10"/>
<path d="M289.789 93.5264L299.415 97.2285" stroke="#A399BD" stroke-width="0.8972" stroke-miterlimit="10"/>
<path d="M296.515 40.7714V45.4607" stroke="#F8C208" stroke-width="2" stroke-miterlimit="10" stroke-linecap="round"/>
<path d="M278.066 48.3607L281.398 51.6926" stroke="#F8C208" stroke-width="2" stroke-miterlimit="10" stroke-linecap="round"/>
<path d="M314.902 48.4224L311.57 51.7543" stroke="#F8C208" stroke-width="2" stroke-miterlimit="10" stroke-linecap="round"/>
</svg>
