<svg xmlns="http://www.w3.org/2000/svg" viewBox="0 0 377.5 176.92"><defs><style>.cls-1{fill:none;}.cls-1,.cls-2{stroke:#bab2cd;stroke-miterlimit:10;stroke-width:1.6px;}.cls-2{fill:#efedf3;}.cls-3{fill:#fb6649;}.cls-4{fill:#ffa951;}.cls-5{fill:#fff;}.cls-6{fill:#19005a;}.cls-7{fill:#2b388f;}</style></defs><title>illu-expertise</title><g id="Calque_2" data-name="Calque 2"><g id="contenu"><polyline class="cls-1" points="22.07 176.28 103.1 114.07 143.36 127.53 179.66 93.38 227.6 105.35 258.44 80.32 280.24 87.68 316.34 57.87"/><circle class="cls-2" cx="103.25" cy="114.54" r="2.13"/><path class="cls-3" d="M0,99.33c2.59-4.44,2.78-11.26,3.13-17C11.88,87,22.05,89.4,31,93.08c-2.21,4.18-5.13,10.3-10,11.42"/><path class="cls-4" d="M1.92,98.51c5.48,0,9.61-2.64,13.61-5.06,8.93,8.41,20.33,11.52,30,17.06-13,5.88-28.36-1.75-43.92-11.33"/><path class="cls-5" d="M1.92,98.51c5.48,0,9.61-2.64,13.61-5.06,8.93,8.41,20.33,11.52,30,17.06-13,5.88-28.36-1.75-43.92-11.33"/><path class="cls-6" d="M119.33,55.44c-3.43-1.69-7.16-2.53-10.44-4.15a113.74,113.74,0,0,0-11.6,27.08c11.07-1.78,20.87,6.51,30.6,10.52,1.09-3.83,2.56-7.67,3.9-11.52,1-2.85,3.12-7.44,3.27-10.45"/><path class="cls-7" d="M128.76,50.9c3.8,3,8.25,4.65,12.35,7.37-2,5.86-5.54,11.26-7.67,17.08-.93,2.56-1.89,5.33-2.6,8-.32,1.22-1.47,6.17-3.29,5.49-.79-.3-1.4-1.39-2.11-1.9-.9-.64-2-1.06-2.87-1.66a50.23,50.23,0,0,1-6.76-5.35c-2-1.83-4.37-3.85-6.33-5.93-1.62-1.72-2.18-4.23-3.84-5.89-.5-.5,4.09-8,4.57-8.81C112,56,114,52.86,116,49.73c1.73-2.7,3.71-5.17,5.34-7.93,1.47.67,1.9,2.82,2.74,4.09A22.27,22.27,0,0,0,128.76,50.9Z"/><path class="cls-3" d="M129.59,88.41c-3.59-4.12-6.92-10.91-8.73-16.06-1.53-4.35,1.37-6.7,4-10.21,5.93-7.89,11.56-16.24,18.47-23.3-1.54,3.17-3.18,7-2.71,10.64.34,2.67,2,5.11,1.68,7.93"/><path class="cls-3" d="M255.25.52C253.48-1,249.5,1,248.11,3.34c4.22,1.17,8.78,1.55,12.94,2.82"/><path class="cls-4" d="M247.55,19A28.81,28.81,0,0,0,255.81.89c5.4,2.36,11.44,3.51,17.14,5,3.05.81,7.48,1.46,10.14,3.28-.53,3.38.1,6.75-.69,10.13-.93,3.93-3.72,5.17-5.42,8.43"/><path class="cls-7" d="M248.67,19.85c3.51-3.22,10.53-4.66,14.7-6.2,3.19-1.17,3.92.39,6.59,1.37,3.32,1.2,6.61,2.47,9.91,3.71,4.7,1.76,8.85,4.17,13.62,5.71-3.71,1.73-9,2.06-12.76,2.78-1.94.36-3.88,1.24-5.8,1.65-2.13.46-3.29-.69-5.16-1.74a42,42,0,0,0-11.34-4.41c-4-.87-7.39-3.06-11.61-2.87a40.15,40.15,0,0,1,8.63-4c2.22-.63,5.8-1.09,7.52-2.15"/><path class="cls-3" d="M213.62,80.11c-1.75.51-4.06,1.94-5.82,2-2.21.11-2.21-2.25-3-3.94-1.69-3.74-4.27-7-5.75-10.85,1.82.33,3.91-.91,5.58-1.46,2.12-.71,4.29-1.07,6.38-1.85a24.88,24.88,0,0,1,5.06-1.63,29.89,29.89,0,0,1,3.53,7c.2.72.23,1.56.48,2.27.42,1.18,2.43,3.46,2.1,4.78s-3.57,2.06-4.7,2.45C216.21,79.37,214.91,79.74,213.62,80.11Z"/><path class="cls-7" d="M212.87,80.41c1.63-.65,3.21-1.43,4.86-2,1.35-.48,3.54-.45,4.65-1.33,2.37-1.88,1.87-6.61,2.41-9.24.4-2,2.11-5.86,4.46-6.49a25.4,25.4,0,0,0-4,1.24c-3.24,1-6.42,1.54-9.58,2.91-5.95,2.58-2.72,12.89-7,16.85C209.46,82.52,212,80.76,212.87,80.41Z"/><path class="cls-4" d="M231.55,70.79l.86-.19c-.21,0-1.54,2.69-1.87,3.07a10.2,10.2,0,0,1-3,2.36,64.27,64.27,0,0,1-7.11,2.72c-2.22.85-4.48,1.61-6.65,2.56-1.75.77-3.77.72-5.49,1.46,3.72-1.61,5.1-6.39,7.66-9.28,2.82.77,7.4-.82,10.25-1.45C228,71.64,229.77,71.19,231.55,70.79Z"/><path class="cls-7" d="M354,106.72c-1.07-4.26-4.23-8.26-6.81-11.75,5.73-3.22,10.94-8.71,16.26-12.63,1.1,3.86,2.83,9.3,1.42,13.19"/><path class="cls-6" d="M354.33,105c2.2-3.67,2.6-7.95,3.05-12C365,91.72,371,85.82,377.5,82.47c-2.45,12.1-12.2,18.06-23,23.08"/><path class="cls-4" d="M183.39,16.41a3.26,3.26,0,0,1-1-1.14,26.6,26.6,0,0,0-2.35-3.1,17.6,17.6,0,0,0-1.52-1.59,15.44,15.44,0,0,1-1.82-1.4,5,5,0,0,0-1.14-1.11c.55.52,1.72-.19,2.29-.42A22.25,22.25,0,0,0,180,6.73"/><path class="cls-3" d="M179.89,25.54l-.09.17c-.32-.46-.41-1-.7-1.5-1-1.77-2-3.58-3.06-5.36a11.65,11.65,0,0,0-1.47-1.94c-.23-.26-.84-.75-.95-1.05-.18-.46.19-.83.52-1.25.58-.74,1.31-1.24,1.86-2a23.64,23.64,0,0,1,2.3-2.77,5.7,5.7,0,0,0,1-1.73,12,12,0,0,1,.72-1.36,6.35,6.35,0,0,0,.52,1.17c.4.9.95,1.72,1.32,2.64s.57,1.9,1,2.82a19.16,19.16,0,0,1,.89,1.82,13,13,0,0,0,.46,1.57c.14.31.67.78.13,1a5,5,0,0,1-.52,1.67c-.2.42-.54.62-.72,1.09a17.7,17.7,0,0,1-.67,2,17,17,0,0,1-1.25,2.35C180.81,25.38,180.43,25.92,179.89,25.54Z"/><circle class="cls-2" cx="143.06" cy="127.58" r="2.13"/><circle class="cls-2" cx="178.79" cy="93.43" r="2.13"/><circle class="cls-2" cx="227.76" cy="105.21" r="2.13"/><circle class="cls-2" cx="258.14" cy="80.41" r="2.13"/><circle class="cls-2" cx="280.23" cy="87.68" r="2.13"/></g></g></svg>