<svg xmlns="http://www.w3.org/2000/svg" viewBox="0 0 233.69 220.83"><defs><style>.cls-1{fill:#ffede9;}.cls-2{fill:#2d2e83;}.cls-3{fill:#fb6649;}.cls-4{fill:#fbbe25;}.cls-5{fill:#e94e1b;}.cls-6{fill:#ff9257;}.cls-7{fill:#8f5fa4;}.cls-8{fill:#ff6b90;}</style></defs><g id="Layer_2" data-name="Layer 2"><g id="contenu"><path class="cls-1" d="M183.21,212.3s-127.12,37.78-161-45.66S33.61,34.08,46.34,23s115.78-56.95,165.2,23.82c52.57,85.91-5.27,148.86-5.27,148.86Z"/><path class="cls-2" d="M228.07,139.11v.62c-3.59,1.56-7.9,2.33-9.76,6.2-2.18,4-4.79,7.83-6.22,12.17-1.28-2.82-4.21-2.79-6.87-3.24a1.91,1.91,0,0,0-3.1.64c-3.28,7.05-7.3,13.89-10.65,20.84-4.06,15.5-.64,10.32,6.46,20.77,2.61,8.52-1.62,17.22-11,16.43a16.77,16.77,0,0,0-5.39,2.94c-2.93.43-5.86,1-8.81,1.24a32.37,32.37,0,0,0-3.42-9.85c-.73-1-4.34-.78-5.75-.78a12,12,0,0,0-4.44-6.66c-2.1-1.34-4.77-1.74-7.06-2.83-5-2.21-10.92-6.25-16.11-7.24-.27-3.46,2.1-9.36.27-12.14-5.79-5.07-1.93-14.53.61-19.58-17.89,3.34-.8,13.47-22.29,17.42-6.14,2.08-15.77-2.49-21.62-5.76,1.43-1.89,5.13-3.78,4.43-6.44-7.23-4.34-4.13-8.45-1-14.29.6-1.4,1.3-2.55-.41-3.49-4,8.13-2.94-11.8-15.64-5.23-3.74-.53-10.77-2.86-12.27,2.4-3-2.43-3.45-5.21-3-8.87.17-5.9-1.89-9.48-8.55-8.58-1.93,0-1.26-1.52-.91-2.71-18,10.19-13.05-18.45-22.34-24.9-8.17,1.56-14.73,13.17-20.54,2.68C10,97.37,4.59,94.62,3.32,90.3,3,87.61,4.66,84.61,4.16,82,3.5,77.39.69,73.15,0,68.57c15.63-7.69,30.92-16.15,46.47-24a3.85,3.85,0,0,1,2.64,0,18.25,18.25,0,0,0,3.63,10.7c3.67,1.62,9-3.89,12.55-3.57,3,.23,5.78,2.67,8.62,4.23.15.09-.2,1.26-.11,1.28,2.15.66,4.4,1.9,6.48,1.66C91.76,58,96.72,41,109.2,44.69c-.74-1.83-1.83-6.6-1.14-7.79a77.09,77.09,0,0,1,9.22-2.43,13.34,13.34,0,0,1-.24,4.08c7.6,1.38,8.39-1.95,12.84-6.95h1.25a74.55,74.55,0,0,1,7.71,9.8c2.52-2.86,4.92-5.68,8.74-6.75,2.94,15,5.47,8.4,10.11,18.63,6.09,0,12.95-2.4,18.63.69,5.8,4.13,14,6.93,16,14.44a82.36,82.36,0,0,0-9,21.59c-.61,2.84,1.1,6.19,1.84,9.29,3.9.59,8.56,1.55,12.41,1,6.95-1.31,11,2.29,14.85,7,2.09,3.76,2,4.77,6.85,4.91-1.84,2.54-4.45,5.77-3.83,9,1.51,1.83,7.39,2.41,8.53,4.74C225.7,130.11,226.73,134.68,228.07,139.11Z"/><path class="cls-3" d="M207.5,60.74c1.23-.83,2.37-1.64,3.55-2.4a49.43,49.43,0,0,1,11.72-5.46c2.45-.8,5-1.46,7.48-2a17,17,0,0,1,3.44-.07A257.35,257.35,0,0,0,226.36,78c-1.83-2.42-3.69-4.82-5.46-7.28a19,19,0,0,0-5.48-5C212.81,64.13,210.22,62.47,207.5,60.74Z"/><path class="cls-4" d="M105.3,83.48a6.75,6.75,0,0,1,2,.25q13.47,6.48,26.9,13.06c1.28.63,2.45,1.47,4,2.4-9.82,4.92-17.69,11.94-26.27,18.71a49.51,49.51,0,0,1-1.91-4.66,106.62,106.62,0,0,1-4.16-23.17C105.64,88,105.48,85.88,105.3,83.48Z"/><path class="cls-5" d="M167.79,145.3c.14,1.56.19,3.14.45,4.68.67,4.07,1.42,8.13,2.15,12.25l-.6-.21-5.41-2.2a43.64,43.64,0,0,0-11-2.31c2.63-2.34,5.25-4.7,7.91-7,2-1.73,4-3.39,6.06-5.08Z"/><path class="cls-6" d="M59.79,79.36c-1.12-.91-2.19-1.88-3.37-2.71-3.11-2.17-6.26-4.28-9.45-6.44L47.5,70l4.93-2.15A40.37,40.37,0,0,0,61,62.06c-.15,3.23-.27,6.47-.46,9.71-.14,2.42-.37,4.83-.55,7.25Z"/><path class="cls-7" d="M183.38,21.54c-.77.55-1.5,1.07-2.24,1.57a34.45,34.45,0,0,1-7.39,3.68c-1.54.57-3.11,1.05-4.7,1.48a11.62,11.62,0,0,1-2.16.16,155.47,155.47,0,0,0,4.74-16.57c1.14,1.38,2.29,2.75,3.39,4.16a10.66,10.66,0,0,0,3.41,2.8Z"/><path class="cls-8" d="M41.93,170.65c-.92-.65-1.8-1.24-2.66-1.87A42.21,42.21,0,0,1,32.14,162c-1.27-1.49-2.45-3.05-3.58-4.64a14.25,14.25,0,0,1-1.08-2.33,184.25,184.25,0,0,0,20.25-1.24c-1.06,1.8-2.09,3.62-3.18,5.39a12.44,12.44,0,0,0-1.68,4.88C42.58,166.25,42.26,168.4,41.93,170.65Z"/></g></g></svg>