<?xml version="1.0" encoding="utf-8"?>
<svg xmlns="http://www.w3.org/2000/svg" viewBox="0 0 656.4 507.57"><defs><style>.cls-1{isolation:isolate;}.cls-11,.cls-15,.cls-2,.cls-21,.cls-24,.cls-3{fill:none;stroke-miterlimit:10;}.cls-2,.cls-3{stroke:#fff;}.cls-2{stroke-width:1.66px;}.cls-3{stroke-width:1.65px;stroke-dasharray:14.78 14.78;}.cls-4{fill:#fff;}.cls-5{fill:#fcdc55;}.cls-6{fill:#bd3c2b;}.cls-7{fill:#ff7045;}.cls-8{fill:#e6e6e6;mix-blend-mode:multiply;}.cls-9{fill:#ffbca8;}.cls-10,.cls-17{fill:#19005a;}.cls-10{opacity:0.2;}.cls-11,.cls-21{stroke:#19005a;}.cls-11{stroke-linecap:round;stroke-width:3px;}.cls-12{fill:#ffd2b4;}.cls-13{fill:#66271f;}.cls-14{fill:#e6aa83;}.cls-15{stroke:#cabfda;stroke-width:1.5px;}.cls-16{fill:#e69965;}.cls-18{fill:#b85131;}.cls-19{fill:#563328;}.cls-20{fill:#2d2e83;}.cls-21{stroke-width:1.6px;}.cls-22{fill:#cc614f;}.cls-23{fill:#fb6649;}.cls-24{stroke:#cec9e2;stroke-width:1.23px;}.cls-25{fill:#fdb6a8;}.cls-26{fill:#ffa951;}.cls-27{fill:#2b388f;}</style></defs><g class="cls-1"><g id="Layer_2" data-name="Layer 2"><g id="contenu"><path class="cls-2" d="M398.94,39.15a173.18,173.18,0,0,1,49.6,21.57c16.12,10.44,29.72,23.87,39.33,39.09,9,14.2,16.85,32.29,13.26,48.24-1.39,6.2-4.14,12.62-2.08,18.61,2.57,7.43,11.47,11.39,19.31,15,27.69,12.87,67,22.11,75.87,48.39,5.12,15.25,4.46,31.69,1.22,47.49-12.23,59.62-47,128-110.34,153.91s-167.69,20.74-231.71-1.27c-24-8.26-47.65-20.33-60.33-39.82s-10.61-47.76,10.27-61.67c21.55-14.34,55.25-9.9,73.82-27.12,18.12-16.82,10.27-45.11-7.59-61.42-10.55-9.63-27.89-16.9-41.07-9.58-10.72,5.94-14.22,19.36-25.74,24-10.25,4.13-22.24-.56-33.26,1.4-12.11,2.15-20.51,11.67-31,17.51-29.18,16.3-67.55,1.27-92.79-18.44-11.37-8.87-22.08-19.18-26.33-32S19.06,194.41,32,186.8c9.64-5.68,22.5-6,31.71-12.23,20.52-13.83,8.21-41.11,4.23-63.08-5.87-32.42,14.24-67.68,47.75-83.75,7.5-3.59,15.87-6.34,24.33-5.9,29.44,1.53,43.31,38.51,72.83,38.87,10.28.13,19.85-4.46,29.25-8.25a288.75,288.75,0,0,1,67.84-18,245,245,0,0,1,38.54-2.33A213.11,213.11,0,0,1,398.94,39.15Z"/><path class="cls-3" d="M654.8,244.51c.37-3.47-.74-7.42-1.35-10.73a154.42,154.42,0,0,0-7-25.36,169.4,169.4,0,0,0-64.77-81.81,151.64,151.64,0,0,0-83.4-25.39,162.77,162.77,0,0,0-52.5,8.22,153.1,153.1,0,0,0-46.5,24.79q-4.79,3.77-9.23,7.91c-3.12,2.92-5.15,6.35-7.78,9.71A153.47,153.47,0,0,0,356,202.42c-1.17,3.89-2.47,7.93-2.54,12.05,0,2.9.78,5.65,1.33,8.48.84,4.35.67,8.69.81,13.07.16,5.31.57,10.62,1.24,15.9,1.15,9.17,2.26,19.62,7.16,27.64,1.82,3,2.66,6.59,4,9.8a148.63,148.63,0,0,0,14.07,26.55,141.69,141.69,0,0,0,8.79,11.77C422,365.15,471.12,386,520.65,385.79a151.25,151.25,0,0,0,36.2-4.36,122,122,0,0,0,17.33-5.7c4.2-1.75,8.09-4,12.19-5.93,3.45-1.61,6.32-2.14,9.22-4.83a175.29,175.29,0,0,0,19.46-21.39,189.39,189.39,0,0,0,27.88-50.66A192.36,192.36,0,0,0,652.85,253a49.61,49.61,0,0,1,1.63-6.78A9.63,9.63,0,0,0,654.8,244.51Z"/><path class="cls-4" d="M79.3,406.5l-.57.34.57-.33Z"/><path class="cls-5" d="M569,149.31c6-9.15,6.29-27.47,7.13-36.46,1-10.69.22-18.09-1.8-21.19-1.81-2.76-3.5-6.93-11.23-8.09a209.59,209.59,0,0,0-31.8-1.83,280.57,280.57,0,0,0-33.17,3.76c-12.66,2.77-13.26,15.53-13.57,20.13-.42,6.36.52,35.79,2.22,41,3.12,9.51,6.16,10.37,16.4,11.14s40.32,3.55,46.64,3.47C558.34,161.11,564.51,156.11,569,149.31Z"/><polyline class="cls-5" points="552.84 150.3 527.24 180.28 529.86 151.71"/><path class="cls-6" d="M339.29,230.15l55,18.48L376.1,321.51l-35.31-9a21.56,21.56,0,0,1-15.58-26.12Z"/><path class="cls-7" d="M430.35,278.29,388.2,446.56c-1.7,6.9-7.92,11.43-14.44,10.49L338.2,452l-2.68-.38-.55-.11h-.07a6.45,6.45,0,0,1-5.37-7.95L374.25,264Z"/><path class="cls-8" d="M430.35,278.29,388.2,446.56c-1.7,6.9-7.92,11.43-14.44,10.49L338.2,452l-2.68-.38-.55-.11h-.07a6.45,6.45,0,0,1-5.37-7.95L374.25,264Z"/><path class="cls-8" d="M330.52,439.51l-1,4a6.45,6.45,0,0,0,5.37,7.95H335l.55.11,2.68.38,35.56,5.09c6,.86,11.75-2.91,13.94-8.9Z"/><path class="cls-9" d="M95.69,279.56c2.16-15.93,4.56-31.77,7.75-47.52q4.44-21.85,10-43.56l.69-2.75q8.52-32.89,19.47-65.16l.87-2.59q11.28-33,24.91-65.08C166,37.39,172.54,20.37,182.71,6.75c7.51-10.07,19.4-7.1,28.82-1.42.81.49,1.61,1,2.4,1.53L212.51,9c-9.11,14-15.15,30.47-21.39,45.9-8.47,20.9-16.35,42-24,63.27-5,14.11-10.23,28.25-14.49,42.63C145.85,184,140.22,207.52,134.83,231c-6.08,26.57-12.33,53.53-15.11,80.7l-.29,3a41.87,41.87,0,0,1-7.56.93c-4.16.1-8.36-1-11.43-3.89C92.16,303.92,94.35,289.52,95.69,279.56Z"/><path class="cls-7" d="M119.72,311.72c2.78-27.17,9-54.13,15.11-80.7,5.39-23.5,11-47.05,17.85-70.18,4.26-14.38,9.44-28.52,14.49-42.63,7.6-21.23,15.48-42.37,24-63.27C197.36,39.51,203.4,23.08,212.51,9l1.42-2.18c10.23,6.76,18.6,16,27,24.87,41.82,43.87,85.33,88,138.67,117.92q10,5.61,20.54,10.37l-.71,2.6c-9.74,38.68-20.92,76.95-32.46,115.12l-.8,2.57c-32.58-4.47-65.56-6.15-98.28-2.19-29,3.49-57.08,11.31-85.06,19.25-16.08,4.56-32.16,9.12-48.33,13.3-4.88,1.28-10,3-15.09,4Z"/><path class="cls-9" d="M366.19,280.31l4.17.57q7.08,1.9,14.19,3.68l2.6.65q29.44,7.32,59.33,12.68l2.65.47.29.05c4.42.77,10,2.63,14.48,1.72,3.7-.74,6.12-3.86,8.44-6.57a134.72,134.72,0,0,0,16.78-24.68,137.6,137.6,0,0,0,15.75-55.71c.51-8.46,1-18.13-6-24.18s-17.84-7.56-26.44-9.94q-35.35-9.8-71-18.45l-1.27-.58-.71,2.6c-9.74,38.68-20.92,76.95-32.46,115.12Z"/><path class="cls-7" d="M89.39,136.85c-3.39,8.88-7.67,20-2.5,29,5.36,9.4,18.11,13.67,26.66,19.49.12.08.45.27.58.38q8.52-32.89,19.47-65.16c-8.09-.78-16.16-1.92-24.29-2.07-4-.07-7.53-.26-10.57,2.55C94.13,125.3,91.59,131.1,89.39,136.85Z"/><path class="cls-8" d="M116.51,168.5c-.8,3-1.6,14.22-2.38,17.23-.13-.11-.46-.3-.58-.38-8.55-5.82-21.3-10.09-26.66-19.49-4.38-7.64-2-16.77.92-24.79C90,159.63,104.61,162.47,116.51,168.5Z"/><path class="cls-8" d="M486.23,274a134.4,134.4,0,0,1-13.89,19.52c-2.32,2.71-4.74,5.83-8.44,6.57-4.52.91-10.06-.95-14.48-1.72l-.29-.05-2.65-.47q-29.87-5.36-59.33-12.68l-2.6-.65q-7.11-1.79-14.19-3.68l-4.17-.57c-32.58-4.47-65.56-6.15-98.28-2.19-29,3.49-57.08,11.31-85.06,19.25-16.08,4.56-32.16,9.12-48.33,13.3-4.88,1.28-10,3-15.09,4a41.87,41.87,0,0,1-7.56.93c-4.16.1-8.36-1-11.43-3.89-8.28-7.83-6.09-22.23-4.75-32.19q1.49-11.06,3.21-22C302.13,208.91,418.29,255.27,486.23,274Z"/><ellipse class="cls-10" cx="310.44" cy="502.33" rx="215.31" ry="5.24"/><line class="cls-11" x1="483.17" y1="185.44" x2="511.14" y2="500.5"/><line class="cls-11" x1="455.2" y1="500.5" x2="427.23" y2="185.44"/><line class="cls-11" x1="429.35" y1="209.26" x2="485.29" y2="209.26"/><line class="cls-11" x1="433.3" y1="253.83" x2="489.24" y2="253.83"/><line class="cls-11" x1="437.26" y1="298.4" x2="493.2" y2="298.4"/><line class="cls-11" x1="441.22" y1="342.97" x2="497.16" y2="342.97"/><line class="cls-11" x1="445.17" y1="387.54" x2="501.11" y2="387.54"/><line class="cls-11" x1="449.13" y1="432.11" x2="505.07" y2="432.11"/><line class="cls-11" x1="453.09" y1="476.68" x2="509.03" y2="476.68"/><path class="cls-12" d="M511,224.5c-4.75-2.78-24.09-16.17-27.26-18.53-4.44-3.3-5.23-9.51-6.82-14.52a2.87,2.87,0,0,0-.67-1.28,1,1,0,0,0-1.32-.09l2,8.23a13.65,13.65,0,0,0-4.16,1.19,1,1,0,0,0-.52.6,1,1,0,0,0,.13.6l1.69,3.91c.47-.26,1.66.36,2.19.26a1.87,1.87,0,0,0,2.64,1.38c2.72,3.33,7.21,10.12,8.67,11.82,4.55,5.3,12.52,16.07,18.23,20.14.06-.05.44.26,1.06.82l7.25-11.63C512.25,225.62,511,224.5,511,224.5Z"/><ellipse class="cls-13" cx="546.42" cy="215.37" rx="6.93" ry="4.84" transform="translate(99.75 596.74) rotate(-62)"/><ellipse class="cls-13" cx="538.86" cy="213.4" rx="10.98" ry="8.96" transform="translate(162.69 654.31) rotate(-71.14)"/><ellipse class="cls-13" cx="547.77" cy="240.4" rx="16.7" ry="20.45" transform="translate(-45.59 164.43) rotate(-16.4)"/><path class="cls-7" d="M516.3,260.46s3.71,12.45,3.1,15.24l-1.83,5.82,31.95,2.35.77-8.22L559,257a14,14,0,0,0-8.69-19.36c-3-.89-6.3-1.92-9.75-3.06-14.33-4.76-18.71-7.27-36.25-14.71l-3.71,25.43S503.91,249.09,516.3,260.46Z"/><path class="cls-12" d="M545,238.73l-.44-18.36,1.63-9.16s-5.91-2.26-8.42.82a16.09,16.09,0,0,0-3,7.4s-1.54,5.32.52,5.36,3.67-.09,3.67-.09l-3.18,13.87Z"/><path class="cls-13" d="M541.85,208.91l6,1.65-.81,7.51-2.07-1.83a9.43,9.43,0,0,1-3.09-7.33Z"/><ellipse class="cls-12" cx="544.81" cy="218.38" rx="2.8" ry="1.72" transform="translate(33.8 507.13) rotate(-51.31)"/><path class="cls-12" d="M539.43,233.92c3.12,1,6,1.94,8.52,3-3.6,17.86-26.92,12-17.56-6C532.89,232.15,535.61,232.71,539.43,233.92Z"/><polygon class="cls-14" points="538.97 224.7 541.98 224.3 537.12 232.79 538.97 224.7"/><polygon class="cls-12" points="464.35 339.25 469.19 317.81 477.37 318.26 469.94 339.93 464.35 339.25"/><polygon class="cls-12" points="478.88 411.63 467.97 429.81 463.09 429.31 470.18 407.96 478.88 411.63"/><path class="cls-4" d="M550.65,293l-1.13-9.13-31.95-2.35c.64-1.31-31.3,62.83-37,77.89-5.19,13.86-20.48,51.41-20.48,51.41l19.72,3.09,25-46.14s18.76-29.62,22.08-32.72L542.12,319A32.07,32.07,0,0,0,550.65,293Z"/><polygon class="cls-13" points="470.21 339.59 465.38 352.52 448.8 339.74 463.16 342.27 464.43 338.4 470.21 339.59"/><polygon class="cls-13" points="468.31 429.84 463.17 438.56 445.85 427.19 461.57 429.81 463.55 427.4 468.31 429.84"/><line class="cls-11" x1="455.2" y1="500.5" x2="427.23" y2="185.44"/><path class="cls-4" d="M517.57,281.52,485,270.87a10.56,10.56,0,0,0-13.7,8.3l-11.83,48.32,14.22,6.75,12.6-29.91L513.49,317l18-27.49Z"/><path class="cls-12" d="M474.51,249.53a2.51,2.51,0,0,0-1.11.7,5.78,5.78,0,0,0-.76,2.16,3.06,3.06,0,0,1,3.07,2.26c.37,1.36,3,.8,3.65,1,3.61.9,4.63,1.18,6.45,1.66,2.57.67,5.14,1.3,7.72,1.92,5.16,1.22,10.34,2.37,15.49,3.62L537.37,264s3.3-15.24,2.83-15.23c-2.47.08-29.35,3.92-29.35,3.92l-21-.75c-2.83-.1-5.16-.19-7.82-1.38a16,16,0,0,0-2.47-1,11.67,11.67,0,0,0-2.77-.25A7.44,7.44,0,0,0,474.51,249.53Z"/><line class="cls-15" x1="502.15" y1="312.9" x2="517.57" y2="281.52"/><polyline class="cls-7" points="547.95 236.95 518.93 243.65 532.26 272.3 550.9 266.68 557.44 245.21"/><polygon class="cls-16" points="349.75 199.52 337.51 199.52 347.2 228.02 354.62 224.57 349.75 199.52"/><polygon class="cls-17" points="359.41 231.32 354.62 224.57 347.2 228.02 333.23 241.84 359.41 231.32"/><path class="cls-16" d="M350,92.38,303.2,93.46l-5-4.45-7.48-7.07,8,.44,11.36,5.81s32.3-7.91,37.78-9.89l29.6-17.51,4.65,20.95Z"/><polygon class="cls-18" points="384.37 83.58 365.44 100.27 348.87 80.01 384.37 54.6 384.37 83.58"/><path class="cls-16" d="M345.92,29.54,295.5,20.69c-.46,1.73-1.4,3.12-1.74,4.92,6.18,2.43,37.8,14.3,50.34,18.06Z"/><path class="cls-16" d="M376,28.17s-4.05,1.25-3.53-4.28a96.88,96.88,0,0,1,2.58-13.19s1.16-3.6,5.77-2.55,6,3,4.72,7.14a56.9,56.9,0,0,1-2.65,6.91l4.32,14.47L375.45,33.1Z"/><path class="cls-7" d="M336.71,98.72c.08.22,22-38,22-38l-15.3-4.39-2.47-30.38,39.79,6.22S392,35.72,395.25,49.56c6.36,26.67-13.11,68.91-13.11,68.91L336.71,98.72"/><path class="cls-19" d="M379.88,12.1a14.59,14.59,0,0,0-.79,4.13c0,.46,0,.68.42.72.12,0,.24,0,.35.06a1.45,1.45,0,0,1,1,1,2.42,2.42,0,0,1-.24,1.29,17.47,17.47,0,0,1-.9,1.91c1,.25,3.2,1,3.2,1a7.86,7.86,0,0,1,3-3.28,2.52,2.52,0,0,1,1-.1,1.7,1.7,0,0,1,1.06.38,13.55,13.55,0,0,0,1.49.71,13,13,0,0,0,3.19.8c.4,0,.87,0,1.09-.29a1,1,0,0,0,.12-.67,2.81,2.81,0,0,0-2.1-2.32l4.29.46a4.17,4.17,0,0,0,1.17,0,1.37,1.37,0,0,0,1-.6,1.72,1.72,0,0,0-.15-1.69,7.83,7.83,0,0,0-3.92-3,9.8,9.8,0,0,1-1.65-.83,3.52,3.52,0,0,1,1.88-.38l4-.05a1.92,1.92,0,0,0,1.54-.5,1.44,1.44,0,0,0,.25-.91A4.18,4.18,0,0,0,399,7.18a9,9,0,0,0-2.49-1.77c-.32-.17-.65-.33-1-.48-.53-.24-1.07-.46-1.61-.66L393.07,4c-.27-.08-.55-.14-.81-.24a4.92,4.92,0,0,0-.45-.24c-.22-.07-.45-.11-.67-.17a8.31,8.31,0,0,0-.88-.31c-.37-.06-.74-.11-1.12-.15a14.21,14.21,0,0,0-2.26,0,12.83,12.83,0,0,0-2.23.38c-.37.09-.73.21-1.09.33a3.46,3.46,0,0,0-1,.41c.93-.9,1.83-1.83,2.7-2.77.18-.2.38-.44.32-.7s-.43-.44-.75-.48a6,6,0,0,0-3.94,1,12,12,0,0,0-3,2.82,15.81,15.81,0,0,0-2.12,3.41,10.55,10.55,0,0,0-.62,1.9A5.32,5.32,0,0,0,375,11C376.58,11.44,378.24,11.79,379.88,12.1Z"/><path class="cls-20" d="M336.71,98.72,319.84,108l10.66,9.31s-7.47,23.13-10.12,33.72l15.4,65.83,25.83-5.7-9-53.23,29.5-39.49Z"/><path class="cls-16" d="M378.15,17.44a5.27,5.27,0,0,1,1.15-1.56,1.8,1.8,0,0,1,1.82-.34,2.27,2.27,0,0,1,1,2.12,5.72,5.72,0,0,1-.84,3.19,4.23,4.23,0,0,1-2.68,1.88"/><path class="cls-16" d="M285.37,14.26l-18-3.16,2.28,3.12L280.72,17l1.72,8.44,5.14,1.95L292,25s4.86,1.1,5.7.34c2.8-1.44-1.13-4.46-1.13-4.46Z"/><line class="cls-21" x1="330.5" y1="117.34" x2="334.69" y2="107.09"/><path class="cls-13" d="M246.48,424.28l-14.78,5.91h24.6l-3.87-11.14-7,1.46A27.71,27.71,0,0,0,246.48,424.28Z"/><polygon class="cls-4" points="238.76 396.95 245.39 420.52 252.43 419.06 248.21 396.15 238.76 396.95"/><path class="cls-12" d="M244.59,321.84a2.09,2.09,0,0,1-2.41,1.91c-3.48-.53-13.69,0-13.69,0s-22.09-3-23.53-3.22c-.73-.11-1.39-.05-2.11-.09-2.4-.1-4.64-.69-6.89.29s-4.34,1.9-6.42,3.06c-.56.32-1.26.65-1.82.32-.3-.15,3.75-5.09,4-5.36-.06-.39-.61-.4-1-.32s-.95,0-.93-.39a24.8,24.8,0,0,1,5.24-3.11c2.06-.85,4.57-.71,6.74-.85l12.59-.81,14.53-.94,7-.46Z"/><path class="cls-12" d="M331.52,334.91a3.52,3.52,0,0,1-.23,4s-16.38,19.95-17.84,23.7c-.32.83-1.74,8.74-1.74,8.74l-2.18-5.29s-1-2.79-1.25-3.79c-.44-2.06,2.28-5,3.15-6.82,1-2,7.28-15.09,7.28-15.09l-9.92-6c1.52-1.44,12.48-2.83,13.93-6Z"/><path class="cls-5" d="M238.27,337.28l-8.24-26,31,0,10.82-.06,4.92.12A88.13,88.13,0,0,1,317,322.21l9.52,5.21-11.27,20.13-9.64-2.76,2,12.34-40.93,3.56-6.05-20.86Z"/><path class="cls-12" d="M273,315.41c0-.53.36-8.5.36-8.5s-2.5,1.24-2.86-2.12.36-11.24.36-11.24l6,1.28,5.08,19.52Z"/><path class="cls-17" d="M307.37,357.14l31.09,119.61-23.52-2.08-34-78.52L252.43,390l3.81,24.57-21.06-3.66-8.09-42.49a5.71,5.71,0,0,1,5.28-6.78Z"/><polygon class="cls-4" points="337.3 476.2 324.21 475.25 334.86 493.47 341.56 490.94 337.3 476.2"/><polygon class="cls-13" points="341.79 491.75 341.56 490.94 334.86 493.47 335.37 494.35 336.8 499.54 352.74 501.43 341.79 491.75"/><polygon class="cls-14" points="273.32 306.91 276.67 306.12 273.43 311.74 273.32 306.91"/><path class="cls-22" d="M278.21,294.9a4.5,4.5,0,0,0-3.28-3.51l-.61-.15,1.66-2.18s-4.27-2.85-6.77-.63-1.76,6,1,8.22l2-2.58,1.66.39.88,3.07s1.44-1.92,2-.2l.86,4.12s0-.12.15-.33C278.27,299.94,279.89,296.39,278.21,294.9Z"/><path class="cls-23" d="M248.83,496.84H247V484.67h1.83a1.84,1.84,0,0,0,1.78-1.41,2,2,0,0,0,0-.42,1.83,1.83,0,0,0-1.83-1.83H176.59a9.75,9.75,0,0,0,0,19.49h72.24a1.84,1.84,0,0,0,1.78-1.41,2,2,0,0,0,0-.42h0A1.83,1.83,0,0,0,248.83,496.84Z"/><path class="cls-4" d="M268.39,482.84v15.83H198a8,8,0,0,1-5.59-2.32,2.73,2.73,0,0,1-.23-.25c-.07-.08-.15-.16-.22-.25a2.43,2.43,0,0,1-.2-.25c-.07-.08-.13-.17-.19-.25s-.12-.16-.17-.25l-.09-.14c-.08-.12-.15-.24-.22-.36l-.11-.22a2.26,2.26,0,0,1-.11-.22,2.14,2.14,0,0,1-.1-.22c0-.08-.07-.16-.1-.23l0-.06-.06-.17,0-.08c-.05-.13-.09-.27-.13-.4v-.06l-.05-.2c0-.1-.06-.2-.08-.3v0l-.09-.5v-.08c0-.14,0-.28,0-.43v-.66c0-.2,0-.41,0-.61s0-.4.07-.6,0-.25.07-.38a3.63,3.63,0,0,1,.1-.42,2.33,2.33,0,0,1,.07-.25.19.19,0,0,1,0-.07l0-.06c0-.1.06-.19.1-.29l.15-.41a6.16,6.16,0,0,1,.34-.68,2.79,2.79,0,0,1,.19-.33,3,3,0,0,1,.16-.26l.07-.1.17-.26c.09-.1.17-.21.25-.31l.22-.25,0-.05.22-.22.06-.06.22-.22.08-.07.21-.18a7.93,7.93,0,0,1,.65-.53l.31-.2.07,0,.29-.16.15-.07.12-.06a5.28,5.28,0,0,1,.69-.29,3.82,3.82,0,0,1,.36-.13l.47-.13.29-.06.31-.06a3.7,3.7,0,0,1,.48-.06l.29,0h70.92Z"/><line class="cls-24" x1="191.29" y1="494.24" x2="268.39" y2="494.24"/><line class="cls-24" x1="191.29" y1="487.12" x2="268.39" y2="487.12"/><line class="cls-24" x1="191.29" y1="490.68" x2="268.39" y2="490.68"/><path class="cls-23" d="M272.06,498.67a2,2,0,0,1-.05.42,1.84,1.84,0,0,1-1.79,1.41H198A9.75,9.75,0,1,1,198,481h72.23a1.85,1.85,0,0,1,1.84,1.83,2,2,0,0,1-.05.42,1.84,1.84,0,0,1-1.79,1.41H198a6.07,6.07,0,0,0-3.75,1.29,6.16,6.16,0,0,0-1.87,2.47,6.08,6.08,0,0,0,3.3,7.95l.31.12a6,6,0,0,0,2,.34h72.23a1.85,1.85,0,0,1,1.84,1.83Z"/><path class="cls-25" d="M248,478h-1.47v-9.83H248a1.48,1.48,0,0,0,1.44-1.14,1.27,1.27,0,0,0,0-.34,1.48,1.48,0,0,0-1.48-1.48H189.67a7.88,7.88,0,0,0,0,15.75H248a1.48,1.48,0,0,0,1.44-1.14,1.32,1.32,0,0,0,0-.34h0A1.48,1.48,0,0,0,248,478Z"/><path class="cls-4" d="M263.82,466.67H206.53l-.23,0-.39.05-.25.05-.23.06-.38.1-.3.1-.55.23-.1.05-.12.06-.23.13-.05,0-.26.16c-.18.14-.36.28-.53.43l-.16.15-.07.06a1.37,1.37,0,0,0-.17.17l0,.05-.18.18,0,0-.18.2-.2.25-.14.21-.06.08-.13.21a1.82,1.82,0,0,0-.15.27,5.6,5.6,0,0,0-.27.55c-.05.11-.09.22-.13.33l-.08.23v.05a.14.14,0,0,0,0,.06l-.06.2c0,.11-.06.23-.08.34s0,.2-.05.31,0,.32-.06.48a4,4,0,0,0,0,.49v.53c0,.12,0,.24,0,.35V474c0,.14,0,.27.07.4v0l.06.24.05.16v.05a3,3,0,0,0,.1.32.64.64,0,0,1,0,.07l.06.13a.08.08,0,0,0,0,.05l.07.19.09.18.09.17.09.18c0,.1.11.2.17.3l.08.11.13.2.16.2.16.2.18.21.19.2a6.36,6.36,0,0,0,4.51,1.87h56.87V466.66Z"/><line class="cls-24" x1="201.54" y1="474.84" x2="263.82" y2="474.84"/><line class="cls-24" x1="201.54" y1="471.16" x2="263.82" y2="471.16"/><path class="cls-25" d="M266.78,479.45h0A1.49,1.49,0,0,0,265.3,478H207a5,5,0,0,1-1.62-.27l-.25-.1a4.91,4.91,0,0,1-2.66-6.42,4.92,4.92,0,0,1,4.53-3H265.3a1.48,1.48,0,0,0,1.44-1.14,1.86,1.86,0,0,0,0-.34,1.5,1.5,0,0,0-1.48-1.48H207a7.88,7.88,0,0,0,0,15.75H265.3a1.48,1.48,0,0,0,1.44-1.14,2,2,0,0,0,0-.34Z"/><path class="cls-23" d="M255.57,461.82h-1.83V449.65h1.83a1.84,1.84,0,0,0,1.78-1.41,2,2,0,0,0,0-.42,1.83,1.83,0,0,0-1.83-1.83H183.33a9.75,9.75,0,0,0,0,19.49h72.24a1.84,1.84,0,0,0,1.78-1.41,2,2,0,0,0,0-.42h0A1.82,1.82,0,0,0,255.57,461.82Z"/><path class="cls-4" d="M275.14,447.82v15.83H204.73a7.91,7.91,0,0,1-5.59-2.32,2.83,2.83,0,0,1-.24-.25c-.07-.08-.15-.16-.22-.25l-.2-.25c-.07-.08-.13-.17-.19-.25l-.17-.25-.09-.14c-.07-.12-.15-.24-.21-.36a2.39,2.39,0,0,1-.12-.22l-.11-.22-.1-.22c0-.08-.07-.16-.1-.23a.14.14,0,0,1,0-.06l-.07-.17,0-.08-.13-.4v-.06l0-.2c0-.1-.05-.2-.07-.3v0a4,4,0,0,1-.09-.5v-.08c0-.14,0-.28-.05-.43v-.66c0-.2,0-.41,0-.61s0-.4.07-.6.05-.26.07-.38.06-.28.1-.42a1.82,1.82,0,0,1,.07-.25s0-.05,0-.07l0-.06c0-.1.06-.19.1-.29s.1-.27.16-.41.21-.46.33-.68.12-.22.19-.33l.16-.26.07-.1.18-.26c.08-.1.16-.21.25-.31l.21-.25,0-.05.21-.22.06-.06.22-.22.09-.07.2-.18a7.93,7.93,0,0,1,.65-.53l.32-.2.06,0,.29-.16.15-.07.12-.06a5.28,5.28,0,0,1,.69-.29l.36-.13.47-.13.29-.06.31-.06a3.93,3.93,0,0,1,.48-.06l.29,0h70.93Z"/><line class="cls-24" x1="198.03" y1="459.22" x2="275.14" y2="459.22"/><line class="cls-24" x1="198.03" y1="452.1" x2="275.14" y2="452.1"/><line class="cls-24" x1="198.03" y1="455.66" x2="275.14" y2="455.66"/><path class="cls-23" d="M278.8,463.65a2,2,0,0,1-.05.42,1.85,1.85,0,0,1-1.78,1.41H204.73a9.75,9.75,0,1,1,0-19.49H277a1.83,1.83,0,0,1,1.83,1.83,2,2,0,0,1-.05.42,1.85,1.85,0,0,1-1.78,1.41H204.73a6.07,6.07,0,0,0-3.75,1.29,6.16,6.16,0,0,0-1.87,2.47,6.09,6.09,0,0,0,3.3,7.95l.32.12a5.92,5.92,0,0,0,2,.34H277a1.82,1.82,0,0,1,1.83,1.82Z"/><path class="cls-25" d="M254.76,443h-1.48v-9.83h1.48A1.48,1.48,0,0,0,256.2,432a1.86,1.86,0,0,0,0-.34,1.49,1.49,0,0,0-1.48-1.48H196.41a7.88,7.88,0,0,0,0,15.75h58.35a1.48,1.48,0,0,0,1.44-1.14,2,2,0,0,0,0-.34h0A1.49,1.49,0,0,0,254.76,443Z"/><path class="cls-4" d="M270.56,431.65H213.28l-.24,0-.38.05-.26,0-.23.06-.38.1-.29.1-.56.23-.09.05-.13.06-.23.13-.05,0-.25.16a5.83,5.83,0,0,0-.53.43l-.17.15-.06.06-.18.17-.05.05-.18.18,0,0-.18.2-.2.25-.14.21-.06.08-.13.21-.15.27a5.6,5.6,0,0,0-.27.55l-.13.33-.08.23v0s0,0,0,.06l-.06.2c0,.11-.05.23-.07.34l-.06.31c0,.16,0,.32-.06.48a4,4,0,0,0,0,.49v.53c0,.12,0,.24,0,.35V439c0,.14.05.27.08.4v0a2,2,0,0,0,.05.24l0,.16v.05a3,3,0,0,0,.1.32.14.14,0,0,1,0,.07l.06.13a.08.08,0,0,0,0,.05,1.54,1.54,0,0,0,.08.19,1.42,1.42,0,0,0,.08.18l.09.17.09.18.17.3.08.11.13.2.16.2.16.2.18.21.19.19a6.37,6.37,0,0,0,4.51,1.88h56.87V431.64Z"/><line class="cls-24" x1="208.28" y1="439.82" x2="270.56" y2="439.82"/><line class="cls-24" x1="208.28" y1="436.14" x2="270.56" y2="436.14"/><path class="cls-25" d="M273.52,444.43h0A1.48,1.48,0,0,0,272,443H213.69a4.9,4.9,0,0,1-1.61-.27l-.26-.1a4.91,4.91,0,0,1-2.66-6.42,4.92,4.92,0,0,1,4.53-3H272a1.48,1.48,0,0,0,1.44-1.14,1.86,1.86,0,0,0,0-.34,1.48,1.48,0,0,0-1.48-1.48H213.69a7.88,7.88,0,0,0,0,15.75H272a1.5,1.5,0,0,0,1.44-1.14,2,2,0,0,0,0-.34Z"/><path class="cls-4" d="M245.77,269q7.64.3,15.17.5c8.14.23,17.79,1.75,23.85-3.29a20.41,20.41,0,0,0,4.6-6.23l.07-.12a93.88,93.88,0,0,0,5.68-12.71c.76-2.1,1.43-4.22,2-6.34,1.65-5.95,2.15-12.07,2.69-18a16.88,16.88,0,0,0-4.91-14,37.37,37.37,0,0,0-11.14-7.33c-17.45-8-37.94-8.48-58.05-8.47-4,0-8.06,0-11.64,1.26a19.06,19.06,0,0,0-7.38,4.87,27.35,27.35,0,0,0-7.82,19.89l.3,7.06c.21,4.81-.36,23.72,2.74,30.25s8.65,10.27,16.56,10.95,21.15,1.46,24.73,1.6Z"/><polyline class="cls-4" points="218.23 255.72 237.06 290.66 237.46 252.27"/><path class="cls-23" d="M609.75,271.92c-2.15-7.42-8.54-14.84-13.75-21.3,11.56-4.14,28.17-7,38.93-12.45,2.21,6.74,3.56,9.54.71,15.78"/><path class="cls-26" d="M609.62,271.52c4.44-5.69,5.24-12.81,6.16-19.54,15.27-.39,27.48-9,40.62-13.17-4.94,19.82-24.63,27.68-46.38,33.74"/><path class="cls-4" d="M609.62,271.52c4.44-5.69,5.24-12.81,6.16-19.54,15.27-.39,27.48-9,40.62-13.17-4.94,19.82-24.63,27.68-46.38,33.74"/><path class="cls-17" d="M227.76,95.32c-1.19-3.52-3.17-6.66-4.32-10a110.69,110.69,0,0,0-26.53,10.63c8.81,6.37,9.84,18.79,13.77,28.22,3.38-1.88,7-3.51,10.59-5.23,2.63-1.28,7.24-3,9.41-4.93"/><path class="cls-27" d="M237.35,98.67c.53,4.68,2.47,8.85,3.43,13.53-5.41,2.65-11.54,3.93-17,6.47-2.4,1.11-5,2.36-7.25,3.67-1,.61-5.24,3.22-6,1.5-.34-.74,0-1.91-.15-2.75-.17-1-.6-2.06-.83-3.11a48.72,48.72,0,0,1-1-8.3c-.14-2.65-.36-5.65-.28-8.42.07-2.3,1.41-4.4,1.41-6.67,0-.7,8.27-2.67,9.18-2.92,3.48-1,7-1.78,10.51-2.56,3-.66,6.1-1,9.11-1.78.54,1.48-.63,3.24-.93,4.69A21.82,21.82,0,0,0,237.35,98.67Z"/><path class="cls-5" d="M212.18,125c.37-5.29,2.74-12.23,5-17,1.94-4,5.54-3.66,9.75-4.26,9.49-1.35,19.08-3.21,28.67-3.32-3.23,1.13-7,2.65-9.16,5.45-1.6,2.06-2.1,4.91-4.29,6.6"/><path class="cls-23" d="M452.46,31.36c-2.27-2.3-6.58,1.33-7.83,5.49,5,1.56,10.37,1.73,15.36,3.47"/><path class="cls-4" d="M447.77,58.54c5.16-9,5.63-15.24,5.4-26.6,6.58,3.44,13.73,4.78,20.54,6.77,3.64,1.07,8.86,1.71,12.21,4.52-.11,5.77,2.59,6.5,2.17,12.29-.49,6.73-3.54,9.11-5,14.79"/><path class="cls-27" d="M449.19,59.8c3.58-5.79,11.48-8.95,16.07-12,3.51-2.31,4.59.27,7.82,1.64,4,1.7,8,3.51,12,5.26,5.69,2.5,10.84,6.17,16.59,8.27-4,3.3-10.09,4.4-14.34,6-2.18.81-4.3,2.49-6.45,3.37-2.4,1-3.91-.84-6.23-2.42a41.15,41.15,0,0,0-13.75-6.29c-4.74-1.07-9-4.42-13.83-3.69,2.78-2.89,6.38-6.1,9.37-7.66,2.47-1.28,6.54-2.43,8.37-4.39"/><line class="cls-11" x1="70.55" y1="40.32" x2="90.33" y2="65.82"/><line class="cls-11" x1="42.72" y1="128.16" x2="10.86" y2="118.72"/><line class="cls-11" x1="57.95" y1="205.66" x2="27.48" y2="216.66"/><path class="cls-23" d="M33.61,237.44c-4.06,1.17-9.4,4.46-13.47,4.66-5.1.26-5.09-5.2-6.85-9.11C9.39,224.36,3.41,216.82,0,207.93c4.21.76,9.05-2.12,12.89-3.39,4.9-1.62,9.91-2.45,14.75-4.27,3.79-1.41,7.69-3.22,11.68-3.77,3,4.73,6.66,10.86,8.17,16.26.46,1.65.53,3.59,1.11,5.23,1,2.74,5.62,8,4.84,11.06-.72,2.81-8.23,4.76-10.85,5.66C39.59,235.73,36.59,236.57,33.61,237.44Z"/><path class="cls-27" d="M31.88,238.12c3.76-1.49,7.41-3.3,11.23-4.66,3.09-1.11,8.16-1,10.74-3.08,5.46-4.33,4.32-15.27,5.55-21.34.94-4.59,4.88-13.54,10.31-15-3.2.49-6.15,1.84-9.26,2.86-7.48,2.44-14.85,3.57-22.13,6.73-13.77,6-6.28,29.78-16.2,38.94C24,243,29.83,238.93,31.88,238.12Z"/><path class="cls-26" d="M75,215.89l2-.44c-.48.1-3.56,6.22-4.31,7.1a23.81,23.81,0,0,1-7,5.45c-5.23,2.77-11,4.17-16.44,6.28-5.12,2-10.34,3.73-15.37,5.93-4,1.77-8.72,1.66-12.68,3.38,8.59-3.72,11.79-14.78,17.69-21.47,6.52,1.79,17.1-1.88,23.7-3.34C66.78,217.87,70.91,216.81,75,215.89Z"/></g></g></g></svg>