<?xml version="1.0" encoding="utf-8"?>
<svg xmlns="http://www.w3.org/2000/svg" xmlns:xlink="http://www.w3.org/1999/xlink" viewBox="0 0 907.05 499.87"><defs><style>.cls-1{fill:#fbbe25;}.cls-2,.cls-26,.cls-3{fill:none;stroke:#fff;stroke-miterlimit:10;}.cls-2{stroke-width:1.66px;}.cls-3{stroke-width:1.65px;stroke-dasharray:14.91 14.91;}.cls-4{opacity:0.2;}.cls-5{fill:#19005a;}.cls-6{fill:#ffd2b4;}.cls-7{fill:#dcd9e6;}.cls-8{fill:#66271f;}.cls-9{fill:#fff;}.cls-10{fill:#e6aa83;}.cls-11{fill:#cc614f;}.cls-12{fill:#a8673d;}.cls-13{fill:#bab2cd;}.cls-14{fill:#563328;}.cls-15{fill:#fb6649;}.cls-16{fill:#d68330;}.cls-17{fill:#554285;}.cls-18{fill:#e69965;}.cls-19{fill:#fdb6a8;}.cls-20{fill:#ff7045;}.cls-21{fill:#91382c;}.cls-22{fill:#cac4d9;}.cls-23{fill:#2d2e83;}.cls-24{clip-path:url(#clip-path);}.cls-25{fill:#27348b;}.cls-26{stroke-width:1.63px;}</style><clipPath id="clip-path"><path class="cls-1" d="M566.07,259.83l-32.42-52.09s28.29-38.75,55.14-50.69c8.79-3.91,37.74-7.58,37.74-7.58s60.29-4.35,53.9,37.42l-2.56,36.23-1.54,20.69-93.94-6.1,2.2-9.72C570.64,249.23,566.07,259.83,566.07,259.83Z"/></clipPath></defs><title>home-illu-hero-wallonie</title><g id="Calque_2" data-name="Calque 2"><g id="contenu"><path class="cls-2" d="M357.89,1.77a173.62,173.62,0,0,1,51.74,13A137,137,0,0,1,455.37,46.6C466.92,59,478.3,75.36,478.31,91.49c0,6.27-1.23,13,2,18.48,4,6.83,13.34,9.26,21.57,11.55,29.06,8.1,68.43,10.76,82.45,35,8.13,14.05,11,30.18,11.33,46.11,1.17,60.09-17.21,132.34-71.82,167.82S369,417.63,303.47,406.47c-24.57-4.18-49.62-12.14-65.85-29.1s-20.31-44.85-3.46-61.78c17.39-17.45,50.36-18.55,64.31-38.33,13.61-19.31.08-45.63-20.38-58.65-12.08-7.69-30.12-12-41.07-2.74-8.9,7.53-9.35,21.17-19.3,27.54-8.85,5.68-21.25,3-31.3,6.72-11,4.05-17,14.68-25.66,22.06-24.23,20.58-63.9,12.11-92.1-3-12.7-6.82-25.09-15.15-31.87-27S30.31,214.3,41,204.8c8-7.08,20.08-9.5,27.5-17,16.53-16.78-1-41.4-9.5-62.18-12.53-30.66-1-68.28,27.4-89.33,6.36-4.72,13.72-8.74,21.85-9.67,28.29-3.26,49.4,30.56,77.52,26.16,9.79-1.53,17.89-7.54,26-12.76a261.39,261.39,0,0,1,60.59-28.46,226.07,226.07,0,0,1,36.11-8.48A203.25,203.25,0,0,1,357.89,1.77Z"/><path class="cls-3" d="M692,122.65c-.38-3.61-2.37-7.39-3.7-10.62a161.31,161.31,0,0,0-12.61-24.3,175.53,175.53,0,0,0-83.68-69,157.34,157.34,0,0,0-90.37-7.48,169.36,169.36,0,0,0-51.65,20A160.23,160.23,0,0,0,408,66.66q-4,4.88-7.66,10.09c-2.55,3.66-3.87,7.6-5.82,11.6a160.58,160.58,0,0,0-15.74,57.3c-.34,4.22-.79,8.62,0,12.83.58,3,2,5.58,3.18,8.35,1.81,4.24,2.58,8.7,3.66,13.13q2,8.07,4.71,15.93c3.17,9.07,6.56,19.47,13.29,26.56,2.49,2.62,4.14,6.13,6.16,9.11A153.61,153.61,0,0,0,429.9,255.5a144.34,144.34,0,0,0,11.5,10.05c39.82,31.3,94.33,41.67,144.69,30.58A158.15,158.15,0,0,0,622,283.71a126.87,126.87,0,0,0,16.4-9.63c3.9-2.7,7.37-5.86,11.12-8.72,3.16-2.41,6-3.57,8.33-6.95A185.36,185.36,0,0,0,673,232.33a199.9,199.9,0,0,0,18.8-100.6,50.26,50.26,0,0,1,.2-7.27A12.2,12.2,0,0,0,692,122.65Z"/><g class="cls-4"><ellipse class="cls-5" cx="452.43" cy="471.75" rx="107.76" ry="2.43"/><ellipse class="cls-5" cx="93.8" cy="471.34" rx="93.3" ry="2.59"/><ellipse class="cls-5" cx="218.25" cy="471.34" rx="93.3" ry="2.59"/><ellipse class="cls-5" cx="309.77" cy="496.33" rx="110.53" ry="2.05"/><ellipse class="cls-5" cx="775.32" cy="473.23" rx="131.73" ry="2.57"/><ellipse class="cls-5" cx="647.21" cy="496.81" rx="161.96" ry="3.06"/></g><path class="cls-6" d="M40.83,221.08a3.63,3.63,0,0,1-5-1.76c-2.43-5.57-7.12-16.25-9.62-21.95q-3.37-7.71-6.76-15.41l-3-6.91a33,33,0,0,0-1.83-3.17c-1.56-2.73-2.62-5.67-4.63-8.14a20,20,0,0,0-7.81-5.85,6,6,0,0,1-1.24-.67c-2.19-1.6.21-2.29,1.7-2.48a19.79,19.79,0,0,1,5.26.32,3.72,3.72,0,0,0,1.66,0,1.36,1.36,0,0,0,1-1.21c0-.28-.12-.62.08-.82s.47-.1.7,0c5.41,2,8.39,7.06,11.62,11.5l12.82,17.63,14.79,20.36q3.54,4.88,7.09,9.76Z"/><path class="cls-6" d="M255.53,208.31a6.94,6.94,0,0,1-1.68,7.76l-31.12,29c-2.77,2.57-11.23,8.19-10.43,12.3.33,1.72,1.39,3.21,1.83,4.9.79,3-.45,6.19-2.33,8.65-.26.34-.57.7-1.14.49a1.21,1.21,0,0,1-.7-.75l-4.44-12.7a21.33,21.33,0,0,1-1.43-5.8c-.23-4.13,3.65-7.85,5.9-11.16l7.48-11,17.06-25.07,12.1-17.78Z"/><path class="cls-7" d="M54.25,251.67,41,188.51l70.53-36.34,22.54-8s62-12.93,133.32,34.34L223,221.75l-30.66-19.57,3.44,21.27-88.13,9.88-3.58-13.05C88.59,231.72,84.16,236.9,54.25,251.67Z"/><path class="cls-6" d="M124.46,151.44c0-.91.61-14.68.61-14.68s-4.32,2.14-4.93-3.67.62-19.42.62-19.42l10.33,2.21,8.79,33.73Z"/><path class="cls-5" d="M195.41,223.47s33.39,100.1,46.46,180c-1.45,1.44,7.26,26.65,7.26,26.65l-40.65-3.6L157.66,294.05S77.82,413.76,61.85,434.65c0,0-32.14-16.92-35-18.36,0,0,48.82-87,58.25-113.6s22.62-69.36,22.62-69.36Z"/><path class="cls-8" d="M29.88,457.74c-4.64,3.95-15,13.57-15,13.57s21.73-1.16,29.57-6.33l3.41-6-16.32-3.18A11.87,11.87,0,0,1,29.88,457.74Z"/><path class="cls-9" d="M47.13,426.15S37,448.31,31.57,455.77L47.89,459,62,434Z"/><polygon class="cls-9" points="247.12 429.2 224.51 427.57 242.9 459.06 254.49 454.69 247.12 429.2"/><polygon class="cls-8" points="254.89 456.09 254.49 454.69 242.9 459.06 243.79 460.57 246.26 469.55 273.81 472.81 254.89 456.09"/><polygon class="cls-10" points="125.07 136.76 130.87 135.38 125.27 145.1 125.07 136.76"/><path class="cls-11" d="M133.53,116a7.77,7.77,0,0,0-5.67-6,9.57,9.57,0,0,0-1-.27l2.86-3.76s-7.37-4.92-11.7-1.1-3,10.39,1.73,14.21l3.39-4.46,2.87.68,1.52,5.3s2.49-3.32,3.52-.34l1.47,7.11.26-.57C133.64,124.71,136.42,118.56,133.53,116Z"/><circle class="cls-9" cx="141.81" cy="177.8" r="1.12"/><circle class="cls-9" cx="139.09" cy="170.99" r="1.12"/><circle class="cls-9" cx="136.87" cy="161.89" r="1.12"/><circle class="cls-9" cx="142.93" cy="185.94" r="1.12"/><circle class="cls-9" cx="145.74" cy="194.66" r="1.12"/><circle class="cls-9" cx="146.86" cy="203.2" r="1.12"/><circle class="cls-9" cx="148.55" cy="211.88" r="1.12"/><circle class="cls-9" cx="149.58" cy="220.47" r="1.03"/><path class="cls-12" d="M402.81,215.79s-47.37,37.65-52.48,38.83L338.66,251s-7.65,4.06-7.41,10.3c0,0,5.88,2.3,20.7.33,0,0,35.69-9.19,67.43-26Z"/><path class="cls-5" d="M563.32,389.12l11.5,5.75s1.31,21.52-3.47,35.72l-9.11-22.9-6.85-2.89Z"/><polygon class="cls-9" points="544.87 400.36 550.08 382.5 563.32 389.12 555.39 404.8 544.87 400.36"/><polygon class="cls-5" points="395.32 451.21 409.24 452.1 408.57 459.9 409.49 471.82 382.44 471.82 395.99 459.9 395.32 451.21"/><polygon class="cls-9" points="393.82 431.5 410.75 434.25 409.24 452.1 395.32 451.21 393.82 431.5"/><path class="cls-1" d="M391.09,304.15,371.78,428.39s54.77,9,61.61,10.5l8.47-49.73s17.39,24.56,89.69,49.22c0,0,16.11-40.71,19.53-58.22l-67.39-31.43,3.42-40.19Z"/><path class="cls-13" d="M430.05,147.28c-19.15,43-32.68,48.61-46,81.61,0,0,23.46,20.75,50,16.72C434.05,245.61,453.35,155.08,430.05,147.28Z"/><polyline class="cls-5" points="512.95 266.25 494.09 221.72 489.81 226.24 506.6 266.43"/><path class="cls-7" d="M429.83,145.79s-33.48,81.15-38.74,158.36c0,0,29,2.77,56.9,3.41,29.74.68,49.24,1.44,49.24,1.44-.9-10.84-4.42-84.76-4.51-85.08,4.4,5.22,11,13.84,15.13,18.18,31.45-6.39,47-13.09,52.59-16.47-6-20.63-18.82-40.25-30.9-57.57-4.86-7-19.46-24.06-28-25.28-5.6-.79-11.08-2-16.74-2.48C466.34,138.64,447.49,140.18,429.83,145.79Z"/><path class="cls-5" d="M476.24,269.07s-30.5-74.93-40.42-125.13l-4.53,1.24S443,211.78,470,269.59Z"/><path class="cls-12" d="M539.87,234.54s6.45,57.17,7.73,64.08l2.94,16.18s-3.35,10.27-12.5,6c0,0-1.23-8.05,3.12-20.45-7.54-14.55-20.83-47.9-23.79-60.5Z"/><path class="cls-5" d="M443.28,141.56s-16.77,17.87-2.72,17.54,35.44-22.4,46-18.77l14.92,2.91s1.89-13.38-11.64-16.36c-32.74-2.55-46.21,14.5-46.21,14.5"/><path class="cls-12" d="M452.62,138.76l5.56-22.16s-6.4-.45-7.25-3.87c-.53-3.11,2.48-10.89,4.25-16.49l12.88.23-1.58,18.83,2.21,19.5L467,137.41s-9.23,8.51-21,10.75Z"/><path class="cls-14" d="M467.1,99.14c2.64-5.44,5-8.58-2.41-11.73-2.92-1.23-5.4-.23-7,2.89-1.51,2.88-3,5.76-3,5.76S463.17,98.34,467.1,99.14Z"/><path class="cls-15" d="M465,98.28s-12.38-10.83-14.76-12.55-11.72-3.48-5.94,3.14a24.41,24.41,0,0,0,9.15,6.67Z"/><polygon class="cls-16" points="435.12 421.55 375.25 411.89 371.77 428.39 433.39 438.89 435.12 421.55"/><polygon class="cls-16" points="534.95 373.21 510.75 430.16 531.55 438.38 551.08 380.16 534.95 373.21"/><polyline class="cls-16" points="484.64 333.4 471.56 326.24 473.25 314.42 445.41 307.68 487.11 308.54 484.22 331.3"/><polyline class="cls-5" points="526.45 314.1 486.14 321.24 468.72 267.74 477.19 268.73 512.9 265.73 526.45 314.1"/><polygon class="cls-17" points="468.72 267.74 464.15 273.65 479.57 324.91 485.8 325.53 486.71 320.84 468.72 267.74"/><polygon class="cls-17" points="485.76 325.59 486.38 319.88 526.41 314.16 525.02 318.32 485.76 325.59"/><path class="cls-18" d="M836.52,250s-2.91,26.85-14.21,65.53a20.61,20.61,0,0,1,0,16.51l-4.78-9.56-2.17,5.65s-2.18-9.13,0-16.51l-.07-54.3,17-12.2Z"/><polygon class="cls-9" points="688.02 456.52 693.78 418.43 714.5 419.65 699.8 460.18 687.4 457.08 688.02 456.52"/><polygon class="cls-5" points="699.8 460.18 699.58 460.77 698.84 474.95 667.88 474.95 687.4 457.08 699.8 460.18"/><path class="cls-19" d="M692.88,297.51s-4.49,75.2-2.62,98.7l-7.84,20.52,36.93,6.72,28-108.93Z"/><polygon class="cls-5" points="842.42 459.97 842.82 461.12 863.34 475.3 828.65 473.06 829.35 461.9 842.42 459.97"/><polygon class="cls-9" points="829.39 461.12 808.13 418.97 824.17 416.73 827.16 416.73 842.42 459.97 829.35 461.9 829.39 461.12"/><path class="cls-19" d="M807.76,322s17.9,68.27,27.6,94.38L799.93,422s-40.29-63.78-52.6-107.43Z"/><path class="cls-20" d="M810.74,322.73c-42.15,2.24-91.67-10.65-131.21-24.45,10.44-63.42,42.06-111,42.06-111l-36.45,4.16L676.45,137s84.68-22.75,132.8,6.72c48.74,29.85,62.67,71.25,72,85.42l-69.75,30.59-13.8-36.93S790.23,244.39,810.74,322.73Z"/><polygon class="cls-21" points="715.29 81.26 710.12 134.22 760.81 136.52 760.81 83.9 715.29 81.26"/><polygon class="cls-8" points="820.15 87.34 760.81 83.9 760.81 136.52 820.15 139.21 820.15 87.34"/><path class="cls-18" d="M676.9,161.58l5.54-.57-2.61-5.81,35.45-46.36s3.4-6.89,2.48-10.58l-3.53,4.28-.38-12.83S707,95,706.65,108.13l-47.66,36a109.13,109.13,0,0,0,6,11.52A12.46,12.46,0,0,0,676.9,161.58Z"/><path class="cls-5" d="M767.08,148.45s-49.44,73.87-13.73,166.76l5.67-5.58c6.56,2.79,10.46-3.61,10.46-3.61l9.46,2.6,3-8,7,4.35S753,227.72,774.64,155.17"/><path class="cls-5" d="M773.06,154.49s18.19-8.7,21.36-16.38c0,0-3.17-6.11-3-10.51,0,0-11.3-5.2-19.33-4.3,0,0-3.95-2.14-5,8A92.64,92.64,0,0,1,764,148.05S763,158.22,773.06,154.49Z"/><path class="cls-22" d="M778.54,98a22.62,22.62,0,0,0-2.9-4.16,7.76,7.76,0,0,0-2.84-2.22,5.74,5.74,0,0,0-6.57,2.29,1.27,1.27,0,0,0-.3,1.13,1.38,1.38,0,0,0,.61.61A27.37,27.37,0,0,0,772,98.35"/><path class="cls-18" d="M769.8,139.81l5.45-21.7s-6.27-.45-7.1-3.79c-.52-3,2.43-10.67,4.16-16.15l12.61.22-1.55,18.44,2.17,19.1-1.64,2.55s-3.39,3-14.94,5.2Z"/><path class="cls-22" d="M784,101c2.59-5.32,4.93-8.4-2.36-11.48-2.86-1.2-5.29-.22-6.89,2.83l-3,5.65S780.13,100.22,784,101Z"/><path class="cls-23" d="M788.22,96.68c-2.93-1.76-6.67-1-10-.13l-7,1.78c.77-.2,3,1,3.8,1.31,1.39.46,2.8.91,4.21,1.33q4.13,1.26,8.31,2.29c2,.49,5.37,2.24,4.66-.91A9.72,9.72,0,0,0,788.22,96.68Z"/><polygon class="cls-6" points="406.92 478.37 381.28 459.28 388.89 448.89 411.79 473.53 406.92 478.37"/><path class="cls-8" d="M368.8,317.38c-.51-.58-2.3-91-5.17-106.74l-2.56-1.71s2.2,10.32,5.07,109"/><path class="cls-6" d="M287.75,268.6c-2.37,7-14.57,35.85-16.76,40.6-1.1,2.39-2.43,4.64-4.86,5.83-1,.5-5.92,2.29-6.07,2.4a1.6,1.6,0,0,0-.23,1.5c.19.34,3.84.05,5.65,1.46a7.89,7.89,0,0,0,.77.51c4,2.58,8.92-5.38,10.84-7.93,2.71-3.6,5.65-7.09,8.37-10.71,5.49-7.29,15.56-19.42,19.3-28C303.07,272.8,287.75,268.6,287.75,268.6Z"/><path class="cls-16" d="M301.58,202.75S284,231.08,273.6,254c0,0,12.56,20.08,42.33,30.48C315.93,284.52,305.38,212.14,301.58,202.75Z"/><path class="cls-6" d="M399.49,279.62c.49,11.5,1.31,18.53,2.14,25.57l2,17.14c.64,5.39.64,11.85,3.32,16.68,1.89,3.42,4.51,6.37,6.79,9.54.2.28.41.64.26,1a.77.77,0,0,1-.64.38c-1.37.2-2.48-1-3.74-1.61-1.86-.83-4.14-.17-6-1.06-1.56-.75-2.41-2.43-3.15-4-2.06-4.32-14.08-40.51-17.53-55.63Z"/><polygon class="cls-6" points="250.65 450.82 234.57 477.46 227.4 476.72 237.89 445.4 250.65 450.82"/><path class="cls-1" d="M380.11,296.92c-18.25-25.39-23.34-33-23.34-33l-2-.07-47.5-2.94,0-10.42s-6.46-10.09-8.93-16.22c-1.78-4.42.27-18.24,2.13-28.25a11.42,11.42,0,0,1,13.22-9.17l27.68,4.89s42.09,5.89,78.45,60.31"/><path class="cls-6" d="M329.08,201.05l-5.79-25.24L323,162.7s-8.81-1.45-11.4,3.51-2,11.07-2,11.07-.63,7.77,2.23,7.25,5-1.15,5-1.15l-.47,20Z"/><path class="cls-6" d="M340.56,201.45l-28.14-5.14s-3.34,22-3.07,25.87-.76,7.29,6.52,2.33S334.59,208.24,340.56,201.45Z"/><path class="cls-9" d="M334.63,186.48l19.23,1.19,1.92-5.09,1.58,5.59,7.5-.25,1.25-11.84,3,11.84,12.75-2.84c3-2.5,5.09-4.44,6.82-8.89,10.24-26.29-3.45-41.76-7.29-45.25s-34.94-18-49.85,7.5c-15.86,27.07,1.59,46.91,1.59,46.91Z"/><path class="cls-9" d="M308.79,161.31s-3,2.86-3.41,8.72a75.08,75.08,0,0,0,9.92,1.87l1.42-3.44-.17-1.65.17,1.65.46-1.12-.46,1.12.39,3.62c1,.09,2,.17,3,.2,0,0,1.84-7.92,4.69-9.21C324.8,163.07,317.55,151.24,308.79,161.31Z"/><path class="cls-9" d="M320.81,166.28l2,3,.58,4.43s3.42-4.72,2.27-9.58l-4.87-2.42Z"/><path class="cls-20" d="M354.8,263.53c13.09,44.79,12.38,58.3,12.38,58.3s-29.2,60.4-29,63.62c6.22,19,54.5,64.42,54.5,64.42l-14.35,14.34-73.74-60.12,1-42.23c-4.89,4.54-16.74,24.67-16.74,24.67l-36.8,67.64-18.65-3.94s12.47-55.67,20-76.06S307.91,260,307.91,260"/><path class="cls-8" d="M411.65,473.05l5.89,11.89-4.44,2-3.31-3.19c-.6,3.7-4.27,8.88-11.47,9.09l6.28-15.64Z"/><path class="cls-8" d="M227.55,476l7.2,1.11-3,15.84L227,491.91s-.27-2.72-.55-5.44c-2.83,3.24-9.5,6.32-15.27,1.56Z"/><rect class="cls-8" x="333.14" y="317.16" width="40.89" height="19.37" transform="translate(707.17 653.69) rotate(-180)"/><path class="cls-8" d="M340.67,318.24s0-25.83,10.76-113.7l-2.65-1.06s-10.62,90.73-10.62,114.76"/><polygon class="cls-9" points="512.13 298.69 505.76 298.3 488.59 266.1 489.29 265.78 490.12 259.4 487.62 254.68 481.1 253.43 483.87 257.87 483.04 261.62 478.04 262.17 474.99 256.34 473.6 261.34 477.07 267.87 483.44 268.26 500.92 300.31 499.92 300.77 499.09 307.16 501.58 311.88 508.11 313.13 505.33 308.69 506.17 304.94 511.16 304.38 514.22 310.21 515.61 305.22 512.13 298.69"/><path class="cls-6" d="M573.38,233.36c-1.3,4.15-3.46,10.74-8.7,13.21l-.16.11q-12.85,8.34-25.64,16.79-8.94,5.89-17.82,11.88c-6.3,4.27-12,10-18.47,13.79-4,2.31-7.74,5.62-11.31,2.06-2-2-7.1-9.09-2.85-11,1-.45,3.7.17,4.83.09,1.31-.1,2.56-.28,3.88-.35a10.91,10.91,0,0,0,8.54-4.21c8.61-9.79,16.48-20.32,24.74-30.4,6.69-8.16,13.17-17.38,21.11-24.39,6.43,1.58,13.94,4.72,24,5.86Z"/><polygon class="cls-11" points="701.31 446.03 733.5 475.27 740.49 499.14 749.86 475.32 742.65 468.68 720.76 436.08 701.31 446.03"/><path class="cls-23" d="M674.42,230.78s7.71,57.55-2.09,125.32c-1.54,1.53,59.12,94.08,59.12,94.08l-39.52,2.25-68.19-55-6-71.6s-44,112.94-60.95,135.11c-36.23-6.39-34.46-14.48-38.79-16.62,0,0,35.81-88.23,44.33-130,6-29.4,20.46-78.43,20.46-78.43Z"/><path class="cls-11" d="M521.29,446.35s-9,27-13.91,31.22c-8.53,4.26-21.74,7.25-21.74,7.25s18.76,10.23,32,7.67l19.49-37.77Z"/><path class="cls-22" d="M617.75,111.05l1.62-3.67a9.71,9.71,0,0,1,10.76-1c6.27,3.11,6.82,6,6.82,6l-.4,5.36a3.52,3.52,0,0,1-5.51,2.63Z"/><path class="cls-1" d="M566.07,259.83l-32.42-52.09s28.29-38.75,55.14-50.69c8.79-3.91,37.74-7.58,37.74-7.58s60.29-4.35,53.9,37.42l-2.56,36.23-1.54,20.69-93.94-6.1,2.2-9.72C570.64,249.23,566.07,259.83,566.07,259.83Z"/><g class="cls-24"><path class="cls-9" d="M592.3,240.28h-.13a1.07,1.07,0,0,1-.94-1.19c0-.18,2.07-17.85,5.95-37.56,5.23-26.58,11.14-44,17.56-51.84a1.08,1.08,0,0,1,1.52-.15,1.07,1.07,0,0,1,.15,1.51c-7.71,9.4-13.56,32.86-17.11,50.88-3.87,19.63-5.91,37.23-5.93,37.4A1.08,1.08,0,0,1,592.3,240.28Z"/><path class="cls-9" d="M640.75,242.18a1.08,1.08,0,0,1-1.07-1.06,354.14,354.14,0,0,1,5.12-67.67,192.91,192.91,0,0,1,5.86-24.86,1.08,1.08,0,1,1,2,.69,193.11,193.11,0,0,0-5.79,24.61,353.14,353.14,0,0,0-5.08,67.19,1.08,1.08,0,0,1-1.06,1.1Z"/></g><path class="cls-25" d="M635.72,119.18c-9.93-4.44-17.47-13.83-27.12-19-1.24-.66-3-1.13-3.79.11a2.74,2.74,0,0,0-.38,1.33c-.15,2.21,1,4.25,2.26,6a40.07,40.07,0,0,0,18.14,14.25"/><path class="cls-6" d="M625.54,157.07c0-1,.74-15.87.74-15.87s-4.63,2.17-5.15-4,1.12-20.59,1.12-20.59l10.91,2.59,8.71,31.54Z"/><polygon class="cls-10" points="626.28 141.2 632.47 139.88 626.29 150.06 626.28 141.2"/><path class="cls-6" d="M711.06,234c2.82.79,4.83,6.67,5.12,9.75,0,0,3.26,59.48,5,63.37,3.79,8.55,7.19,12.78,7.38,14.94.28,3.12-5.1,7.6-8.21,8.55-.43.13-5.51-19.39-6.23-21.68-1.27-4-3.31-8.14-4.58-12.17q-2.13-6.69-4.25-13.4l-9.69-30.56c-2.29-7.22,3.75-24.66,1.46-31.89Z"/><path class="cls-1" d="M723.18,236.54l-68.84,23.62s-13.25-75.05-4.36-92.52c9.51-18.71,24.32-9.95,32.55-2.89C697.45,177.58,723.18,236.54,723.18,236.54Z"/><path class="cls-26" d="M116.55,150l-2.24,19.87,19.72-16,24.43,6.56s-6.23-12.13-10.48-18.36"/><polygon class="cls-21" points="715.29 81.26 710.12 134.22 742.13 135.67 742.13 82.81 715.29 81.26"/><polygon class="cls-21" points="761.47 75.5 712.62 73.05 711.47 78.62 760.81 81.26 762.38 81.35 762.01 75.53 761.47 75.5"/><polygon class="cls-8" points="824.91 78.62 762.01 75.53 762.38 81.35 826.06 85.01 824.91 78.62"/></g></g></svg>