<svg xmlns="http://www.w3.org/2000/svg" viewBox="0 0 618.52 314.39"><defs><style>.cls-1{fill:#fb6649;}.cls-2{fill:#ffa951;}.cls-3{fill:#fff;}.cls-4{fill:#19005a;}.cls-5{fill:#2b388f;}.cls-6{fill:none;}.cls-6,.cls-7{stroke:#bab2cd;stroke-miterlimit:10;stroke-width:1.6px;}.cls-7{fill:#efedf3;}</style></defs><title>Fichier 1</title><g id="Calque_2" data-name="Calque 2"><g id="contenu"><path class="cls-1" d="M0,162.75c4.25-7.28,4.55-18.45,5.12-27.86,14.34,7.68,31,11.59,45.66,17.62-3.62,6.85-8.4,16.88-16.34,18.71"/><path class="cls-2" d="M3.15,161.41c9,0,15.74-4.34,22.29-8.3,14.64,13.78,33.32,18.88,49.18,28-21.38,9.63-46.47-2.88-72-18.56"/><path class="cls-3" d="M3.15,161.41c9,0,15.74-4.34,22.29-8.3,14.64,13.78,33.32,18.88,49.18,28-21.38,9.63-46.47-2.88-72-18.56"/><path class="cls-4" d="M195.51,90.84c-5.61-2.77-11.72-4.15-17.1-6.8a186.33,186.33,0,0,0-19,44.36c18.13-2.91,34.18,10.68,50.13,17.25,1.79-6.27,4.19-12.58,6.39-18.88,1.63-4.67,5.12-12.19,5.37-17.12"/><path class="cls-5" d="M211,83.4c6.22,5,13.51,7.61,20.24,12.07-3.3,9.61-9.08,18.45-12.56,28-1.54,4.2-3.11,8.74-4.27,13-.53,2-2.42,10.11-5.4,9-1.28-.48-2.29-2.27-3.45-3.11-1.47-1-3.19-1.73-4.71-2.71a82.64,82.64,0,0,1-11.06-8.76c-3.33-3-7.17-6.32-10.38-9.73-2.65-2.82-3.58-6.92-6.29-9.64-.83-.83,6.69-13.06,7.48-14.44,3-5.3,6.21-10.47,9.49-15.6,2.84-4.42,6.08-8.48,8.75-13,2.41,1.1,3.12,4.62,4.49,6.71A36.64,36.64,0,0,0,211,83.4Z"/><path class="cls-1" d="M212.32,144.85C206.45,138.1,201,127,198,118.54c-2.51-7.13,2.25-11,6.56-16.72,9.71-12.93,18.95-26.61,30.25-38.19-2.51,5.21-5.19,11.52-4.43,17.45.56,4.36,3.36,8.36,2.76,13"/><path class="cls-1" d="M418.22.84c-2.91-2.41-9.42.73-11.7,4.62,6.91,1.94,14.39,2.55,21.2,4.64"/><path class="cls-2" d="M405.6,31.2C414,23,418.08,12.42,419.15,1.46c8.83,3.86,18.73,5.76,28.07,8.25,5,1.34,12.26,2.39,16.62,5.38-.87,5.54.16,11.06-1.14,16.59-1.51,6.44-6.09,8.48-8.87,13.82"/><path class="cls-5" d="M407.43,32.52c5.77-5.26,17.27-7.64,24.09-10.15,5.23-1.93,6.43.64,10.81,2.24,5.43,2,10.82,4.05,16.22,6.07,7.71,2.89,14.5,6.85,22.33,9.36-6.08,2.83-14.75,3.38-20.91,4.55-3.18.61-6.37,2-9.5,2.71-3.5.75-5.39-1.14-8.46-2.85a68.78,68.78,0,0,0-18.59-7.22c-6.53-1.43-12.09-5-19-4.71a65.44,65.44,0,0,1,14.13-6.59c3.63-1,9.49-1.79,12.31-3.52"/><path class="cls-1" d="M350,131.26c-2.88.84-6.67,3.17-9.55,3.31-3.62.18-3.61-3.69-4.86-6.46-2.76-6.12-7-11.47-9.42-17.77,3,.54,6.41-1.5,9.14-2.4,3.47-1.15,7-1.74,10.46-3,2.68-1,5.45-2.28,8.28-2.68,2.1,3.36,4.72,7.71,5.79,11.54.33,1.17.38,2.54.79,3.7.69,2,4,5.67,3.43,7.85-.51,2-5.84,3.37-7.69,4C354.26,130.05,352.13,130.65,350,131.26Z"/><path class="cls-5" d="M348.79,131.75c2.67-1.06,5.26-2.34,8-3.31,2.2-.79,5.79-.73,7.62-2.18,3.87-3.07,3.06-10.83,3.94-15.13.66-3.26,3.45-9.61,7.31-10.65a42.19,42.19,0,0,0-6.57,2c-5.31,1.73-10.53,2.53-15.69,4.77-9.76,4.23-4.46,21.12-11.49,27.62C343.19,135.2,347.34,132.32,348.79,131.75Z"/><path class="cls-2" d="M379.38,116l1.42-.31c-.34.07-2.52,4.41-3.06,5a16.73,16.73,0,0,1-4.95,3.86c-3.7,2-7.77,3-11.65,4.45-3.64,1.4-7.34,2.65-10.9,4.21-2.86,1.25-6.18,1.18-9,2.39,6.09-2.63,8.36-10.47,12.54-15.22,4.62,1.27,12.13-1.33,16.81-2.36C373.54,117.39,376.47,116.64,379.38,116Z"/><path class="cls-5" d="M579.94,174.86c-1.75-7-6.93-13.53-11.16-19.26,9.38-5.28,17.92-14.26,26.64-20.68,1.8,6.32,4.64,15.23,2.33,21.61"/><path class="cls-4" d="M580.56,172c3.61-6,4.25-13,5-19.69,12.4-2,22.3-11.67,33-17.17-4,19.83-20,29.59-37.63,37.82"/><path class="cls-2" d="M300.48,26.89A5.29,5.29,0,0,1,298.85,25,42.33,42.33,0,0,0,295,19.94a29.06,29.06,0,0,0-2.47-2.61,25.9,25.9,0,0,1-3-2.28,7.89,7.89,0,0,0-1.87-1.82c.9.84,2.81-.32,3.76-.69A35.2,35.2,0,0,0,295,11"/><path class="cls-1" d="M294.74,41.85l-.15.28c-.51-.76-.66-1.64-1.14-2.45-1.72-2.91-3.33-5.87-5-8.8A19.5,19.5,0,0,0,286,27.7c-.37-.42-1.37-1.22-1.56-1.71-.29-.75.32-1.36.86-2.06.94-1.21,2.15-2,3-3.33a39.89,39.89,0,0,1,3.77-4.53,9,9,0,0,0,1.72-2.84A21.94,21.94,0,0,1,295,11a13.44,13.44,0,0,0,.84,1.93c.68,1.46,1.56,2.8,2.17,4.31s.94,3.12,1.59,4.62a32.85,32.85,0,0,1,1.46,3,23.34,23.34,0,0,0,.75,2.58c.23.5,1.1,1.28.23,1.57a8.24,8.24,0,0,1-.86,2.73c-.33.69-.89,1-1.19,1.8a32.84,32.84,0,0,1-1.09,3.31,27.83,27.83,0,0,1-2.05,3.85C296.25,41.58,295.63,42.48,294.74,41.85Z"/><polyline class="cls-6" points="36.17 288.84 168.93 186.9 234.9 208.95 294.36 153 372.92 172.62 423.45 131.61 459.16 143.66 513.72 96.99"/><circle class="cls-7" cx="169.17" cy="187.68" r="3.49"/><circle class="cls-7" cx="234.41" cy="209.04" r="3.49"/><circle class="cls-7" cx="292.94" cy="153.08" r="3.49"/><circle class="cls-7" cx="373.17" cy="172.38" r="3.49"/><circle class="cls-7" cx="422.96" cy="131.75" r="3.49"/><circle class="cls-7" cx="459.16" cy="143.66" r="3.49"/><path class="cls-5" d="M177.76,288.36c1.65-3.95,9.81-7.4,13.05-9.95,6.68-5.27,13.78-10,20.78-14.89,6.41-4.47,13.79-8.33,19.43-13.45,1.34,7.88.31,15.56,0,23.24-.1,2.8.11,8.92-2,11-.68.67-4,1.3-5,1.77-2,.93-4,1.86-6,2.91-3.57,2-7.45,4.32-10.87,6.6s-6.37,3.7-9.78,5.7-6.86,4.15-10.29,6.27a40.59,40.59,0,0,0-5.26,3.89c-1,.84-4,3.37-4.3,2.74"/><path class="cls-2" d="M177.59,314.39c-.71-.15-1.19-1-1.62-1.52-2.34-2.84-6.1-5.11-9.22-7A159.56,159.56,0,0,1,153.23,297c-1.78-1.31-3.14-3.1-4.94-4.34a6.47,6.47,0,0,0,1.37-1.25c1.81-1.66,4.7-3.21,6.7-4.57,8.61-5.87,16.9-12.16,25.49-18.06,5.53-3.8,10.47-8.74,16.39-11.94.89-.48,1.93-.91,2.75-1.46.66-.44,1.19-1.31,1.93-1.57a11.25,11.25,0,0,1,1.52,2.27c1.58,2.34,2.87,4.88,4.28,7.33a63.74,63.74,0,0,0,9.37,12.37c2.09,2.15,4.21,4.19,6.32,6.31.69.69,1.36,1.72,2.07,2.33.4.34.94.44,1.34.81a.76.76,0,0,0-.53-.27"/><path class="cls-2" d="M177.59,314.39c-.71-.15-1.19-1-1.62-1.52-2.34-2.84-6.1-5.11-9.22-7A159.56,159.56,0,0,1,153.23,297c-1.78-1.31-3.14-3.1-4.94-4.34a6.47,6.47,0,0,0,1.37-1.25c1.81-1.66,4.7-3.21,6.7-4.57,8.61-5.87,16.9-12.16,25.49-18.06,5.53-3.8,10.47-8.74,16.39-11.94.89-.48,1.93-.91,2.75-1.46.66-.44,1.19-1.31,1.93-1.57a11.25,11.25,0,0,1,1.52,2.27c1.58,2.34,2.87,4.88,4.28,7.33a63.74,63.74,0,0,0,9.37,12.37c2.09,2.15,4.21,4.19,6.32,6.31.69.69,1.36,1.72,2.07,2.33.4.34.94.44,1.34.81a.76.76,0,0,0-.53-.27"/></g></g></svg>