<svg width="155" height="123" viewBox="0 0 155 123" fill="none" xmlns="http://www.w3.org/2000/svg">
<path opacity="0.15" d="M46 6.6C44.5 8.1 43.2 9.8 41.9 11.6C35.8 20.3 30.6 29.7 26.4 39.5C24.3 44.4 22.4 49.5 20.8 54.6C20.2 56.5 19 58 18.3 59.8C17.3 62.4 16.7 65.3 16.1 68.1C15.6 70.2 15.2 72.3 14.9 74.4C14 80.9 14.1 88 17.3 93.8C21.7 101.7 30.7 105.4 39.3 107.7C53.3 111.5 67.7 113.1 82.2 113.6C89.1 113.9 96.1 113.9 102.9 112.5C113.8 110.3 124 104.3 131.3 95.8C138.7 87.1 143.9 75 143.7 63.4C143.7 62.5 143.5 61.7 143.2 60.9C142.9 59.8 142.8 58.7 142.8 57.6C142.5 51.7 141.9 45.9 141 40.1C140.8 39.1 140.6 38 140.4 37C139.2 30.5 137.4 23.9 133 19C128.7 14.1 122.3 11.5 116.1 9.4C97.7 3.4 78.1 0.900001 58.7 2.1C55.3 2.3 51.8 2.7 48.9 4.4C47.8 5 46.8 5.8 46 6.6Z" stroke="#19005A" stroke-width="1.6265" stroke-miterlimit="10"/>
<path d="M36.3 66.1C32.5 65.8 28.7 65.5 25 65.1C18.9 64.6 11.6 64.8 7.49998 60.5C6.09998 59.1 5.29998 57.2 4.59998 55.5V55.4C3.29998 52.1 2.29998 48.8 1.49998 45.4C1.09998 43.8 0.799985 42.1 0.599985 40.5C-0.200015 36 -1.508e-05 31.4 0.0999849 27C0.199985 23.3 1.49998 19.8 4.99998 17C7.49998 15 10.7 13.6 13.9 12.5C27.6 8.1 42.9 9.6 57.8 11.3C60.7 11.7 63.8 12 66.4 13.3C68.5 14.3 70.2 15.9 71.5 17.6C74.9 22.1 76.4 27.8 75.6 33.1C75.3 34.8 75 36.6 74.8 38.3C74.1 41.9 72.9 56 70 60.6C67.1 65.3 60.9 66.6 57.3 67.7C55.7 68.2 55.3 68.3 53.5 67.9C52.9 67.8 52.3 67.5 51.7 67.3C49.9 67 48 67 46.2 66.9C43.5 66.7 40.8 66.5 38.1 66.3C37.5 66.2 36.9 66.1 36.3 66.1Z" fill="#2D2E83"/>
<path d="M80.7 93.5C76.5 85.6 78.8 69.4 79.3 62.1C79.9 53.4 81.5 47.5 83.5 45.3C85.3 43.3 87.2 40.2 93.6 40.2C100 40.3 111.4 41.3 119.5 42.9C128.9 44.7 143.2 49.3 145.7 50.3C155.5 54.2 154.4 64.5 154 68.3C153.5 73.5 148.9 97.1 146.9 101C143.1 108.3 140.6 108.6 132.2 107.8C123.8 107.1 103.2 105.7 98.9 105.4C91.9 105 85.8 103.1 80.7 93.5Z" fill="#FFA951"/>
<path d="M33.7 23.8C35.2 22.9 37 22.5 39 22.5C40.9 22.5 42.6 22.8 44 23.5C45.5 24.2 46.6 25.1 47.4 26.3C48.2 27.5 48.6 28.8 48.6 30.3C48.6 32.1 48.2 33.6 47.4 34.7C46.6 36 45.6 37 44.2 38C42.7 39 41.7 39.9 41 40.6C40.4 41.3 40.1 42.2 40.1 43.3V44.5H36.7V42.9C36.7 41.8 36.9 40.9 37.3 40.1C37.7 39.3 38.2 38.6 38.8 38.1C39.4 37.6 40.3 36.9 41.4 36.2C42.5 35.4 43.3 34.6 43.9 33.8C44.4 33 44.7 32 44.7 30.8C44.7 29.4 44.2 28.2 43.1 27.3C42 26.4 40.7 25.9 39 25.9C37.1 25.9 35.5 26.5 34.4 27.8C33.2 29 32.6 30.7 32.6 32.7H28.9C28.9 30.8 29.3 29.1 30.1 27.5C31 25.9 32.1 24.7 33.7 23.8ZM38.5 49.1C39.2 49.1 39.8 49.3 40.3 49.8C40.8 50.3 41 50.9 41 51.6C41 52.3 40.8 52.9 40.3 53.4C39.8 53.9 39.2 54.1 38.5 54.1C37.8 54.1 37.2 53.9 36.7 53.4C36.2 52.9 36 52.3 36 51.6C36 50.9 36.2 50.3 36.7 49.8C37.1 49.4 37.7 49.1 38.5 49.1Z" fill="white"/>
<path d="M100 64.5H134.9" stroke="white" stroke-width="4" stroke-miterlimit="10"/>
<path d="M100 74.7H122.1" stroke="white" stroke-width="4" stroke-miterlimit="10"/>
<path d="M100 84.9H130.6" stroke="white" stroke-width="4" stroke-miterlimit="10"/>
<path d="M63.4 58.6L46.3 83L46.6 58.6" fill="#2D2E83"/>
<path d="M93.2 95.3L109.9 122.8L111.5 99.5" fill="#FFA951"/>
</svg>
