<svg width="654" height="306" viewBox="0 0 654 306" fill="none" xmlns="http://www.w3.org/2000/svg">
<g clip-path="url(#clip0)">
<path d="M0 171.9C4.5 164.2 4.8 152.4 5.4 142.5C20.5 150.6 38.2 154.7 53.6 161.1C49.8 168.3 44.7 178.9 36.3 180.9" fill="#FB6649"/>
<path d="M3.29995 170.5C12.8 170.5 19.8999 165.9 26.7999 161.7C42.2999 176.3 62 181.6 78.7 191.2C56.1 201.4 29.6 188.2 2.69995 171.6" fill="#FFA951"/>
<path d="M3.29995 170.5C12.8 170.5 19.8999 165.9 26.7999 161.7C42.2999 176.3 62 181.6 78.7 191.2C56.1 201.4 29.6 188.2 2.69995 171.6" fill="white"/>
<path d="M38.7 305.8L37.7 304.5L178.3 196.5L247.9 219.8L310.7 160.7L393.7 181.5L447.2 138.1L484.9 150.9L547 99.5L548 100.8L485.2 152.7L447.5 139.9L394.1 183.2L311.2 162.5L248.3 221.6L178.6 198.3L38.7 305.8Z" fill="#BAB2CD"/>
<path d="M178.7 202C180.743 202 182.4 200.344 182.4 198.3C182.4 196.257 180.743 194.6 178.7 194.6C176.657 194.6 175 196.257 175 198.3C175 200.344 176.657 202 178.7 202Z" fill="#EFEDF3"/>
<path d="M178.7 202.8C177.8 202.8 176.9 202.5 176.2 202C175.2 201.3 174.5 200.3 174.3 199.1C173.8 196.7 175.5 194.3 177.9 193.9C180.3 193.5 182.7 195.1 183.1 197.5C183.6 199.9 181.9 202.3 179.5 202.7C179.2 202.7 179 202.8 178.7 202.8ZM178.7 195.4C178.5 195.4 178.3 195.4 178.2 195.4C176.6 195.7 175.6 197.2 175.9 198.8C176 199.6 176.5 200.2 177.1 200.7C177.7 201.1 178.5 201.3 179.3 201.2C180.9 200.9 181.9 199.4 181.6 197.8C181.3 196.3 180.1 195.4 178.7 195.4Z" fill="#BAB2CD"/>
<path d="M247.6 224.5C249.643 224.5 251.3 222.844 251.3 220.8C251.3 218.757 249.643 217.1 247.6 217.1C245.556 217.1 243.9 218.757 243.9 220.8C243.9 222.844 245.556 224.5 247.6 224.5Z" fill="#EFEDF3"/>
<path d="M247.6 225.3C245.5 225.3 243.6 223.8 243.2 221.6C242.7 219.2 244.4 216.8 246.8 216.4C249.2 215.9 251.6 217.6 252 220C252.5 222.4 250.8 224.8 248.4 225.2C248.2 225.3 247.9 225.3 247.6 225.3ZM247.6 217.9C247.4 217.9 247.2 217.9 247.1 217.9C245.5 218.2 244.5 219.7 244.8 221.3C245.1 222.9 246.6 223.9 248.2 223.6C249.8 223.3 250.8 221.8 250.5 220.2C250.2 218.9 249 217.9 247.6 217.9Z" fill="#BAB2CD"/>
<path d="M309.4 165.4C311.443 165.4 313.1 163.743 313.1 161.7C313.1 159.657 311.443 158 309.4 158C307.356 158 305.7 159.657 305.7 161.7C305.7 163.743 307.356 165.4 309.4 165.4Z" fill="#EFEDF3"/>
<path d="M309.4 166.2C307.3 166.2 305.4 164.7 305 162.5C304.8 161.3 305 160.1 305.7 159.1C306.4 158.1 307.4 157.4 308.6 157.2C309.8 157 311 157.2 312 157.9C313 158.6 313.7 159.6 313.9 160.8C314.1 162 313.9 163.2 313.2 164.2C312.5 165.2 311.5 165.9 310.3 166.1C310 166.2 309.7 166.2 309.4 166.2ZM309.5 158.8C309.3 158.8 309.1 158.8 309 158.8C308.2 158.9 307.6 159.4 307.1 160C306.6 160.6 306.5 161.4 306.6 162.2C306.9 163.8 308.4 164.8 310 164.5C310.8 164.4 311.4 163.9 311.9 163.3C312.3 162.7 312.5 161.9 312.4 161.1C312.3 160.3 311.8 159.7 311.2 159.2C310.6 159 310 158.8 309.5 158.8Z" fill="#BAB2CD"/>
<path d="M394.2 185.8C396.243 185.8 397.9 184.143 397.9 182.1C397.9 180.056 396.243 178.4 394.2 178.4C392.156 178.4 390.5 180.056 390.5 182.1C390.5 184.143 392.156 185.8 394.2 185.8Z" fill="#EFEDF3"/>
<path d="M394.2 186.6C393.3 186.6 392.4 186.3 391.7 185.8C390.7 185.1 390 184.1 389.8 182.9C389.6 181.7 389.8 180.5 390.5 179.5C391.2 178.5 392.2 177.8 393.4 177.6C394.6 177.4 395.8 177.6 396.8 178.3C397.8 179 398.5 180 398.7 181.2C399.2 183.6 397.5 186 395.1 186.4C394.7 186.6 394.5 186.6 394.2 186.6ZM394.2 179.2C394 179.2 393.8 179.2 393.7 179.2C392.9 179.3 392.3 179.8 391.8 180.4C391.4 181 391.2 181.8 391.3 182.6C391.4 183.4 391.9 184 392.5 184.5C393.1 184.9 393.9 185.1 394.7 185C396.3 184.7 397.3 183.2 397 181.6C396.8 180.2 395.6 179.2 394.2 179.2Z" fill="#BAB2CD"/>
<path d="M446.8 142.9C448.843 142.9 450.5 141.243 450.5 139.2C450.5 137.157 448.843 135.5 446.8 135.5C444.756 135.5 443.1 137.157 443.1 139.2C443.1 141.243 444.756 142.9 446.8 142.9Z" fill="#EFEDF3"/>
<path d="M446.8 143.7C445.9 143.7 445 143.4 444.3 142.9C443.3 142.2 442.6 141.2 442.4 140C442.2 138.8 442.4 137.6 443.1 136.6C443.8 135.6 444.8 134.9 446 134.7C447.2 134.5 448.4 134.7 449.4 135.4C450.4 136.1 451.1 137.1 451.3 138.3C451.8 140.7 450.1 143.1 447.7 143.5C447.3 143.6 447.1 143.7 446.8 143.7ZM446.8 136.3C446.6 136.3 446.4 136.3 446.3 136.3C445.5 136.4 444.9 136.9 444.4 137.5C444 138.1 443.8 138.9 443.9 139.7C444 140.5 444.5 141.1 445.1 141.6C445.7 142 446.5 142.2 447.3 142.1C448.9 141.8 449.9 140.3 449.6 138.7C449.4 137.3 448.2 136.3 446.8 136.3Z" fill="#BAB2CD"/>
<path d="M485 155.5C487.044 155.5 488.7 153.844 488.7 151.8C488.7 149.757 487.044 148.1 485 148.1C482.957 148.1 481.3 149.757 481.3 151.8C481.3 153.844 482.957 155.5 485 155.5Z" fill="#EFEDF3"/>
<path d="M485 156.3C484.1 156.3 483.2 156 482.5 155.5C481.5 154.8 480.8 153.8 480.6 152.6C480.1 150.2 481.8 147.8 484.2 147.4C486.6 147 489 148.6 489.4 151C489.6 152.2 489.4 153.4 488.7 154.4C488 155.4 487 156.1 485.8 156.3C485.6 156.2 485.3 156.3 485 156.3ZM485 148.9C484.8 148.9 484.6 148.9 484.5 148.9C482.9 149.2 481.9 150.7 482.2 152.3C482.3 153.1 482.8 153.7 483.4 154.2C484 154.7 484.8 154.8 485.6 154.7C486.4 154.6 487 154.1 487.5 153.5C488 152.9 488.1 152.1 488 151.3C487.6 149.8 486.4 148.9 485 148.9Z" fill="#BAB2CD"/>
<path d="M206.5 96.0003C200.6 93.1003 194.1 91.6003 188.4 88.8003C180 103 172.5 120.2 168.3 135.7C187.4 132.6 204.4 147 221.3 153.9C223.2 147.3 225.7 140.6 228 134C229.7 129.1 233.4 121.1 233.7 115.9" fill="#19005A"/>
<path d="M222.9 88.1002C229.5 93.3002 237.2 96.1002 244.3 100.8C240.8 111 234.7 120.3 231 130.4C229.4 134.8 227.7 139.6 226.5 144.2C225.9 146.3 223.9 154.9 220.8 153.7C219.4 153.2 218.4 151.3 217.1 150.4C215.6 149.3 213.7 148.6 212.1 147.5C207.4 144.5 204.2 141.7 200.4 138.2C196.9 135 192.8 131.5 189.4 127.9C186.6 124.9 185.6 120.6 182.8 117.7C181.9 116.8 189.9 103.9 190.7 102.4C193.9 96.8002 197.3 91.3002 200.7 85.9002C203.7 81.2002 207.1 76.9002 209.9 72.2002C212.4 73.4002 213.2 77.1002 214.6 79.3002C216.9 82.7002 219.9 85.7002 222.9 88.1002Z" fill="#2B388F"/>
<path d="M224.3 153C218.1 145.9 212.3 134.1 209.2 125.2C206.6 117.7 211.6 113.6 216.1 107.5C226.4 93.8002 236.1 79.4002 248.1 67.2002C245.4 72.7002 242.6 79.4002 243.4 85.6002C244 90.2002 246.9 94.4002 246.3 99.3002" fill="#FB6649"/>
<path d="M441.8 0.900086C438.7 -1.59991 431.9 1.70009 429.4 5.80009C436.7 7.80009 444.6 8.50009 451.8 10.7001" fill="#FB6649"/>
<path d="M428.5 33.0001C437.3 24.3001 441.7 13.2001 442.8 1.6001C452.1 5.7001 462.6 7.7001 472.5 10.3001C477.8 11.7001 485.5 12.8001 490.1 16.0001C489.2 21.9001 490.3 27.7001 488.9 33.5001C487.3 40.3001 482.5 42.4001 479.5 48.1001" fill="#FFA951"/>
<path d="M430.4 34.4C436.5 28.8 448.6 26.3 455.8 23.7C461.3 21.7 462.6 24.4 467.2 26.1C472.9 28.2 478.6 30.4 484.3 32.5C492.4 35.5 499.6 39.7 507.9 42.4C501.5 45.4 492.3 46 485.8 47.2C482.4 47.8 479.1 49.4 475.8 50.1C472.1 50.9 470.1 48.9 466.9 47.1C460.8 43.7 454 41 447.3 39.5C440.4 38 434.5 34.2 427.2 34.5C431.7 31.8 437.5 28.9 442.1 27.5C445.9 26.4 452.1 25.6 455.1 23.8" fill="#2B388F"/>
<path d="M369.7 138.7C366.7 139.6 362.7 142 359.6 142.2C355.8 142.4 355.8 138.3 354.5 135.4C351.6 128.9 347.1 123.3 344.5 116.6C347.7 117.2 351.3 115 354.2 114.1C357.9 112.9 361.6 112.3 365.2 110.9C368 109.8 371 108.5 373.9 108.1C376.1 111.6 378.9 116.2 380 120.3C380.3 121.5 380.4 123 380.8 124.2C381.5 126.3 385 130.2 384.4 132.5C383.9 134.6 378.2 136.1 376.3 136.7C374.2 137.4 372 138 369.7 138.7Z" fill="#FB6649"/>
<path d="M368.5 139.2C371.3 138.1 374.1 136.7 376.9 135.7C379.2 134.9 383 134.9 384.9 133.4C389 130.2 388.1 122 389.1 117.4C389.8 114 392.8 107.3 396.8 106.2C394.4 106.6 392.2 107.6 389.9 108.3C384.3 110.1 378.8 111 373.3 113.3C363 117.8 368.6 135.6 361.2 142.5C362.5 142.8 366.9 139.8 368.5 139.2Z" fill="#2B388F"/>
<path d="M400.8 122.5C401.3 122.4 401.8 122.3 402.3 122.2C401.9 122.3 399.6 126.9 399.1 127.5C397.6 129.2 395.9 130.5 393.9 131.6C390 133.7 385.7 134.7 381.6 136.3C377.8 137.8 373.9 139.1 370.1 140.7C367.1 142 363.6 141.9 360.6 143.2C367 140.4 369.4 132.1 373.9 127.1C378.8 128.4 386.7 125.7 391.6 124.6C394.6 124 397.7 123.2 400.8 122.5Z" fill="#FFA951"/>
<path d="M612.6 184.7C610.8 177.3 605.3 170.4 600.8 164.4C610.7 158.8 619.7 149.3 628.9 142.6C630.8 149.3 633.8 158.7 631.4 165.4" fill="#2B388F"/>
<path d="M613.3 181.7C617.1 175.3 617.8 167.9 618.6 160.9C631.7 158.8 642.2 148.6 653.4 142.8C649.2 163.8 632.3 174.1 613.6 182.8" fill="#19005A"/>
<path d="M317.4 28.4001C316.7 28.1001 316.1 27.1001 315.7 26.4001C314.4 24.5001 313.2 22.8001 311.6 21.0001C310.7 20.1001 310 19.1001 309 18.2001C308 17.3001 306.7 16.8001 305.8 15.8001C305.1 15.0001 304.7 14.5001 303.8 13.9001C304.8 14.8001 306.8 13.6001 307.8 13.2001C309.1 12.7001 310.3 12.2001 311.6 11.6001" fill="#FFA951"/>
<path d="M311.4 44.2C311.3 44.3 311.3 44.4 311.2 44.5C310.7 43.7 310.5 42.8 310 41.9C308.2 38.8 306.5 35.7 304.7 32.6C304 31.4 303.1 30.3 302.2 29.2C301.8 28.8 300.8 27.9 300.6 27.4C300.3 26.6 300.9 26 301.5 25.2C302.5 23.9 303.8 23.1 304.7 21.7C305.9 19.9 307.2 18.5 308.7 16.9C309.5 16 310.1 14.9 310.5 13.9C310.8 13.1 311.3 12.4 311.7 11.5C311.8 12.1 312.3 12.9 312.6 13.5C313.3 15 314.2 16.5 314.9 18.1C315.5 19.7 315.9 21.4 316.6 23C317.1 24.1 317.8 25 318.1 26.1C318.4 27.1 318.5 27.9 318.9 28.8C319.1 29.3 320.1 30.2 319.1 30.5C319.2 31.1 318.5 32.8 318.2 33.4C317.9 34.1 317.3 34.5 316.9 35.3C316.4 36.6 316.4 37.6 315.7 38.8C315 40.2 314.5 41.5 313.5 42.9C313 43.9 312.3 44.9 311.4 44.2Z" fill="#FB6649"/>
</g>
<defs>
<clipPath id="clip0">
<rect width="653.4" height="305.8" fill="white"/>
</clipPath>
</defs>
</svg>
