<svg xmlns="http://www.w3.org/2000/svg" viewBox="0 0 447.14 394.92"><defs><style>.cls-1{opacity:0.3;}.cls-2{fill:none;stroke:#19005a;stroke-miterlimit:10;stroke-width:1.63px;stroke-dasharray:13.82 13.82;}</style></defs><title>illu-dots-publication</title><g id="Calque_2" data-name="Calque 2"><g id="contenu"><g class="cls-1"><path class="cls-2" d="M426.13,169.3c9.71,18.2,19.05,37.41,20.1,58.13.53,10.61-1.14,21.2-2.93,31.68-2.41,14.09-5.53,29.11-15.64,39.14-6,6-14,9.54-21.72,12.92q-90.55,39.42-184.19,70.76c-26.15,8.76-54.48,17.07-80.64,8.73-30.58-9.75-49.88-39.36-66.72-67L54.33,290.82C27.24,246.41-.8,198.59.89,146.2c.45-14.21,3.26-28.66,10.46-40.91C18,94,28,85.11,38.19,76.91,90.61,34.68,154.11,4,220.76,1c19.67-.88,39.62.7,58.25,7,17,5.75,32.38,15.27,46.08,26.35a266.1,266.1,0,0,1,20.3,18.34q2.34,2.33,4.64,4.7a29.75,29.75,0,0,0,3.15,3.2,12.26,12.26,0,0,1,1.72,1.32c5.45,5.72,10.63,11.67,15.59,17.74S380.18,92,384.67,98.4s8.71,12.92,12.68,19.58c4.19,7.18,8.14,14.45,12.29,21.64S418,154.3,422,161.71C423.42,164.24,424.78,166.76,426.13,169.3Z"/></g></g></g></svg>