<svg width="1927" height="1182" viewBox="0 0 1927 1182" fill="none" xmlns="http://www.w3.org/2000/svg">
<path d="M1926.5 0H1115V82.6C1085.3 100.4 1059.5 122.2 1039.4 148.2C925.8 294.7 1055.3 459 886.5 489.3C715.1 520 680.7 752.2 516 669C355.7 587.9 17.6 1059.5 0 590.6V1158.4C86.9 1169.2 596.4 1226.7 673.3 1109C757.4 980.2 872.2 1035.5 1035 1015C1197.8 994.5 1280.2 789.2 1312.4 759.7C1424.5 645.3 1653.8 835.9 1772.8 684.5C1796.4 656.1 1800.5 643.5 1826.2 595.1C1851.9 546.7 1926.6 525.3 1926.6 525.3L1926.5 0Z" fill="#FF9223"/>
</svg>
