<svg xmlns="http://www.w3.org/2000/svg" viewBox="0 0 1925.71 1354.43"><defs><style>.cls-1{fill:#FF9223;}</style></defs><title>orange-wave-wallonia-desktop</title><g id="Calque_2" data-name="Calque 2"><g id="contenu"><path class="cls-1" d="M1115.23,0V82.57c-29.6,17.78-55.26,39.6-75.3,65.56C926.79,294.66,1055.77,459,887.59,489.28,716.89,520,682.6,752.23,518.54,669,401.25,609.42,131.92,850.14,0,797v557.4c76-55,185.76-66.53,229-63,220,18,507.92,3.5,591.68-125.27s117.69-130.7,279.85-151.24,212-167.93,244.1-197.46c118.64-127.57,307.3,50.36,425.86-101,23.46-28.38,27.6-41,53.16-89.42s102.06-69.84,102.06-69.84V0Z"/></g></g></svg>