<svg xmlns="http://www.w3.org/2000/svg" viewBox="0 0 373.31 409.95"><defs><style>.cls-1{opacity:0.15;}.cls-2,.cls-3{fill:none;stroke:#19005a;stroke-miterlimit:10;stroke-width:1.63px;}.cls-2{stroke-dasharray:14.01 14.01;}</style></defs><title>Fichier 4</title><g id="Calque_2" data-name="Calque 2"><g id="contenu"><g class="cls-1"><path class="cls-2" d="M208.36,248.17a168.55,168.55,0,0,1-38.06,6.22c-31.49,1.84-63.78-2.11-92.63-15.42-26.29-12.13-49.46-32.89-60.93-59.77a91.8,91.8,0,0,1-5.55-18,90,90,0,0,1,.21-36.7,78.17,78.17,0,0,1,5.91-17.19,72.47,72.47,0,0,1,4.47-7.92c4.85-7.42,8.69-15.54,12.67-23.49C48.21,49.31,63.36,21.29,89.23,7.17c7-3.83,14.82-6.52,22.82-6.35,7.39.16,14.54,2.75,21.43,5.61a226.23,226.23,0,0,1,31.69,16.11,191,191,0,0,1,32.46,24.91c2.44,2.35,5,4.73,7.16,7.31,1.86,2.18,1.53,3.52,1.83,6.16.67,6,6,10.64,11.32,12.84,6.25,2.6,13.19,3.07,19.51,5.45,11.69,4.39,20.11,14.77,26.16,25.7,11,19.89,16,43.26,12.9,65.78s-14.3,44-31.75,58.61c-10.56,8.81-23.09,14.91-36.23,18.82Z"/></g><g class="cls-1"><path class="cls-3" d="M174.15,67.67A166.83,166.83,0,0,1,193,64.26a160.89,160.89,0,0,1,39.41,0c24.18,3,37.79,14.63,36.88,13.87,13.41,11.23,20.6,29.64,31.38,44.13,11.19,15,26.1,25.64,39.81,37.63,10.55,9.22,20.73,19.69,27.45,33a29.9,29.9,0,0,1,3.28,9.07,34.5,34.5,0,0,1-.05,6.89c-.36,6.76,1.05,13.41,1.3,20.13.39,10.17-.84,20.31-.88,30.39a49,49,0,0,1-6.32,23c-8.06,14.89-21.16,26.42-34,36.8-54.08,43.91-113.87,90-182.19,89.95-26.06,0-53.16-5.52-75.62-19.3a130.2,130.2,0,0,1-46.22-48.76c-14.11-26-25.78-53.29-26.4-83.94a132.92,132.92,0,0,1,1.78-24.3,149.26,149.26,0,0,1,10-34.06,163.87,163.87,0,0,1,7.88-16q2.2-3.9,4.58-7.67a29,29,0,0,1,2.41-3.6c.6-.68,1.35-1.12,2-1.78,1.75-1.86,3.15-4.38,4.68-6.48s3.18-4.3,4.81-6.4q4.91-6.33,10.14-12.29a260.19,260.19,0,0,1,22.15-22.39A246.14,246.14,0,0,1,95.59,103a231.62,231.62,0,0,1,26-15.56c3-1.53,6-3,9.06-4.37a303.81,303.81,0,0,1,29.24-11.3q5.42-1.82,10.91-3.26C171.93,68.21,173,67.93,174.15,67.67Z"/></g></g></g></svg>