<svg width="24" height="24" viewBox="0 0 24 24" fill="none" xmlns="http://www.w3.org/2000/svg">
<path fill-rule="evenodd" clip-rule="evenodd" d="M5.33317 21.9776C7.30656 23.2962 9.62664 24 12 24C15.1814 23.9963 18.2316 22.7308 20.4812 20.4812C22.7308 18.2316 23.9963 15.1814 24 12C24 9.62664 23.2962 7.30656 21.9776 5.33317C20.659 3.35977 18.785 1.8217 16.5922 0.913451C14.3995 0.00519945 11.9867 -0.232441 9.6589 0.230582C7.33117 0.693605 5.19295 1.8365 3.51472 3.51472C1.8365 5.19295 0.693605 7.33117 0.230582 9.6589C-0.232441 11.9867 0.00519945 14.3995 0.913451 16.5922C1.8217 18.785 3.35977 20.659 5.33317 21.9776ZM5.87214 2.829C7.68597 1.61702 9.81848 0.970126 12 0.970126C14.9241 0.973851 17.7275 2.13711 19.7952 4.20481C21.8629 6.27251 23.0262 9.07584 23.0299 12C23.0299 14.1815 22.383 16.314 21.171 18.1279C19.959 19.9417 18.2364 21.3555 16.2209 22.1903C14.2055 23.0251 11.9878 23.2435 9.84822 22.8179C7.7086 22.3923 5.74327 21.3419 4.20071 19.7993C2.65815 18.2567 1.60766 16.2915 1.18206 14.1518C0.756474 12.0122 0.974906 9.79451 1.80973 7.77904C2.64455 5.76361 4.05828 4.04098 5.87214 2.829Z" fill="#FB6649"/>
<path d="M10.8969 8.016C10.8931 7.88288 10.917 7.75037 10.9672 7.62709C11.0173 7.50368 11.0928 7.39206 11.1884 7.29939C11.4059 7.10955 11.6897 7.01347 11.9778 7.03218C12.2621 7.01542 12.5414 7.11149 12.7552 7.29939C12.9408 7.4919 13.0444 7.74867 13.0444 8.016C13.0444 8.28333 12.9408 8.54022 12.7552 8.73261C12.5419 8.92269 12.2634 9.0229 11.9778 9.01197C11.6922 9.02411 11.4132 8.92379 11.2005 8.73261C11.1008 8.64249 11.022 8.53172 10.9695 8.40795C10.917 8.28418 10.8922 8.15033 10.8969 8.016ZM12.9374 17.0404H11.0183V9.87433H12.9374V17.0404Z" fill="#FB6649"/>
</svg>
