<svg width="32" height="27" viewBox="0 0 32 27" fill="none" xmlns="http://www.w3.org/2000/svg">
<path d="M0 12.6378L0.3 13.2378L1.8 16.5378L2.1 17.1378L2.7 16.8378C4.2 16.1378 5.9 16.7378 6.6 18.2378C7.3 19.7378 6.7 21.4378 5.2 22.1378L4.6 22.4378L4.9 23.0378L6.4 26.3378L6.7 26.9378L7.3 26.6378L31.1 15.5378L31.7 15.2378L31.4 14.6378L29.9 11.3378L29.6 10.7378L29 11.0378C27.5 11.7378 25.8 11.1378 25.1 9.63782C24.4 8.13782 25 6.43779 26.5 5.73779L27.1 5.43781L26.8 4.83783L25.3 1.53784L25 0.937805L24.4 1.23779L0.6 12.3378L0 12.6378ZM1.7 13.2378L16.9 6.13782L17.7 7.93781L18.9 7.33783L18.1 5.53784L24.4 2.63782L25.4 4.73779C23.7 5.83779 23 8.13784 23.9 10.0378C24.8 11.9378 27 12.9378 28.9 12.3378L29.9 14.5378L23.6 17.4378L22.8 15.6378L21.6 16.2378L22.4 18.0378L7.2 25.1378L6.2 22.9378C7.9 21.8378 8.6 19.5378 7.7 17.6378C6.8 15.7378 4.6 14.7378 2.7 15.3378L1.7 13.2378ZM18.3 9.13782L19.4 11.5378L20.6 10.9378L19.5 8.53784L18.3 9.13782ZM20 12.7378L21.1 15.1378L22.3 14.5378L21.2 12.1378L20 12.7378Z" fill="#FF7045"/>
</svg>
