<svg width="78" height="62" viewBox="0 0 78 62" fill="none" xmlns="http://www.w3.org/2000/svg">
<path d="M66.6001 43.3H20.8001L12.6001 3.3H0.100098V0H15.3001L18.1001 13.6H77.3001L66.6001 43.3ZM23.5001 40H64.3001L72.7001 16.8H18.8001L23.5001 40Z" fill="#FB6649"/>
<path d="M30.0001 61.5C25.6001 61.5 22.1001 58 22.1001 53.6C22.1001 49.2 25.6001 45.7 30.0001 45.7C34.4001 45.7 37.9001 49.2 37.9001 53.6C37.9001 58 34.4001 61.5 30.0001 61.5ZM30.0001 49C27.4001 49 25.4001 51.1 25.4001 53.6C25.4001 56.2 27.5001 58.2 30.0001 58.2C32.6001 58.2 34.6001 56.1 34.6001 53.6C34.7001 51.1 32.6001 49 30.0001 49Z" fill="#FB6649"/>
<path d="M60.3001 61.5C55.9001 61.5 52.4001 58 52.4001 53.6C52.4001 49.2 55.9001 45.7 60.3001 45.7C64.7001 45.7 68.2001 49.2 68.2001 53.6C68.2001 58 64.6001 61.5 60.3001 61.5ZM60.3001 49C57.7001 49 55.7001 51.1 55.7001 53.6C55.7001 56.2 57.8001 58.2 60.3001 58.2C62.9001 58.2 64.9001 56.1 64.9001 53.6C64.9001 51.1 62.8001 49 60.3001 49Z" fill="#FB6649"/>
</svg>
