<svg width="29" height="29" viewBox="0 0 29 29" fill="none" xmlns="http://www.w3.org/2000/svg">
<path d="M26.1 3.9H21.5V0.4C21.5 0.2 21.3 0 21.1 0H20.3C20.1 0 19.9 0.2 19.9 0.4V3.9H8.6V0.4C8.6 0.2 8.4 0 8.2 0H7.3C7.1 0 6.9 0.2 6.9 0.4V3.9H2.1C0.9 3.9 0 4.9 0 6V26.4C0 27.6 0.9 28.5 2.1 28.5H26.2C27.4 28.5 28.3 27.6 28.3 26.4V6C28.2 4.9 27.3 3.9 26.1 3.9ZM1.8 5.7C1.9 5.6 2 5.6 2.1 5.6H6.9V8.9C6.9 9.1 7.1 9.3 7.3 9.3H8.1C8.3 9.3 8.5 9.1 8.5 8.9V5.6H19.8V8.9C19.8 9.1 20 9.3 20.2 9.3H21C21.2 9.3 21.4 9.1 21.4 8.9V5.6H26C26.1 5.6 26.2 5.6 26.3 5.7C26.4 5.8 26.4 5.9 26.4 6V11.1H1.7V6C1.7 5.9 1.7 5.8 1.8 5.7ZM26.4 26.7C26.3 26.8 26.2 26.8 26.1 26.8H2.1C2 26.8 1.9 26.8 1.8 26.7C1.7 26.6 1.7 26.5 1.7 26.4V12.8H26.6V26.4C26.6 26.5 26.5 26.6 26.4 26.7Z" fill="#FF7045"/>
</svg>
