<svg width="27" height="31" viewBox="0 0 27 31" fill="none" xmlns="http://www.w3.org/2000/svg">
<path d="M13.7 0.799988C7.09995 0.799988 1.69995 6.19999 1.69995 12.8C1.69995 19.2 10.4 29.5 13.7 29.5C16.2 29.5 20.2 24.5 20.9 23.5C22.3 21.6 25.6 16.8 25.6 12.7C25.7 6.09999 20.3 0.799988 13.7 0.799988ZM13.7 17.5C11.1 17.5 8.89995 15.4 8.89995 12.7C8.89995 10.1 11 7.89999 13.7 7.89999C16.4 7.89999 18.5 9.99999 18.5 12.7C18.5 15.3 16.3 17.5 13.7 17.5Z" stroke="#FB6649" stroke-width="1.5" stroke-miterlimit="10"/>
</svg>
