<svg xmlns="http://www.w3.org/2000/svg" viewBox="0 0 345.29 238.3"><defs><style>.cls-1{fill:#e69965;}.cls-2{fill:#fcdc55;}.cls-10,.cls-13,.cls-3{fill:none;stroke-miterlimit:10;stroke-width:1.84px;}.cls-3{stroke:#fff;}.cls-4{fill:#2d2e83;}.cls-5{fill:#19005a;}.cls-6{fill:#fff;}.cls-7{fill:#ffd2b4;}.cls-8{fill:#66271f;}.cls-9{fill:#ff7045;}.cls-10{stroke:#7475ad;}.cls-11{fill:#f25c3c;}.cls-12{fill:#e6aa83;}.cls-13{stroke:#ff7045;}.cls-14{fill:#c78457;}</style></defs><title>illu-contact-banner-mobile_1</title><g id="Calque_2" data-name="Calque 2"><g id="contenu"><path class="cls-1" d="M185.71,30.08s-.39-8.55-3.06-11.8l-1,6L174.87,11.6s-3.47,8.67,2.76,22l-2.72,50.88,2,17.24-1.15,19.76c4.77,1.61,16.15,1.1,19.29-2.81,5-5.4,3.71-13,.45-31.75Z"/><path class="cls-1" d="M53.32,238.3l-1.78-25L33.15,200.1l-3.92,5.53s2.14,12.4,7.59,32.67Z"/><path class="cls-2" d="M68,178.12s5.51,14.07,1.47,60.18h112.6c-8.36-19.23-16.74-38.25-23.25-57.93-8.37-25.31-12.38-38.49-12.38-38.49l34.18-1.16-4.18-61.26S138.15,78.22,86.15,77a22.68,22.68,0,0,0-5,.93c-44,8.87-52.48,40.36-52.48,40.36S11.75,173.92,5.53,193.45l51.32,26.11Z"/><path class="cls-3" d="M67.8,81.79c1.37,10.43,16.07,24,16.07,24l6-15,15,7.23S99.67,84.93,94.28,77.2"/><path class="cls-1" d="M89.44,77.91,84,61.28s6.38-.64,7-4.38c.28-3.41-3.35-11.83-5.56-17.9l-12.88.54L75.59,60l-.68,21.32h0c4.09,7.38,15,9.45,15,9.45A36.44,36.44,0,0,0,89.44,77.91Z"/><path class="cls-4" d="M73,42.54c-3.07-5.87-2.25-10.1,2.21-12.95,2.67-1.71,5.39-.37,7.28,3C84.2,35.69,86,38.8,86,38.8S76.85,41.58,73,42.54Z"/><path class="cls-5" d="M73,42.54c.74-1.06,2.34-4.94,7.47-6.54a44.36,44.36,0,0,1,6.26-1.61c2.43-.27,7-.55,8.56.86.25.23.49.52.36.79a1.2,1.2,0,0,1-.59.44c-1.69.8-5.13,1.16-9.63,2.52"/><ellipse class="cls-6" cx="108.24" cy="140.04" rx="1.41" ry="1.56" transform="matrix(0.95, -0.3, 0.3, 0.95, -37.37, 39.42)"/><ellipse class="cls-6" cx="104.83" cy="127.59" rx="1.41" ry="1.56" transform="translate(-33.76 37.8) rotate(-17.65)"/><ellipse class="cls-6" cx="100.07" cy="114.9" rx="1.41" ry="1.56" transform="matrix(0.95, -0.3, 0.3, 0.95, -30.13, 35.76)"/><ellipse class="cls-6" cx="95.4" cy="103.81" rx="1.41" ry="1.56" transform="translate(-26.99 33.82) rotate(-17.65)"/><path class="cls-7" d="M219.73,89.88c-.36-8,.57-42.51.9-48.29.17-2.9.62-5.79,2.6-8.26A49.52,49.52,0,0,0,226,28c.22-.4.43-2-.36-1.57-1.18.66-1.51,1.75-3.88,1.37-.32-.05-.65-.06-1-.08-5.07-.31-6.88,10-7.81,13.54-1.31,4.94-2.9,9.91-4.22,14.88a314.8,314.8,0,0,0-6.89,39.09,8.06,8.06,0,0,0,2.75,7.09c8.13,6.64,30.66,23,48.61,6.14C257.45,104.51,219.73,89.88,219.73,89.88Z"/><path class="cls-7" d="M281,238.3c14.24-21.58,21.6-45.35,5.11-69.35l-29.77,7.65s-14.37,27.64-27.82,61.7Z"/><path class="cls-7" d="M292.68,238.3c3.95-25,5.34-48.27-1-56.46l-40.81,4.85,1.44,51.61Z"/><path class="cls-4" d="M306.32,238.3c-1.41-21.08-6.13-41.22-13-61.63-.14-.44-17.38-.18-17.53-.63l-23.26,7.45s-9.44,11.23-27.73,54.81Z"/><ellipse class="cls-8" cx="277.42" cy="71.43" rx="10.29" ry="6.49" transform="translate(95.33 292.57) rotate(-64.97)"/><ellipse class="cls-8" cx="267.15" cy="69.25" rx="16.3" ry="12.01" transform="translate(116.88 300.74) rotate(-71.54)"/><ellipse class="cls-8" cx="279.09" cy="107.95" rx="23.06" ry="29.47" transform="translate(-9.58 29.14) rotate(-5.88)"/><path class="cls-7" d="M331.44,234c-1.65-.06-2.57-1.89-3.87-2.9-1.91-1.47-5.65-3.72-7.52-5.26-1.59-1.32-.26-8.07-.67-10.23-.75-4-3.48-28.91-4.47-55.6-.09-2.31-2.64-3.13-6.22-6.12l13.81-10.49c7-4.78,11.95-1.59,11.62,7a18.07,18.07,0,0,1-.23,2.31c-1.43,8.66-2.22,15.22-3,21.79q-1.35,11.12-2.68,22.23c-.84,7-2.72,15.19-1,21.95,1.2,4.77,3.38,9.11,5.09,13.66a1.39,1.39,0,0,1,0,1.27A1,1,0,0,1,331.44,234Z"/><path class="cls-7" d="M331.44,234c-1.65-.06-2.57-1.89-3.87-2.9-1.91-1.47-5.65-3.72-7.52-5.26-1.59-1.32-.26-8.07-.67-10.23-.75-4-3.48-28.91-4.47-55.6-.09-2.31-2.64-3.13-6.22-6.12l13.81-10.49c7-4.78,11.95-1.59,11.62,7a18.07,18.07,0,0,1-.23,2.31c-1.43,8.66-2.22,15.22-3,21.79q-1.35,11.12-2.68,22.23c-.84,7-2.72,15.19-1,21.95,1.2,4.77,3.38,9.11,5.09,13.66a1.39,1.39,0,0,1,0,1.27A1,1,0,0,1,331.44,234Z"/><path class="cls-9" d="M241.91,138v0a17.81,17.81,0,0,0,3.67,14.12l3.91,4.68,3,26.67,40.79-6.82L300,156s15.16,12.8,15.17,12.82L333,139.58c-5.16-8.89-17.95-23.44-27.78-32.23-9.15-8.19-24.56-8.72-44.55-8.6,0,0-8.79-1.72-38.05-8l-10,38.73Z"/><line class="cls-10" x1="245.06" y1="195.04" x2="292.85" y2="176.67"/><path class="cls-11" d="M286.88,158.84c-5.79.24-22.89-1.63-22.89-1.63s-11.3-2.54-13.24-4.53c4.77-1.16,10.17-1.08,14.95-.83a42.63,42.63,0,0,1,14.23,3,33.76,33.76,0,0,1,3.67,1.81C284.29,157.05,286.15,158.87,286.88,158.84Z"/><path class="cls-7" d="M268.56,98.5a146.79,146.79,0,0,1,23.32,2.33c-2.62,12.29-28.31,24.27-28.31,24.27s-12.53-10.72-8.2-27.33C259.75,98.3,265.25,98.35,268.56,98.5Z"/><path class="cls-7" d="M275.33,105.76l-.48-26.84,2.27-13.56s-8-2.75-11.45,2-4.1,11.12-4.1,11.12-2.14,7.92.67,7.79,5-.47,5-.47l-4.41,20.6Z"/><path class="cls-8" d="M271.24,62.4l8.12,1.85-1.15,11.08-2.81-2.49a13.43,13.43,0,0,1-4.16-10.44Z"/><ellipse class="cls-7" cx="275.22" cy="75.99" rx="4.13" ry="2.32" transform="translate(58.32 261.66) rotate(-56)"/><polygon class="cls-12" points="267.23 85.79 271.33 84.92 264.66 97.8 267.23 85.79"/><path class="cls-7" d="M219.8,29.19c2.35-2.69,6.2-10.67,6.2-10.67s1.5,6.64,0,9.48"/><path class="cls-7" d="M221,27.68,220.48,22a60.56,60.56,0,0,0-4.89,10.51"/><line class="cls-13" x1="190.34" y1="7.98" x2="195.97" y2="16.44"/><line class="cls-13" x1="214.37" y1="16.23" x2="220.93" y2="8.64"/><line class="cls-13" x1="201.87" y1="10.92" x2="199.32" y2="0.21"/><line class="cls-13" x1="208.5" y1="11.27" x2="212.04" y2="1.79"/><path class="cls-14" d="M74.84,55a8.18,8.18,0,0,0,5.81,6L75.12,73.64Z"/><line class="cls-3" x1="166.98" y1="79.11" x2="170.73" y2="140.34"/><line class="cls-3" x1="9.21" y1="181.6" x2="59.68" y2="208.49"/><rect class="cls-5" y="200.6" width="345.29" height="37.7"/><ellipse class="cls-8" cx="277.23" cy="71.43" rx="10.29" ry="6.49" transform="translate(95.22 292.4) rotate(-64.97)"/><ellipse class="cls-8" cx="266.96" cy="69.25" rx="16.3" ry="12.01" transform="translate(116.75 300.56) rotate(-71.54)"/><ellipse class="cls-8" cx="278.91" cy="107.95" rx="23.06" ry="29.47" transform="translate(-9.59 29.12) rotate(-5.88)"/><path class="cls-7" d="M331.25,234c-1.65-.06-2.56-1.89-3.87-2.9-1.91-1.47-5.65-3.72-7.52-5.26-1.59-1.32-.26-8.07-.67-10.23-.74-4-3.47-28.91-4.47-55.6-.09-2.31-2.64-3.13-6.22-6.12l13.82-10.49c7-4.78,11.95-1.59,11.62,7a18.09,18.09,0,0,1-.24,2.31c-1.42,8.66-2.21,15.22-3,21.79L328,196.74c-.84,7-2.73,15.19-1,21.95,1.2,4.77,3.38,9.11,5.09,13.66a1.39,1.39,0,0,1,0,1.27A.94.94,0,0,1,331.25,234Z"/><path class="cls-7" d="M331.25,234c-1.65-.06-2.56-1.89-3.87-2.9-1.91-1.47-5.65-3.72-7.52-5.26-1.59-1.32-.26-8.07-.67-10.23-.74-4-3.47-28.91-4.47-55.6-.09-2.31-2.64-3.13-6.22-6.12l13.82-10.49c7-4.78,11.95-1.59,11.62,7a18.09,18.09,0,0,1-.24,2.31c-1.42,8.66-2.21,15.22-3,21.79L328,196.74c-.84,7-2.73,15.19-1,21.95,1.2,4.77,3.38,9.11,5.09,13.66a1.39,1.39,0,0,1,0,1.27A.94.94,0,0,1,331.25,234Z"/><path class="cls-9" d="M241.73,138v0a17.81,17.81,0,0,0,3.68,14.12l3.9,4.68,3,26.67,40.8-6.82,6.66-20.7s15.16,12.8,15.17,12.82l17.85-29.21c-5.16-8.89-17.95-23.44-27.78-32.23-9.15-8.19-24.56-8.72-44.55-8.6,0,0-8.79-1.72-38-8l-10,38.73Z"/><path class="cls-11" d="M286.69,158.84c-5.79.24-22.89-1.63-22.89-1.63s-11.3-2.54-13.24-4.53c4.77-1.16,10.17-1.08,14.95-.83a42.63,42.63,0,0,1,14.23,3,32.88,32.88,0,0,1,3.67,1.81C284.1,157.05,286,158.87,286.69,158.84Z"/><path class="cls-7" d="M268.38,98.5a146.69,146.69,0,0,1,23.31,2.33c-2.62,12.29-28.31,24.27-28.31,24.27s-12.53-10.72-8.2-27.33C259.56,98.3,265.06,98.35,268.38,98.5Z"/><path class="cls-7" d="M275.14,105.76l-.48-26.84,2.27-13.56s-8-2.75-11.45,2-4.1,11.12-4.1,11.12-2.13,7.92.67,7.79,5-.47,5-.47l-4.41,20.6Z"/><path class="cls-8" d="M271.06,62.4l8.11,1.85L278,75.33l-2.81-2.49a13.39,13.39,0,0,1-4.15-10.44Z"/><ellipse class="cls-7" cx="275.03" cy="75.99" rx="4.13" ry="2.32" transform="matrix(0.56, -0.83, 0.83, 0.56, 58.23, 261.5)"/><polygon class="cls-12" points="267.04 85.79 271.14 84.92 264.47 97.8 267.04 85.79"/><path class="cls-1" d="M17.75,219.13s29.83,5.18,75.1,5.74a24.78,24.78,0,0,0,17.77,4.92l-8.75-7.49,6.78-.43S99.53,217,90.88,217L32.47,200.7l-10.89-5.56-11-5.68,3.28,24.12Z"/><path class="cls-2" d="M60,197.66c-5.33-8.45-12.09-15.65-21.08-20.21-8.17-4.15-17.37-5.64-26.45-6.2-2.74,8.88-5.25,16.95-6.95,22.3l51.32,26.11,5.39-20A5,5,0,0,1,60,197.66Z"/><line class="cls-3" x1="9.21" y1="181.7" x2="59.68" y2="208.59"/></g></g></svg>