<svg xmlns="http://www.w3.org/2000/svg" viewBox="0 0 675.35 419.71"><defs><style>.cls-1{opacity:0.2;}.cls-2{fill:#19005a;}.cls-3{fill:#fff;}.cls-4{fill:#bab2cd;}.cls-5{fill:#66271f;}.cls-6{fill:#471b16;}.cls-7{fill:#2d2e83;}.cls-8{fill:#ffdbc2;}.cls-9{fill:#593d87;}.cls-10{fill:#e69965;}.cls-11{fill:#b85131;}.cls-12{fill:#ff7045;}.cls-13{fill:#4d2b83;}.cls-14{fill:#6f4ca8;}.cls-15{fill:#c9482e;}.cls-16,.cls-17,.cls-20,.cls-23,.cls-27,.cls-29{fill:none;stroke-miterlimit:10;}.cls-16{stroke:#c9482e;}.cls-16,.cls-17,.cls-20,.cls-23,.cls-29{stroke-width:1.5px;}.cls-17,.cls-27{stroke:#fff;}.cls-18{fill:#4c4d96;}.cls-19{fill:#ffd2b4;}.cls-20{stroke:#4c4d96;}.cls-21{fill:#fbbe25;}.cls-22{fill:#d68330;}.cls-23{stroke:#cabfda;}.cls-24{fill:#121226;}.cls-25{fill:#a8673d;}.cls-26{fill:#ffa951;}.cls-27{stroke-width:2px;}.cls-28{fill:#cec9e2;}.cls-29{stroke:#19005a;}</style></defs><g id="Layer_2" data-name="Layer 2"><g id="contenu"><g class="cls-1"><ellipse class="cls-2" cx="451.94" cy="417.29" rx="107.76" ry="2.43"/><ellipse class="cls-2" cx="93.3" cy="416.88" rx="93.3" ry="2.59"/><ellipse class="cls-2" cx="269.53" cy="416.88" rx="145.08" ry="2.59"/><ellipse class="cls-2" cx="463.8" cy="416.91" rx="211.55" ry="2.5"/></g><polygon class="cls-3" points="350.31 315.85 350.31 417 359.13 417 359.13 310.51 350.31 315.85"/><polygon class="cls-4" points="359.13 283.78 350.31 283.78 350.31 315.85 359.13 310.51 359.13 283.78"/><polygon class="cls-5" points="388.99 396.23 385.8 416.21 420.96 416.21 396.99 397.83 396.99 384.24 386.6 381.84 388.99 396.23"/><path class="cls-6" d="M335.2,295.41h58.61l-14.28-33.59-15-75.31H293.63a9,9,0,0,0-9,10.17l7.63,60.85A43.26,43.26,0,0,0,335.2,295.41Z"/><polygon class="cls-2" points="370.97 400.53 410.46 402.14 415 332.04 377.42 270.39 370.97 400.53"/><polygon class="cls-5" points="447.67 391.43 465.25 417 494.82 394.63 466.05 397.83 458.06 383.44 447.67 391.43"/><path class="cls-3" d="M384.61,221.2l-67.34-5.08s-1.43,8.93-2.3,18.37l69-.43Z"/><path class="cls-7" d="M392.8,243.76h-8.4l-.43-9.7-69,.43c-.62,6.7-1,13.66-.29,17.86,1.6,10.12,13.85,31.43,35.69,31.43h33.45l63,125.32,30.07-19.26L420.06,261.39A29.88,29.88,0,0,0,392.8,243.76Z"/><path class="cls-5" d="M526.43,112.28l21-5s7.78-10.9,8.15-19.45c.24-5.59-1.14-11.32-6.26-15.76-9.13-9.66-30.21-4.92-33,8.41-2.73,12.9,6.66,24.36,7.76,29.87C524.29,111.5,526.43,112.28,526.43,112.28Z"/><polygon class="cls-8" points="529.89 323.63 513.94 334.08 530.3 403.37 512.51 414.14 541.51 409.66 529.89 323.63"/><polygon class="cls-9" points="512.51 414.14 506.76 417 541.69 417 541.51 409.66 512.51 414.14"/><path class="cls-8" d="M558.09,401.9s2.28-64.63,2.28-68.12l-16-5.81,3.42,75.09-16.34,9.78,28.57-2.21Z"/><polygon class="cls-9" points="531.5 412.84 524.42 417 561.51 417 560.07 410.63 531.5 412.84"/><path class="cls-8" d="M492.13,177.66a6,6,0,0,1-7.41-1.07c-5.86-6.28-18.43-19.15-26-22.47-3.37-1.48-8.43-.61-11-.27-10.17,1.34-13.12-2.94-13.12-2.94s17.32-6.5,20.85-5.13c7.15,2.76,27.72,12.52,34.91,16.45,2.93,1.61,14.32.8,14.62,5C505.19,169.54,497.25,174.62,492.13,177.66Z"/><polyline class="cls-8" points="455.49 145.78 443.86 143.61 442.56 145.19 450.42 147.7"/><path class="cls-9" d="M527.22,127.93s2.36,26.35-9.72,42.84c-5.63,7.69-19.89,16.16-19.89,16.16l-9.93-26.53,7.93-7.64,18-31.08S522.61,119.35,527.22,127.93Z"/><path class="cls-10" d="M149.7,127.22l1.62,6.2a7.31,7.31,0,0,0,10.21,4.74l28.88-13.8-20.17-8.24-7.78,3.1-9.63-3.45Z"/><path class="cls-2" d="M218.8,108.68s32.95,9.89,41.81-11.74-2.88-34.4-6.18-37.28-30-14.85-42.88,6.07c-13.69,22.26,1.27,38.63,1.27,38.63Z"/><path class="cls-10" d="M154.73,104.56l-5.31-10.07c-.43-.8-1-1.69-1.42-2.58-1.69.22-3.37.46-5.05.71a17,17,0,0,1,.79,2.85q.75,5.27,1.59,10.5c1.09,6.88,1.65,14.77,4.37,21.25,1.72-.25,12.76-8,12.76-8Q158.6,111.89,154.73,104.56Z"/><path class="cls-11" d="M196.59,97.74a21.1,21.1,0,0,0-7,3l-27,18c-1-1.43,14.42,20.31,29.54,29.89.64-.88,14.51-41,8.17-51.75Z"/><path class="cls-12" d="M221.84,101.85l-21.54-5s-18,26.63-15.53,32.84c2.11,5.27,7.64,14,7.64,14L194,161.43l39.29-6.15,3.94-12.93-12.56-40.61Z"/><path class="cls-13" d="M204.23,71.32,206,73.9l.5,3.81s3-4,2-8.23l-4.18-2.09Z"/><path class="cls-14" d="M547.31,153.27c2.67-12.09,6.42-19,2.67-26s-11.54-11.89-19-9.59c-7,2.17-6.76,1.15-17.18,4.3,0,0-4.17,5.43-9.15,21.7-1.59,5.2.35,12.13,6.78,16.41,8.55,5.71,10.23,21.35,12.44,31.69l31.44-15c-1.87-2.23-2.94-4-5.88-8.29C546.68,164.46,547.74,158.36,547.31,153.27Z"/><path class="cls-12" d="M575.15,207.07c-5.85-11.85-14.9-25.77-18.6-30.3l-33.38,13.56c.22,1.06,1.92,11.65,1.63,12.7-2.18,8-12.17,46.4-21.08,67.14a66.12,66.12,0,0,0-4.85,34.28l14.79,78H532L568,383.68S590.89,239,575.15,207.07Z"/><polygon class="cls-15" points="569.28 375.46 532.2 375.46 531.72 374.5 512.2 374.5 513.66 382.49 531.98 382.49 531.97 383.44 568.04 383.68 569.28 375.46"/><polyline class="cls-16" points="531.98 382.49 536.94 223.74 529.32 209.78"/><path class="cls-8" d="M474,217.05s9.57-7.92,19.61-6.6L513.07,181l17.25,1.11-34.53,34.74Z"/><path class="cls-8" d="M513.82,122c-1.13,1.46-1.66,19.2-1.66,19.2s13.92-16.05,20.76-23.36C532.92,117.82,522.16,115.74,513.82,122Z"/><polygon class="cls-5" points="202.62 414.75 197.83 417.08 229.26 417.08 228.19 410.76 202.62 414.75"/><polygon class="cls-10" points="227.41 405.69 229.26 371.94 214.01 376.57 217.31 405.69 202.62 414.75 228.19 410.76 227.41 405.69"/><polygon class="cls-10" points="255.16 387.21 234.79 353.37 232.09 374.73 247.72 394.63 247.38 411.8 259.63 389.26 255.16 387.21"/><polygon class="cls-5" points="265.44 391.11 259.63 389.26 247.38 411.8 246.79 417.08 265.44 391.11"/><path class="cls-3" d="M194,161.43,165.8,261A59.42,59.42,0,0,0,169,302.11l24.92,54v34.15h37s13.11-82.81,15.91-114.4,5.15-60.59,0-77.9-16.37-42.11-16.37-42.11Z"/><path class="cls-12" d="M226.76,102.08l-12-.32-5.31,38.7s19.89,24.85,28.15,31.6c0,0,11.67-8.77,27.82-27.15l4.68-4Z"/><rect class="cls-4" x="204.19" y="143.69" width="34.99" height="51.38" transform="translate(-22.1 33.72) rotate(-8.29)"/><path class="cls-10" d="M257.57,176.24,252,158.89l-17.31,5.86-14.06,4.75c-3.17,1.07-6.65,2.59-10.12,3.25l-.28,6.95c3.4-.35,6.79-1,9.79-1.28C233.42,177.06,244.16,177.6,257.57,176.24Z"/><polygon class="cls-10" points="212.61 172.98 212.24 169.25 208.69 165.07 202.78 167.61 199.42 169.16 203.44 181.2 210.21 179.7 215.95 176.19 212.61 172.98"/><path class="cls-10" d="M217.87,103l-1.65-22.21,1.41-11.19s-7.3-2.37-10.14,1.51a19.42,19.42,0,0,0-3.16,9.15s-1.54,6.52,1,6.45,4.43-.33,4.43-.33l-3,17Z"/><path class="cls-10" d="M226.76,102.08,200.3,96.89s-.65,19.59-.43,23-.67,6.27,5.6,2S221.61,107.9,226.76,102.08Z"/><path class="cls-2" d="M205.78,66.6a11.92,11.92,0,0,0-4,7A62.15,62.15,0,0,0,214,77.4s2.58-6.5,5.18-7.23C219.16,70.17,214.53,59.18,205.78,66.6Z"/><path class="cls-10" d="M274,161.32l-8.67-16.41-13.39,14-14.31,4.86,19.9,12.49,7.88-.22A10,10,0,0,0,274,161.32Z"/><polyline class="cls-10" points="148 91.91 151.51 80.14 147.92 63.92 145.12 64.54 146.37 72.65 137.63 76.7 136.38 84.19 141.06 88.25 143.74 95.47"/><polygon class="cls-3" points="48.66 347.79 30.22 354.75 28.81 403.99 44.23 403.37 48.66 347.79"/><polygon class="cls-2" points="44.22 403.48 44.23 403.37 28.81 403.99 28.8 404.48 22.61 415.42 46.12 415.42 44.22 403.48"/><polygon class="cls-3" points="86.52 401.16 101.07 350.44 81.62 360.38 72.98 403.39 86.6 401.24 86.52 401.16"/><polygon class="cls-2" points="86.6 401.24 72.98 403.39 68.72 415.42 108.5 415.42 86.6 401.24"/><path class="cls-12" d="M25.16,201.58,16.79,385.91l37.47,4.31L64.7,249l14.42,61.66L71,387.9l34.61-.66,11.12-67.18a97.14,97.14,0,0,0-.51-34.51L100.66,205.9Z"/><path class="cls-17" d="M23.42,227.11s14.92,1,18.9-17.91"/><path class="cls-17" d="M95,209.2s.5,8.46,9,15.92"/><path class="cls-18" d="M80.61,91.79c13,11,18.5,37.25,49.83,56.86,0,0-20.34,22.46-31.45,25.92C99,174.57,62.54,104.54,80.61,91.79Z"/><path class="cls-19" d="M99,162.45c.19,1.51,1.72,2.45,3.1,3.12,4.44,2.16,9.35,4,14.24,3.2s9.56-4.84,9.39-9.78"/><path class="cls-2" d="M85.88,100.53c4.68,21.25,16.15,75.21,19.76,109l-85.59.57s3.56-30.82,3.52-41c-16.72,2.69-18-23.17-16.06-46.38.48-5.57.76-12.18,1.85-18,1.56-8.46,8.4-14.63,16.79-16.5,10.48-2.34,28.5-3.73,48.23.74A15.3,15.3,0,0,1,85.88,100.53Z"/><path class="cls-18" d="M72.58,87.78s13.21,15.75,1.14,15.46S46.11,85.29,36.36,86.54L24.09,88.93s-2.43-11.46,9.43-14.09C61.86,72.6,72.3,87.62,72.3,87.62"/><path class="cls-19" d="M64.73,85.31,61.45,65.79s5.54-.4,6.5-3.41c.67-2.74-1.39-9.6-2.53-14.53l-11.1.2.08,16.59L51.17,81.82l1.26,2.3s7.37,7.5,17.37,9.47Z"/><path class="cls-20" d="M48.51,149c2.54-4.55,3.91-8.52,2.25-13.69-1.83-5.72-7.46-7-10.37-11.44-3.68-5.65-.46-16.31-1.32-22.93"/><path class="cls-21" d="M55,50.4c-1.9-4.79-3.74-7.56,2.88-10.33,2.59-1.08,4.66-.2,5.86,2.54l2.22,5.09S58.4,49.7,55,50.4Z"/><path class="cls-22" d="M56.91,50S68.3,40.45,70.47,38.93s10.32-3.06,4.9,2.77A23.43,23.43,0,0,1,67,47.58Z"/><path class="cls-23" d="M194,356.07l7.61-151.48s-5.3-1.87-6.55-8.73"/><path class="cls-19" d="M21.46,159s42.13-35.5,45.23-40.72l-1.82-12.32s.06-5.87,10.84-1.23c0,0,1.89,7.14-3.95,18.52-5,9.71-16.42,27.43-26.48,40.92a11.29,11.29,0,0,1-16.81,1.46Z"/><polyline class="cls-19" points="73.72 103.93 81.85 106.66 78.77 115.54 72.3 112.5"/><rect class="cls-4" x="75.14" y="120.68" width="54.7" height="42.77" transform="translate(21.75 -13.39) rotate(8.36)"/><path class="cls-19" d="M133.61,140.56l-13.27-.29-1.21,13,10.33,1.94S135.93,151.61,133.61,140.56Z"/><path class="cls-24" d="M361.46,113.22c-1.76.07-3.83-3.38-4.42-4.58-1.38-2.8-3.57-9.78.09-11.73,1.51-.81,3.32-.36,4.93-.54,4.17-.47,4.93-7.77,9-9.12,3.4-1.12,8.17.07,9.74,3.2,2.12,4.22-2.69,12.38-8.17,14.52-.87.34,2.05,7.67.92,7.72Z"/><path class="cls-3" d="M331.73,138.41s21-8.62,46.88,2.66c40.37,19.1,38.79,68,38.79,68l-20.73,14-15.24-4.56-3.48-.2-55.74-.22-3.92-7.72-18.89,1.36L298,203.64S303.88,151.37,331.73,138.41Z"/><path class="cls-25" d="M371,138.57c0-.86-1.44-15.61-1.44-15.61s4.38,1.12,4.72-4.36-1.36-18.18-1.36-18.18l-9.86,1-3.22,4.92,1.65,6.88-4.82,22.9Z"/><polygon class="cls-26" points="358.95 146.86 366.34 153.95 360.93 204.44 369.26 211.61 375.8 200.04 368.71 152.09 370.29 142.14 358.95 146.86"/><path class="cls-25" d="M311.61,220l32.94-7.36,16,1.58,10.6,2.58h16.68L378,207.55l-13.65-5-56.28.75-10,.36,1.36,8.12A10.13,10.13,0,0,0,311.61,220Z"/><path class="cls-27" d="M305.27,223.74c0,1.75-16.14,106.85-28.61,187.74-.81,5.22,6.84,6.73,8.1,1.61l47.17-191.26"/><path class="cls-27" d="M618.49,223.11c0,1.76,16.2,107.2,28.71,188.36.81,5.23-6.86,6.75-8.13,1.61L591.75,221.2"/><rect class="cls-22" x="276.6" y="216.76" width="370.66" height="8.89"/><path class="cls-28" d="M455,216.76H382.15l16.08-56.68a4.09,4.09,0,0,1,3.95-3h64.3a4.1,4.1,0,0,1,3.95,5.21Z"/><rect class="cls-28" x="337.24" y="211.61" width="79.11" height="5.15"/><ellipse class="cls-3" cx="427.03" cy="186.93" rx="6.91" ry="5.21" transform="translate(-17.98 325.72) rotate(-40.96)"/><polyline class="cls-14" points="548.16 143.27 543.29 172.33 532.1 199.47 507 189.07 519.8 168.01 522.11 143.27"/><polygon class="cls-12" points="251.98 158.9 274.33 140.91 226.75 102.08 244.82 154.72 251.98 158.9"/><path class="cls-8" d="M518,108.18s-4.93,2-7.87-1.79c-1.17-2.45-2.71-7.4-3.35-17.32l4.76-5c2.15-.35,13.08,5.8,13.65,7.91l.84,11.7L529.65,118s.22,3.37-10.25,7.91Z"/><path class="cls-5" d="M526.58,94.78c0,2.42-.46,4.68-.68,7.08-.42-2.25-.51-4.33-1.11-6.54-.45-1.68-1.48-3.62-3.5-2.69a12.2,12.2,0,0,0-1.82,1.59L518.27,89s-3.14-2.59-4.79-2.78a7.17,7.17,0,0,0-6.72,2.85c-.85-4.84,7.93-8.27,12.06-6.47C521.78,83.89,526.69,85,526.58,94.78Z"/><path class="cls-21" d="M527.22,85.86s1.57-4.25,0-6.5c-1.43-2.06-5.11-1.21-5.11-1.21a6.47,6.47,0,0,1,3.93,2.6A12.1,12.1,0,0,1,527.22,85.86Z"/><path class="cls-5" d="M524,91.86a8.94,8.94,0,0,1-1.31,9.73l5.8-.66Z"/><path class="cls-5" d="M519.12,88.33l-16,5c-2.28-8.29,3.27-17.21,16.11-13.64,5.87,1.63,2.1,9.41,2.1,9.41"/><line class="cls-29" x1="384.47" y1="243.09" x2="354.85" y2="243.09"/><polygon class="cls-3" points="354.72 405.9 307.38 417 402.06 417 354.72 405.9"/><polyline class="cls-19" points="66.79 103.28 79.42 100.27 80.58 102.31 71.74 105.42"/><path class="cls-2" d="M431.63,90.72a1.62,1.62,0,1,0,1.62,1.62A1.62,1.62,0,0,0,431.63,90.72Z"/><path class="cls-2" d="M439.56,90.72a1.62,1.62,0,1,0,1.62,1.62A1.62,1.62,0,0,0,439.56,90.72Z"/><path class="cls-2" d="M447.49,90.72a1.62,1.62,0,1,0,1.62,1.62A1.62,1.62,0,0,0,447.49,90.72Z"/><polygon class="cls-17" points="467.56 74.26 411.57 74.26 411.57 109.51 420.25 109.51 420.25 118.53 429.63 109.51 467.56 109.51 467.56 74.26"/><path class="cls-2" d="M481.79,43.06a1.63,1.63,0,1,1-1.62,1.62A1.63,1.63,0,0,1,481.79,43.06Z"/><path class="cls-2" d="M473.87,43.06a1.63,1.63,0,1,1-1.63,1.62A1.63,1.63,0,0,1,473.87,43.06Z"/><path class="cls-2" d="M465.94,43.06a1.63,1.63,0,1,1-1.63,1.62A1.63,1.63,0,0,1,465.94,43.06Z"/><polygon class="cls-17" points="445.87 26.61 501.86 26.61 501.86 61.85 493.18 61.85 493.18 70.87 483.8 61.85 445.87 61.85 445.87 26.61"/><path class="cls-18" d="M141.13,6.33a23.1,23.1,0,1,0,23.1,23.1h-23.1Z"/><path class="cls-12" d="M144.38,0V26.18h26.18A26.18,26.18,0,0,0,144.38,0Z"/></g></g></svg>