<svg width="1087" height="636" viewBox="0 0 1087 636" fill="none" xmlns="http://www.w3.org/2000/svg">
<g clip-path="url(#clip0)">
<path d="M1086.7 0.899902H897.5C897.5 0.899902 659.9 103.4 598.5 249.3C537.1 395.3 552.1 431.9 329.7 484.1C180.8 519.1 142.9 617.8 8.1001 635.6H345L1086.7 634.2V0.899902Z" fill="#CEC9E2"/>
<path d="M1086.7 0C1023.4 0 975.7 0.1 975.7 0.1C943.4 8.9 866.9 91 843.9 133C780.4 248.9 698.1 245.3 620 267.4C449.3 315.6 381.2 515 201.7 555.4C108.4 576.4 42.1 609 0 635.6H1086.7V0Z" fill="#FBBE25"/>
</g>
<defs>
<clipPath id="clip0">
<rect width="1086.7" height="635.7" fill="white"/>
</clipPath>
</defs>
</svg>
