<svg xmlns="http://www.w3.org/2000/svg" viewBox="0 0 536.92 687.74"><defs><style>.cls-1{fill:#e69965;}.cls-2{fill:#fcdc55;}.cls-3{fill:#e7e4f1;}.cls-11,.cls-14,.cls-4{fill:none;stroke-miterlimit:10;stroke-width:1.84px;}.cls-4{stroke:#fff;}.cls-5{fill:#2d2e83;}.cls-6{fill:#19005a;}.cls-7{fill:#fff;}.cls-8{fill:#ffd2b4;}.cls-9{fill:#66271f;}.cls-10{fill:#ff7045;}.cls-11{stroke:#7475ad;}.cls-12{fill:#f25c3c;}.cls-13{fill:#e6aa83;}.cls-14{stroke:#ff7045;}.cls-15{fill:#c78457;}</style></defs><title>illu-contact-banner</title><g id="Calque_2" data-name="Calque 2"><g id="contenu"><path class="cls-1" d="M286.57,43.92s-.63-12.51-4.88-17.27l-1.63,8.78L269.32,16.89S263.81,29.56,273.71,49l-4.32,74.41,3.1,25.22-1.84,28.9c7.6,2.35,25.69,1.61,30.69-4.11,7.88-7.9,5.9-19,.72-46.44Z"/><path class="cls-1" d="M37.69,300.67S45.87,344.31,69.22,407a33.59,33.59,0,0,0,2.11,26.9l6.56-15.73,4.26,9.13s2.36-14.94-2.12-26.9L73.17,311.9,43.92,292.59Z"/><polygon class="cls-1" points="293.5 575.73 259.94 578.41 289.49 644.9 289.56 645.42 307.51 636.49 293.5 575.73"/><polygon class="cls-2" points="342.9 666.95 307.76 637.59 307.51 636.49 289.56 645.42 292.52 667.98 342.9 666.95"/><path class="cls-3" d="M279.46,378.73s17,122.35,16.93,160.7l15.37,33.16-59.22,12.17L193,408.25l10.3-50.5Z"/><polygon class="cls-1" points="107.51 580.42 81.12 577.31 76.27 577.41 56.47 650.24 55.73 650.8 79.72 646.47 107.51 580.42"/><polygon class="cls-2" points="55.73 650.8 24.91 674.02 81.06 669.22 78.32 649.8 79.72 646.47 55.73 650.8"/><path class="cls-3" d="M95.68,422.42S75.3,534.22,62.87,577.07L121.24,585S178.61,479.76,193,408.25Z"/><path class="cls-2" d="M224.09,207.43l54.36-1.69-6.65-89.6s-60.88-1.82-143.57-3.54c-2.73-.06-5.33.87-8,1.36-69.94,13-83.47,59-83.47,59S9.88,254.3,0,282.87l81.62,38.19,17.72-60.62s14.91,35-8.42,163.29c38.55,1.26,80.25-5.29,120.47-15.47,13.84-3.51,18.59-5,18.59-5,25-7.08,43.91-13.61,66-22-17.81-39.6-37.87-77.62-52.22-117.53C230.46,226.71,224.09,207.43,224.09,207.43Z"/><path class="cls-4" d="M99,119.55c2.18,15.24,25.55,35.13,25.55,35.13l9.62-21.94L158,143.32s-8.31-19.18-16.89-30.48"/><path class="cls-1" d="M133.45,113.87,124.8,89.55s10.14-.94,11.07-6.41c.45-5-5.33-17.3-8.85-26.18l-20.48.79,4.88,30-1.08,31.18h0c6.51,10.79,23.87,13.82,23.87,13.82S136,122.77,133.45,113.87Z"/><path class="cls-5" d="M107.25,62.14c-4.88-8.59-3.57-14.77,3.52-18.94,4.24-2.5,8.58-.55,11.57,4.36,2.78,4.56,5.58,9.11,5.58,9.11S113.42,60.74,107.25,62.14Z"/><path class="cls-6" d="M107.25,62.14c1.19-1.56,3.73-7.23,11.88-9.57a74.66,74.66,0,0,1,10-2.35c3.86-.39,11.12-.81,13.6,1.26.41.33.78.76.58,1.15a1.88,1.88,0,0,1-.94.65C139.65,54.45,134.18,55,127,57"/><ellipse class="cls-7" cx="163.36" cy="204.75" rx="2.19" ry="2.33" transform="translate(-97.33 179.27) rotate(-45.83)"/><ellipse class="cls-7" cx="157.93" cy="186.53" rx="2.19" ry="2.33" transform="translate(-85.91 169.86) rotate(-45.83)"/><ellipse class="cls-7" cx="150.36" cy="167.97" rx="2.19" ry="2.33" transform="translate(-74.89 158.8) rotate(-45.83)"/><ellipse class="cls-7" cx="142.93" cy="151.76" rx="2.19" ry="2.33" transform="translate(-65.51 148.55) rotate(-45.83)"/><path class="cls-8" d="M340.67,131.37c-.57-11.72.9-62.17,1.43-70.62.27-4.24,1-8.47,4.14-12.09,1.3-1.49,4.26-7.51,4.43-7.79.35-.59.69-2.94-.57-2.29-1.88,1-2.4,2.56-6.18,2-.5-.07-1-.08-1.55-.11C334.3,40,331.43,55.14,330,60.27c-2.09,7.22-4.62,14.5-6.72,21.76-3.69,12.76-9.17,40.34-11,57.18a11.33,11.33,0,0,0,4.37,10.37c12.93,9.71,48.77,33.64,77.32,9C400.66,152.77,340.67,131.37,340.67,131.37Z"/><path class="cls-8" d="M398.81,258.22S338.12,365.55,322,446c-15.65,78-19.61,93.25-19.61,93.25l31.12,5.43s33.1-53,26.05-107.45C388.85,393.12,501.29,320.8,446.16,247"/><path class="cls-8" d="M396.27,471.82l53.05,90.47L478,540.35s-17.28-54.74-49.56-75.53c0,0,51.83-168.88,26.71-198.94L390.26,273Z"/><path class="cls-9" d="M333.5,544.64l-31.19-5.49L281.09,615S262.3,652.65,247.4,677.8c28.5-.38,34.14-25.41,34.14-25.41l17.1-.23-1.33-30.85Z"/><path class="cls-9" d="M447.75,561l47,63.23s17.7,37.13,27.9,63.55c19.22-20,2.77-39.89,2.77-39.89l11.53-12L511,617,476.63,540.5"/><path class="cls-5" d="M477.82,393.3c4.69-47.91-4-91-20.14-135-.23-.64-27.65-.26-27.89-.92l-37,10.89s-30.18,33-87.82,187l108.9,13.36,12.47-39.6.85,41.29,42.23,5.87Z"/><ellipse class="cls-9" cx="432.41" cy="104.39" rx="15.32" ry="10.14" transform="translate(126.92 427.73) rotate(-60.2)"/><ellipse class="cls-9" cx="416.08" cy="101.21" rx="24.11" ry="18.9" transform="translate(150.92 437.45) rotate(-65.41)"/><ellipse class="cls-9" cx="435.08" cy="157.8" rx="36.63" ry="43.16" transform="translate(-19.19 69.29) rotate(-8.91)"/><path class="cls-8" d="M518.34,342.12c-2.63-.09-4.09-2.77-6.16-4.24-3-2.16-9-5.45-12-7.71-2.53-1.92-.42-11.8-1.06-15-1.19-5.83-5.53-42.28-7.12-81.31-.14-3.39-4.2-4.59-9.89-9l22-15.34c11.07-7,19-2.32,18.48,10.31a26.06,26.06,0,0,1-.37,3.38c-2.27,12.66-3.52,22.27-4.78,31.87q-2.12,16.26-4.25,32.52c-1.33,10.22-4.33,22.21-1.64,32.09,1.9,7,5.37,13.34,8.09,20a1.87,1.87,0,0,1,.05,1.87A1.62,1.62,0,0,1,518.34,342.12Z"/><path class="cls-10" d="M376,201.74v0a24.55,24.55,0,0,0,5.85,20.66l6.2,6.85,4.81,39,64.88-10L468.29,228s24.1,18.73,24.12,18.76l28.38-42.73c-8.2-13-28.55-34.28-44.18-47.15-14.55-12-39.06-12.75-70.84-12.57,0,0-14-2.51-60.51-11.75l-16,56.64Z"/><line class="cls-11" x1="380.95" y1="285.19" x2="456.96" y2="258.32"/><path class="cls-12" d="M447.46,232.25c-9.21.35-36.4-2.39-36.4-2.39s-18-3.72-21.06-6.63c7.59-1.69,16.17-1.58,23.77-1.22a72.92,72.92,0,0,1,22.64,4.39,51,51,0,0,1,5.83,2.64C443.35,229.63,446.3,232.29,447.46,232.25Z"/><path class="cls-8" d="M418.33,144c10.67.45,19.21.51,37.09,3.42-4.17,18-45,35.5-45,35.5s-19.93-15.69-13-40C404.32,143.69,413.06,143.76,418.33,144Z"/><path class="cls-8" d="M429.09,154.6l-.76-39.25,3.61-19.84s-12.76-4-18.21,2.91-6.53,16.27-6.53,16.27-3.38,11.59,1.08,11.39,7.93-.68,7.93-.68l-7,30.12Z"/><path class="cls-9" d="M422.59,91.19l12.91,2.7-1.83,16.2-4.46-3.63a18.85,18.85,0,0,1-6.62-15.27Z"/><ellipse class="cls-8" cx="428.92" cy="111.06" rx="6.21" ry="3.58" transform="translate(75.04 377.66) rotate(-51.51)"/><polygon class="cls-13" points="416.21 125.4 422.73 124.13 412.12 142.97 416.21 125.4"/><path class="cls-8" d="M340.78,42.61c3.73-3.93,9.86-15.6,9.86-15.6s2.39,9.71,0,13.86"/><path class="cls-8" d="M342.75,40.41l-.89-8.28s-5.58,8.7-7.78,15.37"/><line class="cls-14" x1="293.92" y1="11.6" x2="302.89" y2="23.96"/><line class="cls-14" x1="332.14" y1="23.65" x2="342.57" y2="12.55"/><line class="cls-14" x1="312.26" y1="15.89" x2="308.21" y2="0.23"/><line class="cls-14" x1="322.81" y1="16.4" x2="328.44" y2="2.53"/><path class="cls-15" d="M110.23,80.4a12.3,12.3,0,0,0,9.24,8.82l-8.8,18.41Z"/><line class="cls-4" x1="256.76" y1="115.63" x2="262.73" y2="205.19"/><line class="cls-4" x1="5.85" y1="265.53" x2="86.12" y2="304.87"/></g></g></svg>