<svg width="1428" height="677" viewBox="0 0 1428 677" fill="none" xmlns="http://www.w3.org/2000/svg">
<g clip-path="url(#clip0)">
<path d="M1428 1H955.4C955.4 1 702.5 110.1 637.1 265.5C571.7 420.9 587.7 459.8 351 515.4C192.5 552.6 152.1 657.8 8.6001 676.7H367.2L1428 674.7V1Z" fill="#CEC9E2"/>
<path d="M1428 674.9V0.300063C1307 -0.199937 1038.6 0.200063 1038.6 0.200063C1004.3 9.60006 922.9 97.0001 898.4 141.6C830.7 265 743.1 261.2 660 284.7C478.3 336 405.8 548.3 214.8 591.3C115.4 613.7 44.9 648.4 0 676.7H1367.8V676.8L1428 674.9Z" fill="#FBBE25"/>
</g>
<defs>
<clipPath id="clip0">
<rect width="1428" height="676.8" fill="white"/>
</clipPath>
</defs>
</svg>
