<svg width="1084" height="527" viewBox="0 0 1084 527" fill="none" xmlns="http://www.w3.org/2000/svg">
<g clip-path="url(#clip0)">
<path d="M1083.4 101C1067.4 93.6001 1029.9 82.6001 949.1 66.9001C747.5 27.4001 688.4 279.3 501 308.7C343.2 333.4 378.7 444.5 183 476.5C73.0001 494.5 64.5001 515.5 0.100098 526.9H1083.1V115.4C1083.1 115.4 1083.3 115.4 1083.6 115.3V101H1083.4Z" fill="#CEC9E2"/>
<path d="M1083 0C966.3 236.3 782.2 93.1 640.9 284.5C583.9 357.4 559.2 396.6 421 409.2C354.6 415.2 257 441.6 177.6 494C162.2 504.1 147.4 515.2 133 526.9H1083V0Z" fill="#FBBE25"/>
</g>
<defs>
<clipPath id="clip0">
<rect width="1083.4" height="526.9" fill="white"/>
</clipPath>
</defs>
</svg>
