<svg width="700" height="455" viewBox="0 0 700 455" fill="none" xmlns="http://www.w3.org/2000/svg">
<g clip-path="url(#clip0)">
<path d="M21.6 246.1C21.9 247.3 23.1 247.7 23.9 248.6C25 249.8 26.9 252.3 28.1 253.5C29.1 254.5 32.9 252.7 34.3 252.7C36.8 252.7 52 251.5 68 248.8C69.4 248.6 77.6 248 79.9 250.2L76.8 241C78.7 235.3 76.1 232 71 233.4C70.5 233.5 70.1 233.7 69.7 233.9C64.8 236.1 61 237.5 57.2 238.9C52.9 240.5 48.6 242.1 44.4 243.7C40.4 245.2 35.8 247.7 31.5 247.3C28.5 247 25.6 246 22.7 245.3C22.4 245.2 22.1 245.2 21.9 245.4C21.6 245.6 21.6 245.9 21.6 246.1Z" fill="#FFD2B4"/>
<path d="M173.2 86.5L96.1 125.2L168.2 172.6L173.2 86.5Z" fill="#FF6B90"/>
<path d="M154.4 203.5C154.4 197.8 152.7 173.6 152.2 169.5C152 167.5 151.6 165.5 150 163.9C149.3 163.2 147.8 160.5 147.7 160.4C147.5 160.1 147.3 159 147.9 159.3C148.8 159.7 149.1 160.4 150.9 159.9C151.1 159.8 151.4 159.8 151.6 159.8C155.4 159.1 157.1 166.3 157.9 168.7C159 172.1 160.4 175.4 161.6 178.8C163.9 185.6 168.6 198.9 169.2 206.1C168.5 206.3 155 243 137.7 230.3C134.5 227.9 154.4 203.5 154.4 203.5Z" fill="#FFD2B4"/>
<path d="M115.955 204.653C118.613 203.904 119.894 200.194 118.816 196.366C117.738 192.539 114.71 190.043 112.051 190.791C109.393 191.54 108.112 195.25 109.19 199.077C110.268 202.905 113.297 205.401 115.955 204.653Z" fill="#66271F"/>
<path d="M123.406 208.628C128.509 208.038 132.063 202.534 131.346 196.334C130.629 190.134 125.912 185.587 120.809 186.177C115.707 186.767 112.152 192.271 112.869 198.471C113.586 204.671 118.304 209.218 123.406 208.628Z" fill="#66271F"/>
<path d="M122.297 230.924C127.887 220.7 125.662 208.717 117.327 204.16C108.992 199.603 97.704 204.198 92.114 214.422C86.5239 224.647 88.7489 236.63 97.0836 241.186C105.418 245.743 116.706 241.149 122.297 230.924Z" fill="#66271F"/>
<path d="M134.5 249.8C134.5 249.8 128 261.6 128 264.5L128.6 270.8L95.8 266.2L96.8 257.7L93.9 253.9L75.5999 258.4L61.7 234.8L94 222.1C94 222.1 100.6 219.9 115.7 218.3C131.2 216.6 135 218.1 154.4 203.8L163.2 230.2C163.2 230.3 149.5 241.1 134.5 249.8Z" fill="#FF7045"/>
<path d="M110.4 221.6L114.9 203.2L115.3 193.6C115.3 193.6 121.8 192.6 123.6 196.3C125.5 200 125 204.4 125 204.4C125 204.4 125.4 210.1 123.3 209.7C121.2 209.3 119.6 208.8 119.6 208.8L119.8 223.5L110.4 221.6Z" fill="#FFD2B4"/>
<path d="M120.1 192.2L113.7 192.5L112.9 200.3L115.4 198.9C117.8 197.6 119.5 195.1 120.1 192.2Z" fill="#66271F"/>
<path d="M116.288 203.685C117.178 203.243 117.322 201.721 116.609 200.287C115.896 198.853 114.597 198.049 113.707 198.491C112.816 198.934 112.673 200.455 113.385 201.889C114.098 203.323 115.397 204.128 116.288 203.685Z" fill="#FFD2B4"/>
<path d="M115.7 218.3C110.6 218.8 105.9 219.4 101.7 220.1C100.6 239 138.1 236.5 130.5 216.5C126.3 217.5 122 217.7 115.7 218.3Z" fill="#FFD2B4"/>
<path d="M119.5 208.8L116.6 207.7L119.6 217.3L119.5 208.8Z" fill="#E6AA83"/>
<path d="M19.9 393.9L40.4001 384.6L36.8 376.3L17.3 389.8L19.9 393.9Z" fill="#FFD2B4"/>
<path d="M139.1 410.6L146.1 431.3L151.2 431.9L148.7 408.8L139.1 410.6Z" fill="#FFD2B4"/>
<path d="M95.9 266.2C80.1 295 78.6 304.4 78.6 304.4C78.6 304.4 73.7 335 73 337.2C65.8 349.3 34 376.4 34 376.4L41.7 388.4L93.3 355.1L107.5 322.8C110.2 326.7 122.6 360.7 122.6 360.7L137.7 412.7L151.1 412.8C151.1 412.8 150.9 372.7 148.9 357.5C146.8 342.4 128.7 270.8 128.7 270.8" fill="#FFA951"/>
<path d="M107.5 322.8L116.1 297.3" stroke="#D68330" stroke-width="1.5" stroke-miterlimit="10"/>
<path d="M17.3 389.1L4.7 391.9L0 413.2L12.5 396.2L19.2 393.9L17.3 389.1Z" fill="#66271F"/>
<path d="M146.1 431.3L144.9 441.7L170.3 442.7L151.2 431.9L146.1 431.3Z" fill="#66271F"/>
<path d="M371.6 297.9H168.8V443.2H371.6V297.9Z" stroke="#2D2E83" stroke-width="1.5579" stroke-miterlimit="10"/>
<path d="M371.7 443.1H451.8" stroke="#2D2E83" stroke-width="1.5579" stroke-miterlimit="10"/>
<path d="M396.7 161L388.3 187L382 187.8L384.7 158.9L396.7 161Z" fill="#E69965"/>
<path d="M382 187.8L361.6 200.8L390.7 199.7L388.3 187L382 187.8Z" fill="white"/>
<path d="M414 54.8999L393 60.3999C393 60.3999 372.9 71.7999 369.9 72.8999C367.7 73.6999 363.1 71.9999 360.9 71.1999C360 70.8999 354.5 69.8999 354.4 69.7999C354.1 69.7999 353.4 70.1999 353.3 70.5999C353.2 70.8999 356.9 72.0999 357.2 74.0999C357.2 74.3999 357.3 74.5999 357.4 74.8999C358.3 78.9999 369.1 80.1999 369.1 80.1999L373.2 78.4999L396.9 70.9999L416.4 67.9999L414 54.8999Z" fill="#E69965"/>
<path d="M382.7 98.5L377.2 95.8C376.9 95.7 376.6 95.6 376.2 95.6L370.7 95.3L371.1 96.3C371.3 96.9 371.8 97.3 372.4 97.5L376.6 99.1L376.8 101L382.7 98.5Z" fill="#E69965"/>
<path d="M438.6 50.5C438.6 50.5 415.1 52.7 393.6 58.1L405.1 84L445.1 89.5L438.6 50.5Z" fill="#B85131"/>
<path d="M478.6 95.3L446 101L392.9 104.9C386.7 105.4 381.9 110.5 381.9 116.7L376.2 164L398.7 163.5L405.9 140.3L451.6 141.8L463.1 189C465.2 195.4 474.7 204.1 482.7 198.6L487.9 188.5L489.6 126.1C489.9 116 486.7 106.1 480.6 98L478.6 95.3Z" fill="#19005A"/>
<path d="M555.5 188.3L527.5 191.6L526.1 180.4L555.7 182.3L555.5 188.3Z" fill="#E69965"/>
<path d="M555.7 182.3L566.1 176.9L570 191.6L568.5 200.4H560.4L562.8 193.9L555.5 188.3V183.5" fill="white"/>
<path d="M470.8 170.2L473.6 179.3C471.3 186.3 471.3 200.7 478.7 200.4L528.7 196.6L529.2 178.8L470.8 170.2Z" fill="#19005A"/>
<path d="M434 45.0999L458.1 42.1999C458.1 42.1999 463 26.8999 461.8 18.0999C461 12.2999 458.5 6.69994 452.5 3.19994C441.4 -5.00006 420.7 3.79994 420.3 17.8999C419.9 31.5999 431.6 41.5999 433.8 46.9999C434.2 48.0999 434 45.0999 434 45.0999Z" fill="#19005A"/>
<path d="M433 21.9999C433 21.9999 433.8 17.3999 431.8 15.3999C430 13.5999 426.4 15.0999 426.4 15.0999C426.4 15.0999 429.2 15.0999 430.9 16.9999C432.4 18.6999 433 21.9999 433 21.9999Z" fill="#FBBE25"/>
<path d="M463.7 51.3C461 46.7 455.1 45.9 450.8 46.6C446.5 47.3 429.7 50.1 429.7 50.1C424.2 50.9 422.6 56.4 418.2 71.8C416.6 77.4 439.1 96.6 439.1 96.6L442 105.3C442 105.3 445.1 107 459.1 104.6C475.8 101.8 478.5 95.1 478.5 95.1L469.3 83.6L464.9 65C464.9 65 466.3 55.9 463.7 51.3Z" fill="#FF7045"/>
<path d="M439 52.2999L430.5 31.1999L428.4 19.8999C428.4 19.8999 420.6 19.8999 419 24.4999C417.4 29.1999 418.8 34.3999 418.8 34.3999C418.8 34.3999 419.3 41.1999 421.7 40.3999C424.1 39.4999 425.9 38.6999 425.9 38.6999L428.3 56.1999L439 52.2999Z" fill="#E69965"/>
<path d="M444.1 47.8C444.1 47.8 428.6 49.1 426.4 51.5C424.2 53.8 426.9 69.5 428.2 72.6C429.5 75.8 429.6 78.9 434.3 72.7C439 66.5 441 55.1 444.1 47.8Z" fill="#E69965"/>
<path d="M415.9 20.5C415.9 20.5 413.7 23.4 414.1 28.6C414.1 28.6 420.6 29.3 427.2 28.5C427.2 28.5 427.7 21.4 430 19.8C430 19.8 422.1 10.6 415.9 20.5Z" fill="#19005A"/>
<path d="M427 23.2001L429.2 25.5L430.3 29.3C430.3 29.3 432.6 24.7001 430.9 20.7001L426.3 19.3L427 23.2001Z" fill="#19005A"/>
<path d="M354.509 40.8952L268.298 71.5569L298.96 157.768L385.171 127.107L354.509 40.8952Z" fill="#FBBE25"/>
<path d="M426.7 105.6C417.4 104.7 411.6 104.7 404.5 104.3C401.4 104.2 398.4 104.1 395.3 103.9C390.5 103.7 384.8 102.8 380.2 104.4C377 105.6 374 107.4 371 109C370.7 109.1 370.4 109.3 370.1 109.1C369.9 109 369.8 108.7 369.9 108.5C369.9 107.3 371.2 106.5 371.8 105.5C372.8 104 372.5 101.9 373.5 100.5C374.4 99.2 374 98.5 375.5 98C379.5 96.8 431.5 90.4 445.1 89.5L436.5 101.2C434.3 104.3 430.5 105.9 426.7 105.6Z" fill="#E69965"/>
<path d="M462.8 78.5999L453.1 50L444.1 47.7C444.1 47.7 431.9 68.3999 414.3 89.5999L449 112.7L462.8 78.5999Z" fill="#FF7045"/>
<path d="M321.9 419.8L310.8 425.7L312.8 429.2L324.5 425.3C323 422.2 321.9 419.8 321.9 419.8Z" fill="#FFD2B4"/>
<path d="M332.2 439.9C329.8 436 326.7 429.8 324.5 425.3L312.8 429.2L320.9 443.5L332.2 439.9Z" fill="#FFD2B4"/>
<path d="M348.4 454.1C348.4 454.1 338.3 446.3 334.8 443.4C334.1 442.8 333.2 441.6 332.2 439.9L320.9 443.5L325.8 450.9C331.8 453 348.4 454.1 348.4 454.1Z" fill="#19005A"/>
<path d="M288.2 136.2L245.4 143.4C238.5 144.4 233.6 150.4 234 157.3L234.2 160.6L288.3 141.8C288.4 142.1 288.2 139.1 288.2 136.2Z" fill="#FFD2B4"/>
<path d="M294.8 119.3C295 119.2 295.1 119.2 295.3 119.2C295.6 119.3 295.8 119.6 295.9 119.9C296.9 122.2 297.6 124.6 298.2 127C298.4 127.7 298.5 128.4 298.2 129.1C297.9 129.8 297.1 130.1 296.5 130.5C295.8 130.9 295.2 131.4 294.6 132C293.5 133.1 292.5 134.4 292 135.9C291.5 137.2 291.5 139.6 289.5 138.4C287.9 137.4 286.7 135.3 286.1 133.5C285.2 130.9 285.9 128.4 287.2 126.1C288.8 122.9 291.6 120.5 294.8 119.3Z" fill="#FFD2B4"/>
<path d="M285.3 133.5L285.7 130.2L290.6 133C290.6 133 291.6 135.5 291.5 137C291.4 138.5 292 141 288.7 142.1C285.3 143.1 284.8 140.9 284.8 140.9L285.3 133.5Z" fill="#FFD2B4"/>
<path d="M336.8 192.7L325 152.1L332.1 146.2C332.1 146.2 331.3 141 325.6 140.2L318.6 154.8L321.9 192.1L312.1 199.5L319.5 213L331.5 206C336.1 203.4 338.3 197.9 336.8 192.7Z" fill="#FFD2B4"/>
<path d="M322 192.4L273.9 215.4L258.3 208.7L257.2 152.5L214 165.6L218.9 223.5L211 268.6L276.8 276L281.4 260.9L333.9 235.7L322 192.4Z" fill="white"/>
<path d="M293.6 327.7C286.6 307.8 276.7 276 276.7 276L211.2 268.6C211.2 268.6 186.3 343.3 176.5 402.9C177.6 404 171.1 422.8 171.1 422.8L201.4 420.1L239.3 321.2C239.3 321.2 298.9 410.5 310.8 426.1C310.8 426.1 334.8 413.5 336.9 412.4C337.1 412.5 300.7 347.6 293.6 327.7Z" fill="#2D2E83"/>
<path d="M189.6 420.9L172.7 422.1L170.8 428.8L186.7 425.9L189.6 420.9Z" fill="#FFD2B4"/>
<path d="M170.8 428.8L166.9 442.2L165.8 443.1L175.8 444.5L186.7 425.9L170.8 428.8Z" fill="#FFD2B4"/>
<path d="M165.8 443.1L154.2 453.4L173.4 452.2L175.2 445.5L175.8 444.5L165.8 443.1Z" fill="#19005A"/>
<path d="M268 215.3C268.1 214.6 269.1 204.4 269.1 204.4C269.1 204.4 272.1 206.4 273.1 202.2C274.2 198 274.6 187.8 274.6 187.8L266.7 188.4L256.7 212.4C256.7 212.4 257.4 215 261.9 216.1C266.4 217.2 268 215.3 268 215.3Z" fill="#FFD2B4"/>
<path d="M278.9 185.2C278.1 183.8 276.9 184.1 274.8 184.6C275.2 183 276.7 180.7 275.1 179.9C273 178.8 269.5 179.7 268.3 182.3C266.9 185.5 263.6 183.8 263.5 188.1C263.4 190.2 263.6 195.1 263.2 197C264.1 199.7 268.3 188.5 271.3 188.3C275.5 188 274.3 191.6 274.2 193.5C274.2 193.5 276.3 193.2 275.8 190.2C275.3 187.4 279.9 186.9 278.9 185.2Z" fill="#66271F"/>
<path d="M267.2 192.9C267.2 192.6 267.2 192.3 267.1 191.9C267.1 191.7 267 191.5 266.8 191.3C266.7 191.1 266.4 191 266.2 191.1C266.1 191.1 265.9 191.2 265.8 191.3C264.9 192 264.3 193.1 264.1 194.3C264 194.8 264.1 195.4 264.3 195.9C264.6 196.4 265.1 196.7 265.6 196.7" fill="#FFD2B4"/>
<path d="M269 204.4L264.9 202.8L268 210.6L269 204.4Z" fill="#E6AA83"/>
<path d="M251.4 209.9L249 220.4L261.5 217.8L273.3 226.3L272.6 214.9" stroke="#CABFDA" stroke-width="1.5793" stroke-miterlimit="10"/>
<path d="M261.5 217.8L250.5 272.4" stroke="#CABFDA" stroke-width="1.5793" stroke-miterlimit="10"/>
<path d="M321.9 148.5L321.2 139.2L329.2 134.5C329.2 134.5 331.7 137.1 332.2 146.2" fill="#FFD2B4"/>
<path d="M313.3 196.6L326.7 239.1" stroke="#CABFDA" stroke-width="1.5793" stroke-miterlimit="10"/>
<path d="M214.7 173.3L257.4 160.6" stroke="#CABFDA" stroke-width="1.5793" stroke-miterlimit="10"/>
<path d="M462.8 74.8999L457.5 105.1C457.5 105.1 457.2 105.2 455.6 105.4C454 105.6 451.9 105.8 451.9 105.8L462.8 74.8999Z" fill="#B85131"/>
<path d="M374.7 97.8C374.7 97.8 374.1 100.4 369.8 102.3C368.9 102.7 368 103.8 367.2 105C365.8 107.3 367.5 110.2 370.1 110.1L371.5 110C374.8 109.9 377.9 108.4 380.1 106L382.2 103.8L383.6 99.3L374.7 97.8Z" fill="#E69965"/>
<path d="M572 324.6V200.8H339.9V297.9" stroke="#2D2E83" stroke-width="1.5579" stroke-miterlimit="10"/>
<path d="M560.1 100.1L554.5 95.4999L546.8 86.5999L518 63.6999C518 63.6999 515.1 58.5999 512.4 57.5999L513.6 61.5999L505.3 56.3999C505.3 56.3999 505.8 62.9999 513.9 68.7999L537.2 98.2999C545 108.6 548.2 112.8 553.6 112.7C557.2 112.8 558.4 103.3 560.1 100.1Z" fill="#E69965"/>
<path d="M540.2 62L544.7 108.2L572 117.8C579.4 101.7 590.9 80.9 599.6 65.4C571.4 67.6 540.2 62 540.2 62Z" fill="#D4B947"/>
<path d="M511.3 324.8L538.6 325.2L539.6 314.4L539.9 313.8L529.9 311.5L511.3 324.8Z" fill="#66271F"/>
<path d="M536.6 282L531 310.8L529.9 311.5L539.9 313.8L552.4 283.6L536.6 282Z" fill="#E69965"/>
<path d="M540.1 189.9C540.1 189.9 534.1 247 534.7 265L528 280.4L555.9 286.8L584.9 191.8L569 166.6L540.1 189.9Z" fill="#2D2E83"/>
<path d="M636.8 280.7L634.6 280.6L622.3 281.8L636.6 313.6L647.2 314.9L636.8 280.7Z" fill="#E69965"/>
<path d="M635.9 324.9L662.4 324.4L647.3 315L647.2 314.9L636.6 313.6L637 314.6L635.9 324.9Z" fill="#66271F"/>
<path d="M623.2 198.2C623.2 198.2 638 265 644.5 285.2L617.3 288.3C617.3 288.3 585.1 235.7 576.5 191.7L623.2 198.2Z" fill="#2D2E83"/>
<path d="M632.2 75.5999C621.5 68.8999 612.7 66.9999 599.6 65.3999C573.3 84.4999 565.6 106.9 565.6 106.9L552.3 145.9C552.3 145.9 538.4 173 529.8 189.9C543.4 192 545.1 192.3 556 194.4L563.4 176.9L563.3 196.3C583.4 200.3 609.1 204.8 629 204.6C629 204.6 622.5 162.6 622.2 147.7C621.6 108.4 626.9 90.6999 632.2 75.5999Z" fill="#FCDC55"/>
<path d="M604 72.4001L608.9 56.1C608.9 56.1 604.1 55.5 603.6 53C603.3 50.7 605.8 45 607.3 40.8L616.9 41.4001L615.1 55.4001L616.1 70C614 72.3 611.3 73.9 608.2 74.5C606.9 74.8 605.2 75.0001 603.2 75.3001L604 72.4001Z" fill="#E69965"/>
<path d="M616.7 43.5C618.8 39.5 618.1 36.6 614.8 34.6C612.8 33.4 610.8 34.2 609.5 36.5C608.3 38.6 607 40.7 607 40.7C607 40.7 613.8 42.8 616.7 43.5Z" fill="#FF7045"/>
<path d="M616.7 43.4999C616.1 42.7999 614.8 40.0999 611 38.8999C610.3 38.6999 607.7 37.8999 606.3 37.6999C604.5 37.4999 601.1 37.1999 600 38.0999C599.8 38.2999 599.6 38.3999 599.7 38.5999C599.8 38.6999 600 38.7999 600.1 38.8999C601.4 39.4999 603.9 39.7999 607.3 40.7999" fill="#B85131"/>
<path d="M522.5 113.8C543.597 113.8 560.7 96.6972 560.7 75.5999C560.7 54.5026 543.597 37.3999 522.5 37.3999C501.403 37.3999 484.3 54.5026 484.3 75.5999C484.3 96.6972 501.403 113.8 522.5 113.8Z" fill="#8F5FA4"/>
<path d="M590.9 104.6C592.7 103.3 598.1 97.4 598.1 97.4L588.3 118.7L631.1 135.1C643.4 100.6 638.3 78.8 632.2 75.7C632.2 75.6 603.1 90.2 590.9 104.6Z" fill="#FCDC55"/>
<path d="M530.6 35.5999L534.5 37.4999L531.3 42.9999L524.7 44.2999L521.8 38.6999L523.8 34.8999L530.6 35.5999Z" fill="#E69965"/>
<path d="M563.3 177.7C563.3 177.7 572 146.2 573.8 140.2C578.4 125.5 603.3 75.2999 603.3 75.2999L607 84.4999C607 84.4999 617.7 78.7999 619.5 69.3999" stroke="#D4B947" stroke-width="1.5793" stroke-miterlimit="10"/>
<path d="M603.3 74.2999L594 80.1999C594 80.1999 597.4 71.3999 603.3 65.8999" stroke="#D4B947" stroke-width="1.5793" stroke-miterlimit="10"/>
<path d="M589 137.8C580.3 133.1 564.3 123.7 545 109.6C545 109.6 535.5 117.8 527.5 113.1L540.5 103.4L536.4 99.8999C536.4 99.8999 544.8 100.8 550.3 104.9L610.4 126.6L601.2 135.9C598.1 139.3 593.1 140 589 137.8Z" fill="#E69965"/>
<path d="M698.9 325.5H451.8V443.2H698.9V325.5Z" stroke="#2D2E83" stroke-width="1.5579" stroke-miterlimit="10"/>
</g>
<defs>
<clipPath id="clip0">
<rect width="699.7" height="454.1" fill="white"/>
</clipPath>
</defs>
</svg>
