<svg width="1127" height="636" viewBox="0 0 1127 636" fill="none" xmlns="http://www.w3.org/2000/svg">
<g clip-path="url(#clip0)">
<path d="M1127 122C1110.6 113 1071.7 99.8 986.9 80.6C777.2 33.1 715.8 336.8 520.9 372.2C356.9 402 393.7 536 190.2 574.5C75.9 596.2 67 621.5 0 635.3H1127V139.1C1127 139.1 1126.4 139 1127 138.9V122Z" fill="#CEC9E2"/>
<path d="M1127 0C1005.7 284.9 813.4 112.3 666.4 343C607.2 430.9 581.4 478.2 437.8 493.4C368.7 500.7 267.3 532.4 184.8 595.6C168.8 607.8 153.4 621.2 138.5 635.3H1127V0Z" fill="#FBBE25"/>
</g>
<defs>
<clipPath id="clip0">
<rect width="1127" height="635.3" fill="white"/>
</clipPath>
</defs>
</svg>
