<svg xmlns="http://www.w3.org/2000/svg" viewBox="0 0 401.19 376.3"><defs><style>.cls-1{opacity:0.15;}.cls-2,.cls-3{fill:none;stroke:#19005a;stroke-miterlimit:10;stroke-width:1.63px;}.cls-2{stroke-dasharray:13.99 13.99;}</style></defs><title>circles</title><g id="Calque_2" data-name="Calque 2"><g id="contenu"><g class="cls-1"><path class="cls-2" d="M226.6,259.51c-7.45,11.62-15.61,23.36-27.42,30.87-6,3.83-12.81,6.41-19.56,8.87-9.07,3.32-18.92,6.54-28.17,4.09-5.53-1.46-10.25-4.81-14.81-8.13Q83.38,256.53,33.8,213.38c-13.84-12-28.15-25.49-32-43.24-4.47-20.75,6.48-41.66,17.07-60.49L31.52,87.22c17-30.3,35.75-62.28,67.05-78.76C107.06,4,116.47.78,126.06.81c8.85,0,17.38,2.82,25.58,5.91C193.87,22.65,233,48.77,256.94,85.93c7.06,11,12.78,22.9,15.29,35.66,2.29,11.66,1.82,23.62-.12,35.15a174.23,174.23,0,0,1-4,17.73c-.39,1.41-.8,2.82-1.21,4.22a19.2,19.2,0,0,0-.83,2.87,8.52,8.52,0,0,1-.2,1.42c-1.54,5-3.31,10-5.22,14.83s-4,9.66-6.26,14.35-4.68,9.29-7.27,13.79c-2.81,4.78-5.76,9.46-8.6,14.24s-5.83,9.68-8.83,14.45Z"/></g><g class="cls-1"><path class="cls-3" d="M144.3,52.29a194.61,194.61,0,0,1,56-22.43c13.4-3.06,27.58-4.65,40.76-.86C258,33.84,271,46.76,286.38,55.2c15.92,8.76,34,12.57,51.42,17.94,13.38,4.13,26.81,9.43,37.78,18.28a25.63,25.63,0,0,1,6.19,6.45,27.48,27.48,0,0,1,2.22,5.75c1.85,5.75,5.41,10.82,7.87,16.33a96.58,96.58,0,0,1,8.46,35.72,86.39,86.39,0,0,1-6.55,36.44c-.23.53-.45,1.06-.69,1.59-18,40.65-61.27,67.52-91.37,102.18-25.23,29-45.55,66.94-84.39,77.12-31.55,8.28-63.63-5.49-90.8-20.53C88.94,331.68,52,305.78,36.25,268.37A101.8,101.8,0,0,1,30,247.53,115.53,115.53,0,0,1,28.7,215.8a130.76,130.76,0,0,1,2.5-16q.87-4,2-7.93a25.24,25.24,0,0,1,1.19-3.82c.36-.76,1-1.38,1.35-2.13,1.11-2.15,1.65-4.71,2.47-7s1.71-4.65,2.63-7q2.74-6.91,5.92-13.64A238.41,238.41,0,0,1,99.19,86.42q3.66-3.42,7.47-6.7c8-6.85,16.43-13.18,25-19.24q4.71-3.33,9.64-6.38C142.3,53.49,143.3,52.88,144.3,52.29Z"/></g></g></g></svg>