<svg xmlns="http://www.w3.org/2000/svg" viewBox="0 0 306.34 392.49"><defs><style>.cls-1{fill:#e69965;}.cls-2{fill:#19005a;}.cls-3{fill:#e7e4f1;}.cls-4{fill:#fcdc55;}.cls-11,.cls-14,.cls-5{fill:none;stroke-miterlimit:10;stroke-width:1.84px;}.cls-5{stroke:#fff;}.cls-6{fill:#2d2e83;}.cls-7{fill:#fff;}.cls-8{fill:#ffd2b4;}.cls-9{fill:#66271f;}.cls-10{fill:#ff7045;}.cls-11{stroke:#7475ad;}.cls-12{fill:#f25c3c;}.cls-13{fill:#e6aa83;}.cls-14{stroke:#ff7045;}.cls-15{fill:#c78457;}</style></defs><title>landing-rightillu</title><g id="Calque_2" data-name="Calque 2"><g id="contenu"><path class="cls-1" d="M163.5,25.16s-.36-7.14-2.78-9.86l-.93,5L153.66,9.73s-3.14,7.24,2.51,18.33L153.7,70.52l1.77,14.39-1.05,16.48c4.34,1.35,14.66.93,17.51-2.34,4.5-4.51,3.37-10.83.41-26.5Z"/><path class="cls-1" d="M21.51,171.65s4.66,24.9,18,60.64a19.14,19.14,0,0,0,1.21,15.35l3.74-9,2.43,5.21s1.35-8.53-1.21-15.35l-3.91-50.47L25.06,167Z"/><polygon class="cls-1" points="167.46 328.58 148.31 330.12 165.17 368.05 165.21 368.35 175.45 363.25 167.46 328.58"/><polygon class="cls-2" points="195.64 380.63 175.59 363.88 175.45 363.25 165.21 368.35 166.9 381.21 195.64 380.63"/><path class="cls-3" d="M159.45,216.18s9.67,69.81,9.65,91.69l8.78,18.92-33.79,6.94L110.14,233,116,204.22Z"/><polygon class="cls-1" points="61.34 331.26 46.28 329.49 43.52 329.54 32.22 371.1 31.8 371.41 45.48 368.94 61.34 331.26"/><polygon class="cls-2" points="31.8 371.41 14.21 384.66 46.25 381.92 44.69 370.84 45.48 368.94 31.8 371.41"/><path class="cls-3" d="M54.59,241.11S43,304.9,35.87,329.35l33.31,4.53s32.73-60.05,41-100.85Z"/><path class="cls-4" d="M127.86,118.45l31-1-3.8-51.13s-34.73-1-81.91-2a22.68,22.68,0,0,0-4.55.78C28.71,72.52,21,98.8,21,98.8S5.64,145.19,0,161.49l46.57,21.79,10.11-34.59s8.51,20-4.81,93.17c22,.72,45.79-3,68.74-8.83,7.9-2,10.6-2.84,10.6-2.84,14.29-4,25.06-7.76,37.67-12.56-10.16-22.6-21.6-44.29-29.79-67.06C131.49,129.45,127.86,118.45,127.86,118.45Z"/><path class="cls-5" d="M56.51,68.31c1.24,8.7,14.58,20,14.58,20l5.48-12.52,13.59,6s-4.74-10.94-9.63-17.39"/><path class="cls-1" d="M76.14,65.07,71.21,51.19s5.78-.53,6.31-3.65c.26-2.85-3-9.88-5-14.94l-11.68.45,2.78,17.11L63,68h0c3.72,6.16,13.62,7.89,13.62,7.89A27.85,27.85,0,0,0,76.14,65.07Z"/><path class="cls-6" d="M61.19,35.55c-2.78-4.9-2-8.42,2-10.81,2.42-1.42,4.89-.31,6.6,2.5L73,32.43S64.71,34.75,61.19,35.55Z"/><path class="cls-2" d="M61.19,35.55A11.28,11.28,0,0,1,68,30.09a42.85,42.85,0,0,1,5.69-1.34c2.2-.22,6.34-.46,7.76.72.23.19.44.43.33.66a1.13,1.13,0,0,1-.54.37c-1.53.67-4.65,1-8.74,2.1"/><ellipse class="cls-7" cx="93.2" cy="116.92" rx="1.25" ry="1.33" transform="translate(-55.6 102.32) rotate(-45.83)"/><ellipse class="cls-7" cx="90.11" cy="106.52" rx="1.25" ry="1.33" transform="translate(-49.09 96.94) rotate(-45.83)"/><ellipse class="cls-7" cx="85.79" cy="95.94" rx="1.25" ry="1.33" transform="translate(-42.8 90.64) rotate(-45.83)"/><ellipse class="cls-7" cx="81.55" cy="86.69" rx="1.25" ry="1.33" transform="translate(-37.45 84.79) rotate(-45.83)"/><path class="cls-8" d="M194.37,75.05c-.32-6.68.51-35.47.82-40.29.15-2.42.56-4.83,2.36-6.9a38,38,0,0,0,2.52-4.44c.2-.34.4-1.68-.32-1.31-1.07.55-1.37,1.46-3.52,1.14a8.67,8.67,0,0,0-.89-.06c-4.6-.26-6.24,8.37-7.09,11.3-1.19,4.12-2.63,8.27-3.83,12.41a243.59,243.59,0,0,0-6.25,32.63,6.46,6.46,0,0,0,2.5,5.91c7.38,5.54,27.82,19.19,44.11,5.12C228.6,87.27,194.37,75.05,194.37,75.05Z"/><path class="cls-8" d="M227.54,147.43s-34.63,61.23-43.83,107.12c-8.93,44.52-11.19,53.2-11.19,53.2l17.76,3.09s18.89-30.22,14.86-61.3c16.72-25.15,80.87-66.41,49.42-108.49"/><path class="cls-8" d="M226.1,269.3l30.26,51.62,16.37-12.52s-9.85-31.23-28.27-43.09c0,0,29.57-96.36,15.24-113.51l-37,4Z"/><path class="cls-9" d="M190.28,310.84l-17.8-3.13L160.38,351s-10.72,21.5-19.22,35.85c16.26-.22,19.47-14.5,19.47-14.5l9.76-.13-.76-17.6Z"/><path class="cls-9" d="M255.46,320.16l26.8,36.07s10.1,21.19,15.92,36.26c11-11.38,1.58-22.76,1.58-22.76l6.58-6.83-14.8-10.75-19.6-43.67"/><path class="cls-6" d="M272.62,224.5c2.68-27.33-2.28-51.93-11.49-77-.13-.37-15.77-.16-15.91-.53l-21.11,6.21S206.89,172,174,259.88l62.13,7.63,7.11-22.6.49,23.56,24.09,3.35Z"/><ellipse class="cls-9" cx="246.71" cy="59.66" rx="8.74" ry="5.78" transform="translate(72.33 244.09) rotate(-60.2)"/><ellipse class="cls-9" cx="237.4" cy="57.85" rx="13.75" ry="10.78" transform="translate(86.02 249.65) rotate(-65.41)"/><ellipse class="cls-9" cx="248.24" cy="90.13" rx="20.9" ry="24.62" transform="translate(-10.96 39.53) rotate(-8.91)"/><path class="cls-8" d="M295.74,195.3c-1.5-.05-2.33-1.59-3.51-2.42-1.74-1.24-5.14-3.11-6.83-4.4-1.44-1.1-.24-6.73-.6-8.54-.68-3.32-3.16-24.12-4.06-46.39-.08-1.93-2.4-2.62-5.65-5.11l12.54-8.75c6.31-4,10.84-1.33,10.54,5.88a12.79,12.79,0,0,1-.21,1.93c-1.29,7.22-2,12.7-2.73,18.18q-1.2,9.28-2.42,18.56c-.76,5.83-2.47,12.67-.94,18.31,1.09,4,3.07,7.61,4.62,11.4a1.06,1.06,0,0,1,0,1.06A.94.94,0,0,1,295.74,195.3Z"/><path class="cls-10" d="M214.5,115.2v0A13.94,13.94,0,0,0,217.83,127l3.54,3.91,2.74,22.25,37-5.68,6.05-17.28s13.76,10.68,13.77,10.7l16.19-24.38c-4.68-7.42-16.29-19.56-25.21-26.9-8.3-6.83-22.28-7.27-40.42-7.17,0,0-8-1.43-34.52-6.71l-9.11,32.32Z"/><line class="cls-11" x1="217.35" y1="162.82" x2="260.72" y2="147.49"/><path class="cls-12" d="M255.3,132.61c-5.26.2-20.77-1.36-20.77-1.36s-10.25-2.13-12-3.79a52.76,52.76,0,0,1,13.56-.69,41.61,41.61,0,0,1,12.91,2.5,29.46,29.46,0,0,1,3.33,1.51C253,131.11,254.64,132.63,255.3,132.61Z"/><path class="cls-8" d="M238.68,82.25a143.52,143.52,0,0,1,21.16,2c-2.38,10.26-25.69,20.25-25.69,20.25s-11.37-9-7.44-22.8C230.69,82.08,235.68,82.12,238.68,82.25Z"/><path class="cls-8" d="M244.82,88.31l-.43-22.4,2.05-11.32s-7.28-2.29-10.38,1.66a20.92,20.92,0,0,0-3.73,9.29s-1.93,6.61.61,6.5,4.53-.39,4.53-.39l-4,17.18Z"/><path class="cls-9" d="M241.11,52.13l7.37,1.54-1,9.24-2.54-2.07a10.76,10.76,0,0,1-3.78-8.71Z"/><ellipse class="cls-8" cx="244.72" cy="63.47" rx="3.55" ry="2.04" transform="translate(42.74 215.51) rotate(-51.51)"/><polygon class="cls-13" points="237.47 71.65 241.19 70.92 235.14 81.67 237.47 71.65"/><path class="cls-8" d="M194.43,24.41c2.13-2.24,5.63-8.9,5.63-8.9s1.36,5.54,0,7.91"/><path class="cls-8" d="M195.56,23.15l-.51-4.72a48.83,48.83,0,0,0-4.44,8.77"/><line class="cls-14" x1="167.7" y1="6.72" x2="172.81" y2="13.77"/><line class="cls-14" x1="189.5" y1="13.59" x2="195.46" y2="7.26"/><line class="cls-14" x1="178.16" y1="9.16" x2="175.85" y2="0.23"/><line class="cls-14" x1="184.18" y1="9.46" x2="187.39" y2="1.54"/><path class="cls-15" d="M62.89,46a7,7,0,0,0,5.28,5l-5,10.5Z"/><line class="cls-5" x1="146.5" y1="66.07" x2="149.9" y2="117.17"/><line class="cls-5" x1="3.34" y1="151.6" x2="49.14" y2="174.04"/></g></g></svg>