<svg xmlns="http://www.w3.org/2000/svg" xmlns:xlink="http://www.w3.org/1999/xlink" viewBox="0 0 278.68 387.69"><defs><style>.cls-1{fill:#e94e1b;}.cls-2{fill:#177cbf;}.cls-3{fill:#19005a;}.cls-4{fill:#7a3716;}.cls-5{fill:#ff9257;}.cls-6{fill:#cec9e2;}.cls-7{fill:#ffd2b4;}.cls-8{fill:#fbbe25;}.cls-9{fill:#ff7045;}.cls-10{fill:#e6aa83;}.cls-11{fill:none;stroke:#fff;stroke-miterlimit:10;stroke-width:1.6px;}.cls-12{fill:#cc614f;}.cls-13{fill:#fff;}</style><symbol id="CONTACT-febecoop_2" data-name="CONTACT-febecoop 2" viewBox="0 0 488.44 679.5"><path class="cls-1" d="M487.89,673.66l-18.42-29.28-20.18-9.06,4.95,25.29,7.31-.53a77.72,77.72,0,0,0,26.89,16.39"/><polygon class="cls-2" points="432.7 597.62 449.85 634.76 465.58 631.45 456.51 592.85 432.7 597.62"/><path class="cls-3" d="M280.63,112.3S213.39,132.19,195.5,88,201.65,18,208.39,12.11s61.26-30,87.34,12.71c27.74,45.46-2.89,78.71-2.89,78.71Z"/><path class="cls-4" d="M395,102.62l28.84-17.57L443.65,73c2.38-1.46,5.59-2.81,7.41-4.92,3.41-3.95,2-9.78,3.69-14.4,3.46-.51,7.22,7.89,8.19,10.78,2.52,7.51-6.37,11.22-10.39,16.18q-6.8,8.41-13.74,16.72c-9.1,10.9-18.31,24.11-29.84,32.62C406.21,127.73,395,102.62,395,102.62Z"/><path class="cls-5" d="M326.78,141.37,395,102.62c-1.74-3.12,24.7,44.35,29.06,80.58-2.19.4-50.82,20.42-80.45,27.35Z"/><path class="cls-5" d="M146.57,167.48c1.62,49.85,8.62,78.77,8.62,78.77,21.75.08,85.23-13.27,85.23-13.27l8.28,27.56L332,255.49l.07-18.26s11.34-17.67,15.68-28.4c5.11-12.62-19.94-67.94-19.94-67.94l-55.4,10.84-132.17-5.52"/><path class="cls-4" d="M293.91,150.57l10.21-44.21.64-23s15.42-2.51,19.95,6.18S328.24,109,328.24,109s1.08,13.62-3.93,12.69-8.84-2-8.84-2l.78,35.13Z"/><path class="cls-4" d="M273.8,151.26l54-10.37s1.17,39.92.68,46.76,1.32,12.78-11.42,4.07S284.24,163.16,273.8,151.26Z"/><path class="cls-3" d="M329.56,81s5.24,5,6,15.3a126.51,126.51,0,0,1-25.82,3.91S306.51,86.29,301.5,84C301.5,84,314.24,63.31,329.56,81Z"/><path class="cls-3" d="M308.49,89.66,305,94.9l-1,7.77s-6-8.29-3.94-16.8l8.53-4.23Z"/><path class="cls-6" d="M248.71,260c-23.05,78.47-21.83,102.15-21.83,102.15s11.43,122.33,9.43,127.61-55.21,91-55.21,91l39.49,44.44s49.8-58.64,63.07-73.13S309,501.27,309,501.27l-.93-103.12c8.56,8,55.89,77.55,55.89,77.55l49,129.93,51.37-13.75s-25.06-102-38.14-137.75-95.28-200.26-95.28-200.26"/><path class="cls-4" d="M148.53,147.84,111.93,141,82.2,135.39c-9.35-1.76-20.63-2.54-28.77-7.8-2.73-1.76-5-3.92-7.61-5.94-2.31-1.79-4.56-3.5-6.81-5.37s-6.8-7.17-9.64-7.68c-5.71-1-1,10.79.13,13.85,6.06,16.55,27.87,21.73,42.71,28.18l75.62,32.88Z"/><path class="cls-1" d="M156.85,627l-12.92,16.1,7.65,6.36s2.16,8.28,4.89,12.13a46.59,46.59,0,0,0,12.64,12.9l-4.87-28.9Z"/><polygon class="cls-2" points="167.28 636.17 198.89 604.25 185.84 587.69 158.02 625.46 167.28 636.17"/><path class="cls-7" d="M330.65,268a5.31,5.31,0,0,0,4.54,6.55c9.11,1,26.6,2.92,35.93,4l25.24,2.78,11.32,1.25a46.72,46.72,0,0,1,5.35,1.22c4.62,1,9.35,1.22,13.75,3a28.47,28.47,0,0,1,11.63,8.74,8.35,8.35,0,0,0,1.46,1.51c3.21,2.47,3.28-1.37,3-3.63a29.85,29.85,0,0,0-2.53-7.57,5.83,5.83,0,0,1-.61-2.45,2.18,2.18,0,0,1,1.37-2c.42-.12,1-.11,1.17-.5s0-.74-.25-1c-5.09-7-13.62-9-21.39-11.71l-30.86-10.63-35.63-12.28-17.07-5.88Z"/><path class="cls-7" d="M27.25,266a11.23,11.23,0,0,0,2.5,12.14l46.4,45.25c4.13,4,16.74,12.8,15.55,19.23-.5,2.68-2.07,5-2.74,7.65-1.17,4.68.68,9.68,3.48,13.52.39.54.86,1.1,1.71.77a1.83,1.83,0,0,0,1-1.17l6.63-19.85a34.74,34.74,0,0,0,2.13-9.06c.34-6.47-5.44-12.28-8.8-17.45L84,299.89l-25.44-39.2-18-27.79Z"/><path class="cls-8" d="M327.34,333.82l19.82-98.72L242,178.29l-33.59-12.46S115.9,145.62,9.63,219.51l66.08,67.55,45.7-30.6-5.13,33.25,131.4,15.45L253,284.75C276.13,302.65,282.74,310.73,327.34,333.82Z"/><path class="cls-7" d="M224.43,176.72c0-1.44-.92-23-.92-23s6.44,3.35,7.36-5.74-.93-30.35-.93-30.35l-15.4,3.45-13.1,52.73Z"/><path class="cls-9" d="M116.88,289.74S67.09,446.22,47.61,571.18c2.17,2.25-10.82,41.65-10.82,41.65L97.4,607.2l75.76-207.14S292.2,587.2,316,619.85c0,0,47.91-26.46,52.24-28.71,0,0-72.79-135.91-86.86-177.57s-33.71-108.41-33.71-108.41Z"/><path class="cls-7" d="M338,606.56s18.79,43.2,25.71,49.38S386,677.16,386,677.16s-32.39-1.82-44.07-9.91l-26.17-48.37Z"/><polygon class="cls-7" points="39.78 611.33 28.2 653.36 0 679.5 41.08 674.4 44.75 660.37 73.5 608.78 39.78 611.33"/><polygon class="cls-10" points="223.51 153.76 214.87 151.61 224.13 166.81 223.51 153.76"/><path class="cls-11" d="M192.25,163.6a172,172,0,0,0-17.88,27L206,181.41a7.54,7.54,0,0,1,4.16-.39c1.56.46,2.72,1.88,3.79,3.24L231.13,206c2.18-9.43,4.4-19.6,6.58-29"/><path class="cls-12" d="M210.9,121.3a12,12,0,0,1,8.46-9.46,16.1,16.1,0,0,1,1.56-.43l-4.26-5.88s11-7.68,17.44-1.71,4.52,16.24-2.58,22.21l-5.05-7-4.28,1.06-2.26,8.28s-3.72-5.18-5.25-.52L212.49,139l-.4-.89C210.74,134.92,206.59,125.32,210.9,121.3Z"/><ellipse class="cls-13" cx="196.79" cy="218.35" rx="1.67" ry="1.75"/><ellipse class="cls-13" cx="200.85" cy="207.71" rx="1.67" ry="1.75"/><ellipse class="cls-13" cx="204.15" cy="193.48" rx="1.67" ry="1.75"/><ellipse class="cls-13" cx="195.12" cy="231.08" rx="1.67" ry="1.75"/><ellipse class="cls-13" cx="190.93" cy="244.71" rx="1.67" ry="1.75"/><ellipse class="cls-13" cx="189.27" cy="258.06" rx="1.67" ry="1.75"/><ellipse class="cls-13" cx="186.74" cy="271.62" rx="1.67" ry="1.75"/><ellipse class="cls-13" cx="185.2" cy="285.05" rx="1.54" ry="1.62"/></symbol></defs><title>landing-leftillu</title><g id="Calque_2" data-name="Calque 2"><g id="contenu"><use width="488.44" height="679.5" transform="scale(0.57)" xlink:href="#CONTACT-febecoop_2"/></g></g></svg>