<svg id="Calque_1" data-name="Calque 1" xmlns="http://www.w3.org/2000/svg" xmlns:xlink="http://www.w3.org/1999/xlink" viewBox="0 0 400.93 183.95"><defs><style>.cls-1{fill:#28235a;}.cls-2{fill:#532e6f;}.cls-3{fill:#762d8c;}.cls-4{fill:url(#Nouvelle_nuance_de_dégradé_4);}.cls-5{fill:#922a8b;}.cls-6{fill:#af2c79;}.cls-7{fill:url(#Nouvelle_nuance_de_dégradé_1);}.cls-8{fill:#d82f8d;}.cls-9{fill:#e90c89;}.cls-10{fill:#8f2c4c;}.cls-11{fill:url(#Nouvelle_nuance_de_dégradé_2);}.cls-12{fill:#ee5d33;}.cls-13{fill:#fbda6b;}.cls-14{fill:#fbb950;}.cls-15{fill:#f07435;}.cls-16{fill:#656161;}.cls-17{fill:#282525;}</style><linearGradient id="Nouvelle_nuance_de_dégradé_4" x1="185.31" y1="316.25" x2="212.66" y2="316.25" gradientUnits="userSpaceOnUse"><stop offset="0" stop-color="#922a8b"/><stop offset="0.4" stop-color="#8b2b8b"/><stop offset="0.99" stop-color="#762d8c"/><stop offset="1" stop-color="#762d8c"/></linearGradient><linearGradient id="Nouvelle_nuance_de_dégradé_1" x1="120.7" y1="326.26" x2="148.43" y2="326.26" gradientUnits="userSpaceOnUse"><stop offset="0" stop-color="#d82f8d"/><stop offset="0.31" stop-color="#d12e89"/><stop offset="0.76" stop-color="#bc2d80"/><stop offset="1" stop-color="#af2c79"/></linearGradient><linearGradient id="Nouvelle_nuance_de_dégradé_2" x1="170.36" y1="227.45" x2="200.43" y2="227.45" gradientUnits="userSpaceOnUse"><stop offset="0" stop-color="#9a305a"/><stop offset="0.19" stop-color="#a13457"/><stop offset="0.47" stop-color="#b6404e"/><stop offset="0.8" stop-color="#d75440"/><stop offset="1" stop-color="#ee6236"/></linearGradient></defs><title>logo_VB</title><path class="cls-1" d="M143.67,314.39c2.08-1.1,3.92-3.15,6-4.46,2.27-1.46,4.68-2.62,6.91-4,4.45-2.81,9.24-4.59,13.77-7.14a42.69,42.69,0,0,1-1.49,11.68c-.6,2.19-1.9,7.69-3.77,9.12-2.16,1.64-10.54,1.07-13.34.38S143.67,314.39,143.67,314.39Z" transform="translate(-98.52 -173.14)"/><path class="cls-2" d="M137.73,299c-.52-8.06,7.83-22.91,16.39-24.95,8-1.91,13.93,10.62,16.5,16.2-10.29.76-22,4.31-31.5,7.7Z" transform="translate(-98.52 -173.14)"/><path class="cls-3" d="M170.62,266.44c12.34,0,26.84,2,33.12,13.67-3.71,1.88-7.85,3.19-11.51,5.13-2,1.09-4.21,1.73-6.22,2.82-2.29,1.23-4,3.23-6.59,3.9.42-7.08-3.73-16.82-7.76-22.71Z" transform="translate(-98.52 -173.14)"/><path class="cls-4" d="M185.31,300c9.08.26,18.12-.83,27.24-.3.67,5.22-2.06,13.48-3.78,18.39-2.09,6-5.91,10.66-10.44,14.77-2.3-5.9-3.33-12.51-5.57-18.53a129.85,129.85,0,0,0-6-13.28Z" transform="translate(-98.52 -173.14)"/><path class="cls-5" d="M184,318c-.4,9.88,1.07,19.65,2.71,29.1-10.21-2.31-17.93-7.76-27.73-14.52.48-.54,8.06.49,14.46-3C178.76,326.55,182.46,320.18,184,318Z" transform="translate(-98.52 -173.14)"/><path class="cls-6" d="M133.88,351.47c4.09-3.83,9.37-6.2,13-10.48.89-1.07,5.79-8,5.79-8a41,41,0,0,0,2.66,5.86c4.33,5.56,7.81,11.91,12.41,17.11-10.52.61-23.46,3.72-32.43-4.14Z" transform="translate(-98.52 -173.14)"/><path class="cls-7" d="M127.58,309.83c2.24,11.48,11.48,17.69,20.85,20.84-4.79,2-22.63,11.7-27.45,12,0-4.74-.57-9.51,0-14.25.65-6,2.91-11.1,5.25-16.5Z" transform="translate(-98.52 -173.14)"/><path class="cls-8" d="M99.91,286.36c4.15,2.65,8.29,7.1,12.6,9.79,3.72,2.33,9.1,5.13,9.1,5.13s-4,9.33-6.3,14.46a40.68,40.68,0,0,0-3,15.4c-2.09-.64-10.26-11.89-12.82-24.26C97.11,298.48,99.91,286.36,99.91,286.36Z" transform="translate(-98.52 -173.14)"/><path class="cls-9" d="M116.24,281.46c2.52,4.46,5.68,8,9.1,11.89-.21-7.64,4.7-20.7,11.91-24.81a187.78,187.78,0,0,0-28.92-2.44S113.67,276.89,116.24,281.46Z" transform="translate(-98.52 -173.14)"/><path class="cls-10" d="M121.61,253c9.34,1.41,20.13,3.61,28.31,7.59a.55.55,0,0,0,.33-.23c.62-7.07,3.78-17.05,5.65-23.69-4.23-1.56-12.41-.44-18.2,2.34C130,242.67,121.61,253,121.61,253Z" transform="translate(-98.52 -173.14)"/><path class="cls-11" d="M185,212.1a46.54,46.54,0,0,1,10.5,11.66c3.16,5.36,4.45,12,4.9,14-8.55.85-22,2.62-30.07,5.06C170.36,242.81,184.8,218.86,185,212.1Z" transform="translate(-98.52 -173.14)"/><path class="cls-12" d="M209.22,255.88a64.47,64.47,0,0,1,21.86-.35c4.11.56,9.87,1.17,13.07,3.89C241.34,261.5,223,282.13,220.7,286a149.43,149.43,0,0,0-3-15.59C216.67,267.44,209.22,255.88,209.22,255.88Z" transform="translate(-98.52 -173.14)"/><path class="cls-13" d="M260.93,201.5c4.38-5.07,10.83-8.35,16.13-12.34a19,19,0,0,1,7.34-3.86c.51,8.56-.5,17.92,1.17,26.19-.62-4.67-9.73-7.19-13.44-7.74a69.15,69.15,0,0,0-12-.85Z" transform="translate(-98.52 -173.14)"/><path class="cls-14" d="M209.86,225.14c5.69,4.43,11.45,9,17.91,12.26,2.28,1.16,5.71,3.37,8.28,3.44.54-8.89.66-19.42,3.16-27.9-4.22.68-8.77,3.3-12.88,4.77-5.34,1.91-10.44,4.52-15.77,6.39Z" transform="translate(-98.52 -173.14)"/><path class="cls-15" d="M213.89,187.26c2.86.05,9.27,3.89,11.86,5,3.1,1.36,5.86,3.89,8.53,6,2.11,1.64,4.25,3.32,6.39,4.87-.06-5.21.79-10.46,1.22-15.64.34-4.29,1.05-10.4,2.32-14.36-2.27.38-11,4.85-13.25,5.6C226.73,180.14,213.89,187.26,213.89,187.26Z" transform="translate(-98.52 -173.14)"/><path class="cls-16" d="M275.38,253.28a1.43,1.43,0,0,1-1.44,1.44h-9.77v22.09a1.42,1.42,0,0,1-1.44,1.39,1.77,1.77,0,0,1-1.55-1.39V253.7c0-6.93,6-12.81,13.24-12.81a1.42,1.42,0,0,1,0,2.83c-5.13,0-9.08,3.26-9.82,7.95h9.34A1.48,1.48,0,0,1,275.38,253.28Z" transform="translate(-98.52 -173.14)"/><path class="cls-16" d="M302.81,254.88a17.86,17.86,0,0,1,2,2.13,1.6,1.6,0,0,1,.38,1,2.16,2.16,0,0,1-.38.91s-15,12.6-16.87,14.25a10.51,10.51,0,0,0,14.47-1.44,1.42,1.42,0,0,1,2.08-.21,1.84,1.84,0,0,1,.32,2.08,13.38,13.38,0,0,1-23.54-7.05,13.16,13.16,0,0,1,3.1-9.77,11.84,11.84,0,0,1,8.8-4.69A12.7,12.7,0,0,1,302.81,254.88ZM286,271c1.66-1.7,13.72-11.58,15.64-13.29-.27-.21-.48-.21-.69-.42a9.85,9.85,0,0,0-7.63-2.4,10,10,0,0,0-6.84,3.79,9.26,9.26,0,0,0-2.35,6.4A11.25,11.25,0,0,0,286,271Z" transform="translate(-98.52 -173.14)"/><path class="cls-16" d="M313,264.86V241a1.36,1.36,0,0,1,1.5-1.44c.91,0,1.38.43,1.38,1.44v15.42a14.21,14.21,0,0,1,10.57-4.8A13.37,13.37,0,1,1,313,264.86Zm2.88,0a10.48,10.48,0,0,0,10.57,10.35,10.41,10.41,0,1,0,0-20.81A10.51,10.51,0,0,0,315.89,264.86Z" transform="translate(-98.52 -173.14)"/><path class="cls-16" d="M367.89,254.88a17.76,17.76,0,0,1,2,2.13,1.6,1.6,0,0,1,.37,1,2.14,2.14,0,0,1-.37.91s-15,12.6-16.86,14.25a10.5,10.5,0,0,0,14.46-1.44,1.42,1.42,0,0,1,2.08-.21,1.85,1.85,0,0,1,.32,2.08,13.38,13.38,0,0,1-23.54-7.05,13.16,13.16,0,0,1,3.1-9.77,11.86,11.86,0,0,1,8.8-4.69A12.72,12.72,0,0,1,367.89,254.88ZM351.07,271c1.65-1.7,13.72-11.58,15.64-13.29-.26-.21-.48-.21-.69-.42a10,10,0,0,0-14.46,1.39,9.22,9.22,0,0,0-2.36,6.4A11.25,11.25,0,0,0,351.07,271Z" transform="translate(-98.52 -173.14)"/><path class="cls-17" d="M389.87,279.43a13.86,13.86,0,0,1,0-27.72A13.3,13.3,0,0,1,401,257.47a1.31,1.31,0,0,1-.17,1.95,1.65,1.65,0,0,1-2.33-.28,10.66,10.66,0,0,0-8.59-4.5A11.05,11.05,0,0,0,379,265.57a10.82,10.82,0,0,0,10.92,10.65,10,10,0,0,0,9.37-5.66,1.59,1.59,0,0,1,2.22-.5A1.26,1.26,0,0,1,402,272,13.75,13.75,0,0,1,389.87,279.43Z" transform="translate(-98.52 -173.14)"/><path class="cls-17" d="M451.6,255.48a13.81,13.81,0,0,0-10-4,14.22,14.22,0,0,0-10,4.11s0,0-.05-.06a13.81,13.81,0,0,0-10-4,14,14,0,1,0,10,23.85,14.09,14.09,0,0,0,24.13-9.93A14.54,14.54,0,0,0,451.6,255.48Zm-10,21A11,11,0,0,1,430.71,266a11.28,11.28,0,0,0-3.13,1.46,13.86,13.86,0,0,0,2.09,5.43,11,11,0,1,1-8.09-18.49,10,10,0,0,1,7.76,3.39,11.06,11.06,0,0,1,3.22,6.19,18.12,18.12,0,0,0,3,0,14,14,0,0,0-2.11-5.93,10.86,10.86,0,0,1,8.13-3.67,10,10,0,0,1,7.76,3.39,10.84,10.84,0,0,1,3.33,7.54A11.22,11.22,0,0,1,441.62,276.5Z" transform="translate(-98.52 -173.14)"/><path class="cls-17" d="M474.15,279.43a14,14,0,0,1-11-5.26v15.25a1.45,1.45,0,0,1-1.55,1.55,1.57,1.57,0,0,1-1.49-1.55V265.24a14,14,0,0,1,14-13.53,12.76,12.76,0,0,1,9.75,4,13.76,13.76,0,0,1-9.75,23.73Zm0-3a10.89,10.89,0,0,0,10.76-11,10.58,10.58,0,0,0-3.06-7.54,10.46,10.46,0,0,0-7.7-3.28,10.9,10.9,0,1,0,0,21.8Z" transform="translate(-98.52 -173.14)"/><path class="cls-2" d="M266.36,311.82h-1.73L258.13,292h2.22l5.14,16,5.15-16h2.22Z" transform="translate(-98.52 -173.14)"/><path class="cls-2" d="M278.73,311.82c-2.39,0-3.48-1.56-3.48-3.64V292h2V308.1c0,1.33.45,2,1.84,2h1.08v1.72Z" transform="translate(-98.52 -173.14)"/><path class="cls-2" d="M291,311.82v-1.31a4.78,4.78,0,0,1-4,1.48c-1.89,0-3-.36-3.86-1.25a3.94,3.94,0,0,1-1-2.78c0-2.39,1.67-3.95,4.73-3.95H291V302.7c0-2-1-3-3.5-3a3.6,3.6,0,0,0-3.45,1.56L282.73,300c1.22-1.59,2.61-2,4.84-2,3.67,0,5.47,1.58,5.47,4.56v9.28Zm0-6.31h-3.83c-2.06,0-3.06.83-3.06,2.42s1,2.33,3.14,2.33a4,4,0,0,0,3.06-.91A3.2,3.2,0,0,0,291,307Z" transform="translate(-98.52 -173.14)"/><path class="cls-2" d="M305.39,311.82v-1.31a4.8,4.8,0,0,1-3.95,1.48c-1.89,0-3-.36-3.86-1.25a3.94,3.94,0,0,1-1-2.78c0-2.39,1.66-3.95,4.72-3.95h4.12V302.7c0-2-1-3-3.51-3a3.58,3.58,0,0,0-3.44,1.56L297.07,300c1.23-1.59,2.62-2,4.84-2,3.67,0,5.48,1.58,5.48,4.56v9.28Zm0-6.31h-3.84c-2.06,0-3.06.83-3.06,2.42s1,2.33,3.14,2.33a4,4,0,0,0,3.06-.91,3.2,3.2,0,0,0,.7-2.37Z" transform="translate(-98.52 -173.14)"/><path class="cls-2" d="M320.73,311.82V303.4c0-2.42-1.3-3.65-3.36-3.65S314,301,314,303.4v8.42h-2V298.14h2v1.5a4.91,4.91,0,0,1,3.83-1.66,4.82,4.82,0,0,1,3.51,1.27,5.08,5.08,0,0,1,1.41,3.81v8.76Z" transform="translate(-98.52 -173.14)"/><path class="cls-2" d="M335.49,311.82v-1.64A4.42,4.42,0,0,1,331.6,312a4.76,4.76,0,0,1-3.34-1.2c-1.38-1.39-1.66-3.67-1.66-5.81s.28-4.42,1.66-5.81A4.8,4.8,0,0,1,331.6,298a4.41,4.41,0,0,1,3.87,1.75V292h2v19.79Zm-3.44-12.07c-3,0-3.45,2.56-3.45,5.23s.47,5.23,3.45,5.23,3.42-2.56,3.42-5.23S335,299.75,332.05,299.75Z" transform="translate(-98.52 -173.14)"/><path class="cls-2" d="M343.44,305.51c0,3,1.42,4.73,4,4.73a4.5,4.5,0,0,0,3.58-1.56l1.36,1.2a6.29,6.29,0,0,1-5,2.11c-3.61,0-6-2.17-6-7,0-4.42,2.14-7,5.62-7s5.61,2.55,5.61,6.61v.92Zm6.81-3.78a3.51,3.51,0,0,0-6.39,0,5.76,5.76,0,0,0-.42,2.28h7.23A5.59,5.59,0,0,0,350.25,301.73Z" transform="translate(-98.52 -173.14)"/><path class="cls-2" d="M364.29,300.76a2.86,2.86,0,0,0-2.36-1c-2,0-3.28,1.59-3.28,3.67v8.4h-2V298.14h2v1.67a4.59,4.59,0,0,1,3.84-1.83,4.23,4.23,0,0,1,3.28,1.27Z" transform="translate(-98.52 -173.14)"/><path class="cls-2" d="M368.38,305.51c0,3,1.41,4.73,4,4.73a4.5,4.5,0,0,0,3.58-1.56l1.36,1.2a6.28,6.28,0,0,1-5,2.11c-3.61,0-6-2.17-6-7,0-4.42,2.14-7,5.62-7s5.62,2.55,5.62,6.61v.92Zm6.81-3.78a3.52,3.52,0,0,0-6.4,0,5.78,5.78,0,0,0-.41,2.28h7.22A5.78,5.78,0,0,0,375.19,301.73Z" transform="translate(-98.52 -173.14)"/><path class="cls-2" d="M390.34,311.82V303.4c0-2.42-1.31-3.65-3.37-3.65s-3.39,1.26-3.39,3.65v8.42h-2V298.14h2v1.5a4.93,4.93,0,0,1,3.84-1.66,4.8,4.8,0,0,1,3.5,1.27,5.08,5.08,0,0,1,1.42,3.81v8.76Z" transform="translate(-98.52 -173.14)"/><path class="cls-2" d="M396.54,305.26V303.4h7.61v1.86Z" transform="translate(-98.52 -173.14)"/><path class="cls-2" d="M416.55,311.82h-7.7V292h7.45c3.45,0,5.84,2,5.84,5.28a4.55,4.55,0,0,1-2.92,4.34,4.78,4.78,0,0,1,3.23,4.69C422.45,309.93,420.06,311.82,416.55,311.82Zm-.41-17.9H411v6.86h5.18c2.19,0,3.89-1.08,3.89-3.44S418.33,293.92,416.14,293.92Zm.22,8.75H411v7.26h5.4c2.44,0,4-1.42,4-3.64S418.8,302.67,416.36,302.67Z" transform="translate(-98.52 -173.14)"/><path class="cls-2" d="M434.43,300.76a2.87,2.87,0,0,0-2.36-1c-2,0-3.28,1.59-3.28,3.67v8.4h-2V298.14h2v1.67a4.58,4.58,0,0,1,3.83-1.83,4.21,4.21,0,0,1,3.28,1.27Z" transform="translate(-98.52 -173.14)"/><path class="cls-2" d="M446.85,311.82v-1.53A5,5,0,0,1,443,312a4.88,4.88,0,0,1-3.53-1.28,5.12,5.12,0,0,1-1.39-3.84v-8.73h2v8.43c0,2.42,1.28,3.64,3.34,3.64s3.42-1.25,3.42-3.64v-8.43h2v13.68Z" transform="translate(-98.52 -173.14)"/><path class="cls-2" d="M457.86,312a7.52,7.52,0,0,1-5.61-2l1.33-1.33a5.6,5.6,0,0,0,4.25,1.58c2.26,0,3.65-.8,3.65-2.41,0-1.2-.7-1.87-2.28-2l-2.25-.19c-2.67-.22-4.09-1.42-4.09-3.67,0-2.5,2.11-4,5-4a7.72,7.72,0,0,1,4.92,1.47l-1.31,1.31a5.83,5.83,0,0,0-3.64-1.09c-2,0-3.06.86-3.06,2.25,0,1.17.67,1.87,2.4,2l2.19.19c2.39.22,4,1.14,4,3.7S461.17,312,457.86,312Z" transform="translate(-98.52 -173.14)"/><path class="cls-2" d="M470.93,312a7.53,7.53,0,0,1-5.62-2l1.33-1.33a5.61,5.61,0,0,0,4.26,1.58c2.25,0,3.64-.8,3.64-2.41,0-1.2-.7-1.87-2.28-2l-2.25-.19c-2.67-.22-4.09-1.42-4.09-3.67,0-2.5,2.11-4,5-4a7.72,7.72,0,0,1,4.92,1.47l-1.3,1.31a5.87,5.87,0,0,0-3.64-1.09c-2,0-3.06.86-3.06,2.25,0,1.17.67,1.87,2.39,2l2.2.19c2.39.22,4,1.14,4,3.7S474.23,312,470.93,312Z" transform="translate(-98.52 -173.14)"/><path class="cls-2" d="M481.38,305.51c0,3,1.42,4.73,4,4.73a4.53,4.53,0,0,0,3.59-1.56l1.36,1.2a6.3,6.3,0,0,1-5,2.11c-3.61,0-6-2.17-6-7,0-4.42,2.14-7,5.61-7s5.62,2.55,5.62,6.61v.92Zm6.81-3.78a3.52,3.52,0,0,0-6.4,0,5.78,5.78,0,0,0-.41,2.28h7.23A5.76,5.76,0,0,0,488.19,301.73Z" transform="translate(-98.52 -173.14)"/><path class="cls-2" d="M498,311.82c-2.39,0-3.47-1.56-3.47-3.64V292h2V308.1c0,1.33.44,2,1.83,2h1.09v1.72Z" transform="translate(-98.52 -173.14)"/></svg>