<?xml version="1.0" encoding="utf-8"?>
<svg width="1054" height="518" viewBox="0 0 1054 518" fill="none" xmlns="http://www.w3.org/2000/svg">
<g clip-path="url(#clip0)">
<path d="M360.5 517.1L362.5 474.9L309.3 478.4L311 517.1H360.5Z" fill="#FFD2B4"/>
<path d="M683.1 517.1L687 411.5L570.3 391.6L549.2 426C549.2 426 547.3 484.3 546.7 517.2H683.1V517.1Z" fill="#66271F"/>
<path d="M322.5 409.4C304.9 406 287.7 400.2 272.2 391.7C255.4 382.5 240.7 370.2 229.6 355.9C219.2 342.5 209.4 325.2 210.9 309.1C211.5 302.9 213.3 296.3 210.6 290.5C207 283.3 198 280.1 190 277C161.8 266.3 122.8 260 111.1 234.7C104.3 220 102.9 203.6 104 187.8C108.3 127.8 133.2 57.5999 190.9 27.1999C248.6 -3.20008 349.4 -5.70008 413.6 11.3999C437.7 17.7999 461.9 27.9999 476.5 46.3999C491.1 64.7999 492.6 92.8999 474.3 108.2C455.4 124 422.5 122.1 406.8 140.5C391.5 158.5 402.5 185.9 421.7 200.8C433 209.6 450.6 215.5 462.3 207.3C471.9 200.6 473.5 187.1 484 181.6C493.3 176.8 505.4 180.5 515.8 177.8C527.2 174.8 534 164.7 543.4 158.2C569.4 139.9 608.1 152 634.8 169.6C646.8 177.6 658.4 187 664.1 199.4C669.8 211.8 668 227.7 656.5 236.2C647.9 242.5 635.6 243.8 627.6 250.6C609.6 265.8 624.8 291.9 631.4 313.4C641.1 345.1 626.1 381.5 596 399.9C589.2 404 581.5 407.3 573.4 407.5C544.9 408.2 527 372.5 498.6 374.4C488.7 375 480.1 380.3 471.5 384.7C452.2 394.7 430.6 402.6 408.6 407.5C396.6 410.2 384.3 412 371.9 412.6C355.5 413.6 338.7 412.6 322.5 409.4Z" stroke="white" stroke-width="1.6588" stroke-miterlimit="10"/>
<path d="M0.800049 258.5C0.800049 262.1 2.50005 266.1 3.50005 269.4C6.20005 278.1 9.70005 286.6 13.8 294.7C22.1 311 33.2001 326 46.2001 339C59.3001 352 74.3 362.9 90.8 371.1C101.6 376.5 113.1 380.7 124.8 383.6C142.9 387.9 161.7 388.9 180.1 386.8C198.6 384.7 216.6 379.5 233.4 371.7C250.1 363.8 265.4 353.2 278.4 340.2C281.4 337.2 284.2 334.1 287 330.9C289.9 327.5 291.5 323.7 293.9 319.9C304.2 302.9 311.4 284 314.8 264.3C315.5 260.1 316.4 255.8 315.9 251.5C315.6 248.5 314.4 245.8 313.5 242.9C312.1 238.5 311.7 234 311.1 229.5C310.3 224 309.2 218.6 307.9 213.2C305.6 203.9 303.1 193.2 297.1 185.5C294.9 182.7 293.5 179 291.8 175.9C286.8 166.8 280.8 158.2 274 150.2C270.7 146.3 267.2 142.6 263.5 139.1C226.7 104.3 173.4 88.9999 122.2 95.3999C109.6 96.9999 97.1 99.8999 85.3 104.5C79.4 106.8 73.6 109.5 68.1 112.6C64 114.9 60.2001 117.8 56.2001 120.3C52.8001 122.4 49.9 123.3 47.3 126.5C40.8 134.2 35 142.4 29.8 151.1C19.4 168.4 11.8 187.3 7.10005 207C3.80005 220.9 2.00005 235.2 1.80005 249.6C1.80005 252.2 1.30005 254.3 0.900049 256.8C0.900049 257.3 0.800049 257.9 0.800049 258.5Z" stroke="white" stroke-width="1.6504" stroke-miterlimit="10" stroke-dasharray="14.91 14.91"/>
<path d="M833.1 304.8C836.2 306.7 840.4 307.3 843.8 308.2C852.6 310.5 861.7 311.9 870.8 312.7C889.1 314.2 907.6 312.6 925.5 308.3C943.4 304 960.6 296.9 976.2 287.2C986.5 280.8 996.1 273.3 1004.7 264.7C1017.9 251.5 1028.6 236 1036.4 219.3C1044.3 202.5 1049.4 184.4 1051.4 166C1053.4 147.7 1052.4 129 1048.1 111.1C1047.1 107 1046 102.9 1044.6 98.9C1043.2 94.7 1040.8 91.2 1038.8 87.3C1029.7 69.6 1017.4 53.6 1002.4 40.4C999.2 37.6 996 34.6 992.1 32.7C989.4 31.4 986.4 31 983.5 30.2C979 29.1 975 27 970.8 25.3C965.7 23.1 960.5 21.2 955.2 19.5C946 16.6 935.7 13.1 926 14.2C922.4 14.6 918.6 13.8 915 13.7C904.6 13.2 894.1 13.8 883.8 15.4C878.8 16.2 873.8 17.3 868.9 18.6C820 31.7 779 69.1 757.7 116.1C752.4 127.7 748.4 139.8 746.1 152.3C744.9 158.5 744.2 164.9 744 171.2C743.8 175.9 744.3 180.6 744.3 185.3C744.3 189.3 743.6 192.2 744.9 196.1C748 205.7 752 215 756.7 223.9C766 241.8 778.2 258.2 792.5 272.4C802.6 282.5 813.9 291.5 825.9 299.2C828.1 300.6 829.7 302.1 831.6 303.7C832.1 304.1 832.6 304.5 833.1 304.8Z" stroke="white" stroke-width="1.6504" stroke-miterlimit="10" stroke-dasharray="14.91 14.91"/>
<path d="M637.9 274.6L655.6 194.9C661.3 169.3 673 142.3 695.4 131.6C716.2 121.7 744.5 126.1 766.1 133.9L771.8 135.9C796.5 144.8 807.7 161.5 822.6 193L848.5 291.4L712.4 335.6L637.9 274.6Z" fill="#F9D2A5"/>
<path d="M687 136.7L715.7 191.7L730.7 214.2C730.7 214.2 739.7 195.6 744.3 185.2C748.9 174.8 763.6 133.4 763.6 133.4" stroke="#D6815E" stroke-width="1.6" stroke-miterlimit="10" stroke-linecap="round" stroke-linejoin="round"/>
<path d="M790.8 262.6L784.2 264.1L777.9 136.7L784.7 138.8L790.8 262.6Z" fill="white"/>
<path d="M728.3 194.5C728.3 194.5 749.6 148.8 753.1 129.9C735 125.2 714.5 123.8 698.1 130.5C705.3 146.8 728.3 194.5 728.3 194.5Z" fill="#FF9257"/>
<path d="M892.1 517.1L890.7 460.3L892.6 403.8L865.8 403.7L728.5 399.4L715 517.1H892.1Z" fill="#37216F"/>
<path d="M802.3 418.2C803 448.1 805 478.1 805.5 508.5" stroke="#19005A" stroke-width="1.6" stroke-miterlimit="10"/>
<path d="M618.1 443.2C619 465.1 619 486.1 620.6 508.5" stroke="#351311" stroke-miterlimit="10"/>
<path d="M775 517.1C771.3 405.3 750.9 396.6 740.9 381.4L679.6 402.4C664.9 432.9 659.4 476.8 657.9 517.1H775Z" fill="#FB6649"/>
<path d="M575.3 153.5C583.2 152.5 591.4 150.9 598.4 147.5C605.1 144.3 609.3 137 611.5 130.5C613.1 125.7 613.4 120 609.7 116.3C608.6 115.2 607.2 114.3 606.4 113.1C604.3 109.9 606.6 106 606.7 102.3C606.9 98.4001 604.3 94.4 600.4 92.6C598.2 91.6 595.6 91.1 594.2 89.2C591.5 85.4 597.2 81.0001 597.1 76.4001C597 72.5001 592.8 69.9 589 68.1C585.7 66.5 572.7 63.7 571.5 60.3L555.6 69.2L575.3 153.5Z" fill="#FBBE25"/>
<path d="M543.4 170C542.3 168.8 541.1 167.5 539.9 166.2C539.7 166 539.5 165.9 539.4 165.7L543.4 170Z" fill="#FBBE25"/>
<path d="M558.2 62.6001C548 67.2001 545 71.8001 544.8 80.3001C544.8 81.3001 544.7 82.3001 544 83.1001C543.2 84.1001 541.6 84.5001 540.2 85.1001C533.7 87.7001 530.4 93.7001 532.7 99.0001C534.1 102.1 537.1 105.2 536.1 108.3C535.5 110.1 533.6 111.5 532.1 113C527.5 117.6 526.5 124 529.5 129.4C530.8 131.8 532.8 134 532.9 136.5C533.2 142.4 523.6 146.5 528.1 152.7C531.4 157.2 535.7 161.8 539.8 166.3C544 170.2 550 173.2 556.5 174.7C562.8 176.1 569.5 176 576 175.8L558.2 62.6001Z" fill="#FBBE25"/>
<path d="M555.8 74.1001L567 74.6001L574.8 118.7L558.9 121.9L555.8 74.1001Z" fill="#FFD2B4"/>
<path d="M566.1 96.8001L558 107.4L555.8 74.1001L567 74.6001L566.1 96.8001Z" fill="#E6AA83"/>
<path d="M554.1 74.4C554.3 72.7 555.3 71.1 557 70.3C561.3 68.4 568.4 68.1 568.4 76L570.2 92.8C570.2 92.8 563.4 102.3 556.2 97C553.5 95 553.6 86.9 553.6 83.5L554.1 74.4Z" fill="#FFD2B4"/>
<path d="M570.7 72.4C570.3 72 569.8 71.7 569.2 71.4C566.1 69.6 565.8 72.9001 563.2 73.3001C561.7 73.5001 560.3 72.5 559.1 71.6C557.9 70.7 556.3 69.8001 554.9 70.3001C554.3 70.5001 553.8 70.9 553.3 71.2C548.1 74.2 542.9 65.2 543.3 60.9C543.6 57.2 547.1 53.8 550.7 54.3C553.3 54.6 555.5 56.6 558.1 56.4C559.1 56.3 560 55.9 560.9 55.5C563.7 54.4 567.1 53.9 569.3 55.8C570.7 57.1 570.8 58.6 571.6 60.1C572.6 61.8 574.5 63 575.8 64.4C578 66.8 579.1 70.2 578.7 73.4C578.6 74.1 578.4 74.9 577.8 75.4C575.5 77.3 572.3 73.7 570.7 72.4Z" fill="#FBBE25"/>
<path d="M492.4 220.2L504.3 153.7C505.3 148.1 509.2 143.4 514.6 141.5L551.7 128C572.6 120.4 595.7 120.9 616.3 129.3C640.9 139.3 659.7 159.8 667.8 185L693.8 266.3L491.7 258.6L492.4 220.2Z" fill="#FB6649"/>
<path d="M546.5 121.1L543.6 130.7C543.6 130.7 558.6 135 564.2 134.8C573.4 134.4 584.2 134 592.6 130.3L588.2 123.8L586.7 112.8L546.5 121.1Z" fill="#19005A"/>
<path d="M556 125.6C556 125.6 523.6 208.4 578.5 291.4L582.8 284.7C589.8 286 592.2 278.9 592.2 278.9L602 279.4L603.2 271L610.9 273.8C610.9 273.8 559.2 206.1 564.7 130.6" fill="#19005A"/>
<path d="M753.4 356.3L764.6 269.8C765.5 262.5 769.3 256.4 774.3 253.9L809.5 236.4C829.4 226.5 851.2 227.1 870.7 238.1C882.3 244.6 892.6 254.5 901 266.9C913.2 284.9 919.5 306.3 919.9 328.1L920.7 367.4C921.2 394.1 900.6 416.5 873.9 418.1L856.4 419.2C821.5 421.3 786.5 418.1 752.6 409.8L753.4 356.3Z" fill="#C6C6C6"/>
<path d="M683 419.7C638 429.9 587.1 424.5 539.4 423.4C550.3 342.6 556.5 303.6 556.5 303.6L544 317.9L502.5 269.4C502.5 269.4 548.9 190.3 642.9 206.9C707 218.3 719.1 282.4 734.1 294.5L686 332L658 296.8C658 296.8 662.5 343.6 683 419.7Z" fill="#CEC9E2"/>
<path d="M614.1 428.1C620.7 432.5 624.5 430.8 628.3 431.4C630.5 407.2 632.6 380.3 634.3 353.7C625.6 353.7 616.9 353.8 609 351.5C610.2 374.6 611.8 400.2 614.1 428.1Z" fill="#66271F"/>
<path d="M638.8 213.3H606.5C606.5 213.3 604 263.6 608.4 351.7C616.3 353.9 625 353.8 633.7 353.9C637.5 294.1 639.6 236 638.8 213.3Z" fill="white"/>
<path d="M294.8 247L315.6 159.6C322.3 131.5 341.7 108.2 368.1 96.3998C392.5 85.4998 420.1 84.1998 445.5 92.6998L452.1 94.8998C481.2 104.6 503.5 128.1 511.9 157.5L542.4 265.3L382.4 313.7L294.8 247Z" fill="white"/>
<path d="M480.5 146.4H331.1V159.1H480.5V146.4Z" fill="#EDEBF2"/>
<path d="M480.5 170.7H331.1V183.4H480.5V170.7Z" fill="#EDEBF2"/>
<path d="M480.5 193.3H331.1V206H480.5V193.3Z" fill="#EDEBF2"/>
<path d="M288.6 517.1C285.9 492.7 262.8 286 257.7 255.8L196.5 253C196.5 253 155.2 453.4 156.8 517.2H288.6V517.1Z" fill="#66271F"/>
<path d="M235.3 347.4L228.4 343.9L222 348.5L216.2 342.5C216.2 342.5 208.6 343.7 207.8 345.2L215.3 354.5C215.3 354.5 217.6 362.9 217.8 363.7C218.6 367.2 219.6 370.2 221.1 369.6C222.6 369 223.7 367.6 223.7 367.6C223.7 367.6 225.9 368.6 226.9 367.5C228 366.4 230.1 358 229.8 354.5L235.3 347.4Z" fill="#FFD2B4"/>
<path d="M227.5 128.6C239.54 128.6 249.3 118.84 249.3 106.8C249.3 94.7602 239.54 85 227.5 85C215.46 85 205.7 94.7602 205.7 106.8C205.7 118.84 215.46 128.6 227.5 128.6Z" fill="#E07C0E"/>
<path d="M187.9 191C203.474 191 216.1 178.374 216.1 162.8C216.1 147.225 203.474 134.6 187.9 134.6C172.326 134.6 159.7 147.225 159.7 162.8C159.7 178.374 172.326 191 187.9 191Z" fill="#E07C0E"/>
<path d="M249.2 191C263.007 191 274.2 179.807 274.2 166C274.2 152.193 263.007 141 249.2 141C235.393 141 224.2 152.193 224.2 166C224.2 179.807 235.393 191 249.2 191Z" fill="#E07C0E"/>
<path d="M207.3 98.7998L188.7 148.2L252.9 153.2L237.2 117.3L207.3 98.7998Z" fill="#E07C0E"/>
<path d="M284.4 192.1C281.2 173.4 269.4 169.6 269.4 169.6L244.8 159.5C233.8 154.5 216.2 155.8 205.6 157.3C200 158.1 194.5 159.7 189.4 162.1C182.5 165.3 172.3 170.2 167.6 173.9C160.1 179.8 160.6 197.5 160.6 205.5C160.6 210.2 160.4 233.9 160.6 255.3C160.8 276.8 166.6 297.9 177.6 316.4L199.9 354L219.2 340.1L196.4 252.8L257.6 255.6L223.8 341L238.8 355.5C238.8 355.5 255.4 346.4 275.2 328.2C295 310 296.1 296.6 296.1 296.6C296.1 296.6 287.6 210.9 284.4 192.1Z" fill="#FBBE25"/>
<path d="M802 254C801.6 253.6 801.2 253.2 800.9 252.6C798.4 249.1 796.2 245.4 793.9 241.8C793.9 241.8 791.2 239.3 794.4 235.8C809.6 219.3 841.6 220.1 861.4 223.4C869 224.7 877.4 227.1 881.3 233.8C883.1 236.9 885.5 244.8 884.2 248.2C877.9 246.5 872.1 244.6 865.4 244.7C848.5 244.9 833.4 254 816.9 256.4C811 257.1 806 258.1 802 254Z" fill="#CC614F"/>
<path d="M805.1 261.9C805.1 261.9 799.1 284.2 798 294.3C798 294.3 797.6 295.9 800.3 295.6C803 295.3 802.6 293.2 802.6 293.2C802.6 293.2 807.3 267.2 809.6 261.6C809.6 261.6 810 260 808.1 260.1C805.6 260.2 805.1 261.9 805.1 261.9Z" fill="white" stroke="#C6C6C6" stroke-miterlimit="10" stroke-linecap="round" stroke-linejoin="round"/>
<path d="M817 262.1C817 262.1 813.9 292.6 814 306.2C814 306.2 813.8 308.4 816.4 307.7C819 307.1 818.4 304.2 818.4 304.2C818.4 304.2 819.8 268.9 821.5 261.1C821.5 261.1 821.7 258.9 819.8 259.2C817.3 259.7 817 262.1 817 262.1Z" fill="white" stroke="#C6C6C6" stroke-miterlimit="10" stroke-linecap="round" stroke-linejoin="round"/>
<path d="M544 517.1L530.4 373.9L411.3 372C411.3 372 405.3 494.5 404.5 517H544V517.1Z" fill="#47337B"/>
<path d="M232 156.3C231.8 155 228.9 136.2 228.9 136.2C228.9 136.2 234.2 132.3 233.2 125C232.1 116.7 230.7 103.1 230.7 103.1L216.3 114.8L211.6 156.2L232 156.3Z" fill="#FFD2B4"/>
<path d="M206.4 150.8C207.6 149.3 209.7 148.8 211.5 149.4C214.6 150.6 220.9 152.7 222.4 152.3C224.5 151.7 231.5 148.5 231.5 148.5C231.5 148.5 234.1 147.1 235.8 148.3C237.4 149.5 235.5 163 235.5 163C235.5 163 216.6 167.5 205.6 162.3C205.6 162.3 205.2 152.5 206.4 150.8Z" fill="#66271F"/>
<path d="M339.9 346.9L369.4 268.7L416.7 225.3C429.3 214.9 445.4 211.9 461.6 209.7C470.3 208.5 479 209.5 487.8 210.1C494.8 210.6 506.9 214 517.5 217.4C530.5 221.6 542 229.5 550.5 240.2C565.5 259.1 591 291.9 601.1 326.3L546.1 359.7L534.6 328.7L530.5 374L411.3 372L402.9 314.4C390.3 329.9 359.3 291.3 339.9 346.9Z" fill="#19005A"/>
<path d="M472.2 225.2L464.7 235.6L471 246.4L476 245.6L482.2 235.5L472.2 225.2Z" fill="#F2A03F"/>
<path d="M471 249.9L454.2 382.3L473.7 412.3L488 384.1L476 248.9L472.5 233.3L471 249.9Z" fill="#F2A03F"/>
<path d="M444.7 212.5L456.7 243.2L472.2 225.2L490.7 245.9L497.8 211" stroke="white" stroke-width="1.6" stroke-miterlimit="10"/>
<path d="M283.1 302.3C283.1 302.3 274.2 360 274.5 375L286.9 374L300.9 323L283.1 302.3Z" fill="#FFD2B4"/>
<path d="M314.2 345.9L259 336.5L249.3 405.1L305.7 407.7C305.6 407.6 311.8 349.6 314.2 345.9Z" fill="white"/>
<path d="M310.8 307.2C310.8 307.2 299 372.5 294.8 476.9C294.8 476.9 328.2 480.2 375.9 485.5L382.9 438.8C386.1 374.9 388.9 346.5 365.3 322.8L364.8 311.2L310.8 307.2Z" fill="#CEC9E2"/>
<path d="M377.4 259.3C400.872 259.3 419.9 240.272 419.9 216.8C419.9 193.328 400.872 174.3 377.4 174.3C353.928 174.3 334.9 193.328 334.9 216.8C334.9 240.272 353.928 259.3 377.4 259.3Z" fill="#66271F"/>
<path d="M367 145.2C374.456 145.2 380.5 139.156 380.5 131.7C380.5 124.244 374.456 118.2 367 118.2C359.544 118.2 353.5 124.244 353.5 131.7C353.5 139.156 359.544 145.2 367 145.2Z" fill="#66271F"/>
<path d="M336.3 198.9C357.011 198.9 373.8 182.111 373.8 161.4C373.8 140.689 357.011 123.9 336.3 123.9C315.589 123.9 298.8 140.689 298.8 161.4C298.8 182.111 315.589 198.9 336.3 198.9Z" fill="#66271F"/>
<path d="M355.1 232.5C331.4 239.1 305.5 220.6 297.2 191.2C288.9 161.7 301.4 132.4 325.2 125.8" fill="#66271F"/>
<path d="M320.9 185.7C320.9 185.7 321.6 193.2 321.8 193.6C321.8 193.6 318.5 194.4 315.1 191.4C315.1 191.3 317.5 189.7 320.9 185.7Z" fill="#F9B233"/>
<path d="M377.4 218.2C362.5 217.3 309.6 220.6 300.8 221.9L309.4 318.3L363.4 315.3L362.4 339.5L386.5 337.4C404.3 335.9 417.3 320 415.6 302.3C408.9 235.3 380 218.3 377.4 218.2Z" fill="#FB6649"/>
<path d="M340.4 145.9L336.5 144.4C332.7 143 328.6 145.6 328.3 149.6C328.3 149.6 324 167.2 323.8 177.8C323.6 187.1 329.4 189.1 329.4 189.1L325.3 218.8L343 223.5L344.4 151.4C344.3 148.9 342.7 146.7 340.4 145.9Z" fill="#FFD2B4"/>
<path d="M306.7 334.6L309.3 318.3L300.7 221.9L290.6 224.6C290.6 224.6 269.5 262.9 264.5 307.5C263.6 315.9 268.8 323.8 276.9 326.2L306.7 334.6Z" fill="#FB6649"/>
<path d="M303.2 311.2C297.5 312.2 300.9 316.6 300.9 316.6C300.9 316.6 350.7 327.2 363 328.8L363.8 310C342.9 309.3 308.2 310.3 303.2 311.2Z" fill="#FFD2B4"/>
<path d="M310.8 311.4L295.9 298.7C293.5 296.7 290 296.6 287.5 298.5L283.2 301.7C280.8 303.6 280.7 307.2 283 309.2L288.8 314.1C292.2 317.5 297.4 318.3 301.7 316.2L313.7 317.6" fill="#FFD2B4"/>
<path d="M377.4 218.2C375.5 217.6 327.1 211.9 300.8 221.9C301.6 227.4 303.7 232.1 306.5 236.1L368.5 234.7C372.4 230.2 375.7 224.7 377.4 218.2Z" fill="#FFD2B4"/>
<path d="M306.5 236.1C316.3 250.2 334.4 255.6 334.4 255.6C334.4 255.6 355.4 250.1 368.5 234.8L306.5 236.1Z" fill="white"/>
<path d="M333.601 271.957C334.533 271.843 335.196 270.995 335.081 270.063C334.967 269.131 334.119 268.468 333.187 268.583C332.255 268.697 331.592 269.545 331.707 270.477C331.821 271.409 332.669 272.072 333.601 271.957Z" fill="white"/>
<path d="M332.707 285.762C333.639 285.648 334.301 284.799 334.187 283.868C334.072 282.936 333.224 282.273 332.292 282.387C331.36 282.502 330.698 283.35 330.812 284.282C330.927 285.214 331.775 285.876 332.707 285.762Z" fill="white"/>
<path d="M332.793 299.163C333.616 299.062 334.195 298.269 334.087 297.392C333.979 296.515 333.226 295.886 332.403 295.987C331.581 296.088 331.002 296.881 331.11 297.758C331.217 298.635 331.971 299.264 332.793 299.163Z" fill="white"/>
<path d="M362 141.5C361.4 153.5 351.1 162.6 339.2 162C327.2 161.4 318.1 151.1 318.7 139.2" fill="#66271F"/>
<path d="M350 188.3C350 188.3 352.4 196.2 353.5 197C353.5 197 351.1 198.3 345.3 195.5L350 188.3Z" fill="#F9B233"/>
<path d="M329.4 189.1L327.3 204.2L343.7 184C343.7 184 337.3 192.4 329.4 189.1Z" fill="#E6AA83"/>
<path d="M482.9 209.6C482.6 207.7 482.9 184.4 482.9 184.4C482.9 184.4 486.2 174.4 486.4 164.6C486.6 156.5 484.6 147.8 482.9 141C482.1 137.6 478.6 132.4 475.1 132.3C464.8 132.3 464.5 148.4 464.2 154.1L460.4 209.7L472 221L482.9 209.6Z" fill="#FF9257"/>
<path d="M482.9 184.5C482.9 184.5 472.3 199 462.1 184.8L461 201.8L482.9 184.5Z" fill="#CC614F"/>
<path d="M482.9 141C482.1 137.6 478.6 132.4 475.1 132.3C468.5 132.3 466 138.9 465 145.2C465 145.2 469 146.1 473.7 141C473.7 141 476.8 152.9 485.6 154.2C485 148.8 484 145.4 482.9 141Z" fill="#47337B"/>
<path d="M464.61 162.214C466.483 161.734 467.333 158.743 466.51 155.533C465.687 152.323 463.502 150.11 461.629 150.59C459.757 151.07 458.906 154.061 459.729 157.271C460.553 160.481 462.738 162.694 464.61 162.214Z" fill="#FF9257"/>
<path d="M490.086 160.47C491.639 157.542 491.513 154.435 489.805 153.529C488.097 152.623 485.454 154.263 483.902 157.19C482.349 160.118 482.475 163.225 484.183 164.131C485.891 165.037 488.534 163.397 490.086 160.47Z" fill="#FF9257"/>
<path d="M482.9 184.5C482.9 184.5 484.8 178.8 485.8 171.8C475.7 169.4 468.2 170.2 463 171.7L462.1 184.9C471.7 201.2 482.9 184.5 482.9 184.5Z" fill="#47337B"/>
<path d="M468.6 174.7C468.6 174.7 477.4 174.9 479 175C480.6 175.1 479.9 177 479.9 177C479.9 177 479.1 180.5 474 180C468.9 179.5 468.3 176.1 468.3 176.1C468.3 176.1 467.6 174.9 468.6 174.7Z" fill="white"/>
<path d="M215.499 124.417C217.479 123.909 218.416 120.895 217.593 117.685C216.77 114.475 214.498 112.285 212.519 112.792C210.539 113.3 209.602 116.314 210.425 119.524C211.248 122.734 213.52 124.924 215.499 124.417Z" fill="#FFD2B4"/>
<path d="M409 35.1999C403.1 33.3999 397.2 37.6999 397.1 43.8999L394.5 90.5999C393.7 104.2 399.4 117.3 409.8 126L411.6 123.4C417 115.2 419.5 105.3 418.6 95.4999L413.5 40.3999C413 37.9999 411.4 35.8999 409 35.1999Z" fill="#FFD2B4"/>
<path d="M394.6 87.7L416.8 72.8L396.1 66L395.4 72.8L394.6 87.7Z" fill="#E6AA83"/>
<path d="M415.4 40.4C415.1 37.9 413.2 35.9 410.6 35.1C404 33.3 397.2 37.6 397.1 43.8L395.6 70.8C394.7 70 405.3 86.8 416.7 72.8C417.9 71.3 418.4 69.4 418.2 67.5L415.4 40.4Z" fill="#FFD2B4"/>
<path d="M421.376 56.1074C422.747 53.5213 422.633 50.7746 421.12 49.9725C419.608 49.1704 417.27 50.6166 415.898 53.2027C414.527 55.7888 414.642 58.5355 416.154 59.3376C417.667 60.1397 420.005 58.6935 421.376 56.1074Z" fill="#FFD2B4"/>
<path d="M398.324 60.7187C400.093 59.9399 400.445 56.8501 399.109 53.8174C397.774 50.7847 395.258 48.9575 393.489 49.7363C391.72 50.5151 391.368 53.605 392.703 56.6377C394.038 59.6704 396.555 61.4975 398.324 60.7187Z" fill="#FFD2B4"/>
<path d="M423 31.5999C420.9 28.9999 416.9 29.4999 413 31.2999C413.3 27.7999 415.2 24.2999 413.2 23.5999C410.4 22.5999 405.3 24.2999 403.4 29.8999C402.9 31.2999 402.6 32.6999 402.4 33.9999C401.1 31.8999 399.5 30.5999 397.9 30.7999C394.9 31.1999 393.1 36.7999 394 43.2999C394.3 45.4999 394.9 47.0999 395.6 48.2999C396.4 49.8999 396.9 51.6999 396.9 53.4999V53.6999C396.9 54.4999 397.9 54.8999 398.4 54.3999C398.9 53.8999 399.4 52.8999 399.5 51.3999C399.7 47.8999 401.9 44.6999 405.3 43.6999C405.4 43.6999 405.4 43.6999 405.5 43.5999C409.5 42.4999 413.5 45.1999 414.3 49.1999C415 52.8999 416.2 57.5999 416.7 55.0999C416.7 54.9999 416.7 54.7999 416.8 54.6999C417.1 52.1999 418.3 49.9999 420.2 48.2999C422.1 46.5999 421.9 43.6999 421.1 41.9999C425.8 38.4999 425.6 34.8999 423 31.5999Z" fill="#19005A"/>
<path d="M401.8 60.4998C404.065 60.4998 405.9 58.6642 405.9 56.3998C405.9 54.1354 404.065 52.2998 401.8 52.2998C399.536 52.2998 397.7 54.1354 397.7 56.3998C397.7 58.6642 399.536 60.4998 401.8 60.4998Z" stroke="#19005A" stroke-width="0.75" stroke-miterlimit="10"/>
<path d="M412.6 61.0999C414.865 61.0999 416.7 59.2643 416.7 56.9999C416.7 54.7355 414.865 52.8999 412.6 52.8999C410.336 52.8999 408.5 54.7355 408.5 56.9999C408.5 59.2643 410.336 61.0999 412.6 61.0999Z" stroke="#19005A" stroke-width="0.75" stroke-miterlimit="10"/>
<path d="M549.1 79.9998C549.3 82.0998 551.1 83.5998 553.2 83.3998C555.3 83.1998 556.8 81.3998 556.6 79.2998L549.1 79.9998Z" stroke="#FB6649" stroke-width="0.75" stroke-miterlimit="10"/>
<path d="M560.8 78.9C561 81 562.8 82.5 564.9 82.3C567 82.1 568.5 80.3 568.3 78.2L560.8 78.9Z" stroke="#FB6649" stroke-width="0.75" stroke-miterlimit="10"/>
<path d="M549.1 79.9999L574.4 77.5999" stroke="#FB6649" stroke-width="0.75" stroke-miterlimit="10"/>
<path d="M221.7 126.3C221.7 128.8 223.7 130.8 226.2 130.8C228.7 130.8 230.7 128.8 230.7 126.3H221.7V126.3Z" fill="white"/>
<path d="M623.2 229.3C632.092 229.3 639.3 222.092 639.3 213.2C639.3 204.308 632.092 197.1 623.2 197.1C614.308 197.1 607.1 204.308 607.1 213.2C607.1 222.092 614.308 229.3 623.2 229.3Z" fill="#9E94BA"/>
<path d="M845.9 419.6C849.4 419.5 852.9 419.3 856.4 419.1L881.7 417.6C904 416.2 921.3 397.5 920.9 375.1L920 328C919.6 306.2 913.3 284.9 901.1 266.8C899.8 264.9 898.5 263.1 897.1 261.3C882.7 266.3 870.8 285.2 869.2 295.5C866.3 314.9 865.7 334.6 867.3 354.1C867.9 360.7 868.1 368.4 862.2 372.4C859.2 374.5 855.2 375 851.4 375.4C841.2 376.1 834 385.7 836.3 395.7C838.4 404.8 841.5 414.4 845.9 419.6Z" fill="#CC614F"/>
<path d="M842.48 183.904C844.757 176.4 842.618 169.107 837.703 167.616C832.788 166.125 826.958 171 824.682 178.505C822.405 186.009 824.544 193.301 829.459 194.792C834.374 196.283 840.204 191.409 842.48 183.904Z" fill="#CC614F"/>
<path d="M831.2 178.4C825.9 182 811.8 187.2 803.5 172.8C799.4 165.7 800.9 154.7 806.2 151" fill="#CC614F"/>
<path d="M821.6 175.8C827.786 175.8 832.8 170.786 832.8 164.6C832.8 158.414 827.786 153.4 821.6 153.4C815.415 153.4 810.4 158.414 810.4 164.6C810.4 170.786 815.415 175.8 821.6 175.8Z" fill="#CC614F"/>
<path d="M817.3 203.6L828.3 176.6L836 220C837.7 229.3 833 238.6 824.6 242.9L815.5 247.6L817.3 203.6Z" fill="#FF9257"/>
<path d="M827.3 201.9L816.6 221.6L817.3 202.9L828.3 176.6L827.3 201.9Z" fill="#CC614F"/>
<path d="M813.6 176.3C813.9 174.3 815 172.5 816.9 171.6C821.8 169.4 830 169.1 830 178.1L832.1 197.3C832.1 197.3 824.3 208.2 816 202.1C812.9 199.8 813.1 190.5 813.1 186.7L813.6 176.3Z" fill="#FF9257"/>
<path d="M834.1 181.2C838.518 181.2 842.1 177.932 842.1 173.9C842.1 169.868 838.518 166.6 834.1 166.6C829.682 166.6 826.1 169.868 826.1 173.9C826.1 177.932 829.682 181.2 834.1 181.2Z" fill="#CC614F"/>
<path d="M836.071 183.51C837.416 180.973 837.043 178.14 835.238 177.182C833.433 176.225 830.878 177.506 829.533 180.043C828.187 182.58 828.56 185.413 830.366 186.371C832.171 187.328 834.725 186.047 836.071 183.51Z" fill="#FF9257"/>
<path d="M716.4 96.8C714.8 97.1 713.2 96 712.4 94.6C711.6 93.2 711.4 91.5 711.4 89.9C711.4 89.1 711.4 88.3 711.7 87.6C712.2 86.7 713.1 86.1 714.1 85.9C715.1 85.7 716.2 85.9 717.2 86.1" fill="#FF9257"/>
<path d="M732.1 96.6999C733.5 97.3999 735.4 96.5999 736.3 95.2999C737.2 93.9999 737.5 92.2999 737.7 90.6999C737.9 89.3999 738 87.8999 737.2 86.8999C736.1 85.5999 734.2 85.6999 732.5 85.8999" fill="#FF9257"/>
<path d="M728.4 70.9999C722.5 69.1999 716.6 73.4999 716.5 79.6999L715.4 145.5L735.8 146.4L732.7 76.2999C732.4 73.7999 730.7 71.6999 728.4 70.9999Z" fill="#FF9257"/>
<path d="M716 103.2C716 103.2 721.6 114.7 729.6 109.3C731.4 108 715.7 121 715.7 121L716 103.2Z" fill="#CC614F"/>
<path d="M721.3 103.6C722.4 105.5 724.2 106.7 725.9 106.7C727.6 106.6 729.1 105.2 729.6 103.2" fill="white"/>
<path d="M760.9 50.6999C760.5 48.3999 759.6 46.2999 758.2 44.4999C755.9 41.4999 752.4 39.3999 748.8 38.1999C742.4 35.9999 735 36.0999 729.3 39.6999C722.9 43.6999 719.2 52.7999 721.7 60.0999C724.2 67.3999 733 71.7999 740.3 71.7999C747.6 71.7999 754.9 69.0999 758.9 62.5999C760.9 59.0999 761.7 54.6999 760.9 50.6999Z" fill="#19005A"/>
<path d="M736.7 77.3C736.8 74.4 735.9 71.8 734 70C732.1 68.1 729 66.3999 726.4 67.0999C722.4 68.0999 718.8 72.3999 720 75.6999C721.4 79.5999 724.5 82.8 728.6 83.9C728.6 82.9 728.3 81.8 727.6 81C729.6 81.8 731.2 83.2 732.3 85L733.4 86.6999C734.9 84.4999 736.6 79.8 736.7 77.3Z" fill="#19005A"/>
<path d="M714.2 79.1C714.1 81.4 714.8 84.1 716.2 85.8C716 85.6 718.5 81.2 718.7 80.7C719.7 78.2 720.5 76.5 720.8 73.8C720.8 73.5 720.8 73.2 720.7 73C720.5 72.8 720.2 72.7 719.9 72.7C718.4 72.6 717 73.2 716 74.3C715 75.4 714.5 76.8 714.3 78.3C714.3 78.5 714.2 78.8 714.2 79.1Z" fill="#19005A"/>
<path d="M623.744 241.154C624.653 240.921 625.201 239.994 624.968 239.085C624.735 238.175 623.808 237.627 622.899 237.86C621.99 238.093 621.441 239.02 621.674 239.929C621.908 240.839 622.834 241.387 623.744 241.154Z" fill="#F9B233"/>
<path d="M624.654 254.959C625.564 254.725 626.112 253.799 625.879 252.89C625.646 251.98 624.719 251.432 623.81 251.665C622.9 251.898 622.352 252.825 622.585 253.734C622.819 254.644 623.745 255.192 624.654 254.959Z" fill="#F9B233"/>
<path d="M634.3 315.6C629.4 313.8 612.4 288.5 623.7 274.8C632.7 263.8 645.1 261.5 648 257.7C650.7 254.1 649.2 250.9 650.8 247.1C653 241.7 657.2 238.7 662.8 236.1C670.2 232.7 683.5 229.2 685.5 222.1C687.6 214.8 685.9 206.9 688.1 199.7C690.6 191.1 692.5 185.2 705.4 179.5C712.5 176.4 728.3 175.3 733.6 181.8C737.5 186.5 737.3 192.9 736.9 198.6C736.6 202.7 735.8 206.8 735.1 210.8C734.6 213.5 733.6 217.7 734.3 220.4C735.2 223.4 738.4 224.5 741.3 226.4C747.4 230.5 744.2 234 744.3 239.4C744.4 245.3 751.5 247.8 757.3 248C780.7 248.9 798.1 262.4 784.5 287.8C781.4 293.5 774.4 298.2 766.9 299.4" fill="#47337B"/>
<path d="M750.5 262.6L736.1 255.8C721.4 248.9 704.6 248 689.2 253.3L677.5 257.4C654.2 265.5 637.9 286.6 635.9 311.3L622.3 377.8C621.2 384.5 626.6 390.5 633.4 390.2L777.8 382.5C789.3 382 797.9 371.9 796.8 360.5L785.7 312.5C778.1 288.2 770.2 271.9 750.5 262.6Z" fill="#CC614F"/>
<path d="M706.3 338.4C710.8 351.7 712.4 366.2 720.7 331.4C725.2 312.3 730.1 283.4 734.2 255C720 248.9 704 248.3 689.3 253.4L688.1 253.8C693 279 702.9 328.6 706.3 338.4Z" fill="#F2A03F"/>
<path d="M722 255C721.8 253.7 720.2 224.2 720.2 224.2C720.2 224.2 725.5 220.3 724.5 213C723.4 204.7 724.6 189 724.6 189L708.5 194L701.8 254L722 255Z" fill="#F2A03F"/>
<path d="M707.026 209.627C709.006 209.119 709.943 206.105 709.12 202.895C708.297 199.685 706.025 197.495 704.045 198.002C702.066 198.51 701.128 201.524 701.952 204.734C702.775 207.944 705.047 210.134 707.026 209.627Z" fill="#F2A03F"/>
<path d="M718.2 218.7C720.4 218.4 722 216.5 722 214.2H713C713 216.7 715 218.7 717.5 218.7C717.8 218.8 718 218.7 718.2 218.7Z" fill="white"/>
<path d="M692.9 278.2C697.9 302.8 703.8 331.2 706.3 338.4C710.8 351.7 712.4 366.2 720.7 331.4C723.8 318.4 727 301 730.1 282.2L692.9 278.2Z" fill="white"/>
<path d="M667.3 369.8C667.3 369.8 661.6 430.9 655.7 496.4L777.9 491.4C777.9 491.4 771.6 424.2 750.9 366.4L667.3 369.8Z" fill="#CC614F"/>
<path d="M702.4 339.3C702.4 339.3 696.8 336.1 690.9 336.9C680.8 338.4 680.8 347.1 680.8 347.1L698.1 346.3L722.9 360.9L726.2 344.6L702.4 339.3Z" fill="#F2A03F"/>
<path d="M718.7 343.6C718.7 343.6 734.1 339.6 739.2 336.3C744.3 333 750.2 334.8 754.3 339.8C756.5 343.6 755 351.1 752.6 350.7C742.7 349.3 741 344 733.9 344.3L723.2 345.6L718.7 343.6Z" fill="#F2A03F"/>
<path d="M591.1 354.9C590.9 357.9 588.9 360.4 586.2 361.4L545.9 374.9C541.7 376.4 536.6 376.7 536.4 378.3C536.2 380.1 544.6 386.7 544.3 388.4C543.7 391.5 543.7 397.9 540.9 399.4C540.5 399.6 531.3 401.7 530.9 401.3C530.7 401 528.4 396.1 528.2 395.7C525.7 390.6 524.7 383.4 524.5 379C524.4 377 524.8 375.7 525.6 373.8C527.2 369.9 533 367.7 536.5 365.7C540.3 363.4 544.2 361.1 548 358.7C556.7 353.4 565.5 348.1 574.2 342.8C580.4 339 586.6 335.3 592.8 331.5L591.1 354.9Z" fill="#FF9257"/>
<path d="M619.039 150.415C622.274 148.991 623.615 144.927 622.036 141.339C620.456 137.75 616.553 135.995 613.318 137.419C610.083 138.843 608.741 142.907 610.321 146.496C611.901 150.084 615.804 151.839 619.039 150.415Z" fill="#F6E4E1"/>
<path d="M621.7 139.6C627.6 137.8 633.5 142.1 633.6 148.3L635.5 211.9C635.7 218.5 630.5 223.9 623.9 224.1C616.9 224.3 611.2 218.3 611.8 211.3L617.3 144.9C617.7 142.4 619.4 140.3 621.7 139.6Z" fill="#FF9257"/>
<path d="M614.7 178L630.3 177.5L634.5 174.3L613.1 197.1L614.7 178Z" fill="#CC614F"/>
<path d="M615.3 144.8C615.6 142.3 617.5 140.3 620.1 139.5C626.7 137.7 633.5 142 633.6 148.2L634.5 174.9C634.5 174.9 625.4 191.2 614 177.1C612.8 175.6 612.3 173.7 612.5 171.8L615.3 144.8Z" fill="#FF9257"/>
<path d="M617.5 168.5C617.5 171 620.3 173 623.7 173C627.1 173 629.9 171 629.9 168.5H617.5Z" fill="white"/>
<path d="M636.85 140.396C639.153 136.053 635.166 129.429 627.944 125.599C620.723 121.77 613.002 122.186 610.699 126.528C608.396 130.871 612.383 137.496 619.605 141.325C626.826 145.155 634.547 144.739 636.85 140.396Z" fill="#F6E4E1"/>
<path d="M638.8 154.9C635.7 155.4 632.5 151.4 631.6 145.9C630.7 140.5 632.5 135.7 635.6 135.2C638.7 134.7 643.7 136.8 642.8 144.2C642.1 149.6 641.9 154.4 638.8 154.9Z" fill="#F6E4E1"/>
<path d="M639.011 157.035C640.564 154.107 640.438 151 638.73 150.094C637.022 149.189 634.379 150.828 632.827 153.755C631.274 156.683 631.4 159.791 633.108 160.696C634.816 161.602 637.459 159.963 639.011 157.035Z" fill="#FF9257"/>
<path d="M613.418 159.312C615.291 158.832 616.141 155.841 615.318 152.631C614.495 149.421 612.31 147.208 610.437 147.688C608.565 148.168 607.714 151.159 608.537 154.369C609.36 157.579 611.546 159.792 613.418 159.312Z" fill="#FF9257"/>
<path d="M724.8 188.8C724.8 188.8 723.1 196.6 713.2 200.2C713.2 200.2 718.6 195.3 717.7 191C717.7 191 713.3 199.1 707.5 200.2C701.7 201.3 704.7 186.9 704.7 186.9L722.2 183.4L724.8 188.8Z" fill="#47337B"/>
<path d="M720.2 224.2C716.5 227 709.8 228 705.8 218.8L703.7 237.3L720.2 224.2Z" fill="#BF7822"/>
<path d="M215.2 125.1C215.2 125.1 215.6 140.1 228.9 136.2L212.8 146.1L215.2 125.1Z" fill="#E6AA83"/>
<path d="M268.2 406L272.7 398.5C274.1 396.2 276.6 394.9 279.3 395C283.5 395.3 286.5 399 285.9 403.2L285.1 408.5L271.5 411.3L268.2 406Z" fill="#FFD2B4"/>
<path d="M330.1 180.9C330.8 181.8 331.9 182.4 333.1 182.4C334.3 182.4 335.4 181.8 336.1 180.9" stroke="#E6AA83" stroke-width="1.6" stroke-miterlimit="10"/>
<path d="M818.3 197.5C819 198.4 820.1 199 821.3 199C822.5 199 824 198.4 824.4 195.8" fill="white"/>
</g>
<defs>
<clipPath id="clip0">
<rect width="1053.2" height="517.1" fill="white"/>
</clipPath>
</defs>
</svg>
