<svg width="1213" height="664" viewBox="0 0 1213 664" fill="none" xmlns="http://www.w3.org/2000/svg">
<g clip-path="url(#clip0)">
<path d="M638.2 0C644.6 12 652.7 23.3 661.3 33.5C683.4 59.8 709.9 82.3 727.5 112.1C745.2 141.8 752.2 182.5 733 211.1C718.2 233.3 691.8 242.9 666.9 249.9C639.5 257.6 611.6 263.8 583.5 268.4C570.4 270.5 556.4 271 544 275.5C531.8 279.9 519.9 285 508.6 291.5C493 300.5 476.8 310.9 464.8 324.6C460.7 329.4 457.1 334.2 451.9 337.9C435.3 349.6 412.9 355.9 394.4 364.1C354.2 382 314.4 400.8 276 422.2C230.2 447.6 186.2 476.8 146.9 511.5C111.6 542.8 54.2 640 0 664H1212.6V0H638.2Z" fill="#FFA951"/>
</g>
<defs>
<clipPath id="clip0">
<rect width="1212.6" height="664" fill="white"/>
</clipPath>
</defs>
</svg>
