<svg width="914" height="645" viewBox="0 0 914 645" fill="none" xmlns="http://www.w3.org/2000/svg">
<g clip-path="url(#clip0)">
<path d="M913.5 0H585.8C591.7 11.7 599.1 22.6 607 32.6C627.3 58.1 651.6 80 667.8 108.9C684 137.8 690.5 177.2 672.8 205.1C659.2 226.6 635 236 612.1 242.8C586.9 250.3 561.4 256.3 535.6 260.8C523.6 262.9 510.8 263.3 499.4 267.7C488.2 272 477.3 276.9 466.9 283.3C452.6 292 437.7 302.1 426.7 315.5C422.9 320.1 419.6 324.8 414.8 328.4C399.5 339.8 379 345.8 362 353.9C325.1 371.3 288.6 389.5 253.3 410.3C211.2 435 170.9 463.3 134.8 497C102.5 527.1 49.7 621.5 0 644.8H913.5V0Z" fill="#FFA951"/>
</g>
<defs>
<clipPath id="clip0">
<rect width="913.5" height="644.8" fill="white"/>
</clipPath>
</defs>
</svg>
