<svg width="80" height="49" viewBox="0 0 80 49" fill="none" xmlns="http://www.w3.org/2000/svg">
<path d="M65.3571 18.5714C65 18.5714 64.2857 18.5714 63.9286 18.5714L62.5 12.8571L59.6429 2.14286C59.2857 0.714286 58.5714 0 57.1429 0H49.2857C47.8571 0 46.7857 1.07143 46.7857 2.5C46.7857 3.92857 47.8571 5 49.2857 5H55.3571L57.1429 11.0714H33.5714L33.2143 8.57143H35C36.4286 8.57143 37.5 7.5 37.5 6.07143C37.5 4.64286 36.4286 3.57143 35 3.57143H25.7143C24.2857 3.57143 23.2143 4.64286 23.2143 6.07143C23.2143 7.5 24.2857 8.57143 25.7143 8.57143H28.2143L28.9286 12.5L22.5 20.7143C20.3571 19.2857 17.5 18.5714 14.6429 18.5714C6.78571 18.5714 0 25 0 33.2143C0 41.4286 6.78571 47.8571 14.6429 47.8571C22.1429 47.8571 28.2143 42.5 29.2857 35.3571H30.7143C31.4286 37.1429 33.2143 38.2143 35.3571 38.2143C38.2143 38.2143 40.7143 35.7143 40.7143 32.8571C40.7143 32.5 40.7143 32.1429 40.7143 31.7857L58.5714 17.1429L59.2857 19.2857C53.9286 21.4286 50.3571 26.7857 50.3571 32.8571C50.3571 41.0714 57.1429 47.5 65 47.5C72.8571 47.5 79.6429 40.7143 79.6429 32.8571C79.6429 25 73.5714 18.5714 65.3571 18.5714ZM53.5714 15.7143L37.8571 28.5714C37.5 28.5714 37.5 28.2143 37.1429 28.2143L34.6429 15.7143H53.5714ZM32.5 29.2857C31.7857 29.6429 31.4286 30.3571 31.0714 30.7143H29.2857C28.9286 27.8571 27.5 25.3571 26.0714 23.5714L30.3571 18.5714L32.5 29.2857ZM22.8571 27.5C23.5714 28.5714 24.2857 29.6429 24.6429 31.0714H20L22.8571 27.5ZM14.6429 43.2143C8.92857 43.2143 4.64286 38.5714 4.64286 33.2143C4.64286 27.8571 9.28571 23.2143 14.6429 23.2143C16.0714 23.2143 17.8571 23.5714 18.9286 24.2857L12.8571 31.7857C12.5 32.5 12.1429 33.5714 12.5 34.2857C13.2143 35 13.9286 35.7143 14.6429 35.7143H24.2857C23.5714 40 19.6429 43.2143 14.6429 43.2143ZM65.3571 43.2143C59.6429 43.2143 55.3571 38.5714 55.3571 33.2143C55.3571 29.2857 57.5 26.0714 60.7143 24.2857L63.2143 33.5714C63.2143 35 64.2857 35.7143 65.3571 35.7143C65.7143 35.7143 65.7143 35.7143 66.0714 35.7143C67.5 35.3571 68.2143 33.9286 67.8571 32.8571L65.3571 23.5714C71.0714 23.5714 75.3571 28.2143 75.3571 33.5714C75.3571 38.9286 70.7143 43.2143 65.3571 43.2143Z" fill="#FFA951"/>
</svg>
