<svg width="80" height="62" viewBox="0 0 80 62" fill="none" xmlns="http://www.w3.org/2000/svg">
<g clip-path="url(#clip0)">
<path d="M17.4881 30.8838C14.8834 30.8838 12.6509 33.1163 12.6509 35.3489C12.6509 37.5815 14.8834 39.814 17.116 39.814C19.3486 39.814 21.5811 37.5815 21.5811 35.3489C21.5811 33.1163 19.7206 30.8838 17.4881 30.8838Z" fill="#FFA951"/>
<path d="M62.8836 30.8838C60.2789 30.8838 58.4185 33.1163 58.4185 35.3489C58.4185 37.5815 60.651 39.814 62.8836 39.814C65.1161 39.814 67.3487 37.5815 67.3487 35.3489C67.3487 33.1163 65.4882 30.8838 62.8836 30.8838Z" fill="#FFA951"/>
<path d="M79.6279 20.093C78.8837 18.9767 77.3954 18.6047 75.907 18.9767L72.1861 21.2093L67.3488 5.95349C66.2326 2.23256 63.2558 0 59.5349 0H20.8372C17.1163 0 13.7674 2.23256 12.6512 5.95349L7.81395 21.2093L4.09302 18.9767C2.60465 18.2326 1.11628 18.6047 0.372093 20.093C-0.372093 21.2093 0 23.0698 1.48837 23.814L6.32558 26.4186L4.46512 30.8837C4.09302 31.6279 4.09302 32.7442 4.09302 33.8605V51.7209V56.9302V57.3023C4.09302 59.5349 5.95349 61.7674 8.55814 61.7674H15.6279C17.8605 61.7674 20.093 59.907 20.093 57.3023V56.9302H60.2791V57.3023C60.2791 59.5349 62.1395 61.7674 64.7442 61.7674H71.814C74.0465 61.7674 76.2791 59.907 76.2791 57.3023V56.9302V51.7209V33.8605C76.2791 32.7442 76.2791 31.6279 75.907 30.8837L74.4186 26.4186L79.2558 23.814C80 22.6977 80.3721 21.2093 79.6279 20.093ZM17.4884 7.44186C17.8605 5.95349 19.3488 5.2093 20.4651 5.2093H59.5349C61.0233 5.2093 62.1395 5.95349 62.5116 7.44186L67.3488 22.3256H12.6512L17.4884 7.44186ZM60.2791 51.7209H20.093H9.30233V33.8605C9.30233 33.4884 9.30233 32.7442 9.67442 32.3721L11.1628 27.5349H69.2093L70.6977 32.3721C70.6977 32.7442 70.6977 33.4884 70.6977 33.8605V51.7209H60.2791V51.7209Z" fill="#FFA951"/>
<path d="M51.3489 42.7911C50.2326 42.0469 48.7442 41.6748 47.2558 41.6748H32.7442C31.2558 41.6748 29.7675 42.0469 28.6512 42.7911C27.5349 43.5353 26.7907 45.0236 27.5349 46.1399C28.2791 47.2562 29.7675 48.0004 30.8837 47.2562C31.2558 46.8841 32 46.8841 32.3721 46.8841H46.8837C47.6279 46.8841 48 46.8841 48.3721 47.2562C48.7442 47.6283 49.1163 47.6283 49.4884 47.6283C50.6047 47.6283 51.3489 47.2562 51.721 46.1399C53.2093 45.0236 52.8372 43.1632 51.3489 42.7911Z" fill="#FFA951"/>
</g>
<defs>
<clipPath id="clip0">
<rect width="80" height="61.7674" fill="white"/>
</clipPath>
</defs>
</svg>
