<svg width="66" height="80" viewBox="0 0 66 80" fill="none" xmlns="http://www.w3.org/2000/svg">
<g clip-path="url(#clip0)">
<path d="M50.1554 0H15.7513C7.04663 0 0 7.04663 0 15.7513V55.544C0 63.0052 4.97409 68.8083 11.6062 70.8808L7.46114 75.4404C6.21762 76.6839 6.63212 78.342 7.46114 79.171C7.87565 79.5855 8.70466 80 9.53368 80C10.3627 80 11.1917 79.5855 11.6062 79.171L18.6529 71.7098H47.2539L54.3005 79.171C54.715 79.5855 55.544 80 56.3731 80C57.2021 80 57.6166 79.5855 58.4456 79.171C59.6891 77.9275 59.6891 76.2694 58.4456 75.4404L54.3005 70.8808C60.9327 69.2228 65.9067 63.0052 65.9067 55.544V15.7513C65.9067 7.04663 58.8601 0 50.1554 0ZM5.3886 39.3782V19.0674H30.2591V39.3782H5.3886ZM35.6477 19.0674H60.5181V39.3782H35.6477V19.0674ZM15.7513 5.3886H50.1554C55.1295 5.3886 59.2746 8.70466 60.1036 13.2642H5.80311C7.04663 9.11917 10.7772 5.3886 15.7513 5.3886ZM50.1554 65.9067H15.7513C9.94819 65.9067 5.3886 61.3471 5.3886 55.544V44.7668H60.5181V55.544C60.5181 61.3471 55.9586 65.9067 50.1554 65.9067Z" fill="#FFA951"/>
<path d="M17.4094 49.3262C14.5078 49.3262 12.4353 51.8132 12.4353 54.3003C12.4353 57.2018 14.9223 59.2744 17.4094 59.2744C19.8964 59.2744 22.3835 56.7873 22.3835 54.3003C22.798 51.3987 20.3109 49.3262 17.4094 49.3262ZM16.9949 54.3003C16.9949 53.8858 16.9949 53.8858 17.4094 53.8858C17.8239 53.8858 17.8239 53.8858 17.8239 54.3003C17.8239 54.7148 16.9949 54.7148 16.9949 54.3003Z" fill="#FFA951"/>
<path d="M48.4975 49.3262C45.596 49.3262 43.5234 51.8132 43.5234 54.3003C43.5234 57.2018 46.0105 59.2744 48.4975 59.2744C51.3991 59.2744 53.4716 56.7873 53.4716 54.3003C53.4716 51.3987 51.3991 49.3262 48.4975 49.3262ZM48.083 54.3003C48.083 53.8858 48.083 53.8858 48.4975 53.8858C48.912 53.8858 48.912 53.8858 48.912 54.3003C48.912 54.7148 48.083 54.7148 48.083 54.3003Z" fill="#FFA951"/>
</g>
<defs>
<clipPath id="clip0">
<rect width="65.9067" height="80" fill="white"/>
</clipPath>
</defs>
</svg>
