<svg width="47" height="80" viewBox="0 0 47 80" fill="none" xmlns="http://www.w3.org/2000/svg">
<g clip-path="url(#clip0)">
<path d="M29.1308 15.6522C33.4786 15.6522 36.9569 12.1739 36.9569 7.82609C36.9569 3.47826 33.4786 0 29.1308 0C24.7829 0 21.3047 3.47826 21.3047 7.82609C21.3047 12.1739 24.7829 15.6522 29.1308 15.6522Z" fill="#FFA951"/>
<path d="M28.2611 44.7824L29.1306 36.9563C32.6089 39.9998 37.3915 42.1737 42.6089 42.1737C42.6089 42.1737 42.6089 42.1737 43.0437 42.1737C44.7828 42.1737 46.0872 40.8694 46.0872 39.1302C46.0872 37.3911 44.7828 36.0868 43.0437 36.0868C39.1306 36.0868 34.7828 34.3476 32.6089 31.7389C30.8698 30.4346 30.435 28.6955 30.435 26.9563V25.2172C30.8698 22.1737 29.1306 19.1302 26.0872 18.2607C26.0872 17.8259 25.2176 17.3911 24.348 17.3911C12.6089 17.3911 3.04368 26.0868 0.000201684 38.2607C-0.434581 39.9998 0.434984 41.3042 2.17411 41.7389C2.6089 41.7389 2.6089 41.7389 2.6089 41.7389C3.91325 41.7389 5.21759 40.8694 5.65238 39.565C7.39151 32.6085 11.3045 27.3911 16.9567 24.7824L14.7828 43.0433C14.348 45.652 15.6524 48.2607 17.8263 49.565C20.0002 58.6955 15.2176 63.4781 4.78281 71.7389C4.34803 72.1737 3.47846 72.6085 3.04368 73.4781C1.30455 74.7824 1.30455 77.3911 2.6089 78.6955C3.47846 79.565 4.34803 79.9998 5.65238 79.9998C6.52194 79.9998 7.39151 79.565 8.26107 79.1302C8.69585 78.6955 9.13064 78.2607 10.0002 77.8259C18.6959 70.8694 26.5219 64.3476 26.0872 53.0433C32.6089 58.6955 38.2611 66.9563 38.6959 76.9563C38.6959 79.1302 40.435 80.4346 42.6089 80.4346C44.7828 80.4346 46.5219 78.6955 46.0872 76.5215C45.2176 62.6085 36.9567 51.7389 28.2611 44.7824Z" fill="#FFA951"/>
</g>
<defs>
<clipPath id="clip0">
<rect width="46.087" height="80" fill="white"/>
</clipPath>
</defs>
</svg>
