<?xml version="1.0" encoding="utf-8"?>
<svg xmlns="http://www.w3.org/2000/svg" xmlns:xlink="http://www.w3.org/1999/xlink" viewBox="0 0 726.98 573.67"><defs><style>.cls-1,.cls-2,.cls-20,.cls-24,.cls-27,.cls-3,.cls-9{fill:none;}.cls-2,.cls-27,.cls-3,.cls-9{stroke:#fff;}.cls-2,.cls-20,.cls-24,.cls-27,.cls-3,.cls-9{stroke-miterlimit:10;}.cls-2{stroke-width:1.66px;}.cls-3{stroke-width:1.62px;stroke-dasharray:14.63 14.63;}.cls-4{fill:#2d2e83;}.cls-5{fill:#fff;}.cls-6{clip-path:url(#clip-path);}.cls-7{fill:#e69965;}.cls-8{fill:#fbbe25;}.cls-9{stroke-width:1.02px;}.cls-10{fill:#66271f;}.cls-11{fill:#c78457;}.cls-12{fill:#cc614f;}.cls-13{clip-path:url(#clip-path-2);}.cls-14{fill:#ffd2b4;}.cls-15{fill:#e94e1b;}.cls-16{fill:#177cbf;}.cls-17{fill:#19005a;}.cls-18{fill:#ff7045;}.cls-19{fill:#dcd9e6;}.cls-20{stroke:#b85131;stroke-width:1.53px;}.cls-21{fill:#d4dbf7;}.cls-22{fill:#a1abe8;}.cls-23{fill:#feffff;}.cls-24{stroke:#cabfda;stroke-width:1.23px;}.cls-25{fill:#8f5fa4;}.cls-26{fill:#fb6649;}.cls-27{stroke-width:2.34px;}</style><clipPath id="clip-path" transform="translate(0 -52.08)"><path class="cls-1" d="M508.74,17.73,360.05,0,197.72,60,173.16,144.6l44.34,85.94s49.79,28.65,65.48,29.33,62.67-25.59,62.67-25.59c15.37,17.87,31.15,25.21,48,27.89l31.25,51.4,3.48-50.29c27.3-.44,67.53-1.28,94-1.33,31.12-.06,40.5-1.57,51.85-23.18,6.19-11.77,14.94-80.13,15-95l49.14-70.11Z"/></clipPath><clipPath id="clip-path-2" transform="translate(0 -52.08)"><path class="cls-1" d="M291.73,127.32a45.5,45.5,0,0,0-16.2-13.7c-8.19-4-18-5.19-27.4-6.31-47.94-5.72-131.62,2.62-175.5,16.8-10.37,3.35-29.88,30.81-36.41,45.27-5.83,12.92-2.48,48.34-2.8,60.22-.38,14.22,4.47,28.32,6.7,43q1.2,7.83,3,15.68a225.22,225.22,0,0,0,9.93,31.9l.12.32c2.26,5.71,4.83,11.5,9.23,16.14,13,13.73,36.44,12.85,55.92,14.61q18,1.63,36.3,3.11l6.07.49q12.87,1.05,25.88,2l.86.06-.55,51.6,34.42-49,.64-.19c11.53-3.53,31.31-7.71,40.73-22.68,9.24-14.67,37.48-131.5,39.34-142.93q1.37-8.44,2.72-16.73C307.5,160,302.62,141.6,291.73,127.32Z"/></clipPath></defs><g id="Layer_2" data-name="Layer 2"><g id="contenu"><path class="cls-2" d="M376.24,100.37a173.09,173.09,0,0,1,46,9.36c15.71,5.63,30,13.88,41.24,24.1,10.6,9.6,21.19,22.45,21.42,35.33.09,5-.95,10.45,2.12,14.88,3.84,5.52,12.5,7.42,20.19,9.23,27.27,6.4,64.21,8.28,78.41,28.28,8.34,11.74,11.85,25.4,12.9,39,4.07,52.6-10.58,118.41-63.84,151.7-54.15,33.84-155,44.87-220.13,33.89-24.19-4.08-48.54-11.74-63.55-27.8-14.83-15.87-17.1-41.57.1-57,17.59-15.74,49.24-16.77,63.34-34.45,13.64-17.07,1.71-39.93-17-51-11-6.51-27.6-10.08-38.27-2.15-8.71,6.48-9.87,18.21-19.56,23.76-8.65,5-20.13,2.71-29.8,5.94-10.63,3.56-17,12.86-25.67,19.36C159.62,341.06,123,333.64,98,320.39c-11.15-5.91-21.79-13.1-26.82-23.27a25.55,25.55,0,0,1,7.75-31.78c8-6,19.3-8.08,26.79-14.41,16.59-14,3-34.1-2.73-50.85-8.26-24.35,5.42-53.88,32.14-70.38,6-3.68,12.72-6.83,19.9-7.63,25-2.79,41.31,23,66.52,19.33,8.77-1.29,16.3-6,23.78-10.14a267.73,267.73,0,0,1,54.89-22.48,235.46,235.46,0,0,1,32.2-6.86A211.69,211.69,0,0,1,376.24,100.37Z" transform="translate(0 -52.08)"/><path class="cls-3" d="M722.4,169.11a147.59,147.59,0,0,0-11.61-22.35,161.42,161.42,0,0,0-77-63.53,144.69,144.69,0,0,0-83.16-6.88A155.87,155.87,0,0,0,503.12,94.7a147.18,147.18,0,0,0-38.59,32.66q-3.73,4.5-7.06,9.29c-2.34,3.37-3.56,7-5.35,10.68a147.72,147.72,0,0,0-14.49,52.72c-.31,3.88-.72,7.93,0,11.81.53,2.72,1.85,5.13,2.93,7.67,1.66,3.91,2.37,8,3.37,12.09q1.81,7.42,4.33,14.65c2.92,8.35,6,17.93,12.23,24.45,2.29,2.41,3.81,5.64,5.67,8.38a141.83,141.83,0,0,0,18.47,22,138.67,138.67,0,0,0,10.58,9.25c36.64,28.8,86.8,38.33,133.14,28.13a145.17,145.17,0,0,0,33-11.43,118,118,0,0,0,15.09-8.85c3.59-2.49,6.78-5.4,10.23-8,2.91-2.21,5.5-3.29,7.67-6.4a170,170,0,0,0,14-24,182.35,182.35,0,0,0,16-53.12,185.05,185.05,0,0,0,1.32-39.44C725.49,184.89,723.63,172.09,722.4,169.11Z" transform="translate(0 -52.08)"/><path class="cls-4" d="M154.63,354.33q-18.31-1.47-36.3-3.11c-19.48-1.76-42.91-.88-55.92-14.61-4.4-4.64-7-10.43-9.23-16.14l-.12-.32a225.22,225.22,0,0,1-9.93-31.9q-1.82-7.85-3-15.68c-2.23-14.65-1.69-29.38-1.31-43.61.32-11.87,4.6-23.16,15.67-32,8.1-6.49,18.27-11,28.64-14.32C127,168.45,176,173.18,223.91,178.9c9.41,1.12,19.2,2.36,27.39,6.31a45.42,45.42,0,0,1,16.2,13.7c10.9,14.28,15.78,32.63,13,49.63l-2.73,16.73c-1.86,11.43-5.87,56.67-15.11,71.34-9.42,15-29.2,19.15-40.73,22.68-5.1,1.56-6.51,1.76-12,.64-2-.41-3.81-1.4-5.83-1.78-5.69-1.08-11.79-.93-17.5-1.35q-13-.94-25.88-2Z" transform="translate(0 -52.08)"/><polyline class="cls-4" points="241.68 278.41 186.89 356.38 187.73 278.41"/><path class="cls-5" d="M345.65,234.28c-18.35-21.33-15.57-68.06-16.29-89.12-.86-25,2.95-42.14,9.7-49,6-6.14,12-15.56,35.61-16.94s66.2-1.38,96.57,1.09c35.38,2.87,71.16,12.11,80.94,14.34,37.73,8.59,37,38.37,37,49.14,0,14.87-8.76,83.23-15,95-11.35,21.61-20.73,23.12-51.85,23.18-31.34.06-89.48,1.22-105.46,1.52C391,264,367.89,260.13,345.65,234.28Z" transform="translate(0 -52.08)"/><polyline class="cls-5" points="377.11 182.87 424.9 261.48 429.52 194.69"/><g class="cls-6"><path class="cls-7" d="M529.74,149c3-.6,24.72,7.48,26.3,10l26,45c2,3.33,6,13.06,10.38,13.07,1.81,0,3.54-.76,5.34-.87,3.2-.2,6.2,1.71,8.31,4.11.3.34.6.73.27,1.27a1.25,1.25,0,0,1-.9.55l-13.79,1.94a22.13,22.13,0,0,1-6.18.29c-4.24-.61-7.23-5.3-10.13-8.25l-9.65-9.81-22-22.4L528,168.11Z" transform="translate(0 -52.08)"/><path class="cls-7" d="M349.1,170.1l-16.62-20-14.4-17.38c-.78-.93-1.55-1.9-2.33-2.85l-3.37-17.12-9-12.24L300,102.67l0,3.65,4.07,8.76-1.81.82,1.88,10,1.35,2.7c.1.28,4.74,5.1,6.32,6.73,1.33,3.11,20.39,47.69,23.17,53.09a3.75,3.75,0,0,0,5.3,1.48l16.74-10.22Z" transform="translate(0 -52.08)"/><path class="cls-8" d="M351.54,221.41,337.77,156l73-37.61,23.33-8.26s64.22-13.38,138,35.55l-45.87,44.73L494.5,170.19l3.56,22-91.22,10.22-3.7-13.51C387.09,200.77,382.5,206.12,351.54,221.41Z" transform="translate(0 -52.08)"/><polyline class="cls-9" points="422.05 62.08 422.05 78.05 434.44 70.9 449.98 74.05 446.41 56.41"/><path class="cls-7" d="M424.71,114.08a52.61,52.61,0,0,1,.13-11.61s-4.46,2.22-5.1-3.8.64-20.09.64-20.09l10.69,2.28s7.59,25.41,8.89,30.82c1,3.94-5.47,10.14-5.47,10.14S425.2,119,424.71,114.08Z" transform="translate(0 -52.08)"/><path class="cls-4" d="M497.65,192.22s34.56,103.62,48.09,186.36c-1.51,1.49,7.51,27.58,7.51,27.58l-42.08-3.73-52.6-137.15S375.93,389.19,359.4,410.81c0,0-33.26-17.52-36.26-19,0,0,50.53-90,60.29-117.58s23.41-71.79,23.41-71.79Z" transform="translate(0 -52.08)"/><path class="cls-10" d="M326.32,434.7c-4.81,4.09-15.5,14.05-15.5,14.05s22.49-1.2,30.6-6.55L345,436l-16.89-3.29A12.28,12.28,0,0,1,326.32,434.7Z" transform="translate(0 -52.08)"/><path class="cls-5" d="M344.17,402s-10.46,22.94-16.1,30.66L345,436l14.63-25.79Z" transform="translate(0 -52.08)"/><polygon class="cls-5" points="551.17 353.08 527.76 351.39 546.8 383.99 558.79 379.46 551.17 353.08"/><polygon class="cls-10" points="559.21 380.91 558.79 379.46 546.8 383.99 547.72 385.56 550.27 394.85 578.79 398.22 559.21 380.91"/><polygon class="cls-11" points="424.84 50.39 430.85 48.97 425.05 59.03 424.84 50.39"/><path class="cls-12" d="M433.6,81a8.06,8.06,0,0,0-5.87-6.27c-.38-.12-.74-.2-1.09-.28l3-3.89s-7.62-5.09-12.11-1.13-3.14,10.75,1.8,14.71l3.51-4.62,3,.7,1.56,5.48s2.59-3.43,3.65-.34l1.52,7.35.27-.59C433.71,90,436.59,83.64,433.6,81Z" transform="translate(0 -52.08)"/><circle class="cls-5" cx="442.17" cy="92.87" r="1.16"/><circle class="cls-5" cx="439.35" cy="85.82" r="1.16"/><circle class="cls-5" cx="437.06" cy="76.4" r="1.16"/><circle class="cls-5" cx="443.33" cy="101.3" r="1.16"/><circle class="cls-5" cx="446.24" cy="110.33" r="1.16"/><circle class="cls-5" cx="447.39" cy="119.17" r="1.16"/><circle class="cls-5" cx="449.14" cy="128.14" r="1.16"/><circle class="cls-5" cx="450.21" cy="137.03" r="1.07"/></g><g class="cls-13"><path class="cls-14" d="M231,146l.58-3.69,4.7,2.35,4.43,14.89,1.56,5.85-.82,3.94-4.87-4.69s-2.07-4.5-2.07-4.86.12-3.52.12-3.52Z" transform="translate(0 -52.08)"/><polyline class="cls-14" points="236.06 119.11 231.13 113.6 227.31 105.47 229.34 103.82 236.58 112.58"/><path class="cls-15" d="M312.62,623.7l-13.56-21.36-14.78-6.57L288,614.26l5.34-.42A56.87,56.87,0,0,0,313,625.76" transform="translate(0 -52.08)"/><polygon class="cls-16" points="272.04 516.17 284.69 543.28 296.19 540.82 289.44 512.62 272.04 516.17"/><path class="cls-17" d="M167.28,214.79s-42.92,28-64.72.87-10.4-50.38-6.91-55.89,36.61-33.9,63.85-9.43c29,26,14.49,55.74,14.49,55.74Z" transform="translate(0 -52.08)"/><path class="cls-14" d="M259.39,212.37c-2.32-8.76-18-45.79-18.62-47.92l-3.65,6.28,1.82,19.11q1.19,12.3,2.35,24.59l0,18.81,13.08-7.81C259.35,222.48,260.86,217.93,259.39,212.37Z" transform="translate(0 -52.08)"/><path class="cls-14" d="M236.06,171.2,231,160.44l-1.51-16.58,3.36-.39,2.79,15.28s4.94,2.85,5,6.92a8.69,8.69,0,0,1-1.94,6.06l-2.62-.53Z" transform="translate(0 -52.08)"/><path class="cls-18" d="M193.31,234.92l49.77-28.53,21.48,58.84s-37.11,15.08-58.75,20.23Z" transform="translate(0 -52.08)"/><path class="cls-19" d="M136.56,321.89c-16.64,57.44-15.68,74.75-15.68,74.75s8.7,89.42,7.25,93.29S88,556.63,88,556.63L117,589s36.26-43,45.92-53.65,18.37-37.22,18.37-37.22l-1-75.41c6.28,5.8,41.08,56.56,41.08,56.56l36.19,94.87L295.13,564s-18.6-74.52-28.27-100.63-70.23-146.17-70.23-146.17" transform="translate(0 -52.08)"/><path class="cls-14" d="M90.29,283.25a11,11,0,0,0-1.77,12.26l8.68,17.71L107,333.08c3.06,6.24,7.54,13.2,8,20.26.16,2.38-.11,4.65-.15,7.06,0,2.14,0,4.21-.17,6.34s-1.22,7.12-.27,9c1.89,3.79,6.75-4.14,8.05-6.13,7-10.8.54-25.84-2.18-37.36-4.61-19.56-9.14-40.93-13.75-60.49Z" transform="translate(0 -52.08)"/><path class="cls-18" d="M90.64,273.44l31.2,44.73c16.64-6.73,59-21.41,59-21.41l9,10.91c-7.44-23.84-41.08-44.51-44.43-62.69Z" transform="translate(0 -52.08)"/><path class="cls-18" d="M194,234.57l-40.48,8.07L145.42,245c-8.27,23.74-3.3,38-5.52,62.92l-3.34,14.38,60.85-3.93V305s8.25-12.95,11.39-20.81C212.5,274.94,194,234.57,194,234.57Z" transform="translate(0 -52.08)"/><path class="cls-14" d="M167.72,243.93l-2.13-33.11-4.37-16.23s10.28-5,15.27.13S183,207.58,183,207.58s3.61,9.32-.09,9.72-6.62.43-6.62.43l7.92,24.45Z" transform="translate(0 -52.08)"/><path class="cls-14" d="M154.6,242.3,194,234.57s.89,18.76-5.92,37C177.9,264.47,162.27,251,154.6,242.3Z" transform="translate(0 -52.08)"/><path class="cls-17" d="M178.09,187.69s4.72,2.43,7.38,9.47a92.41,92.41,0,0,1-17.26,8.16s-5.16-9.06-9.14-9.6C159.07,195.72,163.65,178.54,178.09,187.69Z" transform="translate(0 -52.08)"/><path class="cls-17" d="M165.15,198.2l-1.37,4.42.91,5.65s-5.93-4.55-6.29-10.94l5.09-4.75Z" transform="translate(0 -52.08)"/><path class="cls-15" d="M70.41,590.51,61,602.32,66.62,607s1.6,6,3.61,8.85a33.92,33.92,0,0,0,9.28,9.4l-3.64-21.12Z" transform="translate(0 -52.08)"/><polygon class="cls-16" points="78.07 545.1 101.09 521.67 91.5 509.6 71.26 537.3 78.07 545.1"/></g><line class="cls-20" x1="102.37" y1="215.11" x2="130.66" y2="262.63"/><line class="cls-20" x1="234.14" y1="159.51" x2="256.24" y2="215.65"/><rect class="cls-21" x="207.29" y="70.46" width="45.01" height="29.42" transform="translate(35.66 -116.48) rotate(17.28)"/><polyline class="cls-22" points="246.92 53.82 231.04 29.09 203.94 40.45"/><polygon class="cls-23" points="212.67 12.36 228.55 37.09 255.65 25.73 212.67 12.36"/><rect class="cls-21" x="342.82" y="330.87" width="54.42" height="35.57" transform="matrix(0.97, 0.26, -0.26, 0.97, 104.29, -136.86)"/><polygon class="cls-22" points="348.43 272.27 368.7 301.46 400.94 286.53 348.43 272.27"/><polygon class="cls-21" points="400.94 286.53 380.67 257.35 348.43 272.27 400.94 286.53"/><polygon class="cls-23" points="392.74 263.14 359.3 254.06 352.69 278.41 364.2 294.99 371.42 291.69 375.85 298.15 392.96 290.23 397.88 272.12 392.74 263.14"/><polygon class="cls-21" points="390.82 270.2 397.88 272.12 392.74 263.14 390.82 270.2"/><line class="cls-24" x1="362.01" y1="264.12" x2="384.76" y2="270.3"/><line class="cls-24" x1="360.7" y1="268.96" x2="391.99" y2="277.46"/><line class="cls-24" x1="359.39" y1="273.8" x2="390.68" y2="282.3"/><line class="cls-24" x1="358.07" y1="278.64" x2="389.36" y2="287.13"/><line class="cls-24" x1="356.76" y1="283.47" x2="388.05" y2="291.97"/><line class="cls-24" x1="355.45" y1="288.31" x2="386.74" y2="296.81"/><polygon class="cls-22" points="391.62 320.86 371.35 291.68 339.11 306.6 391.62 320.86"/><polygon class="cls-21" points="348.43 272.27 364.2 294.99 338.73 306.5 348.43 272.27"/><polygon class="cls-21" points="400.94 286.53 375.85 298.15 391.62 320.86 400.94 286.53"/><path class="cls-25" d="M491.35,295.82a7.93,7.93,0,0,1,2.18-.21q16.22,3.74,32.39,7.56c1.55.36,3,1,4.91,1.63-9.44,7.75-16.25,17.3-23.9,26.76-1.18-1.67-2.34-3.05-3.21-4.59a118.23,118.23,0,0,1-10.22-24.12C492.83,300.62,492.13,298.39,491.35,295.82Z" transform="translate(0 -52.08)"/><path class="cls-8" d="M268.85,99.87c-.22,1.18-.51,2.36-.64,3.55-.36,3.16-.65,6.32-1,9.52-.1-.07-.26-.17-.4-.28l-3.55-2.77a33.7,33.7,0,0,0-7.64-4c2.44-1.18,4.88-2.38,7.33-3.53,1.83-.87,3.7-1.66,5.55-2.49Z" transform="translate(0 -52.08)"/><path class="cls-26" d="M157,93.48c0-.47,0-.92.06-1.37a15.52,15.52,0,0,1,.82-4,23.82,23.82,0,0,1,.9-2.3,5.65,5.65,0,0,1,.63-.9,81.06,81.06,0,0,0,5.61,7c-1,0-1.94,0-2.91,0a6,6,0,0,0-2.32.46Z" transform="translate(0 -52.08)"/><path class="cls-18" d="M21.57,351.9c-1.24-.32-2.41-.6-3.58-.93a46,46,0,0,1-10.27-4.35c-1.94-1.08-3.82-2.28-5.65-3.53A15.66,15.66,0,0,1,0,341a211.87,211.87,0,0,0,21.2-9.69c-.43,2.38-.82,4.77-1.3,7.14a14.32,14.32,0,0,0,.11,6C20.54,346.88,21,349.33,21.57,351.9Z" transform="translate(0 -52.08)"/><path class="cls-25" d="M191.43,166.75c-.5-1.23-1-2.38-1.44-3.55A49.55,49.55,0,0,1,187.24,152c-.3-2.28-.49-4.58-.58-6.87a15.14,15.14,0,0,1,.42-3,217.86,217.86,0,0,0,20.83,11.7c-2.19,1.1-4.37,2.25-6.59,3.3a14.5,14.5,0,0,0-4.77,3.77C194.88,162.81,193.19,164.73,191.43,166.75Z" transform="translate(0 -52.08)"/><path class="cls-18" d="M517,88c3.41-4.61,3.45-15.15,3.81-19.87.43-5.62,0-9.5-1.12-11.11-1-1.44-1.9-3.62-6-4.16A109.77,109.77,0,0,0,497,52.16a150,150,0,0,0-17.39,2.26C473,56,472.8,62.69,472.68,65.11c-.17,3.34.58,18.79,1.52,21.5,1.72,5,3.32,5.4,8.7,5.71s18.7,1.32,21.46,1.55C508.84,94.23,512.88,93.59,517,88Z" transform="translate(0 -52.08)"/><line class="cls-27" x1="485.61" y1="14.82" x2="508.07" y2="14.82"/><line class="cls-27" x1="485.61" y1="21.4" x2="499.85" y2="21.4"/><line class="cls-27" x1="485.61" y1="27.97" x2="505.33" y2="27.97"/><polyline class="cls-18" points="508.94 35.9 495.75 51.87 496.89 36.84"/><path class="cls-8" d="M72.21,202.65c2.61-5.12.91-15.51.49-20.23-.51-5.62-1.61-9.37-3-10.78-1.2-1.26-2.47-3.25-6.57-3.11a109.55,109.55,0,0,0-16.6,2.08,148.38,148.38,0,0,0-16.78,5.1c-6.27,2.64-5.37,9.28-5.09,11.69.38,3.32,3.67,18.44,5,20.95,2.52,4.62,4.17,4.78,9.53,4.2s18.66-1.78,21.42-2C65.18,210.14,69.06,208.85,72.21,202.65Z" transform="translate(0 -52.08)"/><line class="cls-27" x1="39.44" y1="133.88" x2="61.89" y2="133.88"/><line class="cls-27" x1="39.44" y1="140.46" x2="53.68" y2="140.46"/><line class="cls-27" x1="39.44" y1="147.03" x2="59.15" y2="147.03"/><polyline class="cls-8" points="59.15 156.63 75.65 162.6 68.87 150.66"/></g></g></svg>