<svg width="1213" height="666" viewBox="0 0 1213 666" fill="none" xmlns="http://www.w3.org/2000/svg">
<g clip-path="url(#clip0)">
<path d="M1212.2 119.1L1148.3 95.9001C900.3 77.3001 887.6 308.4 700.2 337.8C542.4 362.5 518.1 543 320.1 554.5C188.5 562.1 76.1 605.8 0 665.7H1212.2V119.1Z" fill="#CEC9E2"/>
<path d="M1212.2 0C1208.3 16.5 1163 28.5 1148.3 95.9C1096.9 331.5 833.4 140.8 671.1 360.6C614.1 433.5 589.4 472.7 451.2 485.3C384.8 491.3 287.2 517.7 207.8 570.1C166.9 597.1 130 630.6 93.7998 665.8L1212.1 665.7V0H1212.2Z" fill="#FBBE25"/>
</g>
<defs>
<clipPath id="clip0">
<rect width="1212.2" height="665.7" fill="white"/>
</clipPath>
</defs>
</svg>
