<?xml version="1.0" encoding="utf-8"?>
<svg xmlns="http://www.w3.org/2000/svg" viewBox="0 0 704.28 571.87"><defs><style>.cls-1,.cls-11,.cls-2,.cls-6{fill:none;stroke:#fff;stroke-miterlimit:10;}.cls-1{stroke-width:1.66px;}.cls-2{stroke-width:1.65px;stroke-dasharray:14.68 14.68;}.cls-10,.cls-3{fill:#19005a;}.cls-4{fill:#ff7045;}.cls-5{fill:#b04d31;}.cls-6{stroke-width:1.6px;}.cls-18,.cls-7{fill:#fff;}.cls-7{opacity:0.36;}.cls-8{fill:#ffd2b4;}.cls-9{fill:#563328;}.cls-10{opacity:0.1;}.cls-11{stroke-linecap:round;stroke-width:4px;}.cls-12{fill:#3a4695;}.cls-13{fill:#8087bb;}.cls-14{fill:#e9580c;}.cls-15{fill:#ffa951;}.cls-16{fill:#2b388f;}.cls-17{fill:#fb6649;}.cls-19{fill:#fbbe25;}</style></defs><title>illu-hero</title><g id="Calque_2" data-name="Calque 2"><g id="contenu"><path class="cls-1" d="M275.05,108.54a191.67,191.67,0,0,1,57.29-14.43,151.4,151.4,0,0,1,61.26,7c17.77,6,37.45,16,45.92,31.72,3.3,6.11,5.6,13.29,11.66,17,7.51,4.54,17.85,2,27.08-.06,32.58-7.35,72.35-25.42,98.72-9.17,15.3,9.42,26.58,23.63,35.24,39,32.67,58,52.67,138,18,201.28S519,498.08,448.28,518.43c-55,15.85-136.71-13.71-129.16-39,7.79-26.14-43.72-113.47-49.54-98.71-4.73,12,2,25.54-4.36,37-5.66,10.18-19.14,14.11-27,23-8.63,9.74-8.84,23.22-13.43,35C212,508.36,168.86,520.92,133.41,521c-16,0-32.4-1.61-45.22-9.57S67.25,487.6,72.66,472.75c4-11.08,14.59-19.8,17.87-31,7.31-25-22.72-39.82-41.89-55.62-28.3-23.32-36.79-66-20.17-101.46,3.73-7.93,8.79-15.72,16.23-20.89,25.87-18,64.19,3.87,89.29-15.17,8.74-6.63,13.49-16.74,18.67-26.09a289,289,0,0,1,44.12-59.54,250.65,250.65,0,0,1,30.75-27.21A225.34,225.34,0,0,1,275.05,108.54Z"/><path class="cls-2" d="M664.14,51.09c-2.27-3.33-6.18-6-9.19-8.42a178.2,178.2,0,0,0-25-17.07A194.22,194.22,0,0,0,512.12,2.21a173.92,173.92,0,0,0-92,40.13,187.64,187.64,0,0,0-39.89,46.54A177.23,177.23,0,0,0,358,145.5c-.93,4.58-1.66,9.21-2.18,13.86-.56,4.9.22,9.44.42,14.36a177.7,177.7,0,0,0,14.71,64.11c1.89,4.29,3.76,8.82,6.77,12.49,2.13,2.58,4.9,4.39,7.49,6.47,4,3.18,7.08,7.13,10.46,10.88q6.15,6.82,12.95,13.05c7.85,7.19,16.61,15.55,26.89,18.92,3.81,1.25,7.25,3.81,10.79,5.65a169.52,169.52,0,0,0,32.13,12.8,162.63,162.63,0,0,0,16.49,3.77C550.11,331.47,608.69,313,652,275.74a174.3,174.3,0,0,0,28.47-30.94,142.4,142.4,0,0,0,10.94-18c2.38-4.68,4.1-9.58,6.26-14.34,1.82-4,3.94-6.61,4.47-11.15a203.41,203.41,0,0,0,1.1-33.38,218.91,218.91,0,0,0-13.36-65.4A221.93,221.93,0,0,0,668.76,60a55.68,55.68,0,0,1-3.63-7.19A11,11,0,0,0,664.14,51.09Z"/><path class="cls-3" d="M439.92,394.36l39.63,11.11S484,433.18,479.2,446l-15.44-23.57-29.88-.05Z"/><path class="cls-4" d="M313,183.35s7.82,53.18,4.18,74.69c0,0-59.19,12.21-104.26,17.95-1.24-3.2-18.87-38.13,10.85-91.46Z"/><path class="cls-4" d="M409.56,201.2s-22-21.39-92.55-17c0,0-24.46,12.36-9.69,59.4,3.35-.13,39.74,22.65,76,29.24C386.76,270.48,409.56,201.2,409.56,201.2Z"/><path class="cls-4" d="M234.19,269.31c-55.82-4.95-99.68-42.49-99.68-42.49s32.17-53.54,32.77-54.61C199.53,171.76,244,192,244,192Z"/><path class="cls-5" d="M308.84,177.22c11.8-5.53,14.81-25.25,13.32-36.75a45.12,45.12,0,0,0-9.9-22c-12.08-14.62-30.23-23.34-48.49-22-20.49,1.45-35.1,19.51-42.36,37.22-8.61,21,4.73,46.75,26.78,50.75C268.44,188.94,297.31,189.31,308.84,177.22Z"/><path class="cls-4" d="M306.59,112c23.59,38.18-30.78,76.53-62.58,71.53,17,6.94,40.37,7,57.45.13C321.76,175.55,338.29,137.6,306.59,112Z"/><path class="cls-4" d="M212.64,283s4,158.8,70.39,250.38l58.89-29.7L298.36,382.66,277.62,269Z"/><path class="cls-4" d="M235.52,277.64S300,430.83,427.62,448.88l20.66-60.13L368,340.44l-39.19-62.53A30.14,30.14,0,0,0,297,264.45Z"/><path class="cls-4" d="M162.76,173.55s-17.17-25.8-29.3-39.72L87,165.09s23.8,44.11,35,56.6Z"/><path class="cls-4" d="M415.4,203.34s46.4,12.56,54.38,20.71l-9.84,48.62s-49.81,5-67.05-.55Z"/><path class="cls-3" d="M325.29,514.6l14.24,29.24s-10.8,18-25.76,28c-1.11-2.29,3.93-29.83,3.93-29.83l-18.64-17Z"/><path class="cls-6" d="M265.78,202.45s-2,18.81-3.18,21.21-36.18,6-36.18,6,1.72-23.07,3.06-24.42S265.78,202.45,265.78,202.45Z"/><path class="cls-6" d="M231.25,186.42S197.45,196.89,208.5,257"/><path class="cls-6" d="M318,184s-26.6,17.84-5.25,67.45L210.35,270.67"/><path class="cls-3" d="M476.27,231.45s31.79-23.22,36-11.07c0,0,3.89,7.09-6.2,17.07l-13.24,9.41,10.29,2.74s2.36,5.59-4.17,6.33-30.41,5.67-30.41,5.67Z"/><path class="cls-3" d="M101.93,110.45l-7.76,4.33s-13.81,9.66-13,18.57,11.09,21.33,11.09,21.33L111.79,141l.39-11.59-9.92-10.06s12-2.63,9.54-6.23S101.93,110.45,101.93,110.45Z"/><path class="cls-7" d="M284.56,103.62s-27.92-9.51-42.61,9.94Z"/><path class="cls-8" d="M279.41,173.31,285.63,140s.54-7.23-7.57-8.58-14.21,5.33-16.88,11.74c-1.91,4.56-1.91,16.46-1.91,16.46s3,5,9.08,2.12l-5.19,18.35S274.85,175.62,279.41,173.31Z"/><path class="cls-9" d="M282.4,156.8a8.41,8.41,0,0,1-7.45-9.41c.27-2.46.35-5.47-1.56-7.6-2.64-2.94-6-2.14-9.39-1.41.54-2.44,2.23-4.17,4.46-5.63,3.18-2.07,8.8-3.08,12.6-1.85,7.88,2.55,5.59,9.91,3.94,16.38C284.24,150.29,284,153.47,282.4,156.8Z"/><path class="cls-6" d="M366.57,428.1s19.26-15.77,10.42-30-36.1-26.87-36.1-26.87-11.57-6.72-27,17.37"/><path class="cls-6" d="M272,475.38s27.88-4.66,24.87-16.61c-3.92-15.53-15.55-52.72-15.55-52.72s-1.78-10.12-16.85-7.12a123.86,123.86,0,0,0-20.11,6.35s-8.65.69-3.78,17.91c4.35,15.38,15.24,45.64,15.24,45.64S260.17,478.09,272,475.38Z"/><path class="cls-6" d="M271.71,202.19s-2.62,25.2-3.89,27.14-32.46,5.56-38.87,6.88"/><path class="cls-10" d="M158.23,54.47c-17.64,2-34,15-37.07,28.91-3.06,13.76,7.74,24.07,24.69,23.18,17.66-.93,35.54-13.59,39.31-28.44C189,63,176.63,52.4,158.23,54.47Z"/><path class="cls-11" d="M155.5,62.53c-12.5,2.92-23.6,13.24-24.59,23"/><path class="cls-12" d="M190.51,79.41c-.39,5.76-2.94,12-7.88,17.77-13.07,15.34-37.58,20.53-50.61,13.6-9.41-5.38-15.54-15.57-13.14-25.26l5.59-1c-2,8.4,1,16.26,8.93,20.51h0c13.14,7,33.4,1.09,44.65-11.86,4.3-5,6.69-10.26,7.28-15.18ZM180.35,58c8,5.4,10.71,13.37,10.16,21.42L185.33,78a17.21,17.21,0,0,0-8.17-17.31c-10.86-6.75-29.45-3.88-42.23,7.49-5.57,5-9.12,10.71-10.46,16.35l-5.59,1c1.59-6.41,5.69-12.84,12.07-18.3C145.43,54.82,167.35,50.37,180.35,58Z"/><path class="cls-13" d="M189.18,80.62C187.79,86.75,184.05,93,178,98.57c-14.75,13.53-37.63,17.3-51.1,8.42-8-5.25-10.87-13.76-8.85-22.63l5-.78c-1.8,7.82.71,15.1,7.6,19.35h0c11.39,7,30.61,3.12,43.21-8.6,5.14-4.79,8.46-10.19,9.86-15.42ZM180.35,58c8,5.25,10.86,13.76,8.83,22.63l-5.47-1.71c2-7.65,0-15-6.42-19.54-11.13-7.82-31.09-4.29-44.28,8.06-5.37,5-8.71,10.71-10,16.15l-5,.78c1.4-6.12,5.14-12.42,11.16-18C144,52.88,166.87,49.11,180.35,58Z"/><polygon class="cls-13" points="99.84 124.03 106.44 128.37 132.42 104.53 125.82 100.18 99.84 124.03"/><polygon class="cls-14" points="99.84 124.03 106.44 128.37 122.97 113.2 116.38 108.85 99.84 124.03"/><path class="cls-15" d="M83,136.67c-3.2,2.93-4,6.51-1.35,9.55s6,2.61,9.2-.32l30.39-27.29A6,6,0,0,0,123,113.2l-4.89-5.91c-1.79-1-4.08.59-5.9,2.26Z"/><path class="cls-3" d="M124.85,133.13s.94-22.93-7.84-22.65-24.64,6.45-24.64,6.45-4.1,2.6-.61,5.21,16.37,2.25,16.37,2.25-10.45,8.52-2.06,20.66Z"/><path class="cls-16" d="M30,261.4c-4.67-2.3-9.75-3.46-14.23-5.65A155.15,155.15,0,0,0,0,292.64c15.08-2.42,28.43,8.88,41.7,14.35,1.48-5.22,3.48-10.46,5.31-15.71,1.35-3.88,4.25-10.14,4.46-14.24"/><path class="cls-15" d="M42.88,255.21c5.17,4.12,11.24,6.34,16.83,10-2.74,8-7.55,15.35-10.44,23.28C48,292,46.68,295.8,45.72,299.37c-.45,1.66-2,8.4-4.49,7.47-1.07-.4-1.91-1.9-2.88-2.59-1.22-.87-2.65-1.44-3.91-2.26a68,68,0,0,1-9.2-7.28c-2.77-2.5-6-5.25-8.63-8.09-2.21-2.35-3-5.76-5.23-8-.69-.69,5.56-10.86,6.22-12,2.5-4.4,5.16-8.71,7.89-13,2.36-3.68,5.06-7.05,7.28-10.81,2,.92,2.59,3.84,3.73,5.58A30.61,30.61,0,0,0,42.88,255.21Z"/><path class="cls-17" d="M44,306.32c-4.89-5.61-9.43-14.86-11.9-21.88-2.08-5.93,1.87-9.13,5.46-13.91,8.07-10.75,15.76-22.13,25.16-31.76-2.09,4.33-4.32,9.58-3.69,14.51.47,3.63,2.79,7,2.3,10.8"/><path class="cls-17" d="M422.48,23.94c-3.07-2.54-10,.77-12.36,4.88,7.3,2.05,15.2,2.69,22.39,4.9"/><path class="cls-15" d="M409.14,56c8.85-8.67,13.19-19.84,14.32-31.42,9.33,4.08,19.79,6.08,29.65,8.72,5.28,1.41,13,2.53,17.56,5.68-.91,5.86.17,11.68-1.2,17.53-1.6,6.8-6.44,8.95-9.37,14.6"/><path class="cls-16" d="M411.09,57.41c6.08-5.57,18.23-8.07,25.44-10.73,5.53-2,6.79.68,11.42,2.36,5.73,2.09,11.42,4.28,17.14,6.42,8.13,3,15.31,7.23,23.58,9.89-6.42,3-15.58,3.57-22.09,4.81-3.35.63-6.72,2.15-10,2.86-3.7.79-5.7-1.2-8.94-3A73.11,73.11,0,0,0,428,62.38c-6.91-1.51-12.78-5.3-20.08-5,4.51-2.7,10.28-5.64,14.93-7,3.83-1.08,10-1.88,13-3.72"/><path class="cls-17" d="M590.4,354.59c-5.2,1.5-12,5.72-17.26,6-6.54.32-6.52-6.67-8.78-11.68-5-11.06-12.66-20.73-17-32.12,5.39,1,11.59-2.71,16.52-4.34,6.28-2.08,12.7-3.15,18.91-5.47,4.84-1.81,9.85-4.13,15-4.84,3.81,6.07,8.54,13.93,10.47,20.84.59,2.12.69,4.61,1.43,6.71,1.24,3.51,7.2,10.25,6.2,14.17-.93,3.6-10.55,6.1-13.91,7.25C598.06,352.4,594.22,353.48,590.4,354.59Z"/><path class="cls-16" d="M588.18,355.47c4.83-1.91,9.51-4.23,14.39-6,4-1.43,10.46-1.32,13.76-3.94,7-5.56,5.54-19.57,7.13-27.35,1.2-5.89,6.25-17.36,13.21-19.24-4.11.63-7.88,2.36-11.87,3.67-9.59,3.12-19,4.57-28.36,8.62-17.64,7.64-8.05,38.17-20.76,49.91C578.07,361.71,585.56,356.51,588.18,355.47Z"/><path class="cls-18" d="M643.48,327l2.55-.56c-.61.13-4.55,8-5.52,9.1a30.18,30.18,0,0,1-9,7c-6.69,3.56-14,5.35-21.07,8.05-6.56,2.53-13.25,4.78-19.69,7.6-5.18,2.27-11.17,2.13-16.25,4.33,11-4.77,15.11-18.94,22.67-27.51,8.35,2.29,21.92-2.41,30.37-4.28C632.91,329.51,638.2,328.16,643.48,327Z"/><path class="cls-16" d="M57.1,41.87c-.12-1.18.7-2.67,1.19-3.74A66.38,66.38,0,0,0,62,28.76a48.56,48.56,0,0,0,1.51-5.49c.33-1.94,0-4,.64-5.9a12.83,12.83,0,0,0,.93-4c-.41,1.91,2.73,3.54,4,4.52a55.86,55.86,0,0,0,5,3.57"/><path class="cls-19" d="M32.18,46.35l-.5,0c.61-1.32,1.68-2.23,2.39-3.55,2.51-4.71,5.21-9.3,7.78-14A30.76,30.76,0,0,0,44.18,23c.26-.84.52-2.84,1-3.5.79-1,2.11-.69,3.49-.53,2.41.29,4.49,1.25,7,1.38a64.5,64.5,0,0,1,9.22,1.4,14.41,14.41,0,0,0,5.24,0,35.37,35.37,0,0,1,4-.23,20,20,0,0,0-1.91,2.72c-1.43,2.11-2.52,4.4-4.06,6.45s-3.45,3.84-4.94,5.94c-1,1.41-1.69,3.08-2.83,4.41a35,35,0,0,0-2.88,3.12c-.49.73-.83,2.53-1.94,1.59-.69.57-3.41,1-4.39,1.08-1.2.12-2.12-.36-3.4-.14-2,.35-3.33,1.09-5.37,1.24a44,44,0,0,1-6.88.37C33.79,48.17,32.07,48.07,32.18,46.35Z"/><path class="cls-16" d="M143.89,480.57c1.26-3,7.51-5.67,10-7.62,5.12-4,10.55-7.66,15.91-11.4,4.91-3.42,10.56-6.37,14.87-10.29,1,6,.24,11.91,0,17.79-.08,2.14.08,6.82-1.52,8.43-.52.52-3.06,1-3.83,1.36-1.52.71-3.1,1.42-4.55,2.23-2.74,1.51-5.71,3.3-8.32,5s-4.88,2.84-7.49,4.37-5.25,3.18-7.88,4.8a31.44,31.44,0,0,0-4,3c-.75.65-3.06,2.59-3.29,2.1"/><path class="cls-15" d="M143.76,500.49c-.54-.12-.91-.77-1.24-1.16-1.8-2.17-4.67-3.92-7.06-5.33a121,121,0,0,1-10.35-6.84c-1.36-1-2.4-2.38-3.78-3.32a5.3,5.3,0,0,0,1-1,48.33,48.33,0,0,1,5.13-3.5c6.59-4.49,12.93-9.31,19.51-13.82,4.23-2.91,8-6.69,12.54-9.14.68-.37,1.48-.7,2.11-1.12s.91-1,1.48-1.2a8.72,8.72,0,0,1,1.16,1.73c1.21,1.8,2.2,3.74,3.28,5.62a48.5,48.5,0,0,0,7.17,9.46c1.59,1.65,3.22,3.22,4.84,4.83.53.53,1,1.32,1.58,1.79.31.26.72.34,1,.62a.58.58,0,0,0-.4-.21"/><path class="cls-18" d="M143.76,500.49c-.54-.12-.91-.77-1.24-1.16-1.8-2.17-4.67-3.92-7.06-5.33a121,121,0,0,1-10.35-6.84c-1.36-1-2.4-2.38-3.78-3.32a5.3,5.3,0,0,0,1-1,48.33,48.33,0,0,1,5.13-3.5c6.59-4.49,12.93-9.31,19.51-13.82,4.23-2.91,8-6.69,12.54-9.14.68-.37,1.48-.7,2.11-1.12s.91-1,1.48-1.2a8.72,8.72,0,0,1,1.16,1.73c1.21,1.8,2.2,3.74,3.28,5.62a48.5,48.5,0,0,0,7.17,9.46c1.59,1.65,3.22,3.22,4.84,4.83.53.53,1,1.32,1.58,1.79.31.26.72.34,1,.62a.58.58,0,0,0-.4-.21"/><path class="cls-3" d="M81.13,133.35c4.69,2.09,6.23,3.63,8.41,3.27s24.77-12.38,24.59-18-17.49-1-17.49-1Z"/></g></g></svg>