<svg width="770" height="547" viewBox="0 0 770 547" fill="none" xmlns="http://www.w3.org/2000/svg">
<g clip-path="url(#clip0)">
<path d="M752.4 0.8C534.1 5 512.8 172.2 347.4 187.5C208.1 200.4 233 299.5 60.1 316.6C36.5 319 17 326.2 0 336.7V534.3L770 531.8V0C764.3 0.4 758.4 0.7 752.4 0.8Z" fill="#CEC9E2"/>
<path d="M470.9 174.1C417.1 234.7 393.3 267.6 271.8 271C213.4 272.6 126.7 290.3 54.3999 331.7C37.8999 341.2 19.3999 355.4 -0.100098 372.4V547H769.9V74C669.6 104.4 557.8 70.8 470.9 174.1Z" fill="#FBBE25"/>
</g>
<defs>
<clipPath id="clip0">
<rect width="770" height="547" fill="white"/>
</clipPath>
</defs>
</svg>
