<svg width="1238" height="547" viewBox="0 0 1238 547" fill="none" xmlns="http://www.w3.org/2000/svg">
<g clip-path="url(#clip0)">
<path d="M1161.8 0C1113.6 52.2 1038 101.2 923.5 103.4C674.2 108.2 649.9 299 461 316.6C302 331.3 330.4 444.4 133 464C59.3 471.3 30.2 508.3 0 547H1237.4V0H1161.8Z" fill="#CEC9E2"/>
<path d="M1125.2 0C990.2 322.2 760.1 113.5 602.1 301.2C540.7 370.4 513.5 408 374.8 411.8C308.1 413.6 209.1 433.8 126.6 481.1C93.9001 499.8 63.4001 522.5 33.6001 547H1237.5V0H1125.2Z" fill="#FBBE25"/>
</g>
<defs>
<clipPath id="clip0">
<rect width="1237.4" height="547" fill="white"/>
</clipPath>
</defs>
</svg>
