<svg width="958" height="476" viewBox="0 0 958 476" fill="none" xmlns="http://www.w3.org/2000/svg">
<g clip-path="url(#clip0)">
<path d="M957.2 475.5V0C935.2 5.6 911.1 9 884.5 9.5C666.6 13.7 645.4 180.5 480.3 195.8C341.3 208.7 366.1 307.5 193.6 324.7C81.3 335.8 87.6 432.6 0 475.5H957.2Z" fill="#CEC9E2"/>
<path d="M957.2 475.5V57.2002C844.7 130.4 706.6 60.0002 603.6 182.4C549.9 242.8 526.1 275.7 404.9 279.1C346.6 280.7 260.1 298.3 188 339.7C125.9 375.3 72.6002 427.3 15.7002 475.6H957.2V475.5Z" fill="#FBBE25"/>
</g>
<defs>
<clipPath id="clip0">
<rect width="957.2" height="475.5" fill="white"/>
</clipPath>
</defs>
</svg>
