<?xml version="1.0" encoding="utf-8"?>
<svg xmlns="http://www.w3.org/2000/svg" viewBox="0 0 793.92 434.24"><defs><style>.cls-1,.cls-11,.cls-12,.cls-2,.cls-20,.cls-24{fill:none;}.cls-1{stroke:#8c80ac;stroke-width:1.73px;}.cls-1,.cls-11,.cls-2,.cls-24{stroke-miterlimit:10;}.cls-2{stroke:#fb6649;stroke-width:1.69px;}.cls-3{opacity:0.2;}.cls-4{fill:#19005a;}.cls-5{fill:#ffd2b4;}.cls-6{fill:#fff;}.cls-7{fill:#8f5fa4;}.cls-8{fill:#cc614f;}.cls-9{fill:#e6aa83;}.cls-10{fill:#66271f;}.cls-11{stroke:#cabfda;}.cls-11,.cls-20,.cls-24{stroke-width:1.6px;}.cls-12{stroke:#37216f;stroke-width:1.6px;}.cls-12,.cls-20{stroke-linecap:round;stroke-linejoin:round;}.cls-13{fill:#fbbe25;}.cls-14{fill:#ffa951;}.cls-15{fill:#fb6649;}.cls-16{fill:#ffb8a2;}.cls-17{fill:#ff7045;}.cls-18{fill:#b85131;}.cls-19{fill:#fdc2b6;}.cls-20{stroke:#fff;}.cls-21{fill:#2d2e83;}.cls-22{fill:#e69965;}.cls-23{fill:#563328;}.cls-24{stroke:#19005a;}.cls-25{fill:#ff6b90;}</style></defs><g id="Layer_2" data-name="Layer 2"><g id="contenu"><path class="cls-1" d="M587.13,417.08c-3.57.1-7.13.15-10.69.13a315.42,315.42,0,0,1-38.61-2.56c-4.81-.62-9.42-1.11-13.6-3.71a46.77,46.77,0,0,0-5.19-3c-9.83-4.54-19.22-8.59-27.7-15.55-5.14-4.22-9.81-9.06-15.47-12.55-17.56-10.83-40.59-6.3-59.31,2.37s-35.89,21.17-55.89,26.23c-33.61,8.52-73.51-9.55-84.5-42.43-5.38-16.09-3.81-34,2.19-49.85a105.2,105.2,0,0,1,8.56-17.4,135.62,135.62,0,0,1,8.64-12.51c3.07-4,18.88-22.41,23.83-27.45a385.57,385.57,0,0,1,28.71-26.41c18.63-15.51,38.71-29.64,60.35-40.63,20.44-10.38,29.78-14.09,51.33-11.42s40.38,19.2,37.59,39.6c-2.88,21-26.5,39.47-25.53,60.22,1,20.26,39.42,26.28,61.85,24,13.25-1.32,28.94-8.12,31.74-20.2,2.28-9.82-5.13-19.22-1.43-28.84,3.29-8.55,13.91-13.43,19.2-21.3,5.82-8.64,4.15-19,6.35-28.57,6.13-26.81,28.72-35.61,58.05-40.58,13.2-2.24,27-3.3,38.73,1S706.9,181,704.46,193.05c-1.82,9-9.38,17.15-10.56,26.18-2.63,20.14,35.63,20.44,53.65,29.83a60.89,60.89,0,0,1,23,21c2.89,4.46,6.2,10,7.23,15.3.42,2.12.06,4.52.19,6.71a67.27,67.27,0,0,1-1.19,16.81A86.48,86.48,0,0,1,763.61,340a133.23,133.23,0,0,1-23,25.62c-4.32,3.82-8.83,7.44-13.43,10.93s-10,6.12-15,8.86q-5.16,2.79-10.46,5.32a262.42,262.42,0,0,1-59.52,19.85A313.82,313.82,0,0,1,587.13,417.08Z"/><path class="cls-2" d="M509.79,109.94c-8.26-15.94-20.2-29.22-33.18-40.65A149.37,149.37,0,0,0,433.1,42.42,134.72,134.72,0,0,0,400.51,34a142.86,142.86,0,0,0-52.46,3.36,169.19,169.19,0,0,0-50.53,22A180.3,180.3,0,0,0,254.67,97.9c-2.85,3.54-8.8,7.29-11.39,11.07-2.73,4-6.46,7.64-8.63,12-9.76,19.52-12.29,41.3-13.69,63.05-2.21,34.19,7.36,63.73,26.62,93.32,5.86,9,11.93,17.92,19.2,25.62A131.17,131.17,0,0,0,278,313.5c39,32.63,93.41,40.33,143.61,24.17a156.1,156.1,0,0,0,35.27-16.34,136.13,136.13,0,0,0,16-11.73c3.79-3.24,7.16-6.93,10.8-10.31,3-2.84,5.75-4.29,8-8.14a227,227,0,0,0,14.65-29.21A244,244,0,0,0,523,199.48C524.93,184.51,527.83,144.78,509.79,109.94Z"/><g class="cls-3"><ellipse class="cls-4" cx="91.91" cy="431.65" rx="91.91" ry="2.59"/><path class="cls-4" d="M319.54,430.92c0,1.38,66.48,2.5,148.49,2.5s149.81-2.11,148.48-2.5c-34.43-10-66.48-2.5-148.48-2.5S319.54,429.54,319.54,430.92Z"/><path class="cls-4" d="M496.93,430.92c0,1.38,66.48,2.5,148.49,2.5s149.85-2.34,148.48-2.5c-38.73-4.39-66.48-2.5-148.48-2.5S496.93,429.54,496.93,430.92Z"/></g><path class="cls-4" d="M711.63,186.51s33.4,99.12,46.59,178.32c-1.43,1.43,7.28,26.39,7.28,26.39l-40.31-3.45-58.3-102.59s-71.25,90.3-87,111.05c0,0-31.9-16.68-34.78-18.1,0,0,48.13-86.33,57.4-112.77s52.81-63.62,52.81-63.62Z"/><path class="cls-5" d="M595.12,143.8c-1.57,1.39-30.61-3.31-31.87-5-3.64-4.8-15.24-18.58-19-23.48l-10.11-13.27c-1.51-2-10.89-13.43-13.4-15.34a19.8,19.8,0,0,0-8.89-3.81,5.73,5.73,0,0,1-1.35-.36c-2.48-1-.33-2.25,1.05-2.78a19.55,19.55,0,0,1,5.15-.92,3.75,3.75,0,0,0,1.59-.41,1.31,1.31,0,0,0,.68-1.39c-.07-.27-.26-.57-.11-.81s.43-.21.67-.18c5.69.69,9.73,4.84,13.88,8.36l16.46,14,19,16.16,9.11,7.74Z"/><path class="cls-5" d="M507,80.85c.87-1.83-.86-.49,0-2.32a51.22,51.22,0,0,1,2.52-5.35c1.07-1.43,4.35-3.33,5.81-4.37a3,3,0,0,1,1.33-.65,2.94,2.94,0,0,1,2,.83,47.16,47.16,0,0,1,6.15,5.41c1.93,2,2.48,4.95,5.78,7.59-1.73-1.73-2.56,12.12-6.44,7.83a5.59,5.59,0,0,0-3.09-1.68C516.5,87,515,84,510.3,83.56a15.93,15.93,0,0,1-3.3-.42c-.19-.23-.94,1.77-.91,1.46C506.32,82.31,506,82.93,507,80.85Z"/><path class="cls-5" d="M771.17,171.3a6.87,6.87,0,0,1-1.63,7.7l-30.77,28.79c-2.73,2.56-11.1,8.15-10.3,12.23.34,1.69,1.39,3.17,1.84,4.84.79,3-.43,6.14-2.29,8.58-.26.34-.57.7-1.13.49a1.18,1.18,0,0,1-.69-.74l-4.44-12.57a21,21,0,0,1-1.44-5.74c-.24-4.1,3.59-7.8,5.82-11.08l7.38-10.92L750.36,168l11.94-17.65Z"/><path class="cls-6" d="M570.32,175.62l.08-60.87s53.77-.51,79.39-6.46l.76-.17h0s68.67-23.33,125.85,32L739,184.73l-30.44-19.31,18.33,68.51-111.51,7.53,5.74-57.84C615.51,184,597,180.23,570.32,175.62Z"/><path class="cls-7" d="M651.67,120.12s-30.26,69.51,13.84,142l3.9-5.54c5.94,1.34,8.24-4.62,8.24-4.62l8.33.74,1.28-7.15,6.51,2.59s-41.39-61.47-34.24-125.65"/><path class="cls-7" d="M657.61,124.28s13.95-10.07,15.43-17c0,0-3.58-4.64-4.16-8.35,0,0-10.27-2.65-16.87-.67,0,0-3.64-1.2-3,7.49a79.87,79.87,0,0,1,0,14.5S649.74,128.94,657.61,124.28Z"/><path class="cls-5" d="M652.64,112.45l1.27-19s-5.33.57-6.53-2.1c-.9-2.48.42-9.33,1-14.19l.38-5.88,9.5.37L662,86l3.23,20.82-1,2.39s-2.38,3-11.74,6.63Z"/><path class="cls-8" d="M660.89,74.59c.48,0-1.49-5.85-6.28-6.31l2.82-3.73c-3.33-4.42-13.66,3.13-9.14,12.1l1.29-1.7a2.67,2.67,0,0,1,4.19-.09A14.82,14.82,0,0,1,656,79.42s1.74-3.66,2.76-.71L662,86.2C663.27,83.36,667.86,74.21,660.89,74.59Z"/><path class="cls-8" d="M646.12,61.28c-4.09,4.7-2.53,11.27,2.17,15.37L662,60.18A11.29,11.29,0,0,0,646.12,61.28Z"/><ellipse class="cls-5" cx="658.22" cy="79.98" rx="3.69" ry="2.27" transform="translate(417.97 697.99) rotate(-75.68)"/><polygon class="cls-9" points="653.84 93.27 659.58 91.89 653.39 104.36 653.84 93.27"/><path class="cls-10" d="M548.26,419.21c-4.59,3.93-14,9.34-14,9.34l33-1.34-1.14-6.85-16.18-3.1A12.12,12.12,0,0,1,548.26,419.21Z"/><path class="cls-6" d="M565.26,387.85s-10,22-15.33,29.41l16.18,3.1,13.94-24.74Z"/><polygon class="cls-6" points="763.5 390.28 741.08 388.73 759.41 419.88 770.88 415.52 763.5 390.28"/><polygon class="cls-10" points="771.28 416.9 770.88 415.52 759.41 419.88 760.29 421.38 762.76 430.27 790.5 430.73 771.28 416.9"/><path class="cls-5" d="M210.94,130c-1.14,0-20.18,14.55-29.25,21.54a11.48,11.48,0,0,1-10.45,1.84l-25.32-8,48-18.5Z"/><path class="cls-10" d="M170.86,422l-11.34-18-12.43-5.58,3,15.57,4.5-.33a47.67,47.67,0,0,0,16.56,10.09"/><polygon class="cls-5" points="135.21 369.69 147.09 398.36 159.52 403.94 150.25 366.04 135.21 369.69"/><path class="cls-10" d="M76.24,286.74l-14.68,3.91,1.76,7.11s-2.33,5.85-2.39,9.32a34.08,34.08,0,0,0,1.87,13.16L72.52,301Z"/><polygon class="cls-5" points="72.52 300.99 103.44 282.1 96.44 267.76 74.22 286.2 72.52 300.99"/><polygon class="cls-6" points="125.17 192.06 79.13 219.55 128.63 369.71 157.78 368.54 125.17 192.06"/><path class="cls-6" d="M129,185.43l-20-2.09s-37.2,14.6-38,18c-6.58,29.8,15.31,39.5,15.31,39.5C91,256.39,134.27,229,134.27,229L85.08,270.66l30,32.83,81.69-70.6c16.37-13.54,8.23-40.12-12.93-42.16Z"/><line class="cls-11" x1="141.56" y1="279.57" x2="129.34" y2="214.34"/><line class="cls-11" x1="132.37" y1="230.53" x2="147.09" y2="217.61"/><path class="cls-4" d="M70.6,93.38s-45,13.5-57.1-16,3.94-47,8.44-50.9,41-20.28,58.55,8.29c18.7,30.38-1.74,52.74-1.74,52.74Z"/><path class="cls-12" d="M76,84.65a47.38,47.38,0,0,1-22.15,8.46C39.23,94.72,17.07,93.62,9,74.54-3.38,45,12.89,27.4,17.7,23.69,30.15,14.12,59.77,3.44,77.82,32,97,62.32,76,84.65,76,84.65Z"/><path class="cls-13" d="M170.79,115.44h0C170.86,115.29,170.85,115.3,170.79,115.44Z"/><path class="cls-14" d="M80,100.7a69.94,69.94,0,0,0-16.05,2.66c-18.72,5.4-45.65,42.11-45.65,42.11l34.54,32.17,7.78-8.86,10.65,30.48,19.6-2.52L129,185.43l-5.76-11.5,2.39-19.44s5.81-2.68,6.87-4.62c6.8,4,11.79,6.75,12.22,7.12,14.74-15.27,25.3-39.83,26-41.55l-23.22-8.84a109.41,109.41,0,0,0-44.16-7Z"/><path class="cls-5" d="M86.62,108.9,83.51,80.67,79.14,67s8.6-4.67,13.07-.47S98.3,77.23,98.3,77.23s3.46,7.82.3,8.31-5.64.63-5.64.63l7.72,20.59Z"/><path class="cls-5" d="M103.41,99.57,80,100.7a70.22,70.22,0,0,0-8.73,1c6.73,9.79,36.05,31.44,36.05,31.44S105.84,99.45,103.41,99.57Z"/><path class="cls-4" d="M95.76,63.18s-.87,15.17-22.17,10.44c-8.45-1.87,6.84-14,6.84-14l15-1.36Z"/><ellipse class="cls-5" cx="81.46" cy="76.73" rx="2.94" ry="4.77" transform="translate(-23.51 37.95) rotate(-23.01)"/><path class="cls-15" d="M275,76.73,260.3,78.48a14.53,14.53,0,0,0,5.45,9.63Z"/><path class="cls-16" d="M242.25,94.32c4.29,8.59,9.31,11.23,9.31,11.23l14.23-17.48s.67-2.09-1.32-5.74S261,78.4,261,78.4l-22.61,2.68S238,85.73,242.25,94.32Z"/><path class="cls-17" d="M248,91.58c-4.1-8.19-9.64-10.5-9.64-10.5L24.2,196.77c10.6,7.92,12.82,21.48,13.19,24.48l214.17-115.7S252,99.62,248,91.58Z"/><path class="cls-18" d="M37.39,221.25c1.35-4-3.31-20.15-13.19-24.48L3.53,207.94c7.17,6.21,11.3,15.24,12.85,24.65h0Z"/><path class="cls-19" d="M3.53,207.94l-.35.19s-4.63,17.34,13.2,24.46C18.83,221.46,11.34,210.11,3.53,207.94Z"/><path class="cls-20" d="M242.07,110.67s-1.26-16-13.22-24.47"/><path class="cls-20" d="M44.89,217.15s-1.27-16-13.22-24.47"/><path class="cls-5" d="M70.77,191.86,52.82,177.64,24.9,151.56l-3.76,7.87a12.79,12.79,0,0,0,5,16.52C34.8,181,41,185,52.17,191.25c4.8,2.68,15.81,9,15.81,9L71.09,192Z"/><path class="cls-5" d="M205.47,133.21l3.17-9.24a5.82,5.82,0,0,1,3.72-3.66l2-.66a4.36,4.36,0,0,1,5.57,5.23l-1,4S215.52,135.55,205.47,133.21Z"/><polygon class="cls-5" points="67.03 188.84 76.27 194.29 83.92 203.21 80.84 206.14 77.71 205.44 71.42 207.29 64.29 202 60.3 195.39 67.03 188.84"/><path class="cls-5" d="M76.07,196.41c.31.36-.23,1-.65.79a.55.55,0,0,1,.32-1c2.54.34,4,.44,6.52.78a7,7,0,0,0,3,0,2.4,2.4,0,0,0,1.8-2.19c-4.75-1.47-8.41-2.7-13.16-4.16l-6.54.76"/><path class="cls-13" d="M82.07,53.6a70.52,70.52,0,0,1-9,6.86c0-3.41-.8-6.57-1.47-9.9C75.34,50.76,78.67,52.17,82.07,53.6Z"/><path class="cls-13" d="M63.06,65.77a74.49,74.49,0,0,1,10-5.31,22.38,22.38,0,0,1-.16,10C69.23,69.67,66.18,67.74,63.06,65.77Z"/><polyline class="cls-20" points="66.25 102.88 71.25 119.55 77.58 118.88 74.58 125.88 107.97 136.74 119.92 120.21 113.92 116.63 121.58 114.88 109.73 99.34"/><path class="cls-21" d="M371.49,220.06l53.37-19.44a8.89,8.89,0,0,0-2-5.55l-53.37,19.44Z"/><polygon class="cls-21" points="369.46 214.5 363.64 219.84 371.49 220.06 369.46 214.5"/><path class="cls-22" d="M575.55,415.42c-5.09.19-15.73-3.28-15.45-3.12l-7.41,15.81,32.59-.93,5.56.68L578.27,415C577,415.8,577.58,415.34,575.55,415.42Z"/><path class="cls-4" d="M593,413.12c-3.25-2.17-6.23-5.14-8.93-3.93-2.22,1-3.16,4.12-5.19,5.41l-.62.39,12.57,12.87L617,431.07S601.26,418.62,593,413.12Z"/><polygon class="cls-4" points="368.24 416.05 343.96 429.71 387.26 430.14 382.33 419.01 368.29 415.87 368.24 416.05"/><polygon class="cls-22" points="395.11 389.26 375.63 385.19 368.29 415.87 382.33 419.01 381.91 418.06 395.11 389.26"/><path class="cls-21" d="M483.44,303.13c-15.79-8.81-27.47-14.24-43-17.51-15.88-3.34-42.82-12.55-48.91,8.55-2.18,7.55-30.15,85.16-30.15,85.16l42,20.76,26.52-61.85L461,356.61Z"/><path class="cls-22" d="M469.46,256.21l-64.2-40.28c-1.59,2.12-3.66,3.5-5.14,5.78,7.12,6.78,34.62,33.13,49.73,45.29Z"/><path class="cls-22" d="M593.69,273l-.33,50.24s-1.36,9-6,13.71c0,0-3.15,6.7-6,3.13s-7.49-8.84-7.49-8.84l11.71-11.87s-13.21-40.14-16.39-48.17Z"/><path class="cls-22" d="M515.81,202.26s-5.61,2.83-6.23-5.37.48-19.89.48-19.89.81-5.54,7.8-5.16,9.55,2.88,8.66,9.25a84.53,84.53,0,0,1-2.14,10.75l9.89,20-18-2.28Z"/><path class="cls-18" d="M538.5,214.75l59.58,56.89L550.86,300s-44.31-26.09-42.43-51.77"/><path class="cls-17" d="M549.49,338c-2.09-22.2,3.87-46.39,4.47-50.54,3.13-21.45,5.77-37.93-4.75-58.74-9.5-18.79-25.53-21.8-25.53-21.8L441.2,238.51l48.87,38.6s-8.22,25.24-8.39,24.94"/><path class="cls-23" d="M517.47,177.84a21.62,21.62,0,0,0-.13,6.22c.09.69.09,1,.8,1a3,3,0,0,1,.52,0,2.09,2.09,0,0,1,1.66,1.23,3.56,3.56,0,0,1,0,1.94,25.83,25.83,0,0,1-.85,3c1.54.12,4.93.64,4.93.64a11.74,11.74,0,0,1,3.61-5.55,3.75,3.75,0,0,1,1.42-.39,2.5,2.5,0,0,1,1.64.29,19.2,19.2,0,0,0,2.36.66,18.38,18.38,0,0,0,4.85.38c.59,0,1.28-.16,1.53-.7a1.43,1.43,0,0,0,0-1,4.1,4.1,0,0,0-3.63-2.86l6.37-.4a6.24,6.24,0,0,0,1.72-.27,2.13,2.13,0,0,0,1.28-1.12,2.56,2.56,0,0,0-.64-2.44c-1.56-1.93-4.07-2.79-6.48-3.39a15.78,15.78,0,0,1-2.61-.81,5.13,5.13,0,0,1,2.65-1l5.82-1.08a2.82,2.82,0,0,0,2.13-1.1,2.13,2.13,0,0,0,.14-1.39,6.2,6.2,0,0,0-2.42-3.73,13.18,13.18,0,0,0-4.08-2c-.51-.17-1-.32-1.55-.46-.83-.22-1.67-.4-2.51-.56l-1.27-.2c-.41-.06-.83-.07-1.23-.16s-.47-.19-.73-.23-.68-.05-1-.09a12,12,0,0,0-1.36-.22,15.72,15.72,0,0,0-1.68.06,19.55,19.55,0,0,0-6.47,1.66c-.51.23-1,.49-1.49.76a4.65,4.65,0,0,0-1.37.85q1.68-2.33,3.25-4.72a1.3,1.3,0,0,0,.29-1.1c-.17-.44-.74-.54-1.22-.52a8.91,8.91,0,0,0-5.51,2.37,17.89,17.89,0,0,0-3.67,4.86,23.36,23.36,0,0,0-2.24,5.51,15.25,15.25,0,0,0-.44,2.93,8,8,0,0,0,.21,2.81C512.49,177.69,515,177.8,517.47,177.84Z"/><path class="cls-21" d="M481.68,302.05s-42.62,67.07-44.94,97.33l11.68,24.42,104.32,9.6,17.54-37.2L503,381.33l27.46-10.66a26.82,26.82,0,0,0,16.9-21.5l1.5-11.37Z"/><path class="cls-22" d="M516.28,186.07a7.28,7.28,0,0,1,1.29-2.56,2.64,2.64,0,0,1,2.57-.95c1.18.32,1.78,1.63,2,2.84a8.44,8.44,0,0,1-.44,4.87,6.21,6.21,0,0,1-3.44,3.4"/><path class="cls-22" d="M395,201.46l-19.34,8.09.83,3.3,11.87-2.43L385,219.16l8.65,5.26,6.48-2.71s4,2.43,5.62,1.85c4.64-.41.93-6.75.93-6.75Z"/><line class="cls-24" x1="481.68" y1="302.05" x2="453.78" y2="353"/><path class="cls-17" d="M551.39,64.28,497.25,81.44h0l-6,5.08,7.83.56,54.14-17.16A8.88,8.88,0,0,0,551.39,64.28Z"/><path class="cls-5" d="M521.24,80c-2.56.28-7.51,0-10,0a7.34,7.34,0,0,0-3.52.53,1.52,1.52,0,0,0-.7.6,1.3,1.3,0,0,0,.17,1.38,2.54,2.54,0,0,0,1.21.79,10.18,10.18,0,0,0,3.44.39h4.19"/><path class="cls-7" d="M337.47,149.42c-.38-.83-.75-1.61-1.09-2.4a33.16,33.16,0,0,1-2.23-7.62c-.28-1.55-.47-3.13-.61-4.7a11.59,11.59,0,0,1,.2-2.07A149.12,149.12,0,0,0,348.39,140c-1.48.82-2.94,1.67-4.43,2.46a10,10,0,0,0-3.16,2.72C339.71,146.61,338.61,148,337.47,149.42Z"/><path class="cls-13" d="M405.77,90.73c-3.17-.25-6.34-.69-9.52-.71-8.38-.06-16.77.06-25.27.11.16-.28.38-.72.63-1.13q3.13-5,6.28-10.09c3-4.75,6.45-13.76,8.38-21.17,3.78,6.08,7.62,12.13,11.33,18.25,2.77,4.58,5.39,9.25,8.08,13.88Z"/><path class="cls-25" d="M308.8,23.86c0-.86.06-1.69.11-2.5a29,29,0,0,1,1.51-7.42,42.22,42.22,0,0,1,1.65-4.21,9.33,9.33,0,0,1,1.16-1.65A150.2,150.2,0,0,0,323.5,21c-1.78,0-3.55.06-5.32,0a11.07,11.07,0,0,0-4.26.83C312.24,22.54,310.56,23.18,308.8,23.86Z"/><path class="cls-17" d="M478.87,0c.54,2.17,1.08,4.21,1.53,6.27a71.75,71.75,0,0,1,1.41,19.39,112.78,112.78,0,0,1-1.26,11.59,24.44,24.44,0,0,1-1.84,4.89A400.8,400.8,0,0,0,442.8,17.45c4.6-1.29,9.17-2.65,13.78-3.85A30.69,30.69,0,0,0,467,8.52C470.9,5.7,474.8,2.93,478.87,0Z"/></g></g></svg>