<svg xmlns="http://www.w3.org/2000/svg" viewBox="0 0 681.2 343.75"><defs><style>.cls-1{fill:none;stroke:#fff;stroke-miterlimit:10;stroke-width:0.87px;}.cls-2{fill:#2b388f;}.cls-3{fill:#19005a;}.cls-4{fill:#cec9e2;}.cls-5{fill:#fff;}.cls-6{fill:#ffd2b4;}.cls-7{fill:#ff7045;}.cls-8{opacity:0.2;}.cls-9{fill:#fb6649;}.cls-10{fill:#ffa951;}.cls-11{fill:#66271f;}</style></defs><g id="Layer_2" data-name="Layer 2"><g id="contenu"><path class="cls-1" d="M410.86,61.71A86.52,86.52,0,0,1,437.36,59a68.53,68.53,0,0,1,26.88,7.08c7.53,3.84,15.67,9.57,18.43,17.12,1.08,2.94,1.64,6.3,4.11,8.32,3.06,2.52,7.83,2.07,12.09,1.73,15-1.17,33.92-6.66,44.63,2.29,6.22,5.2,10.33,12.27,13.2,19.68,10.83,28,14.57,65-5,91s-64.52,48.63-97.16,54.61c-12.23,2.24-50,21.79-64.46-15.8-21.4-55.69-47-11.63-69.12-8.43-7.12,1-14.36-2.81-19.56-7.19s-7.8-12-4.43-18.24c2.51-4.68,7.79-7.89,10-12.69,4.88-10.7-7.56-19.24-15.09-27.53-11.12-12.24-12.14-31.85-2.43-46.57a23.07,23.07,0,0,1,8.59-8.28c12.71-6.36,28.39,5.89,40.82-1,4.33-2.39,7.1-6.59,10-10.43a130.71,130.71,0,0,1,23.54-23.71A113.71,113.71,0,0,1,387.9,70.76,101.72,101.72,0,0,1,410.86,61.71Z"/><path class="cls-2" d="M356.46,40c-1.75-7-6.94-13.56-11.18-19.29,9.4-5.28,18-14.28,26.68-20.71,1.8,6.33,4.65,15.25,2.33,21.64"/><path class="cls-3" d="M357.08,37.11c3.61-6,4.26-13.06,5-19.72,12.41-2,22.33-11.68,33-17.19-4,19.86-20,29.63-37.68,37.87"/><path class="cls-4" d="M359.87,284.28l-35.12-18.34L188.91,279l-40.61-4.84c4.57,14.8,14.35,21.5,24.42,21.79,14.16.4,163.09,15.6,163.09,15.6Z"/><path class="cls-5" d="M539.77,166.63c28.69,0,50.32-17.86,50.32-50.32H461L447,150.67l7.73,16Z"/><path class="cls-4" d="M414.45,23.76c15.68-1.6,70.27,15.4,73.15,84.82,1.36,32.69,17.13,58.05,52.17,58.05H369c-33.38,0-40.49-35.69-43.78-52.1s12.34-83.61-46.63-90.77"/><path class="cls-5" d="M160.51,276.29l3.65.36A10.94,10.94,0,0,0,160.51,276.29Z"/><path class="cls-5" d="M310.1,168.62C289.82,117.72,329,67.88,353.19,47.79c25.29-21,61.26-24,61.26-24H268.52c-15.78,0-50.8,5.31-83.29,30.73-30.49,23.84-55.61,79.93-40,125.35s39.94,46,43.26,85.61c.55,6.47.2,10.76-.78,13.5,40.43,3.91,112.78,10.76,123.45,10.76,12.79,41.43,66.51,19.39,52.62-29.2S330.37,219.53,310.1,168.62Z"/><path class="cls-5" d="M158.85,306.56l-10.13-.62A30.35,30.35,0,0,0,158.85,306.56Z"/><path class="cls-6" d="M216.61,92.86c-.23-.66-4.09-10.44-4.09-10.44s3.64.48,2.64-3.87-5.27-13.84-5.27-13.84L203,68.86l2,26.5Z"/><path class="cls-6" d="M291.43,150.35a2.76,2.76,0,0,0,3.82-1.34l7.34-16.74q2.57-5.88,5.15-11.75c.77-1.76,1.55-3.52,2.32-5.27a24.76,24.76,0,0,1,1.39-2.41c1.19-2.09,2-4.33,3.53-6.21a15.15,15.15,0,0,1,6-4.46,4.74,4.74,0,0,0,.94-.51c1.67-1.23-.16-1.75-1.29-1.9a15,15,0,0,0-4,.25,2.86,2.86,0,0,1-1.27,0,1,1,0,0,1-.76-.92c0-.21.09-.47-.06-.62a.52.52,0,0,0-.54,0c-4.12,1.54-6.39,5.38-8.85,8.76l-9.78,13.45L284,136.17l-5.41,7.44Z"/><path class="cls-6" d="M134.77,115a5,5,0,0,1,.52-5.8l20.24-22.75c1.8-2,7.5-6.55,6.54-9.55-.4-1.25-1.31-2.3-1.79-3.53a7.41,7.41,0,0,1,.92-6.49c.16-.26.36-.54.8-.41a1,1,0,0,1,.58.52L167,76.19a16.46,16.46,0,0,1,1.58,4.22c.54,3-2,6-3.32,8.5l-4.5,8.44-10.26,19.27-7.27,13.66Z"/><path class="cls-7" d="M268.79,160.58l22.54-35.06s-23.88-22.22-55.39-30.16c-27.55-6.93-62.72-15.32-106.43,8.87l12.88,33.64,34.13-6.44-3.27,20.73,67.2,7.53,2.87-12.64Z"/><path class="cls-2" d="M173.55,152.17s-25.46,76.33-35.42,137.29c1.1,1.1-5.54,20.32-5.54,20.32l31-2.75,38.75-101s60.88,91.28,73.06,107.21c0,0,24.5-12.91,26.71-14,0,0-37.22-66.3-44.42-86.62s-17.24-52.89-17.24-52.89Z"/><path class="cls-6" d="M286.62,306.71l-11.36,6L286.18,332l11.1-4.45C293,320.72,286.62,306.71,286.62,306.71Z"/><path class="cls-3" d="M311.18,341.15s-7.87-7.34-11.41-10.35a15.86,15.86,0,0,1-2.49-3.27L286.18,332l-.83,8.33Z"/><polygon class="cls-6" points="134.12 309.04 128.33 329.1 137 332.39 151.37 307.8 134.12 309.04"/><polygon class="cls-3" points="128.2 329.55 113.78 342.3 134.78 339.81 136.66 332.97 137 332.39 128.33 329.1 128.2 329.55"/><g class="cls-8"><ellipse class="cls-3" cx="209.04" cy="341.15" rx="122.38" ry="2.59"/></g><path class="cls-9" d="M639,34.46c2.4-4.12,2.57-10.44,2.9-15.77,8.11,4.35,17.55,6.56,25.83,10-2,3.88-4.75,9.55-9.24,10.59"/><path class="cls-10" d="M640.76,33.7c5.08,0,8.91-2.46,12.62-4.7,8.28,7.8,18.85,10.69,27.82,15.83-12.1,5.44-26.29-1.63-40.72-10.51"/><path class="cls-5" d="M640.76,33.7c5.08,0,8.91-2.46,12.62-4.7,8.28,7.8,18.85,10.69,27.82,15.83-12.1,5.44-26.29-1.63-40.72-10.51"/><path class="cls-3" d="M435.92,153.33c-4.29-2.12-9-3.18-13.08-5.19A142.9,142.9,0,0,0,408.32,182c13.86-2.23,26.13,8.16,38.32,13.18,1.36-4.79,3.2-9.61,4.88-14.43,1.24-3.57,3.91-9.32,4.1-13.09"/><path class="cls-2" d="M447.73,147.64c4.75,3.79,10.32,5.82,15.46,9.23-2.51,7.34-6.93,14.1-9.6,21.39-1.17,3.21-2.37,6.68-3.25,10-.41,1.52-1.85,7.72-4.13,6.87-1-.38-1.75-1.75-2.64-2.38-1.12-.8-2.44-1.33-3.6-2.08a62.37,62.37,0,0,1-8.45-6.69c-2.55-2.3-5.48-4.83-7.93-7.43-2-2.16-2.74-5.3-4.81-7.37-.63-.64,5.11-10,5.71-11,2.3-4,4.75-8,7.26-11.92,2.16-3.38,4.65-6.48,6.69-9.93,1.84.84,2.38,3.53,3.43,5.12A27.71,27.71,0,0,0,447.73,147.64Z"/><path class="cls-9" d="M448.76,194.61c-4.49-5.16-8.66-13.66-10.93-20.11-1.91-5.45,1.72-8.39,5-12.78,7.42-9.88,14.48-20.34,23.12-29.18-1.93,4-4,8.8-3.39,13.33.43,3.34,2.56,6.39,2.11,9.93"/><path class="cls-9" d="M536.15,37.49c-2.34-1.94-7.61.59-9.45,3.74,5.58,1.56,11.63,2.05,17.13,3.75"/><path class="cls-5" d="M526,62C532.72,55.4,536,46.85,536.9,38c7.15,3.13,15.15,4.66,22.7,6.67,4,1.08,9.91,1.94,13.44,4.35-.71,4.48.13,8.94-.93,13.42-1.22,5.2-4.92,6.84-7.17,11.16"/><path class="cls-2" d="M527.44,63.1c4.65-4.25,13.95-6.17,19.47-8.2,4.23-1.56,5.19.51,8.73,1.8,4.39,1.6,8.75,3.28,13.12,4.92,6.23,2.33,11.72,5.53,18,7.56-4.91,2.29-11.92,2.74-16.9,3.68-2.57.49-5.15,1.65-7.68,2.19-2.83.61-4.36-.92-6.85-2.31a55.81,55.81,0,0,0-15-5.83c-5.28-1.16-9.78-4-15.36-3.81a52.69,52.69,0,0,1,11.42-5.32c2.93-.84,7.68-1.45,10-2.85"/><path class="cls-9" d="M34.52,223.47c-4.16,1.21-9.65,4.59-13.83,4.8-5.24.26-5.23-5.35-7-9.36C9.65,210,3.5,202.29,0,193.16c4.32.79,9.29-2.18,13.24-3.48,5-1.67,10.19-2.52,15.16-4.38,3.88-1.46,7.9-3.32,12-3.88,3.06,4.86,6.85,11.16,8.4,16.7.47,1.7.55,3.69,1.14,5.38,1,2.81,5.77,8.21,5,11.36-.74,2.89-8.46,4.89-11.15,5.81C40.67,221.72,37.59,222.59,34.52,223.47Z"/><path class="cls-2" d="M32.75,224.18c3.86-1.53,7.62-3.39,11.53-4.79,3.19-1.15,8.39-1.06,11-3.16,5.61-4.46,4.44-15.69,5.7-21.93,1-4.72,5-13.91,10.59-15.42-3.29.51-6.31,1.9-9.51,2.94-7.69,2.51-15.25,3.67-22.74,6.91-14.13,6.13-6.45,30.6-16.63,40C24.64,229.19,30.65,225,32.75,224.18Z"/><path class="cls-10" d="M77.07,201.34l2.05-.45c-.49.1-3.65,6.39-4.43,7.29a24.18,24.18,0,0,1-7.17,5.59c-5.36,2.86-11.26,4.29-16.89,6.46-5.26,2-10.62,3.83-15.78,6.1-4.15,1.81-9,1.7-13,3.46,8.82-3.82,12.11-15.18,18.18-22,6.69,1.83,17.56-1.93,24.34-3.43C68.6,203.37,72.85,202.29,77.07,201.34Z"/><path class="cls-2" d="M667.91,136.56a5.28,5.28,0,0,1-1.64-1.86,41.65,41.65,0,0,0-3.87-5.09,30.71,30.71,0,0,0-2.48-2.62,25.64,25.64,0,0,1-3-2.28,7.89,7.89,0,0,0-1.87-1.82c.9.84,2.82-.32,3.76-.69a35.43,35.43,0,0,0,3.57-1.52"/><path class="cls-9" d="M662.16,151.55l-.15.28c-.51-.76-.66-1.65-1.14-2.46-1.73-2.91-3.34-5.88-5-8.81a19,19,0,0,0-2.41-3.18c-.36-.42-1.36-1.22-1.55-1.71-.3-.76.31-1.37.86-2.07.94-1.2,2.15-2,3-3.33a40.15,40.15,0,0,1,3.78-4.53,9.4,9.4,0,0,0,1.72-2.85,23.18,23.18,0,0,1,1.18-2.23,11.69,11.69,0,0,0,.85,1.93c.67,1.47,1.55,2.82,2.16,4.32s.95,3.13,1.6,4.63c.44,1,1.11,1.93,1.46,3a23.52,23.52,0,0,0,.75,2.59c.23.5,1.1,1.28.23,1.57a8.39,8.39,0,0,1-.87,2.74c-.32.68-.88,1-1.18,1.8a30.56,30.56,0,0,1-1.1,3.31,28.53,28.53,0,0,1-2.05,3.86C663.67,151.28,663.05,152.17,662.16,151.55Z"/><path class="cls-2" d="M96.76,49.91c1-2.36,5.87-4.43,7.8-6,4-3.15,8.25-6,12.44-8.9,3.84-2.68,8.25-5,11.62-8,.81,4.72.19,9.31,0,13.91-.06,1.67.07,5.33-1.19,6.58-.4.41-2.38.78-3,1.07-1.19.55-2.43,1.11-3.57,1.74-2.14,1.18-4.46,2.58-6.5,4s-3.82,2.21-5.86,3.41-4.1,2.48-6.15,3.75a24.56,24.56,0,0,0-3.15,2.32c-.59.51-2.4,2-2.57,1.65"/><path class="cls-10" d="M96.65,65.48c-.42-.09-.7-.6-1-.91a21.43,21.43,0,0,0-5.52-4.16,94.27,94.27,0,0,1-8.09-5.35c-1.06-.78-1.88-1.86-3-2.59a3.89,3.89,0,0,0,.82-.75A38.39,38.39,0,0,1,84,49c5.16-3.51,10.12-7.28,15.25-10.81C102.52,35.9,105.47,33,109,31c.53-.29,1.15-.54,1.65-.87s.71-.78,1.15-.94a6.66,6.66,0,0,1,.91,1.35c1,1.41,1.72,2.93,2.56,4.39a37.77,37.77,0,0,0,5.61,7.4c1.25,1.29,2.52,2.51,3.78,3.78.42.41.81,1,1.24,1.39.24.21.56.27.8.49a.43.43,0,0,0-.32-.16"/><path class="cls-10" d="M96.65,65.48c-.42-.09-.7-.6-1-.91a21.43,21.43,0,0,0-5.52-4.16,94.27,94.27,0,0,1-8.09-5.35c-1.06-.78-1.88-1.86-3-2.59a3.89,3.89,0,0,0,.82-.75A38.39,38.39,0,0,1,84,49c5.16-3.51,10.12-7.28,15.25-10.81C102.52,35.9,105.47,33,109,31c.53-.29,1.15-.54,1.65-.87s.71-.78,1.15-.94a6.66,6.66,0,0,1,.91,1.35c1,1.41,1.72,2.93,2.56,4.39a37.77,37.77,0,0,0,5.61,7.4c1.25,1.29,2.52,2.51,3.78,3.78.42.41.81,1,1.24,1.39.24.21.56.27.8.49a.43.43,0,0,0-.32-.16"/><path class="cls-11" d="M204,81.48l4.34-.7.82-5.33,1.29-3.09V68.44l-1.52-1.7,1.63-.58s2.17,0,1.18-3.86-4.16-6.9-10.71-4.51l4.57,5.44s-6.32-2.75-7.31,2.93,1,5.49,3.21,8.18S204,81.48,204,81.48Z"/><path class="cls-6" d="M210.42,70.89c-1.32-2.45-1.46-.23-1.35.76s.74,6.52,1.82,3.8"/></g></g></svg>