<svg xmlns="http://www.w3.org/2000/svg" viewBox="0 0 929.89 652.48"><defs><style>.cls-1{fill:#cec9e2;}.cls-2{fill:#ffa951;}</style></defs><title>illu-wave-laptop</title><g id="Calque_2" data-name="Calque 2"><g id="contenu"><path class="cls-1" d="M815.86,652.48c35.74-44.4,74.62-97,114-152.72V0H744.78c-16.06,31.55,17.83,172.34-71.7,314.63-26.53,42.16-48.08-10.4-78.41,47-36.3,68.65-94.86,84.81-171.79,87.42-135.29,4.57-281.71,47.86-323.26,203.46Z"/><path class="cls-2" d="M929.89,652.48V0H780c1.15,42.08-2.74,258.16-198,335.55-46.31,18.34-107.69,61-138.09,120.26-36.39,70.95-95.1,87.66-172.22,90.35C171.61,549.65,65.52,574.93,0,652.48Z"/></g></g></svg>