<svg xmlns="http://www.w3.org/2000/svg" viewBox="0 0 1281.96 673.1"><defs><style>.cls-1{fill:#cec9e2;}.cls-2{fill:#ffa951;}</style></defs><title>illu-wave-desktop</title><g id="Calque_2" data-name="Calque 2"><g id="contenu"><path class="cls-1" d="M765.35,0c-16.05,31.19,17.84,170.4-71.7,311.08-26.53,41.69-48.08-10.28-78.41,46.45C579,425.4,520.38,441.38,443.45,444,305.62,448.57,156.23,492.89,118,653.9c-.21.9-.42,1.79-.62,2.67-1.33,5.89-2.78,11.37-4.34,16.53H813.14C981.31,476.19,1238.86,58.36,1279.06,0Z"/><path class="cls-2" d="M800.6,0c1.14,41.6-2.74,255.26-198.05,331.77-46.31,18.14-107.69,60.28-138.1,118.91-36.39,70.15-95.1,86.67-172.22,89.33C180.9,543.85,62.05,574.35,0,673.1H1279.56L1282,0Z"/></g></g></svg>