<svg xmlns="http://www.w3.org/2000/svg" viewBox="0 0 322 405.44"><defs><style>.cls-1{fill:#cec9e2;}.cls-2{fill:#ffa951;}</style></defs><title>illu-wave-mobile</title><g id="Calque_2" data-name="Calque 2"><g id="contenu"><path class="cls-1" d="M296,16.77c-30,32.66-7.16,58.89-61.79,142.15C218,183.59,211.05,127.4,192.54,161c-22.14,40.17-57.88,49.63-104.82,51.15C58.27,213.08,28,216.92,0,225.6V347.73H313.3q4.29-4.87,8.7-10.05V0C310.53,5.15,301.54,10.74,296,16.77Z"/><path class="cls-2" d="M184.8,145.73c-28.26,10.73-65.71,35.67-84.27,70.37C79.05,256.27,44.82,266.72,0,268.79V405.44H322V11.19C290.32,55.78,277.53,110.5,184.8,145.73Z"/></g></g></svg>