<svg xmlns="http://www.w3.org/2000/svg" viewBox="0 0 439.28 412.66"><defs><style>.cls-1,.cls-17{fill:#19005a;}.cls-1{opacity:0.2;}.cls-13,.cls-14,.cls-15,.cls-19,.cls-2,.cls-21,.cls-23,.cls-3,.cls-5,.cls-9{fill:none;}.cls-2,.cls-21,.cls-3,.cls-9{stroke:#fff;}.cls-19,.cls-2,.cls-23,.cls-3{stroke-miterlimit:10;}.cls-3{stroke-width:1.65px;stroke-dasharray:14.88;}.cls-4{fill:#fff;}.cls-13,.cls-5{stroke:#edebf2;}.cls-13,.cls-14,.cls-15,.cls-21,.cls-5,.cls-9{stroke-linecap:round;stroke-linejoin:round;}.cls-15,.cls-21,.cls-5{stroke-width:1.6px;}.cls-6{fill:#2d2e83;}.cls-7{fill:#fb6649;}.cls-8{fill:#8f5fa4;}.cls-19,.cls-23,.cls-9{stroke-width:1.6px;}.cls-10{fill:#66271f;}.cls-11{fill:#edebf2;}.cls-12{fill:#cec9e2;}.cls-13,.cls-14{stroke-width:4px;}.cls-14,.cls-15{stroke:#cec9e2;}.cls-16{fill:#e69965;}.cls-18{fill:#fcdc55;}.cls-19{stroke:#c7ae43;}.cls-20{fill:#bab2cd;}.cls-22{fill:#fbbe25;}.cls-23{stroke:#2d2e83;}</style></defs><title>Fichier 2</title><g id="Calque_2" data-name="Calque 2"><g id="contenu"><ellipse class="cls-1" cx="200.39" cy="409.7" rx="82.06" ry="2.96"/><path class="cls-2" d="M47.84,222.1c0-32.32,72.5-58.51,161.93-58.51S371.7,189.78,371.7,222.1"/><path class="cls-3" d="M84.53,279.23c0-25,56.07-45.25,125.24-45.25S335,254.24,335,279.23"/><path class="cls-2" d="M113.55,337.41c0-19.2,43.08-34.77,96.22-34.77S306,318.21,306,337.41"/><path class="cls-4" d="M97.33,7.05c-49,12.67-80.91,33.4-80.91,56.83v92c0-23.43,31.93-44.17,80.91-56.84Z"/><path class="cls-5" d="M83.16,46c-18.49,5.8-37.48,13-52.16,26A50.36,50.36,0,0,0,20.24,84.94"/><path class="cls-5" d="M83.16,56.73c-18.49,5.8-37.48,13-52.16,26A50.36,50.36,0,0,0,20.24,95.63"/><path class="cls-5" d="M83.16,76.18c-18.49,5.8-37.48,13-52.16,26a50.15,50.15,0,0,0-10.76,12.86"/><path class="cls-5" d="M83.16,87c-18.49,5.8-37.48,13-52.16,26a50.36,50.36,0,0,0-10.76,12.87"/><path class="cls-4" d="M276.16,33a508.54,508.54,0,0,0-66.39-4.23c-17.94,0-35.31.89-51.79,2.54v73.53a518.24,518.24,0,0,1,51.79-2.55,510.29,510.29,0,0,1,66.39,4.23Z"/><path class="cls-4" d="M305.56,29.42v73.52c58.28,12,97.56,34.71,97.56,60.7V90.11C403.12,64.12,363.84,41.45,305.56,29.42Z"/><polygon class="cls-6" points="221.04 77.53 227.79 71.87 222.72 67.35 215.36 68.99 217.07 76.11 221.04 77.53"/><ellipse class="cls-7" cx="69.22" cy="20.05" rx="20.52" ry="14.45" transform="translate(29.14 79.94) rotate(-72.36)"/><path class="cls-7" d="M402.73,62.5c-1.37.46-2.65.92-4,1.34a52.65,52.65,0,0,1-12.37,2.25c-2.5.18-5,.22-7.51.16a16.78,16.78,0,0,1-3.23-.68,238.79,238.79,0,0,0,14-22.24c1.07,2.51,2.17,5,3.19,7.53a16.31,16.31,0,0,0,3.8,5.56C398.65,58.4,400.64,60.41,402.73,62.5Z"/><path class="cls-8" d="M363.35,336.22c-1.31-.6-2.56-1.15-3.79-1.74A52,52,0,0,1,349,327.61c-1.93-1.59-3.78-3.28-5.56-5a16.93,16.93,0,0,1-1.89-2.71A237.41,237.41,0,0,0,367,313.3c-.95,2.56-1.85,5.14-2.85,7.67a16.45,16.45,0,0,0-1.06,6.65C363.2,330.44,363.27,333.26,363.35,336.22Z"/><path class="cls-9" d="M422.66,206.69H405.2a2.09,2.09,0,0,0-2.08,2.09v36.31a2.08,2.08,0,0,0,2.08,2.08h25.85a2.09,2.09,0,0,0,2.09-2.08V217.17a2.08,2.08,0,0,0-.61-1.47l-8.4-8.4A2.08,2.08,0,0,0,422.66,206.69Z"/><polyline class="cls-9" points="423.52 206.69 423.52 216.31 433.14 216.31"/><path class="cls-9" d="M438.48,242.55V211.83a2.05,2.05,0,0,0-.62-1.47l-8.39-8.4a2.08,2.08,0,0,0-1.47-.61H407.74"/><polygon class="cls-10" points="176.91 241.35 173.47 278.26 157.98 266.68 173.67 237.35 176.91 241.35"/><ellipse class="cls-11" cx="321.25" cy="52.05" rx="4.15" ry="4.72" transform="translate(4.3 125.89) rotate(-22.32)"/><ellipse class="cls-12" cx="321.25" cy="70.31" rx="4.15" ry="4.72" transform="translate(-2.64 127.26) rotate(-22.32)"/><ellipse class="cls-12" cx="321.25" cy="88.58" rx="4.15" ry="4.72" transform="translate(-9.57 128.63) rotate(-22.32)"/><line class="cls-13" x1="352.39" y1="55.33" x2="352.39" y2="102.1"/><line class="cls-14" x1="367.01" y1="97.39" x2="367.01" y2="109.48"/><line class="cls-13" x1="379.57" y1="90.62" x2="379.57" y2="117.23"/><line class="cls-14" x1="393.72" y1="98.23" x2="393.72" y2="120.72"/><line class="cls-14" x1="340.94" y1="83" x2="340.94" y2="98.23"/><path class="cls-11" d="M374.39,126.76v73.53c18.21-10.66,28.73-23.21,28.73-36.65V90.11C403.12,103.55,392.6,116.11,374.39,126.76Z"/><path class="cls-15" d="M403.12,130.64c0,10.51-6.44,20.48-17.95,29.42"/><path class="cls-15" d="M403.12,146.51c0,10.51-6.44,20.48-17.95,29.42"/><path class="cls-15" d="M403.12,114.85c0,10.51-6.44,20.48-17.95,29.42"/><path class="cls-16" d="M145.5,93.76s-57.13,1.77-61.66-.23L77,84.23S69,83,65.6,87.85c0,0,3.16,5.05,15.49,11.93,0,0,32.22,13.18,65.75,18.38Z"/><polygon class="cls-4" points="185.27 326.08 200.63 331.22 196.5 347.63 183.67 344.68 185.27 326.08"/><polygon class="cls-17" points="183.67 344.68 196.5 347.63 194.7 354.8 193.73 366.05 165.51 380.37 182.97 352.88 183.67 344.68"/><path class="cls-6" d="M239.08,189.81l-31.2,147s-24.8-6-38.56-14.19l15.06-161.24L224.49,168Z"/><path class="cls-6" d="M148.94,170.88l-35,30.64a21.69,21.69,0,0,0,1.43,33.79l57.17,42.06L191.29,259l-30.55-37.6,60.79-35.3-54.86-27.61Z"/><path class="cls-18" d="M204.82,55.83S183,101.19,148.94,170.88c-2.85.68,97.46,20.88,98.21,20.7,0,0,0,0,0,0,.82-10.29,9.89-50.16,9.85-50.47,3.3,5.54,2.71,11.74,5.88,16.41,30.29-1.16,44.51-4.82,43.19-10.82C293,87.11,274.72,63.57,257.93,59.43,240.57,55.15,222.57,53.18,204.82,55.83Z"/><path class="cls-4" d="M224.86,70.31l-2.14-3-4.59,6.24s-49.28,67.08,10.61,137.55l18.18-36.37S204.36,120.84,224.86,70.31Z"/><polygon class="cls-4" points="218.5 68.55 218.09 74.43 222.15 76.58 229.19 72.11 224.5 67.49 218.5 68.55"/><path class="cls-16" d="M247.45,26.05c4-11.32-7.61-17-13-4.63,0,0-3.89,7.29-3.53,7.45-2.5,6.18-3.15,10.7,3.73,11.83-1,2.43-9.12,20.91-9.75,22.88,8.11.14,13-1.07,16.63-4.7C241.23,50,244.5,34.38,247.45,26.05Z"/><path class="cls-4" d="M231.86,35s1,2.08,2.81,2.29,3.11-.83,4.05-2.91Z"/><path class="cls-16" d="M74.48,85.72s-5-5.84-6.66-10.13a.59.59,0,0,1,.94-.65A74,74,0,0,1,78.9,86.68C86.08,96.59,74.48,85.72,74.48,85.72Z"/><polygon class="cls-16" points="230.56 126.98 225.65 115.69 222.6 114.22 221.95 121.86 230.56 126.98"/><rect class="cls-17" x="202.46" y="100.35" width="21.54" height="35.61" rx="3.6" transform="matrix(0.94, 0.35, -0.35, 0.94, 54.94, -67.24)"/><path class="cls-16" d="M289.79,151.29c-19.7-8.63-41.53-12.41-58.93-25.37-2.94-2.19-2.2-5-6.16-6.13a50.76,50.76,0,0,1-9.77-4.35,2,2,0,0,0-2.84,1.13L211,120a5.42,5.42,0,0,0,2.15,6.14c1.28.85,2.72,1.78,3.93,2.48,3,1.71,6.63,3.23,10.72,6.11,12.74,9,29.54,22.34,36.25,26.69C273.63,167.74,283.94,158.61,289.79,151.29Z"/><path class="cls-18" d="M205.45,56.38a6.35,6.35,0,0,0-.39-.68c-20.21,3.19-34.7,21-80.88,35.85l22.21,44.31,33.45-9.18s18.81-37.41,24.73-56.53C206.88,64.67,207.45,59.89,205.45,56.38Z"/><line class="cls-19" x1="137.72" y1="87.42" x2="158.82" y2="132.66"/><path class="cls-19" d="M220.38,54.57s-12.07,9.13-17.92,17.3l22-4.38,9.65,10a63.37,63.37,0,0,0,12.79-20.61"/><path class="cls-10" d="M231.92,6.1c2-1.5,3.46-.37,6.11,1.67.4-2.55-.33-6.65,2.44-6.83,3.61-.23,8.05,3.11,8.12,7.57.08,5.38,5.71,5,3.22,11.15-1.09,3-3.4,4-3.95,6.93-3,3.23,0-9.21-4.35-10.87-6.5-3.1-10.36,11.39-10.92,8.38.91-3.47-1.93-5.1.56-9C235.49,11.44,229.43,8,231.92,6.1Z"/><ellipse class="cls-16" cx="246.93" cy="29.32" rx="4.27" ry="2.63" transform="translate(108.25 235.72) rotate(-62.87)"/><path class="cls-11" d="M331.89,136c-33.3,9.82-75.8,15.71-122.12,15.71H208v89.71h1.77c46.32,0,88.82-5.89,122.12-15.7Z"/><path class="cls-20" d="M263.32,184.78c19.41-2,37.56-4.31,53.94-8.28a1.89,1.89,0,0,0,1.24-1.8v-.57a1.63,1.63,0,0,0-2-1.59,385.25,385.25,0,0,1-53.5,7.92,1.63,1.63,0,0,0-1.49,1.62v1.07A1.64,1.64,0,0,0,263.32,184.78Z"/><path class="cls-4" d="M263.32,206.48c19.41-2,37.56-4.31,53.94-8.27a1.91,1.91,0,0,0,1.24-1.81v-.57a1.63,1.63,0,0,0-2-1.59,385.25,385.25,0,0,1-53.5,7.92,1.64,1.64,0,0,0-1.49,1.63v1.06A1.64,1.64,0,0,0,263.32,206.48Z"/><path class="cls-20" d="M263,167.41a1.62,1.62,0,0,0-1.5,1.62v1.06a1.64,1.64,0,0,0,1.81,1.63q7.32-.76,14.4-1.6a1.74,1.74,0,0,0,1.53-1.73v-.68a1.73,1.73,0,0,0-1.93-1.72Q270.29,166.79,263,167.41Z"/><path class="cls-4" d="M316.51,159.49c-8.66,2-17.83,3.63-27.41,5a1.38,1.38,0,0,0-1.18,1.36v1.38a1.38,1.38,0,0,0,1.57,1.36c9.63-1.36,18.85-3,27.56-5.08a2,2,0,0,0,1.45-1.86v-.57A1.62,1.62,0,0,0,316.51,159.49Z"/><ellipse class="cls-4" cx="237.03" cy="184.79" rx="15.46" ry="16.98"/><path class="cls-20" d="M231.33,179.25h0c0,3.46,2.52,6.22,5.54,6.05l.89-.06c2.79-.17,5-2.83,5-6h0c0-3.44-2.49-6.18-5.49-6l-.85,0C233.57,173.33,231.33,176,231.33,179.25Z"/><path class="cls-20" d="M236.81,187.75h-.16a7.85,7.85,0,0,0-7.55,7.85v3.74a14.17,14.17,0,0,0,15.87,0v-3.75A7.84,7.84,0,0,0,236.81,187.75Z"/><path class="cls-20" d="M263.32,219.21c19.41-2,37.56-4.31,53.94-8.28a1.89,1.89,0,0,0,1.24-1.8v-.57a1.63,1.63,0,0,0-2-1.59,385.25,385.25,0,0,1-53.5,7.92,1.63,1.63,0,0,0-1.49,1.62v1.07A1.64,1.64,0,0,0,263.32,219.21Z"/><path class="cls-11" d="M117.49,125.29C57.29,113.45,16.42,90.39,16.42,63.88v92c0,26.51,40.87,49.57,101.07,61.4Z"/><path class="cls-21" d="M27.69,110.3C21.43,104,16.43,95.89,16.42,86.75"/><path class="cls-21" d="M89,141.3C70.74,136,52.15,129.12,36.64,117.88"/><path class="cls-15" d="M68.52,149.29c-21-8.52-50.16-21.15-52.1-47.71"/><path class="cls-21" d="M19.46,143.65a28,28,0,0,1-3-12.4"/><path class="cls-15" d="M79.12,183.15C60.35,177.47,42.59,168.22,28,155.07"/><path class="cls-15" d="M34.93,146.28c-9.41-7.18-18.51-17.34-18.51-29.87"/><path class="cls-21" d="M89,171c-14.91-4.31-29.71-9.74-43.19-17.51"/><path class="cls-22" d="M38.79,198.33c.56-.49.91-1,1.38-1.18q12.75-5.24,25.54-10.39c1.22-.49,2.52-.77,4.1-1.25-2.68,9.77-2.72,19.49-3.37,29.55-1.6-.56-3-.94-4.37-1.56a98.33,98.33,0,0,1-18.46-11.44C42.09,200.87,40.55,199.69,38.79,198.33Z"/><path class="cls-2" d="M371.7,222.1c0,32.31-72.5,58.51-161.93,58.51S47.84,254.41,47.84,222.1"/><path class="cls-3" d="M335,279.23c0,25-56.07,45.25-125.24,45.25S84.53,304.22,84.53,279.23"/><path class="cls-2" d="M306,337.41c0,19.2-43.08,34.77-96.22,34.77s-96.22-15.57-96.22-34.77"/><path class="cls-7" d="M102.27,303.68c-.36-.89-.72-1.73-1-2.58a36,36,0,0,1-2-8.16c-.22-1.66-.35-3.33-.42-5a12.13,12.13,0,0,1,.3-2.18,160.74,160.74,0,0,0,15.15,8.51c-1.6.8-3.18,1.63-4.79,2.4A10.54,10.54,0,0,0,106,299.4Z"/><path class="cls-4" d="M71.59,25.5a4.9,4.9,0,0,1-4.55-2c-2.47-3.15-2.38-8.8.2-12.6a6.81,6.81,0,0,1,4.63-3.19,4.89,4.89,0,0,1,4.54,2,9.55,9.55,0,0,1,1.8,6.06,12,12,0,0,1-2,6.55A6.89,6.89,0,0,1,71.59,25.5Zm.23-15a4.65,4.65,0,0,0-3.14,2.17c-1.75,2.57-1.81,6.41-.13,8.55a3.31,3.31,0,0,0,3.08,1.38,4.65,4.65,0,0,0,3.15-2.17h0A8.15,8.15,0,0,0,76.13,16a6.51,6.51,0,0,0-1.22-4.12A3.33,3.33,0,0,0,71.82,10.54Z"/><polygon class="cls-4" points="62.8 31.69 61.36 29.86 67.08 21.45 68.52 23.29 62.8 31.69"/><path class="cls-20" d="M131.72,13.54a1.84,1.84,0,0,1,1.84,1.84v7.08a1.85,1.85,0,0,1-1.84,1.84h-7.08a1.84,1.84,0,0,1-1.84-1.84V15.38a1.84,1.84,0,0,1,1.84-1.84h7.08m0-1.6h-7.08a3.44,3.44,0,0,0-3.44,3.44v7.08a3.44,3.44,0,0,0,3.44,3.44h7.08a3.44,3.44,0,0,0,3.44-3.44V15.38a3.44,3.44,0,0,0-3.44-3.44Z"/><polyline class="cls-23" points="124.77 15.8 128.38 21.62 135.88 9.98"/><path class="cls-20" d="M131.72,38a1.84,1.84,0,0,1,1.84,1.83v7.09a1.85,1.85,0,0,1-1.84,1.84h-7.08a1.84,1.84,0,0,1-1.84-1.84V39.8A1.83,1.83,0,0,1,124.64,38h7.08m0-1.6h-7.08a3.44,3.44,0,0,0-3.44,3.43v7.09a3.44,3.44,0,0,0,3.44,3.44h7.08a3.44,3.44,0,0,0,3.44-3.44V39.8a3.44,3.44,0,0,0-3.44-3.43Z"/><polyline class="cls-23" points="124.77 40.23 128.38 46.05 135.88 34.41"/><rect class="cls-9" x="377.83" y="256.97" width="13.96" height="13.96" rx="3.44"/><polyline class="cls-23" points="381.4 260.83 385.01 266.66 392.51 255.01"/><circle class="cls-6" cx="3.47" cy="224.19" r="3.47"/><line class="cls-15" x1="10.83" y1="224.19" x2="29.58" y2="224.19"/><circle class="cls-7" cx="3.47" cy="234.81" r="3.47"/><line class="cls-15" x1="10.83" y1="234.81" x2="19.86" y2="234.81"/><circle class="cls-6" cx="3.47" cy="245.44" r="3.47"/><line class="cls-15" x1="10.83" y1="245.44" x2="39.29" y2="245.44"/><circle class="cls-6" cx="3.47" cy="256.07" r="3.47"/><line class="cls-15" x1="10.83" y1="256.07" x2="29.58" y2="256.07"/></g></g></svg>