<svg xmlns="http://www.w3.org/2000/svg" viewBox="0 0 770.94 705.69"><defs><style>.cls-1{fill:#cec9e2;}.cls-2{fill:#ffa951;}</style></defs><title>illu-wave-tablet</title><g id="Calque_2" data-name="Calque 2"><g id="contenu"><path class="cls-1" d="M657.23,75.8C606.13,131,645,175.32,552,316c-27.57,41.69-39.43-53.25-70.95,3.47-37.71,67.88-98.56,83.86-178.5,86.43C187.36,409.61,64.4,439,0,534.19V635H686.7c26.33-29.67,54.78-64.37,84.24-102.1V23.55C718.35,38.11,676.08,55.45,657.23,75.8Z"/><path class="cls-2" d="M759.42,7.25c-110.52,79-88.6,210-291.54,286.46C419.76,311.85,356,354,324.38,412.62,286.57,482.78,225.57,499.3,145.43,502c-48.76,1.62-98.9,8-145.43,22.17V705.69H770.94V0A123.44,123.44,0,0,0,759.42,7.25Z"/></g></g></svg>