<svg xmlns="http://www.w3.org/2000/svg" viewBox="0 0 312.51 279.14"><defs><style>.cls-1,.cls-7,.cls-9{fill:none;stroke-miterlimit:10;}.cls-1{stroke:#19005a;stroke-width:1.63px;opacity:0.15;}.cls-2{fill:#ff6b90;}.cls-3{fill:#fff;}.cls-4{fill:#fcdc55;}.cls-5{fill:#2d2e83;}.cls-6{fill:#ff7045;}.cls-7,.cls-9{stroke:#fff;}.cls-7{stroke-width:3px;}.cls-8{fill:#ffa951;}.cls-9{stroke-width:4px;}.cls-10{fill:#8f5fa4;}</style></defs><title>npo-detail-illu-big</title><g id="Calque_2" data-name="Calque 2"><g id="contenu"><path class="cls-1" d="M48.33,29.61c-1.65.42-3.28.87-4.91,1.34C40,31.94,36.56,33,33.16,34.1a31.21,31.21,0,0,0-4,1.91A67.86,67.86,0,0,0,12.22,46.9C-2.61,60.62-2.9,81.53,10.87,95.83S51,117,74.31,112.91a83.57,83.57,0,0,0,15.83-4.47c3-1.17,6.84-1.67,9.52-3.21,2.84-1.63,5-4.14,7-6.33a51.67,51.67,0,0,0,5.5-7.39,46.22,46.22,0,0,0,6.21-16.19,42.23,42.23,0,0,0-7.77-32.54A38.15,38.15,0,0,0,98.64,31.89c-9.39-5.34-22.17-6.62-33.94-5.36A113.17,113.17,0,0,0,48.33,29.61Z"/><path class="cls-1" d="M241.7,3.11c-2-.32-3.95-.6-5.91-.86-4.19-.55-8.39-1-12.57-1.38a33.83,33.83,0,0,0-5.34.26,78.3,78.3,0,0,0-24,4.61,49.41,49.41,0,0,0-30,58.37C170,88.33,193.58,110,220.3,116.77a87.28,87.28,0,0,0,19.15,2.61c3.83.1,8.13,1.44,11.83.93,3.92-.53,7.65-2.47,11-4.13a69.39,69.39,0,0,0,10.06-6.13,67.8,67.8,0,0,0,15.93-16.42,63.34,63.34,0,0,0,10.85-43.19A47.41,47.41,0,0,0,293,31.28c-6.71-11.19-19.33-19.19-32.38-23.62A115.91,115.91,0,0,0,241.7,3.11Z"/><path class="cls-1" d="M183.46,213.5c1.1-1.3,2.16-2.61,3.21-3.93,2.23-2.81,4.38-5.66,6.5-8.53a28.67,28.67,0,0,0,2.15-3.95A66.41,66.41,0,0,0,202.58,178c3.84-20.47-8.57-39.2-28.51-44.2s-45.74,3.63-62.32,20.26a78.29,78.29,0,0,0-10.27,12.81c-1.75,2.72-4.59,5.3-5.85,8.17-1.34,3-1.59,6.47-1.87,9.5a55.34,55.34,0,0,0,0,9.63A52.37,52.37,0,0,0,98.45,212a48.31,48.31,0,0,0,26.06,24.55,39.18,39.18,0,0,0,16.35,3c10.92-.5,22.17-6.51,31.06-14.2A105.12,105.12,0,0,0,183.46,213.5Z"/><path class="cls-2" d="M183.38,168c5.2,0,11.1.05,14.86-3.29a12.94,12.94,0,0,0,2.8-4.07l0-.09a59.18,59.18,0,0,0,3.36-8.22c.44-1.36.82-2.73,1.15-4.09a65.23,65.23,0,0,0,1.33-11.53,10.82,10.82,0,0,0-3.43-8.84,24,24,0,0,0-7.26-4.44c-11.31-4.75-24.4-4.6-37.23-4.17a23.17,23.17,0,0,0-7.4,1.06,12.14,12.14,0,0,0-4.61,3.26,17.51,17.51,0,0,0-4.56,12.86l.34,4.49c.23,3.07.28,15.15,2.39,19.25a13.81,13.81,0,0,0,10.28,6.93C159.07,167.57,180.17,168,183.38,168Z"/><path class="cls-3" d="M169.75,133.05a9,9,0,0,1,4.56-1.13,9.93,9.93,0,0,1,4.27.87,6.76,6.76,0,0,1,2.86,2.38,6.09,6.09,0,0,1,1,3.44,6.77,6.77,0,0,1-1,3.79,10.41,10.41,0,0,1-2.73,2.68,16.32,16.32,0,0,0-2.68,2.21,3.33,3.33,0,0,0-.8,2.29v1h-2.91v-1.33a5.24,5.24,0,0,1,.53-2.42,5.55,5.55,0,0,1,1.3-1.68q.78-.66,2.22-1.65a7.89,7.89,0,0,0,2.1-2,4.55,4.55,0,0,0,.7-2.53,3.73,3.73,0,0,0-1.35-3,5.77,5.77,0,0,0-7.45.43,5.91,5.91,0,0,0-1.49,4.2h-3.18a9.43,9.43,0,0,1,1-4.41A7.67,7.67,0,0,1,169.75,133.05Zm4.1,21.56a2.14,2.14,0,0,1,1.55.59,2.22,2.22,0,0,1,0,3.06,2.33,2.33,0,0,1-3.1,0,2.25,2.25,0,0,1,0-3.06A2.15,2.15,0,0,1,173.85,154.61Z"/><polyline class="cls-2" points="165.74 161.91 178.5 183.8 180.04 163.13"/><path class="cls-4" d="M90.39,124.66c4,0,8,.08,11.94.1,6.41,0,14,1,18.7-3.06a15.9,15.9,0,0,0,3.5-5l0-.1a72.83,72.83,0,0,0,4.22-10.1q.84-2.51,1.47-5A79.66,79.66,0,0,0,132,87.3a13.27,13.27,0,0,0-4.13-10.92,29.58,29.58,0,0,0-8.9-5.56c-13.88-6-30-5.93-45.83-5.54-3.1.08-6.34.18-9.13,1.22a15,15,0,0,0-5.71,4,21.54,21.54,0,0,0-5.77,15.79l.38,5.54c.25,3.79.18,18.67,2.74,23.74s8.94,7.15,12.59,8.66a6.06,6.06,0,0,0,3.91.57c.67-.07,1.29-.33,2-.4a50.12,50.12,0,0,1,5.75.1l8.5.15Z"/><path class="cls-3" d="M86.53,81.25a10.88,10.88,0,0,1,5.62-1.4,12.32,12.32,0,0,1,5.26,1.07,8.22,8.22,0,0,1,3.52,2.94,7.43,7.43,0,0,1,1.24,4.24A8.23,8.23,0,0,1,101,92.76a12.57,12.57,0,0,1-3.35,3.31,20.32,20.32,0,0,0-3.31,2.73,4.08,4.08,0,0,0-1,2.82v1.21H89.72V101.2a6.5,6.5,0,0,1,.65-3A6.91,6.91,0,0,1,92,96.14a33.42,33.42,0,0,1,2.73-2,9.91,9.91,0,0,0,2.59-2.52,5.57,5.57,0,0,0,.86-3.12,4.59,4.59,0,0,0-1.66-3.66,7.13,7.13,0,0,0-9.18.54,7.22,7.22,0,0,0-1.84,5.17H81.56a11.45,11.45,0,0,1,1.29-5.43A9.38,9.38,0,0,1,86.53,81.25Zm5.06,26.56a2.66,2.66,0,0,1,1.91.73,2.77,2.77,0,0,1,0,3.77,2.88,2.88,0,0,1-3.83,0,2.77,2.77,0,0,1,0-3.77A2.67,2.67,0,0,1,91.59,107.81Z"/><polyline class="cls-4" points="62.72 114.2 78.2 141.33 80.32 115.86"/><path class="cls-5" d="M178.61,71.93q-6.27-.51-12.44-1.07c-6.67-.6-14.69-.3-19.15-5a16.62,16.62,0,0,1-3.16-5.53l0-.11a76.81,76.81,0,0,1-3.4-10.93q-.63-2.68-1-5.37A83.25,83.25,0,0,1,138.94,29a13.89,13.89,0,0,1,5.36-11,30.83,30.83,0,0,1,9.81-4.9c15-4.86,31.8-3.24,48.22-1.28,3.23.38,6.58.81,9.39,2.16a15.68,15.68,0,0,1,5.55,4.69,22.5,22.5,0,0,1,4.45,17l-.93,5.73c-.64,3.92-2,19.41-5.17,24.44s-10,6.55-14,7.76a6.23,6.23,0,0,1-4.12.22c-.69-.14-1.31-.47-2-.61a52.16,52.16,0,0,0-6-.46c-3-.21-5.93-.44-8.86-.68Z"/><path class="cls-3" d="M175.76,25.56a11.49,11.49,0,0,1,5.87-1.46,12.89,12.89,0,0,1,5.5,1.12,8.76,8.76,0,0,1,3.68,3.07,7.86,7.86,0,0,1,1.29,4.43,8.59,8.59,0,0,1-1.27,4.88,13.22,13.22,0,0,1-3.5,3.45,21,21,0,0,0-3.46,2.85,4.29,4.29,0,0,0-1,3v1.27h-3.75V46.41a6.65,6.65,0,0,1,.69-3.12,7,7,0,0,1,1.68-2.16A31.92,31.92,0,0,1,184.31,39a10.28,10.28,0,0,0,2.7-2.63,5.81,5.81,0,0,0,.9-3.27,4.82,4.82,0,0,0-1.73-3.82,7.43,7.43,0,0,0-9.59.56,7.55,7.55,0,0,0-1.93,5.41h-4.09a12.11,12.11,0,0,1,1.34-5.68A9.87,9.87,0,0,1,175.76,25.56ZM181,53.33a2.77,2.77,0,0,1,2,.75,2.65,2.65,0,0,1,.78,2,2.61,2.61,0,0,1-.78,2,2.77,2.77,0,0,1-2,.75,2.73,2.73,0,0,1-2-.75,2.61,2.61,0,0,1-.78-2,2.65,2.65,0,0,1,.78-2A2.73,2.73,0,0,1,181,53.33Z"/><polyline class="cls-5" points="208.42 63.76 189.66 90.47 189.94 63.76"/><path class="cls-6" d="M271.13,124.25c4.34-.35,8.66-.72,12.93-1.11,6.94-.62,15.28-.31,19.92-5.2a17.38,17.38,0,0,0,3.28-5.75l.05-.11a81.07,81.07,0,0,0,3.53-11.36c.44-1.87.79-3.73,1.08-5.59a87.17,87.17,0,0,0,.46-15.53,14.45,14.45,0,0,0-5.58-11.41,32.13,32.13,0,0,0-10.2-5.1C281,58,263.53,59.72,246.45,61.76c-3.35.4-6.84.84-9.76,2.25a16.08,16.08,0,0,0-5.77,4.88,23.44,23.44,0,0,0-4.64,17.68l1,6c.67,4.07,2.1,20.18,5.39,25.41s10.4,6.82,14.51,8.08a6.6,6.6,0,0,0,4.29.23c.71-.15,1.35-.5,2.07-.64a56.79,56.79,0,0,1,6.23-.48c3.1-.22,6.17-.46,9.22-.7Z"/><polyline class="cls-6" points="237.39 113.94 256.91 141.71 256.61 113.94"/><line class="cls-7" x1="249.84" y1="81.37" x2="288.68" y2="81.37"/><line class="cls-7" x1="249.84" y1="92.74" x2="274.47" y2="92.74"/><line class="cls-7" x1="249.84" y1="104.11" x2="283.95" y2="104.11"/><path class="cls-8" d="M54.2,240.74c-5.33-9-3.51-28-3.3-36.72.24-10.47,1.83-17.73,4.17-20.76,2.11-2.72,4.29-6.9,12.31-8a243.11,243.11,0,0,1,35.3-1.6c14.06.56,36.87,3.88,41.12,4.78,17,3.62,15,18.86,14.45,24.31-.78,7.46-8.25,40.85-11.57,46.29-6,9.78-10.07,10.13-23,9-12.5-1.08-41-3.11-46.57-3.48C68.27,254,60.77,251.77,54.2,240.74Z"/><line class="cls-9" x1="77.53" y1="201.9" x2="133.02" y2="201.9"/><line class="cls-9" x1="77.53" y1="216.04" x2="112.71" y2="216.04"/><line class="cls-9" x1="77.53" y1="230.18" x2="126.25" y2="230.18"/><polyline class="cls-8" points="106.79 241.06 129.94 279.14 132.18 246.79"/><path class="cls-10" d="M7,50.22c-4-6.5-2.72-20.78-2.6-27.12.13-7.46,1.22-12.6,2.84-14.76C8.65,6.4,10.13,3.5,15.61,2.57A161.16,161.16,0,0,1,39,.69,229.82,229.82,0,0,1,64.91,2.84c10.41,1.9,10.21,11.72,10.21,15.3,0,5-2.5,28.26-4.27,32.34-3.26,7.5-5.91,8-14.56,8.11s-28.46.58-32.46.7C17.43,59.48,11.89,58.29,7,50.22Z"/><line class="cls-7" x1="23.9" y1="18.39" x2="57.54" y2="18.39"/><line class="cls-7" x1="23.9" y1="28.23" x2="45.23" y2="28.23"/><line class="cls-7" x1="23.9" y1="38.08" x2="53.44" y2="38.08"/><polyline class="cls-10" points="17.3 48.16 33.41 74.68 34.97 52.15"/></g></g></svg>