<svg xmlns="http://www.w3.org/2000/svg" viewBox="0 0 387.79 258.01"><defs><style>.cls-1,.cls-5,.cls-8{fill:none;stroke-miterlimit:10;}.cls-1{stroke:#19005a;stroke-width:1.63px;opacity:0.15;}.cls-2{fill:#2d2e83;}.cls-3{fill:#fff;}.cls-4{fill:#ff7045;}.cls-5,.cls-8{stroke:#fff;}.cls-5{stroke-width:3px;}.cls-6{fill:#ff6b90;}.cls-7{fill:#ffa951;}.cls-8{stroke-width:4px;}.cls-9{fill:#fcdc55;}.cls-10{fill:#8f5fa4;}</style></defs><title>npo-detail--illu-small</title><g id="Calque_2" data-name="Calque 2"><g id="contenu"><path class="cls-1" d="M317,3.11c-2-.32-4-.6-5.91-.86-4.19-.55-8.39-1-12.57-1.38a33.83,33.83,0,0,0-5.34.26,78.3,78.3,0,0,0-24,4.61,49.41,49.41,0,0,0-29.95,58.37c6.07,24.22,29.67,45.86,56.39,52.66a87.28,87.28,0,0,0,19.15,2.61c3.83.1,8.13,1.44,11.83.93,3.92-.53,7.65-2.47,11-4.13a69.39,69.39,0,0,0,10.06-6.13,67.8,67.8,0,0,0,15.93-16.42,63.34,63.34,0,0,0,10.85-43.19,47.41,47.41,0,0,0-6.09-19.16c-6.71-11.19-19.33-19.19-32.38-23.62A115.91,115.91,0,0,0,317,3.11Z"/><path class="cls-2" d="M253.89,71.93q-6.27-.51-12.44-1.07c-6.67-.6-14.69-.3-19.15-5a16.62,16.62,0,0,1-3.16-5.53l0-.11a76.81,76.81,0,0,1-3.4-10.93q-.63-2.68-1-5.37A83.25,83.25,0,0,1,214.22,29a13.89,13.89,0,0,1,5.36-11,30.83,30.83,0,0,1,9.81-4.9c15-4.86,31.8-3.24,48.22-1.28,3.23.38,6.58.81,9.39,2.16a15.68,15.68,0,0,1,5.55,4.69,22.5,22.5,0,0,1,4.45,17l-.93,5.73c-.64,3.92-2,19.41-5.18,24.44s-10,6.55-13.95,7.76a6.23,6.23,0,0,1-4.12.22c-.69-.14-1.31-.47-2-.61a52.16,52.16,0,0,0-6-.46c-3-.21-5.93-.44-8.86-.68Z"/><path class="cls-3" d="M251,25.56a11.49,11.49,0,0,1,5.87-1.46,12.89,12.89,0,0,1,5.5,1.12,8.76,8.76,0,0,1,3.68,3.07,7.86,7.86,0,0,1,1.29,4.43,8.59,8.59,0,0,1-1.27,4.88,13.22,13.22,0,0,1-3.5,3.45,21,21,0,0,0-3.46,2.85,4.29,4.29,0,0,0-1,3v1.27h-3.75V46.41a6.65,6.65,0,0,1,.69-3.12,7,7,0,0,1,1.68-2.16A31.92,31.92,0,0,1,259.59,39a10.28,10.28,0,0,0,2.7-2.63,5.81,5.81,0,0,0,.9-3.27,4.82,4.82,0,0,0-1.73-3.82,7.43,7.43,0,0,0-9.59.56,7.55,7.55,0,0,0-1.93,5.41h-4.09a12.11,12.11,0,0,1,1.34-5.68A9.87,9.87,0,0,1,251,25.56Zm5.28,27.77a2.77,2.77,0,0,1,2,.75,2.65,2.65,0,0,1,.78,2,2.61,2.61,0,0,1-.78,2,2.77,2.77,0,0,1-2,.75,2.73,2.73,0,0,1-2-.75,2.61,2.61,0,0,1-.78-2,2.65,2.65,0,0,1,.78-2A2.73,2.73,0,0,1,256.32,53.33Z"/><polyline class="cls-2" points="283.7 63.76 264.93 90.47 265.22 63.76"/><path class="cls-4" d="M346.41,124.25c4.34-.35,8.66-.72,12.93-1.11,6.94-.62,15.28-.31,19.92-5.2a17.38,17.38,0,0,0,3.28-5.75l0-.11a81.07,81.07,0,0,0,3.53-11.36q.64-2.81,1.08-5.59a87.17,87.17,0,0,0,.46-15.53,14.45,14.45,0,0,0-5.58-11.41,32.13,32.13,0,0,0-10.2-5.1c-15.63-5.05-33.07-3.37-50.15-1.33-3.35.4-6.84.84-9.76,2.25a16.08,16.08,0,0,0-5.77,4.88,23.44,23.44,0,0,0-4.64,17.68l1,6c.67,4.07,2.1,20.18,5.39,25.41s10.4,6.82,14.51,8.08a6.6,6.6,0,0,0,4.29.23c.71-.15,1.35-.5,2.07-.64a56.79,56.79,0,0,1,6.23-.48c3.1-.22,6.17-.46,9.22-.7Z"/><polyline class="cls-4" points="312.67 113.94 332.19 141.71 331.89 113.94"/><line class="cls-5" x1="325.12" y1="81.37" x2="363.96" y2="81.37"/><line class="cls-5" x1="325.12" y1="92.74" x2="349.75" y2="92.74"/><line class="cls-5" x1="325.12" y1="104.11" x2="359.23" y2="104.11"/><path class="cls-1" d="M224.7,192.37q1.63-2,3.2-3.93c2.23-2.81,4.39-5.67,6.51-8.53a30.43,30.43,0,0,0,2.15-4,66.44,66.44,0,0,0,7.25-19.1c3.85-20.48-8.57-39.2-28.51-44.21s-45.74,3.63-62.31,20.27a76.84,76.84,0,0,0-10.27,12.81c-1.75,2.72-4.59,5.3-5.86,8.16-1.34,3-1.59,6.47-1.86,9.51a56.35,56.35,0,0,0,0,9.63,52.26,52.26,0,0,0,4.72,17.85,48.31,48.31,0,0,0,26.06,24.55,39.21,39.21,0,0,0,16.35,3c10.93-.51,22.17-6.51,31.06-14.2A106.94,106.94,0,0,0,224.7,192.37Z"/><path class="cls-6" d="M224.61,146.87c5.2,0,11.1,0,14.86-3.29a13,13,0,0,0,2.81-4.07l0-.08a60.49,60.49,0,0,0,3.35-8.23c.44-1.36.82-2.72,1.15-4.09a64.31,64.31,0,0,0,1.33-11.52,10.76,10.76,0,0,0-3.42-8.84,24.14,24.14,0,0,0-7.27-4.44c-11.31-4.75-24.39-4.61-37.23-4.17a23.17,23.17,0,0,0-7.4,1,12.1,12.1,0,0,0-4.6,3.26,17.49,17.49,0,0,0-4.57,12.86l.34,4.5c.24,3.07.28,15.15,2.4,19.24A13.77,13.77,0,0,0,196.68,146C200.3,146.43,221.41,146.89,224.61,146.87Z"/><path class="cls-3" d="M211,111.92a8.87,8.87,0,0,1,4.56-1.14,9.93,9.93,0,0,1,4.27.87,6.83,6.83,0,0,1,2.86,2.38,6.09,6.09,0,0,1,1,3.45,6.64,6.64,0,0,1-1,3.78A10.39,10.39,0,0,1,220,124a16.49,16.49,0,0,0-2.69,2.21,3.29,3.29,0,0,0-.79,2.29v1h-2.92v-1.32a5.28,5.28,0,0,1,.53-2.43,5.57,5.57,0,0,1,1.31-1.68,26.54,26.54,0,0,1,2.21-1.64,8.06,8.06,0,0,0,2.1-2,4.45,4.45,0,0,0,.7-2.53,3.75,3.75,0,0,0-1.34-3,5.79,5.79,0,0,0-7.45.44,5.83,5.83,0,0,0-1.5,4.19H207a9.36,9.36,0,0,1,1-4.4A7.62,7.62,0,0,1,211,111.92Zm4.11,21.56a2.14,2.14,0,0,1,1.55.58,2.26,2.26,0,0,1,0,3.07,2.36,2.36,0,0,1-3.1,0,2.24,2.24,0,0,1,0-3.07A2.13,2.13,0,0,1,215.09,133.48Z"/><polyline class="cls-6" points="206.98 140.77 219.74 162.67 221.28 141.99"/><path class="cls-7" d="M95.44,219.61c-5.34-9-3.51-28-3.31-36.73.25-10.47,1.83-17.73,4.17-20.75,2.12-2.73,4.3-6.91,12.31-8a240.44,240.44,0,0,1,35.31-1.6c14.05.55,36.86,3.87,41.12,4.78,17,3.62,15,18.85,14.45,24.3-.79,7.47-8.25,40.85-11.58,46.29-6,9.79-10.06,10.13-23,9-12.49-1.08-41-3.11-46.57-3.48C109.5,232.87,102,230.63,95.44,219.61Z"/><line class="cls-8" x1="118.76" y1="180.76" x2="174.25" y2="180.76"/><line class="cls-8" x1="118.76" y1="194.9" x2="153.95" y2="194.9"/><line class="cls-8" x1="118.76" y1="209.05" x2="167.48" y2="209.05"/><polyline class="cls-7" points="148.03 219.93 171.17 258.01 173.41 225.65"/><path class="cls-1" d="M48.33,29.86c-1.65.42-3.28.87-4.91,1.34-3.45,1-6.86,2.06-10.26,3.15a31.21,31.21,0,0,0-4,1.91,67.86,67.86,0,0,0-16.9,10.89C-2.61,60.88-2.9,81.78,10.87,96.08S51,117.26,74.31,113.16a83.57,83.57,0,0,0,15.83-4.47c3-1.17,6.84-1.67,9.52-3.21,2.84-1.63,5-4.14,7-6.33a52.15,52.15,0,0,0,5.5-7.38,46.34,46.34,0,0,0,6.21-16.2A42.23,42.23,0,0,0,110.55,43,38.15,38.15,0,0,0,98.64,32.14c-9.39-5.34-22.17-6.62-33.94-5.36A113.17,113.17,0,0,0,48.33,29.86Z"/><path class="cls-9" d="M90.39,124.91c4,0,8,.08,11.94.1,6.41,0,14,1,18.7-3.06a15.79,15.79,0,0,0,3.5-5l0-.1a72.33,72.33,0,0,0,4.22-10.1q.84-2.51,1.47-5A79.66,79.66,0,0,0,132,87.56a13.28,13.28,0,0,0-4.13-10.93,29.36,29.36,0,0,0-8.9-5.55c-13.88-6-30-5.94-45.83-5.55-3.1.08-6.34.18-9.13,1.22a15,15,0,0,0-5.71,4,21.54,21.54,0,0,0-5.77,15.79l.38,5.54c.25,3.79.18,18.67,2.74,23.74s8.94,7.15,12.59,8.66a6.06,6.06,0,0,0,3.91.57c.67-.07,1.29-.33,2-.4a50.12,50.12,0,0,1,5.75.1l8.5.15Z"/><path class="cls-3" d="M86.53,81.5a11,11,0,0,1,5.62-1.4,12.32,12.32,0,0,1,5.26,1.07,8.29,8.29,0,0,1,3.52,2.94,7.43,7.43,0,0,1,1.24,4.24A8.23,8.23,0,0,1,101,93a12.42,12.42,0,0,1-3.35,3.31,20.32,20.32,0,0,0-3.31,2.73,4.08,4.08,0,0,0-1,2.82v1.21H89.72v-1.63a6.5,6.5,0,0,1,.65-3A6.91,6.91,0,0,1,92,96.39c.64-.54,1.55-1.22,2.73-2a10,10,0,0,0,2.59-2.51,5.62,5.62,0,0,0,.86-3.13,4.59,4.59,0,0,0-1.66-3.66,7.13,7.13,0,0,0-9.18.54,7.22,7.22,0,0,0-1.84,5.17H81.56a11.45,11.45,0,0,1,1.29-5.43A9.38,9.38,0,0,1,86.53,81.5Zm5.06,26.57a2.65,2.65,0,0,1,1.91.72,2.77,2.77,0,0,1,0,3.77,2.88,2.88,0,0,1-3.83,0,2.77,2.77,0,0,1,0-3.77A2.66,2.66,0,0,1,91.59,108.07Z"/><polyline class="cls-9" points="62.72 114.45 78.2 141.58 80.32 116.11"/><path class="cls-10" d="M7,50.47C3,44,4.23,29.69,4.35,23.35c.13-7.46,1.22-12.6,2.84-14.76,1.46-1.94,2.94-4.84,8.42-5.77A161.16,161.16,0,0,1,39,.94,229.82,229.82,0,0,1,64.91,3.09C75.32,5,75.12,14.82,75.12,18.39c0,5-2.5,28.26-4.27,32.34-3.26,7.5-5.91,8-14.56,8.11s-28.46.58-32.46.7C17.43,59.73,11.89,58.54,7,50.47Z"/><line class="cls-5" x1="23.9" y1="18.64" x2="57.54" y2="18.64"/><line class="cls-5" x1="23.9" y1="28.49" x2="45.23" y2="28.49"/><line class="cls-5" x1="23.9" y1="38.33" x2="53.44" y2="38.33"/><polyline class="cls-10" points="17.3 48.42 33.41 74.93 34.97 52.4"/></g></g></svg>